G04 #@! TF.GenerationSoftware,KiCad,Pcbnew,7.0.2*
G04 #@! TF.CreationDate,2024-03-01T18:45:41+01:00*
G04 #@! TF.ProjectId,stm_audio_board_V3,73746d5f-6175-4646-996f-5f626f617264,rev?*
G04 #@! TF.SameCoordinates,Original*
G04 #@! TF.FileFunction,Profile,NP*
%FSLAX46Y46*%
G04 Gerber Fmt 4.6, Leading zero omitted, Abs format (unit mm)*
G04 Created by KiCad (PCBNEW 7.0.2) date 2024-03-01 18:45:41*
%MOMM*%
%LPD*%
G01*
G04 APERTURE LIST*
%ADD10C,0.150000*%
G04 #@! TA.AperFunction,Profile*
%ADD11C,0.100000*%
G04 #@! TD*
G04 APERTURE END LIST*
D10*
X54817189Y-66545293D02*
X54815949Y-66735765D01*
X54815949Y-66735765D02*
X54862947Y-66831311D01*
X54862947Y-66831311D02*
X54910256Y-66879239D01*
X54910256Y-66879239D02*
X55052490Y-66975405D01*
X55052490Y-66975405D02*
X55242652Y-67024262D01*
X55242652Y-67024262D02*
X55623596Y-67026742D01*
X55623596Y-67026742D02*
X55719142Y-66979743D01*
X55719142Y-66979743D02*
X55767070Y-66932435D01*
X55767070Y-66932435D02*
X55815308Y-66837509D01*
X55815308Y-66837509D02*
X55816548Y-66647037D01*
X55816548Y-66647037D02*
X55769550Y-66551491D01*
X55769550Y-66551491D02*
X55722242Y-66503563D01*
X55722242Y-66503563D02*
X55627315Y-66455325D01*
X55627315Y-66455325D02*
X55389225Y-66453776D01*
X55389225Y-66453776D02*
X55293679Y-66500774D01*
X55293679Y-66500774D02*
X55245751Y-66548082D01*
X55245751Y-66548082D02*
X55197513Y-66643008D01*
X55197513Y-66643008D02*
X55196274Y-66833480D01*
X55196274Y-66833480D02*
X55243272Y-66929026D01*
X55243272Y-66929026D02*
X55290580Y-66976954D01*
X55290580Y-66976954D02*
X55385506Y-67025192D01*
X54915524Y-66069732D02*
X54868216Y-66021804D01*
X54868216Y-66021804D02*
X54821218Y-65926258D01*
X54821218Y-65926258D02*
X54822767Y-65688168D01*
X54822767Y-65688168D02*
X54871005Y-65593242D01*
X54871005Y-65593242D02*
X54918933Y-65545934D01*
X54918933Y-65545934D02*
X55014479Y-65498935D01*
X55014479Y-65498935D02*
X55109715Y-65499555D01*
X55109715Y-65499555D02*
X55252260Y-65548103D01*
X55252260Y-65548103D02*
X55819957Y-66123239D01*
X55819957Y-66123239D02*
X55823986Y-65504204D01*
X55731539Y-65075022D02*
X55779467Y-65027714D01*
X55779467Y-65027714D02*
X55826775Y-65075642D01*
X55826775Y-65075642D02*
X55778847Y-65122950D01*
X55778847Y-65122950D02*
X55731539Y-65075022D01*
X55731539Y-65075022D02*
X55826775Y-65075642D01*
X55830184Y-64551844D02*
X55831424Y-64361372D01*
X55831424Y-64361372D02*
X55784426Y-64265826D01*
X55784426Y-64265826D02*
X55737118Y-64217898D01*
X55737118Y-64217898D02*
X55594883Y-64121732D01*
X55594883Y-64121732D02*
X55404721Y-64072874D01*
X55404721Y-64072874D02*
X55023777Y-64070395D01*
X55023777Y-64070395D02*
X54928231Y-64117393D01*
X54928231Y-64117393D02*
X54880303Y-64164701D01*
X54880303Y-64164701D02*
X54832065Y-64259627D01*
X54832065Y-64259627D02*
X54830825Y-64450099D01*
X54830825Y-64450099D02*
X54877824Y-64545645D01*
X54877824Y-64545645D02*
X54925132Y-64593573D01*
X54925132Y-64593573D02*
X55020058Y-64641811D01*
X55020058Y-64641811D02*
X55258148Y-64643361D01*
X55258148Y-64643361D02*
X55353694Y-64596363D01*
X55353694Y-64596363D02*
X55401622Y-64549054D01*
X55401622Y-64549054D02*
X55449860Y-64454128D01*
X55449860Y-64454128D02*
X55451100Y-64263656D01*
X55451100Y-64263656D02*
X55404101Y-64168110D01*
X55404101Y-64168110D02*
X55356793Y-64120182D01*
X55356793Y-64120182D02*
X55261867Y-64071944D01*
X55836383Y-63599483D02*
X55837622Y-63409011D01*
X55837622Y-63409011D02*
X55790624Y-63313465D01*
X55790624Y-63313465D02*
X55743316Y-63265537D01*
X55743316Y-63265537D02*
X55601082Y-63169371D01*
X55601082Y-63169371D02*
X55410920Y-63120513D01*
X55410920Y-63120513D02*
X55029975Y-63118034D01*
X55029975Y-63118034D02*
X54934429Y-63165032D01*
X54934429Y-63165032D02*
X54886501Y-63212340D01*
X54886501Y-63212340D02*
X54838263Y-63307266D01*
X54838263Y-63307266D02*
X54837024Y-63497738D01*
X54837024Y-63497738D02*
X54884022Y-63593284D01*
X54884022Y-63593284D02*
X54931330Y-63641212D01*
X54931330Y-63641212D02*
X55026256Y-63689450D01*
X55026256Y-63689450D02*
X55264346Y-63691000D01*
X55264346Y-63691000D02*
X55359892Y-63644002D01*
X55359892Y-63644002D02*
X55407820Y-63596694D01*
X55407820Y-63596694D02*
X55456058Y-63501767D01*
X55456058Y-63501767D02*
X55457298Y-63311295D01*
X55457298Y-63311295D02*
X55410300Y-63215749D01*
X55410300Y-63215749D02*
X55362992Y-63167821D01*
X55362992Y-63167821D02*
X55268065Y-63119583D01*
X54845082Y-62259669D02*
X54843842Y-62450142D01*
X54843842Y-62450142D02*
X54890840Y-62545688D01*
X54890840Y-62545688D02*
X54938148Y-62593616D01*
X54938148Y-62593616D02*
X55080383Y-62689781D01*
X55080383Y-62689781D02*
X55270545Y-62738639D01*
X55270545Y-62738639D02*
X55651489Y-62741118D01*
X55651489Y-62741118D02*
X55747035Y-62694120D01*
X55747035Y-62694120D02*
X55794963Y-62646812D01*
X55794963Y-62646812D02*
X55843201Y-62551886D01*
X55843201Y-62551886D02*
X55844441Y-62361414D01*
X55844441Y-62361414D02*
X55797442Y-62265868D01*
X55797442Y-62265868D02*
X55750134Y-62217940D01*
X55750134Y-62217940D02*
X55655208Y-62169702D01*
X55655208Y-62169702D02*
X55417118Y-62168152D01*
X55417118Y-62168152D02*
X55321572Y-62215151D01*
X55321572Y-62215151D02*
X55273644Y-62262459D01*
X55273644Y-62262459D02*
X55225406Y-62357385D01*
X55225406Y-62357385D02*
X55224166Y-62547857D01*
X55224166Y-62547857D02*
X55271165Y-62643403D01*
X55271165Y-62643403D02*
X55318473Y-62691331D01*
X55318473Y-62691331D02*
X55413399Y-62739569D01*
X54847871Y-61831107D02*
X54851900Y-61212073D01*
X54851900Y-61212073D02*
X55230675Y-61547878D01*
X55230675Y-61547878D02*
X55231605Y-61405024D01*
X55231605Y-61405024D02*
X55279842Y-61310098D01*
X55279842Y-61310098D02*
X55327770Y-61262790D01*
X55327770Y-61262790D02*
X55423316Y-61215792D01*
X55423316Y-61215792D02*
X55661407Y-61217341D01*
X55661407Y-61217341D02*
X55756333Y-61265579D01*
X55756333Y-61265579D02*
X55803641Y-61313507D01*
X55803641Y-61313507D02*
X55850639Y-61409053D01*
X55850639Y-61409053D02*
X55848780Y-61694761D01*
X55848780Y-61694761D02*
X55800542Y-61789687D01*
X55800542Y-61789687D02*
X55752614Y-61836995D01*
X55859627Y-60028130D02*
X55192974Y-60023791D01*
X55288210Y-60024411D02*
X55240902Y-59976483D01*
X55240902Y-59976483D02*
X55193904Y-59880937D01*
X55193904Y-59880937D02*
X55194834Y-59738082D01*
X55194834Y-59738082D02*
X55243072Y-59643156D01*
X55243072Y-59643156D02*
X55338618Y-59596158D01*
X55338618Y-59596158D02*
X55862416Y-59599567D01*
X55338618Y-59596158D02*
X55243691Y-59547920D01*
X55243691Y-59547920D02*
X55196693Y-59452374D01*
X55196693Y-59452374D02*
X55197623Y-59309520D01*
X55197623Y-59309520D02*
X55245861Y-59214594D01*
X55245861Y-59214594D02*
X55341407Y-59167596D01*
X55341407Y-59167596D02*
X55865205Y-59171005D01*
X55868304Y-58694825D02*
X55201652Y-58690486D01*
X55296888Y-58691106D02*
X55249580Y-58643178D01*
X55249580Y-58643178D02*
X55202582Y-58547632D01*
X55202582Y-58547632D02*
X55203511Y-58404778D01*
X55203511Y-58404778D02*
X55251749Y-58309852D01*
X55251749Y-58309852D02*
X55347295Y-58262853D01*
X55347295Y-58262853D02*
X55871094Y-58266262D01*
X55347295Y-58262853D02*
X55252369Y-58214615D01*
X55252369Y-58214615D02*
X55205371Y-58119069D01*
X55205371Y-58119069D02*
X55206301Y-57976215D01*
X55206301Y-57976215D02*
X55254539Y-57881289D01*
X55254539Y-57881289D02*
X55350085Y-57834291D01*
X55350085Y-57834291D02*
X55873883Y-57837700D01*
D11*
X69910011Y-31001746D02*
X56150090Y-30912190D01*
X69500011Y-93996746D02*
X55740090Y-93907190D01*
X56736498Y-30916007D02*
X56326498Y-93911007D01*
X56736498Y-30916007D02*
X56326498Y-93911007D01*
X56736498Y-30916007D02*
X57315575Y-32046304D01*
X56736498Y-30916007D02*
X56142758Y-32038670D01*
X56326498Y-93911007D02*
X55747421Y-92780710D01*
X56326498Y-93911007D02*
X56920238Y-92788344D01*
X270000000Y-148000000D02*
X69000000Y-148000000D01*
X69000000Y-94000000D01*
X69000000Y-31000000D01*
X269000000Y-31000000D01*
X270000000Y-148000000D01*
M02*
