G04 #@! TF.GenerationSoftware,KiCad,Pcbnew,7.0.2*
G04 #@! TF.CreationDate,2024-03-06T23:49:30+01:00*
G04 #@! TF.ProjectId,stm_audio_board_V3,73746d5f-6175-4646-996f-5f626f617264,rev?*
G04 #@! TF.SameCoordinates,Original*
G04 #@! TF.FileFunction,Copper,L1,Top*
G04 #@! TF.FilePolarity,Positive*
%FSLAX46Y46*%
G04 Gerber Fmt 4.6, Leading zero omitted, Abs format (unit mm)*
G04 Created by KiCad (PCBNEW 7.0.2) date 2024-03-06 23:49:30*
%MOMM*%
%LPD*%
G01*
G04 APERTURE LIST*
G04 Aperture macros list*
%AMRoundRect*
0 Rectangle with rounded corners*
0 $1 Rounding radius*
0 $2 $3 $4 $5 $6 $7 $8 $9 X,Y pos of 4 corners*
0 Add a 4 corners polygon primitive as box body*
4,1,4,$2,$3,$4,$5,$6,$7,$8,$9,$2,$3,0*
0 Add four circle primitives for the rounded corners*
1,1,$1+$1,$2,$3*
1,1,$1+$1,$4,$5*
1,1,$1+$1,$6,$7*
1,1,$1+$1,$8,$9*
0 Add four rect primitives between the rounded corners*
20,1,$1+$1,$2,$3,$4,$5,0*
20,1,$1+$1,$4,$5,$6,$7,0*
20,1,$1+$1,$6,$7,$8,$9,0*
20,1,$1+$1,$8,$9,$2,$3,0*%
G04 Aperture macros list end*
G04 #@! TA.AperFunction,SMDPad,CuDef*
%ADD10RoundRect,0.225000X-0.225000X-0.250000X0.225000X-0.250000X0.225000X0.250000X-0.225000X0.250000X0*%
G04 #@! TD*
G04 #@! TA.AperFunction,SMDPad,CuDef*
%ADD11RoundRect,0.225000X-0.250000X0.225000X-0.250000X-0.225000X0.250000X-0.225000X0.250000X0.225000X0*%
G04 #@! TD*
G04 #@! TA.AperFunction,ComponentPad*
%ADD12C,1.800000*%
G04 #@! TD*
G04 #@! TA.AperFunction,ComponentPad*
%ADD13R,1.800000X1.800000*%
G04 #@! TD*
G04 #@! TA.AperFunction,ComponentPad*
%ADD14RoundRect,0.500000X1.000000X-0.500000X1.000000X0.500000X-1.000000X0.500000X-1.000000X-0.500000X0*%
G04 #@! TD*
G04 #@! TA.AperFunction,SMDPad,CuDef*
%ADD15RoundRect,0.150000X-0.625000X-0.150000X0.625000X-0.150000X0.625000X0.150000X-0.625000X0.150000X0*%
G04 #@! TD*
G04 #@! TA.AperFunction,SMDPad,CuDef*
%ADD16RoundRect,0.200000X-0.200000X-0.275000X0.200000X-0.275000X0.200000X0.275000X-0.200000X0.275000X0*%
G04 #@! TD*
G04 #@! TA.AperFunction,SMDPad,CuDef*
%ADD17RoundRect,0.150000X-0.150000X0.625000X-0.150000X-0.625000X0.150000X-0.625000X0.150000X0.625000X0*%
G04 #@! TD*
G04 #@! TA.AperFunction,SMDPad,CuDef*
%ADD18RoundRect,0.200000X0.275000X-0.200000X0.275000X0.200000X-0.275000X0.200000X-0.275000X-0.200000X0*%
G04 #@! TD*
G04 #@! TA.AperFunction,ComponentPad*
%ADD19C,3.000000*%
G04 #@! TD*
G04 #@! TA.AperFunction,SMDPad,CuDef*
%ADD20RoundRect,0.250000X-0.337500X-0.475000X0.337500X-0.475000X0.337500X0.475000X-0.337500X0.475000X0*%
G04 #@! TD*
G04 #@! TA.AperFunction,SMDPad,CuDef*
%ADD21RoundRect,0.200000X0.200000X0.275000X-0.200000X0.275000X-0.200000X-0.275000X0.200000X-0.275000X0*%
G04 #@! TD*
G04 #@! TA.AperFunction,ComponentPad*
%ADD22R,1.600000X1.600000*%
G04 #@! TD*
G04 #@! TA.AperFunction,ComponentPad*
%ADD23C,1.600000*%
G04 #@! TD*
G04 #@! TA.AperFunction,SMDPad,CuDef*
%ADD24RoundRect,0.200000X-0.275000X0.200000X-0.275000X-0.200000X0.275000X-0.200000X0.275000X0.200000X0*%
G04 #@! TD*
G04 #@! TA.AperFunction,SMDPad,CuDef*
%ADD25R,0.400000X1.500000*%
G04 #@! TD*
G04 #@! TA.AperFunction,ComponentPad*
%ADD26C,5.600000*%
G04 #@! TD*
G04 #@! TA.AperFunction,SMDPad,CuDef*
%ADD27RoundRect,0.225000X0.225000X0.250000X-0.225000X0.250000X-0.225000X-0.250000X0.225000X-0.250000X0*%
G04 #@! TD*
G04 #@! TA.AperFunction,SMDPad,CuDef*
%ADD28R,2.100000X1.725000*%
G04 #@! TD*
G04 #@! TA.AperFunction,SMDPad,CuDef*
%ADD29RoundRect,0.225000X0.250000X-0.225000X0.250000X0.225000X-0.250000X0.225000X-0.250000X-0.225000X0*%
G04 #@! TD*
G04 #@! TA.AperFunction,SMDPad,CuDef*
%ADD30RoundRect,0.250001X-0.624999X0.462499X-0.624999X-0.462499X0.624999X-0.462499X0.624999X0.462499X0*%
G04 #@! TD*
G04 #@! TA.AperFunction,ComponentPad*
%ADD31R,2.000000X1.905000*%
G04 #@! TD*
G04 #@! TA.AperFunction,ComponentPad*
%ADD32O,2.000000X1.905000*%
G04 #@! TD*
G04 #@! TA.AperFunction,ComponentPad*
%ADD33R,1.500000X1.050000*%
G04 #@! TD*
G04 #@! TA.AperFunction,ComponentPad*
%ADD34O,1.500000X1.050000*%
G04 #@! TD*
G04 #@! TA.AperFunction,SMDPad,CuDef*
%ADD35RoundRect,0.250000X0.337500X0.475000X-0.337500X0.475000X-0.337500X-0.475000X0.337500X-0.475000X0*%
G04 #@! TD*
G04 #@! TA.AperFunction,ComponentPad*
%ADD36R,1.700000X1.700000*%
G04 #@! TD*
G04 #@! TA.AperFunction,ComponentPad*
%ADD37O,1.700000X1.700000*%
G04 #@! TD*
G04 #@! TA.AperFunction,SMDPad,CuDef*
%ADD38RoundRect,0.250000X-0.350000X-0.450000X0.350000X-0.450000X0.350000X0.450000X-0.350000X0.450000X0*%
G04 #@! TD*
G04 #@! TA.AperFunction,SMDPad,CuDef*
%ADD39RoundRect,0.237500X0.250000X0.237500X-0.250000X0.237500X-0.250000X-0.237500X0.250000X-0.237500X0*%
G04 #@! TD*
G04 #@! TA.AperFunction,ComponentPad*
%ADD40O,3.500000X2.000000*%
G04 #@! TD*
G04 #@! TA.AperFunction,ComponentPad*
%ADD41O,2.000000X3.300000*%
G04 #@! TD*
G04 #@! TA.AperFunction,ComponentPad*
%ADD42R,2.000000X4.000000*%
G04 #@! TD*
G04 #@! TA.AperFunction,SMDPad,CuDef*
%ADD43RoundRect,0.237500X-0.250000X-0.237500X0.250000X-0.237500X0.250000X0.237500X-0.250000X0.237500X0*%
G04 #@! TD*
G04 #@! TA.AperFunction,SMDPad,CuDef*
%ADD44RoundRect,0.250000X0.475000X-0.337500X0.475000X0.337500X-0.475000X0.337500X-0.475000X-0.337500X0*%
G04 #@! TD*
G04 #@! TA.AperFunction,ComponentPad*
%ADD45R,1.524000X1.524000*%
G04 #@! TD*
G04 #@! TA.AperFunction,ComponentPad*
%ADD46C,1.524000*%
G04 #@! TD*
G04 #@! TA.AperFunction,ComponentPad*
%ADD47C,3.500000*%
G04 #@! TD*
G04 #@! TA.AperFunction,SMDPad,CuDef*
%ADD48RoundRect,0.150000X-0.150000X0.825000X-0.150000X-0.825000X0.150000X-0.825000X0.150000X0.825000X0*%
G04 #@! TD*
G04 #@! TA.AperFunction,SMDPad,CuDef*
%ADD49RoundRect,0.250000X-0.875000X-1.025000X0.875000X-1.025000X0.875000X1.025000X-0.875000X1.025000X0*%
G04 #@! TD*
G04 #@! TA.AperFunction,SMDPad,CuDef*
%ADD50R,1.600000X1.400000*%
G04 #@! TD*
G04 #@! TA.AperFunction,SMDPad,CuDef*
%ADD51RoundRect,0.075000X-0.075000X-0.700000X0.075000X-0.700000X0.075000X0.700000X-0.075000X0.700000X0*%
G04 #@! TD*
G04 #@! TA.AperFunction,SMDPad,CuDef*
%ADD52RoundRect,0.075000X-0.700000X-0.075000X0.700000X-0.075000X0.700000X0.075000X-0.700000X0.075000X0*%
G04 #@! TD*
G04 #@! TA.AperFunction,SMDPad,CuDef*
%ADD53RoundRect,0.075000X-0.662500X-0.075000X0.662500X-0.075000X0.662500X0.075000X-0.662500X0.075000X0*%
G04 #@! TD*
G04 #@! TA.AperFunction,SMDPad,CuDef*
%ADD54RoundRect,0.075000X-0.075000X-0.662500X0.075000X-0.662500X0.075000X0.662500X-0.075000X0.662500X0*%
G04 #@! TD*
G04 #@! TA.AperFunction,SMDPad,CuDef*
%ADD55RoundRect,0.250000X-0.875000X-0.925000X0.875000X-0.925000X0.875000X0.925000X-0.875000X0.925000X0*%
G04 #@! TD*
G04 #@! TA.AperFunction,SMDPad,CuDef*
%ADD56RoundRect,0.250000X1.025000X-0.875000X1.025000X0.875000X-1.025000X0.875000X-1.025000X-0.875000X0*%
G04 #@! TD*
G04 #@! TA.AperFunction,SMDPad,CuDef*
%ADD57RoundRect,0.237500X0.237500X-0.250000X0.237500X0.250000X-0.237500X0.250000X-0.237500X-0.250000X0*%
G04 #@! TD*
G04 #@! TA.AperFunction,SMDPad,CuDef*
%ADD58R,1.500000X2.000000*%
G04 #@! TD*
G04 #@! TA.AperFunction,SMDPad,CuDef*
%ADD59R,3.800000X2.000000*%
G04 #@! TD*
G04 #@! TA.AperFunction,SMDPad,CuDef*
%ADD60R,2.000000X1.500000*%
G04 #@! TD*
G04 #@! TA.AperFunction,SMDPad,CuDef*
%ADD61R,2.000000X3.800000*%
G04 #@! TD*
G04 #@! TA.AperFunction,SMDPad,CuDef*
%ADD62RoundRect,0.237500X-0.287500X-0.237500X0.287500X-0.237500X0.287500X0.237500X-0.287500X0.237500X0*%
G04 #@! TD*
G04 #@! TA.AperFunction,ViaPad*
%ADD63C,0.800000*%
G04 #@! TD*
G04 #@! TA.AperFunction,Conductor*
%ADD64C,0.250000*%
G04 #@! TD*
G04 #@! TA.AperFunction,Conductor*
%ADD65C,0.200000*%
G04 #@! TD*
G04 APERTURE END LIST*
D10*
X225980000Y-86655000D03*
X224430000Y-86655000D03*
X205580000Y-70755000D03*
X204030000Y-70755000D03*
X112430000Y-68305000D03*
X113980000Y-68305000D03*
D11*
X257915000Y-69730000D03*
X257915000Y-71280000D03*
D10*
X210730000Y-55375000D03*
X212280000Y-55375000D03*
X161255000Y-55290000D03*
X162805000Y-55290000D03*
X111830000Y-55655000D03*
X113380000Y-55655000D03*
D12*
X192625000Y-137025000D03*
X190125000Y-137025000D03*
D13*
X187625000Y-137025000D03*
D14*
X194875000Y-129525000D03*
X185375000Y-129525000D03*
D12*
X174050000Y-136825000D03*
X171550000Y-136825000D03*
D13*
X169050000Y-136825000D03*
D14*
X176300000Y-129325000D03*
X166800000Y-129325000D03*
D12*
X155475000Y-136825000D03*
X152975000Y-136825000D03*
D13*
X150475000Y-136825000D03*
D14*
X157725000Y-129325000D03*
X148225000Y-129325000D03*
D12*
X192625000Y-114595000D03*
X190125000Y-114595000D03*
D13*
X187625000Y-114595000D03*
D14*
X194875000Y-107095000D03*
X185375000Y-107095000D03*
D12*
X174050000Y-114595000D03*
X171550000Y-114595000D03*
D13*
X169050000Y-114595000D03*
D14*
X176300000Y-107095000D03*
X166800000Y-107095000D03*
D12*
X155475000Y-114295000D03*
X152975000Y-114295000D03*
D13*
X150475000Y-114295000D03*
D14*
X157725000Y-106795000D03*
X148225000Y-106795000D03*
D10*
X79900000Y-129865000D03*
X81450000Y-129865000D03*
D15*
X204250000Y-57700000D03*
X204250000Y-58970000D03*
X204250000Y-60240000D03*
X204250000Y-61510000D03*
X209600000Y-61510000D03*
X209600000Y-60240000D03*
X209600000Y-58970000D03*
X209600000Y-57700000D03*
D10*
X114600000Y-72125000D03*
X113050000Y-72125000D03*
D16*
X195200000Y-70375000D03*
X196850000Y-70375000D03*
D11*
X213075000Y-61800000D03*
X213075000Y-63350000D03*
D17*
X256770000Y-62530000D03*
X255500000Y-62530000D03*
X254230000Y-62530000D03*
X252960000Y-62530000D03*
X252960000Y-67880000D03*
X254230000Y-67880000D03*
X255500000Y-67880000D03*
X256770000Y-67880000D03*
D18*
X99075000Y-72200000D03*
X99075000Y-70550000D03*
D16*
X96000000Y-72175000D03*
X97650000Y-72175000D03*
D10*
X111400000Y-124415000D03*
X112950000Y-124415000D03*
D19*
X238625000Y-46705000D03*
X222395000Y-46705000D03*
X238625000Y-34005000D03*
X222395000Y-34005000D03*
X238625000Y-40355000D03*
X222395000Y-40355000D03*
D20*
X250349500Y-121563862D03*
X252424500Y-121563862D03*
D21*
X117700000Y-75375000D03*
X119350000Y-75375000D03*
D19*
X189150000Y-46094426D03*
X172920000Y-46094426D03*
X189150000Y-33394426D03*
X172920000Y-33394426D03*
X189150000Y-39744426D03*
X172920000Y-39744426D03*
D21*
X152000000Y-61575000D03*
X150350000Y-61575000D03*
D22*
X246267000Y-110988621D03*
D23*
X246267000Y-112988621D03*
D24*
X212975000Y-58400000D03*
X212975000Y-60050000D03*
D11*
X229285000Y-92400000D03*
X229285000Y-93950000D03*
D25*
X212185000Y-141585000D03*
X212985000Y-141585000D03*
X213785000Y-141585000D03*
X214585000Y-141585000D03*
X215385000Y-141585000D03*
X216185000Y-141585000D03*
X216985000Y-141585000D03*
X217785000Y-141585000D03*
X218585000Y-141585000D03*
X219385000Y-141585000D03*
X220185000Y-141585000D03*
X220985000Y-141585000D03*
X221785000Y-141585000D03*
X222585000Y-141585000D03*
X223385000Y-141585000D03*
X224185000Y-141585000D03*
X224985000Y-141585000D03*
X225785000Y-141585000D03*
X226585000Y-141585000D03*
X227385000Y-141585000D03*
X228185000Y-141585000D03*
X228985000Y-141585000D03*
X229785000Y-141585000D03*
X230585000Y-141585000D03*
X231385000Y-141585000D03*
X231385000Y-130085000D03*
X230585000Y-130085000D03*
X229785000Y-130085000D03*
X228985000Y-130085000D03*
X228185000Y-130085000D03*
X227385000Y-130085000D03*
X226585000Y-130085000D03*
X225785000Y-130085000D03*
X224985000Y-130085000D03*
X224185000Y-130085000D03*
X223385000Y-130085000D03*
X222585000Y-130085000D03*
X221785000Y-130085000D03*
X220985000Y-130085000D03*
X220185000Y-130085000D03*
X219385000Y-130085000D03*
X218585000Y-130085000D03*
X217785000Y-130085000D03*
X216985000Y-130085000D03*
X216185000Y-130085000D03*
X215385000Y-130085000D03*
X214585000Y-130085000D03*
X213785000Y-130085000D03*
X212985000Y-130085000D03*
X212185000Y-130085000D03*
D26*
X82075000Y-113375000D03*
D21*
X202450000Y-61825000D03*
X200800000Y-61825000D03*
X102200000Y-73825000D03*
X100550000Y-73825000D03*
X199450000Y-57075000D03*
X197800000Y-57075000D03*
D24*
X201025000Y-56900000D03*
X201025000Y-58550000D03*
D18*
X258865000Y-65820000D03*
X258865000Y-64170000D03*
D10*
X255540000Y-60545000D03*
X257090000Y-60545000D03*
X107050000Y-119395000D03*
X108600000Y-119395000D03*
D18*
X207825000Y-75700000D03*
X207825000Y-74050000D03*
D11*
X248025000Y-65720000D03*
X248025000Y-67270000D03*
D10*
X79900000Y-127355000D03*
X81450000Y-127355000D03*
D27*
X202400000Y-60295000D03*
X200850000Y-60295000D03*
D10*
X119300000Y-76915000D03*
X117750000Y-76915000D03*
D27*
X232660000Y-93925000D03*
X231110000Y-93925000D03*
D16*
X190850000Y-75575000D03*
X192500000Y-75575000D03*
D19*
X138625000Y-46705000D03*
X122395000Y-46705000D03*
X138625000Y-34005000D03*
X122395000Y-34005000D03*
X138625000Y-40355000D03*
X122395000Y-40355000D03*
D28*
X89535000Y-135962500D03*
X92435000Y-135962500D03*
X92435000Y-133787500D03*
X89535000Y-133787500D03*
D18*
X209475000Y-78700000D03*
X209475000Y-77050000D03*
D29*
X202415000Y-58500000D03*
X202415000Y-56950000D03*
D21*
X252690000Y-69745000D03*
X251040000Y-69745000D03*
D30*
X246517000Y-116076638D03*
X246517000Y-119051638D03*
D16*
X249490000Y-65745000D03*
X251140000Y-65745000D03*
D27*
X99400000Y-60525000D03*
X97850000Y-60525000D03*
D11*
X162555000Y-61350000D03*
X162555000Y-62900000D03*
D10*
X207750000Y-66385000D03*
X209300000Y-66385000D03*
D27*
X99400000Y-58875000D03*
X97850000Y-58875000D03*
X208050000Y-67905000D03*
X206500000Y-67905000D03*
D18*
X116225000Y-75300000D03*
X116225000Y-76950000D03*
D31*
X251327000Y-112221000D03*
D32*
X251327000Y-114761000D03*
X251327000Y-117301000D03*
D29*
X215865000Y-86860000D03*
X215865000Y-85310000D03*
X111705000Y-60150000D03*
X111705000Y-58600000D03*
D16*
X97800000Y-62125000D03*
X99450000Y-62125000D03*
D18*
X194075000Y-73950000D03*
X194075000Y-72300000D03*
X157325000Y-64550000D03*
X157325000Y-62900000D03*
D20*
X262617500Y-105743000D03*
X264692500Y-105743000D03*
D21*
X117700000Y-73835000D03*
X119350000Y-73835000D03*
D27*
X102500000Y-60525000D03*
X100950000Y-60525000D03*
D33*
X264575000Y-94925000D03*
D34*
X264575000Y-93655000D03*
X264575000Y-92385000D03*
D22*
X238398241Y-106864240D03*
D23*
X238398241Y-104364240D03*
D29*
X160985000Y-59700000D03*
X160985000Y-58150000D03*
D35*
X193492500Y-70205000D03*
X191417500Y-70205000D03*
D29*
X246515000Y-66020000D03*
X246515000Y-64470000D03*
D22*
X238632999Y-96937000D03*
D23*
X238632999Y-99437000D03*
D10*
X102700000Y-131945000D03*
X104250000Y-131945000D03*
X98350000Y-139405000D03*
X99900000Y-139405000D03*
D27*
X247710000Y-121510000D03*
X246160000Y-121510000D03*
D16*
X190950000Y-73915000D03*
X192600000Y-73915000D03*
X114650000Y-75325000D03*
X113000000Y-75325000D03*
D10*
X79900000Y-132375000D03*
X81450000Y-132375000D03*
D16*
X84400000Y-139645000D03*
X86050000Y-139645000D03*
D18*
X206275000Y-64900000D03*
X206275000Y-63250000D03*
D10*
X205000000Y-102685000D03*
X206550000Y-102685000D03*
D22*
X260485759Y-124267360D03*
D23*
X260485759Y-126767360D03*
D27*
X199470000Y-58625000D03*
X197920000Y-58625000D03*
D29*
X102485000Y-58900000D03*
X102485000Y-57350000D03*
D27*
X199400000Y-60215000D03*
X197850000Y-60215000D03*
D29*
X242135000Y-93872000D03*
X242135000Y-92322000D03*
D10*
X107050000Y-131945000D03*
X108600000Y-131945000D03*
D24*
X207925000Y-77050000D03*
X207925000Y-78700000D03*
D10*
X244874000Y-105575000D03*
X246424000Y-105575000D03*
D16*
X212640000Y-87685000D03*
X214290000Y-87685000D03*
D27*
X252650000Y-71345000D03*
X251100000Y-71345000D03*
D16*
X100550000Y-72175000D03*
X102200000Y-72175000D03*
D24*
X113275000Y-58600000D03*
X113275000Y-60250000D03*
D10*
X262807524Y-97805000D03*
X264357524Y-97805000D03*
D11*
X248035000Y-62720000D03*
X248035000Y-64270000D03*
D18*
X193875000Y-77150000D03*
X193875000Y-75500000D03*
D19*
X89370000Y-46094426D03*
X73140000Y-46094426D03*
X89370000Y-33394426D03*
X73140000Y-33394426D03*
X89370000Y-39744426D03*
X73140000Y-39744426D03*
D21*
X156700000Y-55425000D03*
X155050000Y-55425000D03*
X99450000Y-57325000D03*
X97800000Y-57325000D03*
D15*
X153800000Y-57180000D03*
X153800000Y-58450000D03*
X153800000Y-59720000D03*
X153800000Y-60990000D03*
X159150000Y-60990000D03*
X159150000Y-59720000D03*
X159150000Y-58450000D03*
X159150000Y-57180000D03*
D20*
X115967500Y-69905000D03*
X118042500Y-69905000D03*
D24*
X161025000Y-61300000D03*
X161025000Y-62950000D03*
D10*
X105050000Y-66515000D03*
X106600000Y-66515000D03*
D27*
X192350000Y-77135000D03*
X190800000Y-77135000D03*
D36*
X92625000Y-110075000D03*
D37*
X92625000Y-112615000D03*
X92625000Y-115155000D03*
D21*
X210950000Y-75525000D03*
X212600000Y-75525000D03*
D27*
X213350000Y-97685000D03*
X211800000Y-97685000D03*
D15*
X104500000Y-57670000D03*
X104500000Y-58940000D03*
X104500000Y-60210000D03*
X104500000Y-61480000D03*
X109850000Y-61480000D03*
X109850000Y-60210000D03*
X109850000Y-58940000D03*
X109850000Y-57670000D03*
D16*
X147250000Y-61625000D03*
X148900000Y-61625000D03*
D11*
X255545000Y-55890000D03*
X255545000Y-57440000D03*
D18*
X116225000Y-72200000D03*
X116225000Y-73850000D03*
D10*
X254190000Y-69765000D03*
X255740000Y-69765000D03*
X107050000Y-126925000D03*
X108600000Y-126925000D03*
X154320000Y-66025000D03*
X155870000Y-66025000D03*
X102700000Y-129435000D03*
X104250000Y-129435000D03*
D21*
X107200000Y-55875000D03*
X105550000Y-55875000D03*
D35*
X99042500Y-68515000D03*
X96967500Y-68515000D03*
D21*
X148900000Y-56975000D03*
X147250000Y-56975000D03*
D38*
X98325000Y-136675000D03*
X100325000Y-136675000D03*
D27*
X102200000Y-70575000D03*
X100650000Y-70575000D03*
D11*
X113305000Y-61750000D03*
X113305000Y-63300000D03*
D27*
X148850000Y-59995000D03*
X147300000Y-59995000D03*
D18*
X106575000Y-65100000D03*
X106575000Y-63450000D03*
D26*
X82075000Y-99075000D03*
D39*
X248949500Y-94142000D03*
X247124500Y-94142000D03*
D27*
X113050000Y-76865000D03*
X114600000Y-76865000D03*
D19*
X163625000Y-46705000D03*
X147395000Y-46705000D03*
X163625000Y-34005000D03*
X147395000Y-34005000D03*
X163625000Y-40355000D03*
X147395000Y-40355000D03*
D10*
X97580000Y-70625000D03*
X96030000Y-70625000D03*
D36*
X87975000Y-110075000D03*
D37*
X87975000Y-112615000D03*
X87975000Y-115155000D03*
D26*
X82075000Y-120525000D03*
D10*
X195400000Y-77175000D03*
X196950000Y-77175000D03*
X102700000Y-116885000D03*
X104250000Y-116885000D03*
X98350000Y-131945000D03*
X99900000Y-131945000D03*
D24*
X211475000Y-61750000D03*
X211475000Y-63400000D03*
D27*
X212450000Y-92025000D03*
X210900000Y-92025000D03*
X197100000Y-72515000D03*
X195550000Y-72515000D03*
D10*
X107050000Y-129435000D03*
X108600000Y-129435000D03*
D40*
X267095000Y-109975000D03*
X267095000Y-118975000D03*
D41*
X266095000Y-114475000D03*
D42*
X260095000Y-114475000D03*
D36*
X92625000Y-105025000D03*
X87975000Y-97825000D03*
D37*
X87975000Y-100365000D03*
X87975000Y-102905000D03*
X87975000Y-105445000D03*
D10*
X226650000Y-100595000D03*
X228200000Y-100595000D03*
D24*
X111675000Y-61750000D03*
X111675000Y-63400000D03*
D29*
X206365000Y-78650000D03*
X206365000Y-77100000D03*
D21*
X210950000Y-77075000D03*
X212600000Y-77075000D03*
D16*
X249490000Y-64195000D03*
X251140000Y-64195000D03*
D43*
X79762500Y-137395000D03*
X81587500Y-137395000D03*
D20*
X211217500Y-71815000D03*
X213292500Y-71815000D03*
D44*
X251175000Y-94163500D03*
X251175000Y-92088500D03*
D10*
X98350000Y-116885000D03*
X99900000Y-116885000D03*
D20*
X84217500Y-133655000D03*
X86292500Y-133655000D03*
D10*
X107050000Y-121905000D03*
X108600000Y-121905000D03*
D45*
X264060000Y-142155000D03*
D46*
X264060000Y-139655000D03*
X264060000Y-137655000D03*
X264060000Y-135155000D03*
D47*
X266770000Y-145225000D03*
X266770000Y-132085000D03*
D20*
X84217500Y-136665000D03*
X86292500Y-136665000D03*
D27*
X157500000Y-67585000D03*
X155950000Y-67585000D03*
D19*
X113625000Y-46705000D03*
X97395000Y-46705000D03*
X113625000Y-34005000D03*
X97395000Y-34005000D03*
X113625000Y-40355000D03*
X97395000Y-40355000D03*
D48*
X258734000Y-93516000D03*
X257464000Y-93516000D03*
X256194000Y-93516000D03*
X254924000Y-93516000D03*
X254924000Y-98466000D03*
X256194000Y-98466000D03*
X257464000Y-98466000D03*
X258734000Y-98466000D03*
D49*
X228185000Y-86325000D03*
X234585000Y-86325000D03*
D24*
X252515000Y-55810000D03*
X252515000Y-57460000D03*
D10*
X111400000Y-129435000D03*
X112950000Y-129435000D03*
D15*
X198950000Y-72900000D03*
X198950000Y-74170000D03*
X198950000Y-75440000D03*
X198950000Y-76710000D03*
X204300000Y-76710000D03*
X204300000Y-75440000D03*
X204300000Y-74170000D03*
X204300000Y-72900000D03*
D10*
X211000000Y-78605000D03*
X212550000Y-78605000D03*
D16*
X96000000Y-75325000D03*
X97650000Y-75325000D03*
D20*
X212157500Y-85605000D03*
X214232500Y-85605000D03*
D29*
X254055000Y-57410000D03*
X254055000Y-55860000D03*
D10*
X191000000Y-72455000D03*
X192550000Y-72455000D03*
D21*
X197000000Y-75575000D03*
X195350000Y-75575000D03*
D10*
X111400000Y-119395000D03*
X112950000Y-119395000D03*
D26*
X82075000Y-106225000D03*
D29*
X151865000Y-58500000D03*
X151865000Y-56950000D03*
D18*
X155775000Y-64550000D03*
X155775000Y-62900000D03*
D27*
X117850000Y-72195000D03*
X119400000Y-72195000D03*
D50*
X84425000Y-127625000D03*
X91625000Y-127625000D03*
X84425000Y-130625000D03*
X91625000Y-130625000D03*
D21*
X255840000Y-71395000D03*
X254190000Y-71395000D03*
D10*
X236550000Y-106425000D03*
X238100000Y-106425000D03*
D29*
X254065000Y-60570000D03*
X254065000Y-59020000D03*
D51*
X217350000Y-88725000D03*
X217850000Y-88725000D03*
X218350000Y-88725000D03*
X218850000Y-88725000D03*
X219350000Y-88725000D03*
X219850000Y-88725000D03*
X220350000Y-88725000D03*
X220850000Y-88725000D03*
X221350000Y-88725000D03*
X221850000Y-88725000D03*
X222350000Y-88725000D03*
X222850000Y-88725000D03*
X223350000Y-88725000D03*
X223850000Y-88725000D03*
X224350000Y-88725000D03*
X224850000Y-88725000D03*
D52*
X226775000Y-90650000D03*
X226775000Y-91150000D03*
X226775000Y-91650000D03*
X226775000Y-92150000D03*
X226775000Y-92650000D03*
X226775000Y-93150000D03*
X226775000Y-93650000D03*
X226775000Y-94150000D03*
X226775000Y-94650000D03*
X226775000Y-95150000D03*
X226775000Y-95650000D03*
X226775000Y-96150000D03*
X226775000Y-96650000D03*
X226775000Y-97150000D03*
X226775000Y-97650000D03*
X226775000Y-98150000D03*
D51*
X224850000Y-100075000D03*
X224350000Y-100075000D03*
X223850000Y-100075000D03*
X223350000Y-100075000D03*
X222850000Y-100075000D03*
X222350000Y-100075000D03*
X221850000Y-100075000D03*
X221350000Y-100075000D03*
X220850000Y-100075000D03*
X220350000Y-100075000D03*
X219850000Y-100075000D03*
X219350000Y-100075000D03*
X218850000Y-100075000D03*
X218350000Y-100075000D03*
X217850000Y-100075000D03*
X217350000Y-100075000D03*
D52*
X215425000Y-98150000D03*
X215425000Y-97650000D03*
X215425000Y-97150000D03*
X215425000Y-96650000D03*
X215425000Y-96150000D03*
X215425000Y-95650000D03*
X215425000Y-95150000D03*
X215425000Y-94650000D03*
X215425000Y-94150000D03*
X215425000Y-93650000D03*
X215425000Y-93150000D03*
X215425000Y-92650000D03*
X215425000Y-92150000D03*
X215425000Y-91650000D03*
X215425000Y-91150000D03*
X215425000Y-90650000D03*
D27*
X214200000Y-89225000D03*
X212650000Y-89225000D03*
X212600000Y-74005000D03*
X211050000Y-74005000D03*
D18*
X252575000Y-60670000D03*
X252575000Y-59020000D03*
D10*
X107050000Y-116885000D03*
X108600000Y-116885000D03*
D16*
X100750000Y-68775000D03*
X102400000Y-68775000D03*
D15*
X109950000Y-71210000D03*
X109950000Y-72480000D03*
X109950000Y-73750000D03*
X109950000Y-75020000D03*
X104600000Y-75020000D03*
X104600000Y-73750000D03*
X104600000Y-72480000D03*
X104600000Y-71210000D03*
D27*
X215900000Y-100505000D03*
X214350000Y-100505000D03*
D24*
X162525000Y-58100000D03*
X162525000Y-59750000D03*
D22*
X258406241Y-88531000D03*
D23*
X256406241Y-88531000D03*
D10*
X111400000Y-126925000D03*
X112950000Y-126925000D03*
X111400000Y-116885000D03*
X112950000Y-116885000D03*
D22*
X258077000Y-103487759D03*
D23*
X256077000Y-103487759D03*
D44*
X245049000Y-94163500D03*
X245049000Y-92088500D03*
D53*
X211912500Y-106075000D03*
X211912500Y-106575000D03*
X211912500Y-107075000D03*
X211912500Y-107575000D03*
X211912500Y-108075000D03*
X211912500Y-108575000D03*
X211912500Y-109075000D03*
X211912500Y-109575000D03*
X211912500Y-110075000D03*
X211912500Y-110575000D03*
X211912500Y-111075000D03*
X211912500Y-111575000D03*
X211912500Y-112075000D03*
X211912500Y-112575000D03*
X211912500Y-113075000D03*
X211912500Y-113575000D03*
X211912500Y-114075000D03*
X211912500Y-114575000D03*
X211912500Y-115075000D03*
X211912500Y-115575000D03*
X211912500Y-116075000D03*
X211912500Y-116575000D03*
X211912500Y-117075000D03*
X211912500Y-117575000D03*
X211912500Y-118075000D03*
X211912500Y-118575000D03*
X211912500Y-119075000D03*
X211912500Y-119575000D03*
X211912500Y-120075000D03*
X211912500Y-120575000D03*
X211912500Y-121075000D03*
X211912500Y-121575000D03*
X211912500Y-122075000D03*
X211912500Y-122575000D03*
X211912500Y-123075000D03*
X211912500Y-123575000D03*
D54*
X213825000Y-125487500D03*
X214325000Y-125487500D03*
X214825000Y-125487500D03*
X215325000Y-125487500D03*
X215825000Y-125487500D03*
X216325000Y-125487500D03*
X216825000Y-125487500D03*
X217325000Y-125487500D03*
X217825000Y-125487500D03*
X218325000Y-125487500D03*
X218825000Y-125487500D03*
X219325000Y-125487500D03*
X219825000Y-125487500D03*
X220325000Y-125487500D03*
X220825000Y-125487500D03*
X221325000Y-125487500D03*
X221825000Y-125487500D03*
X222325000Y-125487500D03*
X222825000Y-125487500D03*
X223325000Y-125487500D03*
X223825000Y-125487500D03*
X224325000Y-125487500D03*
X224825000Y-125487500D03*
X225325000Y-125487500D03*
X225825000Y-125487500D03*
X226325000Y-125487500D03*
X226825000Y-125487500D03*
X227325000Y-125487500D03*
X227825000Y-125487500D03*
X228325000Y-125487500D03*
X228825000Y-125487500D03*
X229325000Y-125487500D03*
X229825000Y-125487500D03*
X230325000Y-125487500D03*
X230825000Y-125487500D03*
X231325000Y-125487500D03*
D53*
X233237500Y-123575000D03*
X233237500Y-123075000D03*
X233237500Y-122575000D03*
X233237500Y-122075000D03*
X233237500Y-121575000D03*
X233237500Y-121075000D03*
X233237500Y-120575000D03*
X233237500Y-120075000D03*
X233237500Y-119575000D03*
X233237500Y-119075000D03*
X233237500Y-118575000D03*
X233237500Y-118075000D03*
X233237500Y-117575000D03*
X233237500Y-117075000D03*
X233237500Y-116575000D03*
X233237500Y-116075000D03*
X233237500Y-115575000D03*
X233237500Y-115075000D03*
X233237500Y-114575000D03*
X233237500Y-114075000D03*
X233237500Y-113575000D03*
X233237500Y-113075000D03*
X233237500Y-112575000D03*
X233237500Y-112075000D03*
X233237500Y-111575000D03*
X233237500Y-111075000D03*
X233237500Y-110575000D03*
X233237500Y-110075000D03*
X233237500Y-109575000D03*
X233237500Y-109075000D03*
X233237500Y-108575000D03*
X233237500Y-108075000D03*
X233237500Y-107575000D03*
X233237500Y-107075000D03*
X233237500Y-106575000D03*
X233237500Y-106075000D03*
D54*
X231325000Y-104162500D03*
X230825000Y-104162500D03*
X230325000Y-104162500D03*
X229825000Y-104162500D03*
X229325000Y-104162500D03*
X228825000Y-104162500D03*
X228325000Y-104162500D03*
X227825000Y-104162500D03*
X227325000Y-104162500D03*
X226825000Y-104162500D03*
X226325000Y-104162500D03*
X225825000Y-104162500D03*
X225325000Y-104162500D03*
X224825000Y-104162500D03*
X224325000Y-104162500D03*
X223825000Y-104162500D03*
X223325000Y-104162500D03*
X222825000Y-104162500D03*
X222325000Y-104162500D03*
X221825000Y-104162500D03*
X221325000Y-104162500D03*
X220825000Y-104162500D03*
X220325000Y-104162500D03*
X219825000Y-104162500D03*
X219325000Y-104162500D03*
X218825000Y-104162500D03*
X218325000Y-104162500D03*
X217825000Y-104162500D03*
X217325000Y-104162500D03*
X216825000Y-104162500D03*
X216325000Y-104162500D03*
X215825000Y-104162500D03*
X215325000Y-104162500D03*
X214825000Y-104162500D03*
X214325000Y-104162500D03*
X213825000Y-104162500D03*
D19*
X263625000Y-46705000D03*
X247395000Y-46705000D03*
X263625000Y-34005000D03*
X247395000Y-34005000D03*
X263625000Y-40355000D03*
X247395000Y-40355000D03*
D27*
X148850000Y-58485000D03*
X147300000Y-58485000D03*
D21*
X207400000Y-55925000D03*
X205750000Y-55925000D03*
D10*
X111400000Y-121905000D03*
X112950000Y-121905000D03*
D55*
X231785000Y-91025000D03*
X236885000Y-91025000D03*
D56*
X254193000Y-131053862D03*
X254193000Y-124653862D03*
D21*
X257140000Y-58995000D03*
X255490000Y-58995000D03*
D11*
X99085000Y-73800000D03*
X99085000Y-75350000D03*
D18*
X108125000Y-65100000D03*
X108125000Y-63450000D03*
D27*
X151900000Y-59975000D03*
X150350000Y-59975000D03*
D10*
X236550000Y-108935000D03*
X238100000Y-108935000D03*
X107050000Y-124415000D03*
X108600000Y-124415000D03*
X263830000Y-89087000D03*
X265380000Y-89087000D03*
X102700000Y-119395000D03*
X104250000Y-119395000D03*
D16*
X195500000Y-73975000D03*
X197150000Y-73975000D03*
D21*
X114200000Y-70125000D03*
X112550000Y-70125000D03*
D10*
X204700000Y-66385000D03*
X206250000Y-66385000D03*
D16*
X96000000Y-73725000D03*
X97650000Y-73725000D03*
D29*
X211435000Y-60000000D03*
X211435000Y-58450000D03*
D57*
X262505000Y-103719500D03*
X262505000Y-101894500D03*
D21*
X209650000Y-71925000D03*
X208000000Y-71925000D03*
D58*
X249356000Y-124754000D03*
X247056000Y-124754000D03*
D59*
X247056000Y-131054000D03*
D58*
X244756000Y-124754000D03*
D60*
X243475000Y-98613000D03*
X243475000Y-100913000D03*
D61*
X249775000Y-100913000D03*
D60*
X243475000Y-103213000D03*
D20*
X262617500Y-99715000D03*
X264692500Y-99715000D03*
D21*
X102500000Y-62125000D03*
X100850000Y-62125000D03*
D18*
X257065000Y-57520000D03*
X257065000Y-55870000D03*
D62*
X89005000Y-138895000D03*
X90755000Y-138895000D03*
D24*
X100925000Y-57300000D03*
X100925000Y-58950000D03*
D22*
X237553399Y-128279000D03*
D23*
X240053399Y-128279000D03*
D18*
X207825000Y-64900000D03*
X207825000Y-63250000D03*
D10*
X108050000Y-66525000D03*
X109600000Y-66525000D03*
D18*
X209425000Y-75650000D03*
X209425000Y-74000000D03*
D10*
X100600000Y-75335000D03*
X102150000Y-75335000D03*
X102700000Y-121905000D03*
X104250000Y-121905000D03*
D16*
X197750000Y-61775000D03*
X199400000Y-61775000D03*
D62*
X83305000Y-146085000D03*
X85055000Y-146085000D03*
D21*
X113000000Y-73725000D03*
X114650000Y-73725000D03*
D36*
X92625000Y-97825000D03*
D37*
X92625000Y-100365000D03*
D10*
X157300000Y-66005000D03*
X158850000Y-66005000D03*
D43*
X79762500Y-139905000D03*
X81587500Y-139905000D03*
D27*
X231860000Y-82945000D03*
X230310000Y-82945000D03*
D16*
X79850000Y-134885000D03*
X81500000Y-134885000D03*
D19*
X213635000Y-46425000D03*
X197405000Y-46425000D03*
X213635000Y-33725000D03*
X197405000Y-33725000D03*
X213635000Y-40075000D03*
X197405000Y-40075000D03*
D24*
X150425000Y-56900000D03*
X150425000Y-58550000D03*
D27*
X108050000Y-68065000D03*
X106500000Y-68065000D03*
D29*
X206325000Y-75600000D03*
X206325000Y-74050000D03*
D63*
X213100000Y-100400000D03*
X211800000Y-98800000D03*
X229400000Y-100600000D03*
X216700000Y-98100000D03*
X220800000Y-98800000D03*
X225300000Y-98000000D03*
X225400000Y-90175500D03*
X225900000Y-87900000D03*
X100700000Y-76600000D03*
X99100000Y-76600000D03*
X94600000Y-74600000D03*
X94700000Y-71800000D03*
X92586342Y-72798305D03*
X91843878Y-72055841D03*
X210100000Y-96925000D03*
X210100000Y-95875000D03*
X122900000Y-74925000D03*
X122900000Y-73875000D03*
X174900000Y-84925000D03*
X174900000Y-83875000D03*
X188271232Y-75271232D03*
X187528768Y-74528768D03*
X208575000Y-85182089D03*
X209625000Y-85182089D03*
X210800000Y-91000000D03*
X213900000Y-91334315D03*
X211500000Y-89300000D03*
X228400000Y-93200000D03*
X225400500Y-92142158D03*
X214300000Y-63700000D03*
X205000000Y-67800000D03*
X209500000Y-67800000D03*
X206900000Y-70200000D03*
X116100000Y-77700000D03*
X115100000Y-77700000D03*
X120600000Y-76200000D03*
X120300000Y-72300000D03*
X115300000Y-68300000D03*
X105100000Y-67700000D03*
X110500000Y-66500000D03*
X114700000Y-63200000D03*
X104600000Y-76200000D03*
X118500000Y-56800000D03*
X233900000Y-94100000D03*
X233000000Y-83000000D03*
X236100000Y-87100000D03*
X236100000Y-85500000D03*
X236100000Y-86300000D03*
X238400000Y-91900000D03*
X238400000Y-90300000D03*
X238400000Y-91100000D03*
X246400000Y-67300000D03*
X246500000Y-63224500D03*
X244200000Y-63500000D03*
X249000000Y-69700000D03*
X249900000Y-71400000D03*
X257800000Y-72500000D03*
X213300000Y-55300000D03*
X163600000Y-55300000D03*
X114400000Y-55655000D03*
X163900000Y-62275500D03*
X154400000Y-67400000D03*
X158800000Y-67400000D03*
X104524500Y-64900000D03*
X115400000Y-64400000D03*
X122500000Y-64300000D03*
X150600000Y-63824500D03*
X160000000Y-64200000D03*
X182700000Y-64100000D03*
X187400000Y-64100000D03*
X204100000Y-64600000D03*
X211000000Y-65200000D03*
X228500000Y-83000000D03*
X149600000Y-59975000D03*
X194000000Y-78300000D03*
X189700000Y-76500000D03*
X189600000Y-73000000D03*
X213700000Y-74800000D03*
X213800000Y-77800000D03*
X206400000Y-79600000D03*
X209500000Y-79700000D03*
X200100000Y-60295000D03*
X100200000Y-60525000D03*
X214100000Y-75775000D03*
X214100000Y-76825000D03*
X220771232Y-94271232D03*
X220028768Y-93528768D03*
X254065000Y-58200000D03*
X256700000Y-66050000D03*
X254200000Y-66300000D03*
X215500000Y-59000000D03*
X161300000Y-56800000D03*
X258600000Y-68100000D03*
X209900000Y-56800000D03*
X111400000Y-57000000D03*
X251300000Y-62500000D03*
X204200000Y-63000000D03*
X153800000Y-62400000D03*
X199000000Y-78300000D03*
X104300000Y-63100000D03*
D64*
X213205000Y-100505000D02*
X213100000Y-100400000D01*
X214350000Y-100505000D02*
X213205000Y-100505000D01*
X211800000Y-97685000D02*
X211800000Y-98800000D01*
X213885000Y-97150000D02*
X213350000Y-97685000D01*
X215425000Y-97150000D02*
X213885000Y-97150000D01*
X214350000Y-100505000D02*
X214350000Y-100450000D01*
X216330000Y-100075000D02*
X215900000Y-100505000D01*
X217350000Y-100075000D02*
X216330000Y-100075000D01*
X229395000Y-100595000D02*
X229400000Y-100600000D01*
X228200000Y-100595000D02*
X229395000Y-100595000D01*
X225370000Y-100595000D02*
X224850000Y-100075000D01*
X226650000Y-100595000D02*
X225370000Y-100595000D01*
X216650000Y-98150000D02*
X216700000Y-98100000D01*
X215425000Y-98150000D02*
X216650000Y-98150000D01*
X220850000Y-98850000D02*
X220800000Y-98800000D01*
X220850000Y-100075000D02*
X220850000Y-98850000D01*
X221350000Y-100075000D02*
X220350000Y-100075000D01*
X225450000Y-98150000D02*
X225300000Y-98000000D01*
X226775000Y-98150000D02*
X225450000Y-98150000D01*
X228535000Y-93200000D02*
X229285000Y-93950000D01*
X228400000Y-93200000D02*
X228535000Y-93200000D01*
X225908342Y-92650000D02*
X226775000Y-92650000D01*
X225934315Y-91650000D02*
X226775000Y-91650000D01*
X225442157Y-92142158D02*
X225934315Y-91650000D01*
X225400500Y-92142158D02*
X225908342Y-92650000D01*
X225400500Y-92142158D02*
X225442157Y-92142158D01*
X225874500Y-90650000D02*
X225400000Y-90175500D01*
X226775000Y-90650000D02*
X225874500Y-90650000D01*
X225980000Y-87820000D02*
X225900000Y-87900000D01*
X225980000Y-86655000D02*
X225980000Y-87820000D01*
X223850000Y-87235000D02*
X224430000Y-86655000D01*
X223850000Y-88725000D02*
X223850000Y-87235000D01*
X227415000Y-85555000D02*
X228185000Y-86325000D01*
X223350000Y-86150000D02*
X223945000Y-85555000D01*
X223350000Y-88725000D02*
X223350000Y-86150000D01*
X223945000Y-85555000D02*
X227415000Y-85555000D01*
X102525000Y-58940000D02*
X102485000Y-58900000D01*
X104500000Y-58940000D02*
X102525000Y-58940000D01*
X102815000Y-60210000D02*
X102500000Y-60525000D01*
X104500000Y-60210000D02*
X102815000Y-60210000D01*
X100600000Y-76500000D02*
X100600000Y-75335000D01*
X100700000Y-76600000D02*
X100600000Y-76500000D01*
X99085000Y-76585000D02*
X99100000Y-76600000D01*
X99085000Y-75350000D02*
X99085000Y-76585000D01*
X100585000Y-75350000D02*
X100600000Y-75335000D01*
X95325000Y-75325000D02*
X94600000Y-74600000D01*
X96000000Y-75325000D02*
X95325000Y-75325000D01*
X95875000Y-70625000D02*
X94700000Y-71800000D01*
X96030000Y-70625000D02*
X95875000Y-70625000D01*
D65*
X155950000Y-68297501D02*
X155950000Y-67585000D01*
X156500000Y-68847501D02*
X155950000Y-68297501D01*
X161206800Y-76025000D02*
X156500000Y-71318200D01*
X189606800Y-79625000D02*
X186006800Y-76025000D01*
X195306800Y-79625000D02*
X189606800Y-79625000D01*
X220375000Y-87537499D02*
X220375000Y-82993200D01*
X220350000Y-87562499D02*
X220375000Y-87537499D01*
X186006800Y-76025000D02*
X161206800Y-76025000D01*
X220350000Y-88725000D02*
X220350000Y-87562499D01*
X157500000Y-68297501D02*
X157500000Y-67585000D01*
X198275000Y-82593200D02*
X195306800Y-79625000D01*
X156950000Y-68847501D02*
X157500000Y-68297501D01*
X156500000Y-71318200D02*
X156500000Y-68847501D01*
X156950000Y-71131800D02*
X156950000Y-68847501D01*
X161393200Y-75575000D02*
X156950000Y-71131800D01*
X186193200Y-75575000D02*
X161393200Y-75575000D01*
X189793200Y-79175000D02*
X186193200Y-75575000D01*
X195493200Y-79175000D02*
X189793200Y-79175000D01*
X198725000Y-82406800D02*
X195493200Y-79175000D01*
X220825000Y-87537499D02*
X220825000Y-82806800D01*
X220850000Y-87562499D02*
X220825000Y-87537499D01*
X220850000Y-88725000D02*
X220850000Y-87562499D01*
X106500000Y-68777501D02*
X106500000Y-68065000D01*
X107050000Y-69327501D02*
X106500000Y-68777501D01*
X107050000Y-77768200D02*
X107050000Y-69327501D01*
X110106800Y-80825000D02*
X107050000Y-77768200D01*
X193106800Y-80825000D02*
X110106800Y-80825000D01*
X219375000Y-87537499D02*
X219375000Y-85393200D01*
X219350000Y-87562499D02*
X219375000Y-87537499D01*
X219350000Y-88725000D02*
X219350000Y-87562499D01*
X108050000Y-68777501D02*
X108050000Y-68065000D01*
X107500000Y-69327501D02*
X108050000Y-68777501D01*
X107500000Y-77581800D02*
X107500000Y-69327501D01*
X110293200Y-80375000D02*
X107500000Y-77581800D01*
X219825000Y-85206800D02*
X215393200Y-80775000D01*
X193293200Y-80375000D02*
X110293200Y-80375000D01*
X219375000Y-85393200D02*
X215206800Y-81225000D01*
X219850000Y-87562499D02*
X219825000Y-87537499D01*
X219825000Y-87537499D02*
X219825000Y-85206800D01*
X219850000Y-88725000D02*
X219850000Y-87562499D01*
X94900001Y-73274999D02*
X96000000Y-72175000D01*
X93699434Y-73274999D02*
X94900001Y-73274999D01*
X93286342Y-72861907D02*
X93699434Y-73274999D01*
X92876292Y-72098305D02*
X93286342Y-72508355D01*
X92480276Y-72055841D02*
X92522740Y-72098305D01*
X93286342Y-72508355D02*
X93286342Y-72861907D01*
X91843878Y-72055841D02*
X92480276Y-72055841D01*
X92522740Y-72098305D02*
X92876292Y-72098305D01*
X93513037Y-73725000D02*
X96000000Y-73725000D01*
X92586342Y-72798305D02*
X93513037Y-73725000D01*
X210399999Y-96625001D02*
X210100000Y-96925000D01*
X215400001Y-96625001D02*
X210399999Y-96625001D01*
X215425000Y-96650000D02*
X215400001Y-96625001D01*
X210399999Y-96174999D02*
X210100000Y-95875000D01*
X215425000Y-96150000D02*
X215400001Y-96174999D01*
X215400001Y-96174999D02*
X210399999Y-96174999D01*
X122036397Y-75375000D02*
X119350000Y-75375000D01*
X122900000Y-74925000D02*
X122486397Y-74925000D01*
X122900000Y-73875000D02*
X121850001Y-74924999D01*
X121850001Y-74924999D02*
X120439999Y-74924999D01*
X120439999Y-74924999D02*
X119350000Y-73835000D01*
X122486397Y-74925000D02*
X122036397Y-75375000D01*
X175199999Y-84625001D02*
X174900000Y-84925000D01*
X176506801Y-84625001D02*
X175199999Y-84625001D01*
X186106800Y-94225000D02*
X176506801Y-84625001D01*
X211206800Y-94625000D02*
X208206800Y-94625000D01*
X212206800Y-95625000D02*
X211206800Y-94625000D01*
X214237499Y-95625000D02*
X212206800Y-95625000D01*
X214262499Y-95650000D02*
X214237499Y-95625000D01*
X175199999Y-84174999D02*
X174900000Y-83875000D01*
X215425000Y-95650000D02*
X214262499Y-95650000D01*
X211393200Y-94175000D02*
X208393200Y-94175000D01*
X212393200Y-95175000D02*
X211393200Y-94175000D01*
X214262499Y-95150000D02*
X214237499Y-95175000D01*
X214237499Y-95175000D02*
X212393200Y-95175000D01*
X186293200Y-93775000D02*
X176693199Y-84174999D01*
X176693199Y-84174999D02*
X175199999Y-84174999D01*
X215425000Y-95150000D02*
X214262499Y-95150000D01*
X189640001Y-74365001D02*
X190850000Y-75575000D01*
X187528768Y-74528768D02*
X187953033Y-74528768D01*
X188753198Y-74365001D02*
X189640001Y-74365001D01*
X187953033Y-74528768D02*
X188566801Y-73915000D01*
X188566801Y-73915000D02*
X190950000Y-73915000D01*
X188271232Y-74846967D02*
X188753198Y-74365001D01*
X188271232Y-75271232D02*
X188271232Y-74846967D01*
X208874999Y-85482088D02*
X208575000Y-85182089D01*
X208875000Y-92593200D02*
X208874999Y-85482088D01*
X209906800Y-93625000D02*
X208875000Y-92593200D01*
X214237499Y-93625000D02*
X209906800Y-93625000D01*
X214262499Y-93650000D02*
X214237499Y-93625000D01*
X215425000Y-93650000D02*
X214262499Y-93650000D01*
X209325001Y-85482088D02*
X209625000Y-85182089D01*
X209325000Y-92406800D02*
X209325001Y-85482088D01*
X210093200Y-93175000D02*
X209325000Y-92406800D01*
X215425000Y-93150000D02*
X214262499Y-93150000D01*
X214237499Y-93175000D02*
X210093200Y-93175000D01*
X214262499Y-93150000D02*
X214237499Y-93175000D01*
D64*
X210900000Y-91625000D02*
X211000000Y-91725000D01*
X210800000Y-91000000D02*
X210900000Y-91100000D01*
X210900000Y-91100000D02*
X210900000Y-91625000D01*
X212525000Y-92100000D02*
X212450000Y-92025000D01*
X213200000Y-92100000D02*
X212525000Y-92100000D01*
X215425000Y-92650000D02*
X213750000Y-92650000D01*
X213750000Y-92650000D02*
X213200000Y-92100000D01*
X214584315Y-92150000D02*
X215425000Y-92150000D01*
X213900000Y-91334315D02*
X214584315Y-90650000D01*
X214584315Y-90650000D02*
X215425000Y-90650000D01*
X213900000Y-91334315D02*
X213900000Y-91465685D01*
X213900000Y-91465685D02*
X214584315Y-92150000D01*
X211575000Y-89225000D02*
X212650000Y-89225000D01*
X211500000Y-89300000D02*
X211575000Y-89225000D01*
X214200000Y-87775000D02*
X214290000Y-87685000D01*
X214200000Y-89225000D02*
X214200000Y-87775000D01*
X229035000Y-92150000D02*
X229285000Y-92400000D01*
X226775000Y-92150000D02*
X229035000Y-92150000D01*
X222800000Y-47110000D02*
X222395000Y-46705000D01*
X214585000Y-71815000D02*
X222800000Y-63600000D01*
X222800000Y-63600000D02*
X222800000Y-47110000D01*
X213292500Y-71815000D02*
X214585000Y-71815000D01*
X213950000Y-63350000D02*
X214300000Y-63700000D01*
X213075000Y-63350000D02*
X213950000Y-63350000D01*
D65*
X207825000Y-66310000D02*
X207750000Y-66385000D01*
X207825000Y-64900000D02*
X207825000Y-66310000D01*
X206275000Y-66360000D02*
X206250000Y-66385000D01*
X206275000Y-64900000D02*
X206275000Y-66360000D01*
D64*
X204700000Y-67500000D02*
X205000000Y-67800000D01*
X204700000Y-66385000D02*
X204700000Y-67500000D01*
X209300000Y-67600000D02*
X209500000Y-67800000D01*
X209300000Y-66385000D02*
X209300000Y-67600000D01*
D65*
X207750000Y-67605000D02*
X208050000Y-67905000D01*
X207750000Y-66385000D02*
X207750000Y-67605000D01*
X206250000Y-67655000D02*
X206500000Y-67905000D01*
X206250000Y-66385000D02*
X206250000Y-67655000D01*
D64*
X206345000Y-70755000D02*
X206900000Y-70200000D01*
X205580000Y-70755000D02*
X206345000Y-70755000D01*
X204030000Y-72630000D02*
X204300000Y-72900000D01*
X204030000Y-70755000D02*
X204030000Y-72630000D01*
X205500000Y-72900000D02*
X204300000Y-72900000D01*
X209000000Y-69400000D02*
X205500000Y-72900000D01*
X211700000Y-69400000D02*
X209000000Y-69400000D01*
X215500000Y-65600000D02*
X211700000Y-69400000D01*
X215500000Y-59000000D02*
X215500000Y-65600000D01*
D65*
X206255000Y-69700000D02*
X208050000Y-67905000D01*
X201725000Y-79993200D02*
X201725000Y-70975000D01*
X199725000Y-81993200D02*
X201725000Y-79993200D01*
X201725000Y-70975000D02*
X203000000Y-69700000D01*
X221825000Y-87537499D02*
X221825000Y-82393200D01*
X221850000Y-88725000D02*
X221850000Y-87562499D01*
X221850000Y-87562499D02*
X221825000Y-87537499D01*
X203000000Y-69700000D02*
X206255000Y-69700000D01*
X221350000Y-87562499D02*
X221350000Y-88725000D01*
X221375000Y-82206800D02*
X221375000Y-87537499D01*
X201275000Y-79806800D02*
X199275000Y-81806800D01*
X201275000Y-70825000D02*
X201275000Y-79806800D01*
X221375000Y-87537499D02*
X221350000Y-87562499D01*
X206018603Y-69300000D02*
X202800000Y-69300000D01*
X206500000Y-68818603D02*
X206018603Y-69300000D01*
X206500000Y-67905000D02*
X206500000Y-68818603D01*
X202800000Y-69300000D02*
X201275000Y-70825000D01*
D64*
X116225000Y-77575000D02*
X116100000Y-77700000D01*
X116225000Y-76950000D02*
X116225000Y-77575000D01*
X114600000Y-77200000D02*
X115100000Y-77700000D01*
X114600000Y-76865000D02*
X114600000Y-77200000D01*
X114685000Y-76950000D02*
X114600000Y-76865000D01*
X116225000Y-76950000D02*
X114685000Y-76950000D01*
X119885000Y-76915000D02*
X120600000Y-76200000D01*
X119300000Y-76915000D02*
X119885000Y-76915000D01*
X120195000Y-72195000D02*
X120300000Y-72300000D01*
X119400000Y-72195000D02*
X120195000Y-72195000D01*
X115295000Y-68305000D02*
X115300000Y-68300000D01*
X113980000Y-68305000D02*
X115295000Y-68305000D01*
X113535000Y-67200000D02*
X112430000Y-68305000D01*
X118500000Y-65400000D02*
X116700000Y-67200000D01*
X116700000Y-67200000D02*
X113535000Y-67200000D01*
X118500000Y-56800000D02*
X118500000Y-65400000D01*
X111995000Y-68305000D02*
X109950000Y-70350000D01*
X112430000Y-68305000D02*
X111995000Y-68305000D01*
X109950000Y-70350000D02*
X109950000Y-71210000D01*
X105050000Y-67650000D02*
X105100000Y-67700000D01*
X105050000Y-66515000D02*
X105050000Y-67650000D01*
X110475000Y-66525000D02*
X110500000Y-66500000D01*
X109600000Y-66525000D02*
X110475000Y-66525000D01*
X114600000Y-63300000D02*
X114700000Y-63200000D01*
X113305000Y-63300000D02*
X114600000Y-63300000D01*
X104524500Y-64900000D02*
X103625000Y-64900000D01*
X103625000Y-64900000D02*
X100850000Y-62125000D01*
X104600000Y-75020000D02*
X104600000Y-76200000D01*
X115400000Y-64400000D02*
X112675000Y-64400000D01*
X112675000Y-64400000D02*
X111675000Y-63400000D01*
X233725000Y-93925000D02*
X233900000Y-94100000D01*
X232660000Y-93925000D02*
X233725000Y-93925000D01*
X232945000Y-82945000D02*
X233000000Y-83000000D01*
X231860000Y-82945000D02*
X232945000Y-82945000D01*
X234585000Y-86325000D02*
X235325000Y-86325000D01*
X235325000Y-86325000D02*
X236100000Y-87100000D01*
X234585000Y-86325000D02*
X236075000Y-86325000D01*
X236075000Y-86325000D02*
X236100000Y-86300000D01*
X235275000Y-86325000D02*
X236100000Y-85500000D01*
X234585000Y-86325000D02*
X235275000Y-86325000D01*
X236025000Y-86225000D02*
X236100000Y-86300000D01*
X237525000Y-91025000D02*
X238400000Y-91900000D01*
X236885000Y-91025000D02*
X237525000Y-91025000D01*
X238325000Y-91025000D02*
X238400000Y-91100000D01*
X236885000Y-91025000D02*
X238325000Y-91025000D01*
X236885000Y-91025000D02*
X237675000Y-91025000D01*
X237675000Y-91025000D02*
X238400000Y-90300000D01*
X238375000Y-91125000D02*
X238400000Y-91100000D01*
X255500000Y-69525000D02*
X255740000Y-69765000D01*
X255500000Y-67880000D02*
X255500000Y-69525000D01*
X254230000Y-69725000D02*
X254190000Y-69765000D01*
X254230000Y-67880000D02*
X254230000Y-69725000D01*
X252960000Y-67880000D02*
X252960000Y-69475000D01*
X252960000Y-69475000D02*
X252690000Y-69745000D01*
X252690000Y-71305000D02*
X252650000Y-71345000D01*
X252690000Y-69745000D02*
X252690000Y-71305000D01*
X254190000Y-69765000D02*
X254190000Y-71395000D01*
X255740000Y-71295000D02*
X255840000Y-71395000D01*
X255740000Y-69765000D02*
X255740000Y-71295000D01*
X246430000Y-67270000D02*
X246400000Y-67300000D01*
X248025000Y-67270000D02*
X246430000Y-67270000D01*
X247004500Y-62720000D02*
X246500000Y-63224500D01*
X248035000Y-62720000D02*
X247004500Y-62720000D01*
X248680000Y-59020000D02*
X252575000Y-59020000D01*
X244200000Y-63500000D02*
X248680000Y-59020000D01*
X249000000Y-69700000D02*
X250995000Y-69700000D01*
X250995000Y-69700000D02*
X251040000Y-69745000D01*
X249955000Y-71345000D02*
X249900000Y-71400000D01*
X251100000Y-71345000D02*
X249955000Y-71345000D01*
X257915000Y-72385000D02*
X257800000Y-72500000D01*
X257915000Y-71280000D02*
X257915000Y-72385000D01*
X257915000Y-68785000D02*
X258600000Y-68100000D01*
X257915000Y-69730000D02*
X257915000Y-68785000D01*
X213225000Y-55375000D02*
X213300000Y-55300000D01*
X212280000Y-55375000D02*
X213225000Y-55375000D01*
X214200000Y-59400000D02*
X213550000Y-60050000D01*
X213500000Y-54000000D02*
X214200000Y-54700000D01*
X209325000Y-54000000D02*
X213500000Y-54000000D01*
X214200000Y-54700000D02*
X214200000Y-59400000D01*
X207400000Y-55925000D02*
X209325000Y-54000000D01*
X213550000Y-60050000D02*
X212975000Y-60050000D01*
X210730000Y-55970000D02*
X209900000Y-56800000D01*
X210730000Y-55375000D02*
X210730000Y-55970000D01*
X163590000Y-55290000D02*
X163600000Y-55300000D01*
X162805000Y-55290000D02*
X163590000Y-55290000D01*
X161255000Y-56755000D02*
X161300000Y-56800000D01*
X161255000Y-55290000D02*
X161255000Y-56755000D01*
X163650000Y-59750000D02*
X162525000Y-59750000D01*
X164800000Y-58600000D02*
X163650000Y-59750000D01*
X163687500Y-53187500D02*
X164800000Y-54300000D01*
X164800000Y-54300000D02*
X164800000Y-58600000D01*
X156700000Y-55425000D02*
X158937500Y-53187500D01*
X158937500Y-53187500D02*
X163687500Y-53187500D01*
X114400000Y-55655000D02*
X113380000Y-55655000D01*
X111830000Y-56570000D02*
X111400000Y-57000000D01*
X111830000Y-55655000D02*
X111830000Y-56570000D01*
X115500000Y-55100000D02*
X115500000Y-58025000D01*
X115500000Y-58025000D02*
X113275000Y-60250000D01*
X114700000Y-54300000D02*
X115500000Y-55100000D01*
X108775000Y-54300000D02*
X114700000Y-54300000D01*
X107200000Y-55875000D02*
X108775000Y-54300000D01*
X163275500Y-62900000D02*
X163900000Y-62275500D01*
X162555000Y-62900000D02*
X163275500Y-62900000D01*
X154320000Y-67320000D02*
X154400000Y-67400000D01*
X154320000Y-66025000D02*
X154320000Y-67320000D01*
X158850000Y-67350000D02*
X158800000Y-67400000D01*
X158850000Y-66005000D02*
X158850000Y-67350000D01*
X150124500Y-64300000D02*
X122500000Y-64300000D01*
X150600000Y-63824500D02*
X150124500Y-64300000D01*
X150300000Y-61625000D02*
X150350000Y-61575000D01*
X150300000Y-63524500D02*
X150300000Y-61625000D01*
X150600000Y-63824500D02*
X150300000Y-63524500D01*
X160200000Y-64000000D02*
X160000000Y-64200000D01*
X161400000Y-64000000D02*
X160200000Y-64000000D01*
X161400000Y-64000000D02*
X161025000Y-63625000D01*
X161500000Y-64100000D02*
X161400000Y-64000000D01*
X200507538Y-64100000D02*
X187400000Y-64100000D01*
X161025000Y-63625000D02*
X161025000Y-62950000D01*
X201007538Y-64600000D02*
X200507538Y-64100000D01*
X204100000Y-64600000D02*
X201007538Y-64600000D01*
X182700000Y-64100000D02*
X161500000Y-64100000D01*
X204100000Y-64600000D02*
X203575000Y-64600000D01*
X203575000Y-64600000D02*
X200800000Y-61825000D01*
X211000000Y-63875000D02*
X211475000Y-63400000D01*
X211000000Y-65200000D02*
X211000000Y-63875000D01*
X228185000Y-83315000D02*
X228500000Y-83000000D01*
X228185000Y-86325000D02*
X228185000Y-83315000D01*
X156200000Y-62475000D02*
X155775000Y-62900000D01*
X155080000Y-57180000D02*
X156200000Y-58300000D01*
X156200000Y-58300000D02*
X156200000Y-62475000D01*
X153800000Y-57180000D02*
X155080000Y-57180000D01*
X156800000Y-62375000D02*
X157325000Y-62900000D01*
X156800000Y-59400000D02*
X156800000Y-62375000D01*
X157750000Y-58450000D02*
X156800000Y-59400000D01*
X159150000Y-58450000D02*
X157750000Y-58450000D01*
X151900000Y-59975000D02*
X153545000Y-59975000D01*
X153545000Y-59975000D02*
X153800000Y-59720000D01*
X152000000Y-60075000D02*
X151900000Y-59975000D01*
X152000000Y-61575000D02*
X152000000Y-60075000D01*
X145800000Y-48300000D02*
X147395000Y-46705000D01*
X146225000Y-61625000D02*
X145800000Y-61200000D01*
X147250000Y-61625000D02*
X146225000Y-61625000D01*
X145800000Y-61200000D02*
X145800000Y-48300000D01*
X150475000Y-56950000D02*
X150425000Y-56900000D01*
X151865000Y-56950000D02*
X150475000Y-56950000D01*
X153570000Y-56950000D02*
X153800000Y-57180000D01*
X151865000Y-56950000D02*
X153570000Y-56950000D01*
X153800000Y-56675000D02*
X155050000Y-55425000D01*
X153800000Y-57180000D02*
X153800000Y-56675000D01*
X153800000Y-58450000D02*
X151915000Y-58450000D01*
X151915000Y-58450000D02*
X151865000Y-58500000D01*
X151815000Y-58550000D02*
X151865000Y-58500000D01*
X150425000Y-58550000D02*
X151815000Y-58550000D01*
X148900000Y-57025000D02*
X150425000Y-58550000D01*
X148900000Y-56975000D02*
X148900000Y-57025000D01*
X147340000Y-56975000D02*
X148850000Y-58485000D01*
X147250000Y-56975000D02*
X147340000Y-56975000D01*
X147300000Y-59995000D02*
X147300000Y-58485000D01*
X148900000Y-61595000D02*
X147300000Y-59995000D01*
X148900000Y-61625000D02*
X148900000Y-61595000D01*
X149580000Y-59995000D02*
X149600000Y-59975000D01*
X148850000Y-59995000D02*
X149580000Y-59995000D01*
X150350000Y-59975000D02*
X149600000Y-59975000D01*
X160685000Y-58450000D02*
X160985000Y-58150000D01*
X159150000Y-58450000D02*
X160685000Y-58450000D01*
X160985000Y-58150000D02*
X162475000Y-58150000D01*
X162475000Y-58150000D02*
X162525000Y-58100000D01*
X162475000Y-59700000D02*
X162525000Y-59750000D01*
X160985000Y-59700000D02*
X162475000Y-59700000D01*
X160965000Y-59720000D02*
X160985000Y-59700000D01*
X159150000Y-59720000D02*
X160965000Y-59720000D01*
X159460000Y-61300000D02*
X159150000Y-60990000D01*
X161025000Y-61300000D02*
X159460000Y-61300000D01*
X161075000Y-61350000D02*
X161025000Y-61300000D01*
X162555000Y-61350000D02*
X161075000Y-61350000D01*
X193875000Y-78175000D02*
X194000000Y-78300000D01*
X193875000Y-77150000D02*
X193875000Y-78175000D01*
X195375000Y-77150000D02*
X195400000Y-77175000D01*
X193875000Y-77150000D02*
X195375000Y-77150000D01*
X190335000Y-77135000D02*
X189700000Y-76500000D01*
X190800000Y-77135000D02*
X190335000Y-77135000D01*
X190145000Y-72455000D02*
X189600000Y-73000000D01*
X191000000Y-72455000D02*
X190145000Y-72455000D01*
X212905000Y-74005000D02*
X212600000Y-74005000D01*
X213700000Y-74800000D02*
X212905000Y-74005000D01*
X213355000Y-77800000D02*
X212550000Y-78605000D01*
X213800000Y-77800000D02*
X213355000Y-77800000D01*
X206365000Y-79565000D02*
X206400000Y-79600000D01*
X206365000Y-78650000D02*
X206365000Y-79565000D01*
X209475000Y-79675000D02*
X209500000Y-79700000D01*
X209475000Y-78700000D02*
X209475000Y-79675000D01*
X210925000Y-77050000D02*
X210950000Y-77075000D01*
X209475000Y-77050000D02*
X210925000Y-77050000D01*
X207925000Y-78600000D02*
X209475000Y-77050000D01*
X207925000Y-78700000D02*
X207925000Y-78600000D01*
X200020000Y-60215000D02*
X200100000Y-60295000D01*
X200850000Y-60295000D02*
X200100000Y-60295000D01*
X199400000Y-60215000D02*
X200020000Y-60215000D01*
X204195000Y-60295000D02*
X204250000Y-60240000D01*
X202400000Y-60295000D02*
X204195000Y-60295000D01*
X202450000Y-60345000D02*
X202400000Y-60295000D01*
X202450000Y-61825000D02*
X202450000Y-60345000D01*
X206700000Y-59200000D02*
X206700000Y-62825000D01*
X205200000Y-57700000D02*
X206700000Y-59200000D01*
X204250000Y-57700000D02*
X205200000Y-57700000D01*
X206700000Y-62825000D02*
X206275000Y-63250000D01*
X207400000Y-62825000D02*
X207825000Y-63250000D01*
X207400000Y-59800000D02*
X207400000Y-62825000D01*
X208230000Y-58970000D02*
X207400000Y-59800000D01*
X209600000Y-58970000D02*
X208230000Y-58970000D01*
X201075000Y-56950000D02*
X201025000Y-56900000D01*
X202415000Y-56950000D02*
X201075000Y-56950000D01*
X203500000Y-56950000D02*
X204250000Y-57700000D01*
X202415000Y-56950000D02*
X203500000Y-56950000D01*
X202415000Y-58500000D02*
X203780000Y-58500000D01*
X203780000Y-58500000D02*
X204250000Y-58970000D01*
X202365000Y-58550000D02*
X202415000Y-58500000D01*
X201025000Y-58550000D02*
X202365000Y-58550000D01*
X201025000Y-58550000D02*
X201025000Y-58340000D01*
X199550000Y-57075000D02*
X201025000Y-58550000D01*
X199450000Y-57075000D02*
X199550000Y-57075000D01*
X199350000Y-58625000D02*
X197800000Y-57075000D01*
X199470000Y-58625000D02*
X199350000Y-58625000D01*
X197850000Y-58695000D02*
X197920000Y-58625000D01*
X197850000Y-60215000D02*
X197850000Y-58695000D01*
X199400000Y-61775000D02*
X199400000Y-61765000D01*
X199400000Y-61765000D02*
X197850000Y-60215000D01*
X213025000Y-61750000D02*
X213075000Y-61800000D01*
X211475000Y-61750000D02*
X213025000Y-61750000D01*
X211235000Y-61510000D02*
X211475000Y-61750000D01*
X209600000Y-61510000D02*
X211235000Y-61510000D01*
X211485000Y-60050000D02*
X211435000Y-60000000D01*
X212975000Y-60050000D02*
X211485000Y-60050000D01*
X211195000Y-60240000D02*
X211435000Y-60000000D01*
X209600000Y-60240000D02*
X211195000Y-60240000D01*
X205750000Y-56200000D02*
X204250000Y-57700000D01*
X205750000Y-55925000D02*
X205750000Y-56200000D01*
X209600000Y-58970000D02*
X210915000Y-58970000D01*
X210915000Y-58970000D02*
X211435000Y-58450000D01*
X212975000Y-58400000D02*
X211485000Y-58400000D01*
X211485000Y-58400000D02*
X211435000Y-58450000D01*
X195905000Y-47925000D02*
X197405000Y-46425000D01*
X195905000Y-59930000D02*
X195905000Y-47925000D01*
X197750000Y-61775000D02*
X195905000Y-59930000D01*
X247395000Y-52005000D02*
X247395000Y-46705000D01*
X251200000Y-55810000D02*
X247395000Y-52005000D01*
X251200000Y-55810000D02*
X251015000Y-55810000D01*
X252515000Y-55810000D02*
X251200000Y-55810000D01*
X217521396Y-85310000D02*
X218850000Y-86638604D01*
X218850000Y-86638604D02*
X218850000Y-87000000D01*
X218850000Y-87000000D02*
X218850000Y-88725000D01*
X215865000Y-85310000D02*
X217521396Y-85310000D01*
X218850000Y-86605000D02*
X218850000Y-87000000D01*
X218350000Y-87000000D02*
X216005000Y-87000000D01*
X216005000Y-87000000D02*
X215865000Y-86860000D01*
X218350000Y-88725000D02*
X218350000Y-87000000D01*
D65*
X245802499Y-64470000D02*
X246515000Y-64470000D01*
X245252499Y-65020000D02*
X245802499Y-64470000D01*
X231461801Y-65020000D02*
X245252499Y-65020000D01*
X227006800Y-80875000D02*
X238106801Y-80875000D01*
X222375000Y-85506800D02*
X227006800Y-80875000D01*
X222350000Y-87562499D02*
X222375000Y-87537499D01*
X222350000Y-88725000D02*
X222350000Y-87562499D01*
X245802499Y-66020000D02*
X246515000Y-66020000D01*
X245252499Y-65470000D02*
X245802499Y-66020000D01*
X231648199Y-65470000D02*
X245252499Y-65470000D01*
X216193199Y-80925000D02*
X231648199Y-65470000D01*
X216006801Y-80475000D02*
X231461801Y-65020000D01*
X227193200Y-81325000D02*
X238293199Y-81325000D01*
X222825000Y-87537499D02*
X222825000Y-85693200D01*
X222825000Y-85693200D02*
X227193200Y-81325000D01*
X222850000Y-87562499D02*
X222825000Y-87537499D01*
X222375000Y-87537499D02*
X222375000Y-85506800D01*
X222850000Y-88725000D02*
X222850000Y-87562499D01*
D64*
X95560574Y-68515000D02*
X73140000Y-46094426D01*
X96967500Y-68515000D02*
X95560574Y-68515000D01*
X121400000Y-66547500D02*
X121400000Y-47700000D01*
X118042500Y-69905000D02*
X121400000Y-66547500D01*
X121400000Y-47700000D02*
X122395000Y-46705000D01*
X104970000Y-57670000D02*
X104500000Y-57670000D01*
X107100000Y-59800000D02*
X104970000Y-57670000D01*
X107100000Y-62925000D02*
X107100000Y-59800000D01*
X106575000Y-63450000D02*
X107100000Y-62925000D01*
X107700000Y-63025000D02*
X108125000Y-63450000D01*
X107700000Y-59800000D02*
X107700000Y-63025000D01*
X108500000Y-59000000D02*
X107700000Y-59800000D01*
X109673249Y-58940000D02*
X109613249Y-59000000D01*
X109613249Y-59000000D02*
X108500000Y-59000000D01*
X109850000Y-58940000D02*
X109673249Y-58940000D01*
X104500000Y-56925000D02*
X105550000Y-55875000D01*
X104500000Y-57670000D02*
X104500000Y-56925000D01*
X102485000Y-57350000D02*
X104180000Y-57350000D01*
X104180000Y-57350000D02*
X104500000Y-57670000D01*
X100975000Y-57350000D02*
X100925000Y-57300000D01*
X102485000Y-57350000D02*
X100975000Y-57350000D01*
X97850000Y-60525000D02*
X99450000Y-62125000D01*
X97850000Y-58875000D02*
X97850000Y-60525000D01*
X102435000Y-58950000D02*
X102485000Y-58900000D01*
X100925000Y-58950000D02*
X102435000Y-58950000D01*
X99450000Y-57475000D02*
X100925000Y-58950000D01*
X99450000Y-57325000D02*
X99450000Y-57475000D01*
X99350000Y-58875000D02*
X97800000Y-57325000D01*
X99400000Y-58875000D02*
X99350000Y-58875000D01*
X99400000Y-60525000D02*
X100200000Y-60525000D01*
X100950000Y-60525000D02*
X100200000Y-60525000D01*
X102500000Y-60525000D02*
X102500000Y-62125000D01*
X111405000Y-61480000D02*
X111675000Y-61750000D01*
X109850000Y-61480000D02*
X111405000Y-61480000D01*
X113305000Y-61750000D02*
X111675000Y-61750000D01*
X113175000Y-60150000D02*
X113275000Y-60250000D01*
X111705000Y-60150000D02*
X113175000Y-60150000D01*
X111645000Y-60210000D02*
X111705000Y-60150000D01*
X109850000Y-60210000D02*
X111645000Y-60210000D01*
X111705000Y-58600000D02*
X113275000Y-58600000D01*
X109850000Y-58940000D02*
X111365000Y-58940000D01*
X111365000Y-58940000D02*
X111705000Y-58600000D01*
X96225000Y-62125000D02*
X97800000Y-62125000D01*
X95300000Y-48800000D02*
X95300000Y-61200000D01*
X95300000Y-61200000D02*
X96225000Y-62125000D01*
X97395000Y-46705000D02*
X95300000Y-48800000D01*
X172920000Y-51707500D02*
X191417500Y-70205000D01*
X172920000Y-46094426D02*
X172920000Y-51707500D01*
D65*
X212675000Y-75525000D02*
X212600000Y-75525000D01*
X213225000Y-76075000D02*
X212675000Y-75525000D01*
X213800000Y-76075000D02*
X213225000Y-76075000D01*
X214100000Y-75775000D02*
X213800000Y-76075000D01*
X212675000Y-77075000D02*
X212600000Y-77075000D01*
X213225000Y-76525000D02*
X212675000Y-77075000D01*
X213800000Y-76525000D02*
X213225000Y-76525000D01*
X214100000Y-76825000D02*
X213800000Y-76525000D01*
X220346967Y-94271232D02*
X220771232Y-94271232D01*
X219993199Y-94625000D02*
X220346967Y-94271232D01*
X216612501Y-94625000D02*
X219993199Y-94625000D01*
X216587501Y-94650000D02*
X216612501Y-94625000D01*
X220028768Y-93953033D02*
X220028768Y-93528768D01*
X215425000Y-94650000D02*
X216587501Y-94650000D01*
X216612501Y-94175000D02*
X219806801Y-94175000D01*
X216587501Y-94150000D02*
X216612501Y-94175000D01*
X219806801Y-94175000D02*
X220028768Y-93953033D01*
X215425000Y-94150000D02*
X216587501Y-94150000D01*
D64*
X231110000Y-93925000D02*
X231110000Y-91700000D01*
X231110000Y-91700000D02*
X231785000Y-91025000D01*
X231660000Y-91150000D02*
X231785000Y-91025000D01*
X226775000Y-91150000D02*
X231660000Y-91150000D01*
X230310000Y-82945000D02*
X230310000Y-84200000D01*
X230310000Y-84200000D02*
X228185000Y-86325000D01*
X212157500Y-87202500D02*
X212640000Y-87685000D01*
X212157500Y-85605000D02*
X212157500Y-87202500D01*
X215570000Y-85605000D02*
X215865000Y-85310000D01*
X214232500Y-85605000D02*
X215570000Y-85605000D01*
X215115000Y-86860000D02*
X214290000Y-87685000D01*
X215865000Y-86860000D02*
X215115000Y-86860000D01*
X100725000Y-68800000D02*
X100750000Y-68775000D01*
X99327500Y-68800000D02*
X100725000Y-68800000D01*
X99042500Y-68515000D02*
X99327500Y-68800000D01*
X100650000Y-70562500D02*
X100650000Y-70575000D01*
X102500000Y-69500000D02*
X101712500Y-69500000D01*
X101712500Y-69500000D02*
X100650000Y-70562500D01*
X103700000Y-69500000D02*
X104600000Y-70400000D01*
X102500000Y-69500000D02*
X103700000Y-69500000D01*
X104600000Y-70400000D02*
X104600000Y-71210000D01*
X102400000Y-69400000D02*
X102500000Y-69500000D01*
X102505000Y-72480000D02*
X104600000Y-72480000D01*
X102200000Y-72175000D02*
X102505000Y-72480000D01*
X102200000Y-72175000D02*
X102200000Y-70575000D01*
X99110000Y-73825000D02*
X99085000Y-73800000D01*
X100550000Y-73825000D02*
X99110000Y-73825000D01*
X97580000Y-72105000D02*
X97650000Y-72175000D01*
X97580000Y-70625000D02*
X97580000Y-72105000D01*
X97675000Y-72200000D02*
X97650000Y-72175000D01*
X99075000Y-72200000D02*
X97675000Y-72200000D01*
X100550000Y-72175000D02*
X99100000Y-72175000D01*
X99100000Y-72175000D02*
X99075000Y-72200000D01*
X97650000Y-73725000D02*
X97650000Y-75325000D01*
X97725000Y-73800000D02*
X97650000Y-73725000D01*
X99085000Y-73800000D02*
X97725000Y-73800000D01*
X102400000Y-68775000D02*
X102400000Y-69400000D01*
X104525000Y-73825000D02*
X104600000Y-73750000D01*
X102400000Y-73825000D02*
X104525000Y-73825000D01*
X102400000Y-75385000D02*
X102350000Y-75435000D01*
X102400000Y-73825000D02*
X102400000Y-75385000D01*
X115747500Y-70125000D02*
X115967500Y-69905000D01*
X114200000Y-70125000D02*
X115747500Y-70125000D01*
X112600000Y-71325000D02*
X111875000Y-71325000D01*
X112550000Y-71275000D02*
X112600000Y-71325000D01*
X113800000Y-71325000D02*
X112600000Y-71325000D01*
X112550000Y-70125000D02*
X112550000Y-71275000D01*
X110720000Y-72480000D02*
X109950000Y-72480000D01*
X111875000Y-71325000D02*
X110720000Y-72480000D01*
X114600000Y-72125000D02*
X113800000Y-71325000D01*
X117685000Y-73850000D02*
X117700000Y-73835000D01*
X116225000Y-73850000D02*
X117685000Y-73850000D01*
X116100000Y-73725000D02*
X116225000Y-73850000D01*
X114650000Y-73725000D02*
X116100000Y-73725000D01*
X116150000Y-72125000D02*
X116225000Y-72200000D01*
X114600000Y-72125000D02*
X116150000Y-72125000D01*
X113050000Y-73675000D02*
X113000000Y-73725000D01*
X113050000Y-72125000D02*
X113050000Y-73675000D01*
X109975000Y-73725000D02*
X109950000Y-73750000D01*
X113000000Y-73725000D02*
X109975000Y-73725000D01*
X117750000Y-75425000D02*
X117700000Y-75375000D01*
X117750000Y-76915000D02*
X117750000Y-75425000D01*
X110255000Y-75325000D02*
X109950000Y-75020000D01*
X113000000Y-75325000D02*
X110255000Y-75325000D01*
X113050000Y-75375000D02*
X113000000Y-75325000D01*
X113050000Y-76865000D02*
X113050000Y-75375000D01*
X114675000Y-75300000D02*
X114650000Y-75325000D01*
X116225000Y-75300000D02*
X114675000Y-75300000D01*
X117625000Y-75300000D02*
X117700000Y-75375000D01*
X116225000Y-75300000D02*
X117625000Y-75300000D01*
X116200000Y-76925000D02*
X116225000Y-76950000D01*
X110295000Y-75365000D02*
X109950000Y-75020000D01*
X110025000Y-73825000D02*
X109950000Y-73750000D01*
X116200000Y-72225000D02*
X116225000Y-72200000D01*
X117700000Y-72345000D02*
X117850000Y-72195000D01*
X117700000Y-73835000D02*
X117700000Y-72345000D01*
X116230000Y-72195000D02*
X116225000Y-72200000D01*
X209760000Y-71815000D02*
X209650000Y-71925000D01*
X211217500Y-71815000D02*
X209760000Y-71815000D01*
X208000000Y-71925000D02*
X208000000Y-73325000D01*
X208325000Y-73325000D02*
X208000000Y-73325000D01*
X208000000Y-73325000D02*
X206645000Y-73325000D01*
X206645000Y-73325000D02*
X205800000Y-74170000D01*
X205800000Y-74170000D02*
X206205000Y-74170000D01*
X209000000Y-74000000D02*
X208325000Y-73325000D01*
X204300000Y-74170000D02*
X205800000Y-74170000D01*
X209425000Y-74000000D02*
X209000000Y-74000000D01*
X206205000Y-74170000D02*
X206325000Y-74050000D01*
X206365000Y-77100000D02*
X204690000Y-77100000D01*
X204690000Y-77100000D02*
X204300000Y-76710000D01*
X204460000Y-75600000D02*
X204300000Y-75440000D01*
X206325000Y-75600000D02*
X204460000Y-75600000D01*
X207825000Y-74100000D02*
X206325000Y-75600000D01*
X207825000Y-74050000D02*
X207825000Y-74100000D01*
X207875000Y-75650000D02*
X207825000Y-75700000D01*
X209425000Y-75650000D02*
X207875000Y-75650000D01*
X211050000Y-75425000D02*
X210950000Y-75525000D01*
X211050000Y-74005000D02*
X211050000Y-75425000D01*
X210950000Y-75525000D02*
X209550000Y-75525000D01*
X209550000Y-75525000D02*
X209425000Y-75650000D01*
X210950000Y-78555000D02*
X211000000Y-78605000D01*
X210950000Y-77075000D02*
X210950000Y-78555000D01*
X209570000Y-78605000D02*
X209475000Y-78700000D01*
X206515000Y-77050000D02*
X206365000Y-76900000D01*
X207925000Y-77050000D02*
X206515000Y-77050000D01*
X196850000Y-70375000D02*
X196850000Y-71350000D01*
X196900000Y-71400000D02*
X197300000Y-71400000D01*
X196000000Y-71400000D02*
X196900000Y-71400000D01*
X196850000Y-71350000D02*
X196900000Y-71400000D01*
X195200000Y-70375000D02*
X193662500Y-70375000D01*
X193662500Y-70375000D02*
X193492500Y-70205000D01*
X197450000Y-71400000D02*
X198950000Y-72900000D01*
X197100000Y-71400000D02*
X197450000Y-71400000D01*
X193950000Y-75575000D02*
X193875000Y-75500000D01*
X195350000Y-75575000D02*
X193950000Y-75575000D01*
X196950000Y-75625000D02*
X197000000Y-75575000D01*
X196950000Y-77175000D02*
X196950000Y-75625000D01*
X197100000Y-73925000D02*
X197150000Y-73975000D01*
X197100000Y-72515000D02*
X197100000Y-73925000D01*
X197345000Y-74170000D02*
X197150000Y-73975000D01*
X198950000Y-74170000D02*
X197345000Y-74170000D01*
X195600000Y-71800000D02*
X196000000Y-71400000D01*
X195600000Y-72465000D02*
X195600000Y-71800000D01*
X195550000Y-72515000D02*
X195600000Y-72465000D01*
X194075000Y-72300000D02*
X195335000Y-72300000D01*
X195335000Y-72300000D02*
X195550000Y-72515000D01*
X194250000Y-72475000D02*
X194075000Y-72300000D01*
X197150000Y-73965000D02*
X197100000Y-74015000D01*
X198795000Y-74015000D02*
X198950000Y-74170000D01*
X198815000Y-75575000D02*
X198950000Y-75440000D01*
X197000000Y-75575000D02*
X198815000Y-75575000D01*
X195485000Y-73950000D02*
X195550000Y-74015000D01*
X192600000Y-72505000D02*
X192550000Y-72455000D01*
X192600000Y-73915000D02*
X192600000Y-72505000D01*
X193920000Y-72455000D02*
X194075000Y-72300000D01*
X192350000Y-75725000D02*
X192500000Y-75575000D01*
X192350000Y-77135000D02*
X192350000Y-75725000D01*
X193800000Y-75575000D02*
X193875000Y-75500000D01*
X192500000Y-75575000D02*
X193800000Y-75575000D01*
X254065000Y-57420000D02*
X254055000Y-57410000D01*
X254065000Y-59020000D02*
X254065000Y-57420000D01*
X256965000Y-57520000D02*
X255490000Y-58995000D01*
X255480000Y-60295000D02*
X255480000Y-62510000D01*
X255480000Y-62510000D02*
X255500000Y-62530000D01*
X255490000Y-60495000D02*
X255540000Y-60545000D01*
X257065000Y-57520000D02*
X256965000Y-57520000D01*
X255490000Y-58995000D02*
X255490000Y-60495000D01*
X254230000Y-67930000D02*
X254040000Y-68120000D01*
X254230000Y-66330000D02*
X254230000Y-67880000D01*
X254230000Y-67880000D02*
X254230000Y-67930000D01*
X256930000Y-65820000D02*
X256700000Y-66050000D01*
X258865000Y-65820000D02*
X256930000Y-65820000D01*
X254200000Y-66300000D02*
X254230000Y-66330000D01*
X254065000Y-60570000D02*
X254065000Y-62365000D01*
X254065000Y-62365000D02*
X254230000Y-62530000D01*
X253965000Y-60670000D02*
X254065000Y-60570000D01*
X252575000Y-60670000D02*
X253965000Y-60670000D01*
X254055000Y-55860000D02*
X254055000Y-55920000D01*
X255545000Y-57440000D02*
X255545000Y-57350000D01*
X254055000Y-55920000D02*
X252515000Y-57460000D01*
X255545000Y-57350000D02*
X254055000Y-55860000D01*
D65*
X246715000Y-64270000D02*
X246515000Y-64470000D01*
X248110000Y-64195000D02*
X248035000Y-64270000D01*
X248035000Y-64270000D02*
X246715000Y-64270000D01*
X249490000Y-64195000D02*
X248110000Y-64195000D01*
X248025000Y-65720000D02*
X246815000Y-65720000D01*
X246815000Y-65720000D02*
X246515000Y-66020000D01*
X249490000Y-65745000D02*
X248050000Y-65745000D01*
X248050000Y-65745000D02*
X248025000Y-65720000D01*
D64*
X161300000Y-56800000D02*
X159530000Y-56800000D01*
X256770000Y-67880000D02*
X258380000Y-67880000D01*
X209900000Y-57400000D02*
X209600000Y-57700000D01*
X110520000Y-57000000D02*
X109850000Y-57670000D01*
X209900000Y-56800000D02*
X209900000Y-57400000D01*
X159530000Y-56800000D02*
X159150000Y-57180000D01*
X111400000Y-57000000D02*
X110520000Y-57000000D01*
X258380000Y-67880000D02*
X258600000Y-68100000D01*
X255545000Y-55890000D02*
X257045000Y-55890000D01*
X257045000Y-55890000D02*
X257065000Y-55870000D01*
X199000000Y-78300000D02*
X199000000Y-76760000D01*
X104300000Y-61680000D02*
X104500000Y-61480000D01*
X104300000Y-63100000D02*
X104300000Y-61680000D01*
X251330000Y-62530000D02*
X251300000Y-62500000D01*
X252960000Y-62530000D02*
X251330000Y-62530000D01*
X199000000Y-76760000D02*
X198950000Y-76710000D01*
X204200000Y-63000000D02*
X204200000Y-61560000D01*
X153800000Y-62400000D02*
X153800000Y-60990000D01*
X204200000Y-61560000D02*
X204250000Y-61510000D01*
X256770000Y-63140000D02*
X255040000Y-64870000D01*
X257090000Y-60545000D02*
X257090000Y-59045000D01*
X251815000Y-64870000D02*
X251140000Y-64195000D01*
X256770000Y-60865000D02*
X257090000Y-60545000D01*
X258615000Y-64170000D02*
X258410000Y-64170000D01*
X258410000Y-64170000D02*
X256770000Y-62530000D01*
X257090000Y-59045000D02*
X257140000Y-58995000D01*
X255040000Y-64870000D02*
X251815000Y-64870000D01*
X256770000Y-62530000D02*
X256770000Y-63140000D01*
X256770000Y-62530000D02*
X256770000Y-60865000D01*
X254990000Y-65320000D02*
X251565000Y-65320000D01*
X251565000Y-65320000D02*
X251140000Y-65745000D01*
X255500000Y-67880000D02*
X255500000Y-65830000D01*
X255500000Y-65830000D02*
X254990000Y-65320000D01*
M02*
