M48
; DRILL file {KiCad 7.0.2} date Wed Apr  3 16:33:37 2024
; FORMAT={-:-/ absolute / metric / decimal}
; #@! TF.CreationDate,2024-04-03T16:33:37+02:00
; #@! TF.GenerationSoftware,Kicad,Pcbnew,7.0.2
; #@! TF.FileFunction,Plated,1,4,PTH
FMAT,2
METRIC
; #@! TA.AperFunction,Plated,PTH,ViaDrill
T1C0.200
; #@! TA.AperFunction,Plated,PTH,ViaDrill
T2C0.300
; #@! TA.AperFunction,Plated,PTH,ViaDrill
T3C0.400
; #@! TA.AperFunction,Plated,PTH,ViaDrill
T4C0.600
; #@! TA.AperFunction,Plated,PTH,ComponentDrill
T5C0.800
; #@! TA.AperFunction,Plated,PTH,ComponentDrill
T6C0.850
; #@! TA.AperFunction,Plated,PTH,ComponentDrill
T7C0.920
; #@! TA.AperFunction,Plated,PTH,ComponentDrill
T8C1.000
; #@! TA.AperFunction,Plated,PTH,ComponentDrill
T9C1.100
; #@! TA.AperFunction,Plated,PTH,ComponentDrill
T10C1.400
; #@! TA.AperFunction,Plated,PTH,ComponentDrill
T11C2.300
; #@! TA.AperFunction,Plated,PTH,ComponentDrill
T12C3.200
%
G90
G05
T1
X165.65Y-102.675
X165.675Y-101.375
X167.075Y-102.025
X169.975Y-117.3
X171.275Y-114.8
X171.35Y-135.2
X172.225Y-135.225
X172.25Y-114.8
X172.961Y-123.085
X173.175Y-121.375
X173.311Y-117.9
X173.325Y-118.6
X173.361Y-119.5
X173.463Y-120.712
X173.575Y-122.75
X173.85Y-120.125
X173.925Y-117.45
X173.95Y-119.085
X174.05Y-122.175
X180.91Y-123.47
X181.0Y-122.01
X181.361Y-126.359
X181.41Y-130.65
X181.45Y-124.05
X181.72Y-121.36
X181.724Y-116.997
X181.732Y-117.84
X181.75Y-128.75
X181.811Y-118.885
X181.861Y-122.235
X181.927Y-116.107
X181.95Y-123.275
X182.175Y-133.075
X184.375Y-127.275
X184.49Y-128.064
X184.611Y-119.285
X184.611Y-120.985
X184.611Y-133.985
X184.8Y-132.35
X184.875Y-134.7
X185.011Y-131.535
X185.1Y-127.2
X185.956Y-127.27
X186.354Y-120.96
X186.75Y-128.95
X186.8Y-130.125
X186.85Y-119.55
X187.054Y-120.26
X187.175Y-121.0
X187.225Y-113.2
X187.325Y-129.51
X187.875Y-110.75
X187.925Y-112.375
X188.011Y-113.182
X188.025Y-113.95
X188.65Y-109.8
X188.8Y-113.275
X188.9Y-110.719
X188.9Y-111.7
X189.504Y-109.897
X189.754Y-122.86
X189.797Y-124.505
X189.813Y-125.648
X189.855Y-129.463
X190.034Y-128.514
X190.125Y-127.775
X190.225Y-126.95
X190.449Y-129.96
X190.5Y-126.275
X190.625Y-125.05
X191.223Y-130.001
X193.275Y-119.075
X194.45Y-134.55
X194.525Y-133.325
X194.804Y-123.16
X194.95Y-133.96
X195.479Y-134.785
X196.2Y-133.875
X196.954Y-133.71
X197.5Y-120.3
X197.625Y-134.225
X197.675Y-133.2
X198.6Y-138.725
X198.975Y-138.024
X199.525Y-116.95
X199.554Y-117.935
X199.8Y-138.2
X200.225Y-116.41
X200.35Y-117.412
X200.975Y-116.875
X201.05Y-117.9
X201.893Y-125.907
X201.95Y-111.45
X202.054Y-112.16
X202.225Y-118.6
X202.325Y-117.75
X202.575Y-124.75
X202.65Y-126.925
X202.794Y-112.979
X202.825Y-112.225
X203.125Y-118.4
X203.225Y-109.9
X203.4Y-113.375
X203.425Y-125.125
X204.15Y-92.95
X204.3Y-121.45
X204.375Y-126.4
X205.154Y-123.11
X205.45Y-132.225
X205.525Y-125.575
X205.675Y-123.7
X205.695Y-93.025
X205.825Y-104.4
X206.05Y-120.15
X206.1Y-123.05
X206.254Y-117.21
X206.325Y-124.1
X206.725Y-116.525
X206.918Y-103.936
X207.068Y-121.7
X207.1Y-131.325
X207.2Y-129.95
X207.454Y-110.075
X207.454Y-110.9
X207.454Y-112.325
X207.604Y-130.66
X207.625Y-132.025
X207.975Y-131.3
X208.025Y-129.925
X208.4Y-121.675
X208.4Y-132.475
X208.425Y-123.175
X208.431Y-120.916
X208.44Y-122.413
X208.729Y-111.75
X211.6Y-131.45
X212.15Y-113.85
X212.325Y-111.56
X212.75Y-112.575
X212.8Y-110.925
X213.2Y-125.025
X213.275Y-126.65
X214.25Y-113.442
X214.75Y-125.225
X214.8Y-122.5
X214.825Y-120.875
X216.7Y-120.675
X218.25Y-122.025
X218.85Y-85.65
X218.85Y-86.45
X218.85Y-87.25
X218.85Y-88.05
T2
X156.325Y-98.3
X197.8Y-137.216
T3
X41.355Y-125.275
X41.4Y-47.8
X41.4Y-52.8
X41.4Y-57.8
X42.2Y-88.7
X42.2Y-93.7
X42.2Y-98.7
X42.275Y-104.275
X42.275Y-107.275
X42.6Y-112.15
X45.2Y-88.7
X45.2Y-93.7
X45.2Y-98.7
X45.6Y-112.15
X46.27Y-125.275
X46.4Y-47.8
X49.925Y-47.8
X52.275Y-104.275
X52.275Y-107.275
X54.925Y-47.8
X54.925Y-52.8
X54.925Y-57.8
X55.625Y-136.125
X56.664Y-145.0
X56.733Y-141.775
X57.275Y-104.275
X57.275Y-107.275
X58.805Y-122.137
X61.594Y-145.0
X61.733Y-141.775
X62.078Y-136.168
X62.275Y-104.275
X62.275Y-107.275
X63.297Y-138.278
X65.5Y-87.65
X65.5Y-90.65
X65.75Y-140.025
X66.525Y-145.0
X66.7Y-112.55
X66.7Y-115.55
X66.733Y-141.775
X67.275Y-104.275
X67.275Y-107.275
X67.513Y-129.388
X69.296Y-125.938
X69.444Y-141.975
X69.5Y-129.336
X69.583Y-138.75
X69.673Y-60.131
X70.464Y-66.103
X70.5Y-90.65
X71.226Y-63.411
X71.7Y-112.55
X71.7Y-115.55
X72.275Y-104.275
X72.275Y-107.275
X72.719Y-146.4
X72.858Y-143.175
X73.05Y-131.166
X73.66Y-129.438
X73.664Y-65.392
X74.375Y-141.975
X74.528Y-68.033
X74.583Y-138.75
X75.5Y-87.65
X75.5Y-90.65
X76.7Y-112.55
X76.7Y-115.55
X76.725Y-104.275
X76.725Y-107.275
X77.575Y-57.925
X77.65Y-146.4
X77.858Y-143.175
X79.1Y-68.237
X79.4Y-63.4
X79.9Y-71.6
X81.284Y-66.713
X81.725Y-104.275
X81.725Y-107.275
X82.05Y-135.075
X82.05Y-138.3
X82.05Y-141.3
X82.125Y-68.375
X82.125Y-73.375
X82.25Y-131.9
X82.376Y-57.111
X82.452Y-55.791
X83.225Y-69.2
X83.824Y-63.461
X84.9Y-71.6
X84.9Y-76.6
X85.65Y-57.925
X85.65Y-62.925
X86.725Y-104.275
X86.725Y-107.275
X86.981Y-138.3
X86.981Y-141.3
X87.025Y-144.125
X87.05Y-135.075
X87.055Y-146.975
X87.125Y-68.375
X87.125Y-73.375
X87.165Y-131.9
X89.9Y-71.6
X89.9Y-76.6
X90.65Y-62.925
X91.725Y-104.275
X91.725Y-107.275
X91.911Y-138.3
X91.911Y-141.3
X91.93Y-144.125
X91.959Y-146.975
X92.05Y-135.075
X92.08Y-131.9
X92.125Y-68.375
X92.125Y-73.375
X93.421Y-64.608
X94.9Y-71.6
X94.9Y-76.6
X95.65Y-57.925
X95.75Y-87.875
X95.75Y-90.875
X96.3Y-111.075
X96.3Y-114.075
X96.325Y-116.95
X96.325Y-119.95
X96.725Y-104.275
X96.725Y-107.275
X96.834Y-144.125
X96.842Y-138.3
X96.842Y-141.3
X96.864Y-146.975
X96.995Y-131.9
X97.05Y-135.075
X99.85Y-58.025
X100.75Y-87.875
X100.75Y-90.875
X101.3Y-111.075
X101.3Y-114.075
X101.325Y-116.95
X101.325Y-119.95
X101.725Y-104.275
X101.725Y-107.275
X101.739Y-144.125
X101.768Y-146.975
X101.772Y-138.3
X101.772Y-141.3
X101.91Y-131.9
X102.05Y-135.075
X102.4Y-60.475
X103.646Y-70.72
X104.455Y-73.067
X104.597Y-71.028
X104.597Y-72.078
X104.807Y-70.051
X104.85Y-58.025
X104.85Y-63.025
X105.487Y-72.533
X105.75Y-87.875
X105.75Y-90.875
X106.3Y-111.075
X106.3Y-114.075
X106.325Y-116.95
X106.325Y-119.95
X106.643Y-144.125
X106.673Y-146.975
X106.703Y-138.3
X106.703Y-141.3
X106.725Y-104.275
X106.725Y-107.275
X106.825Y-131.9
X107.05Y-135.075
X107.391Y-69.621
X107.409Y-73.845
X111.404Y-75.032
X111.548Y-144.125
X111.577Y-146.975
X111.633Y-138.3
X111.633Y-141.3
X111.7Y-104.075
X111.7Y-107.075
X111.74Y-131.9
X112.05Y-135.075
X112.313Y-59.416
X112.827Y-66.142
X113.044Y-75.178
X113.614Y-62.89
X114.3Y-75.819
X116.027Y-64.608
X116.078Y-66.04
X116.452Y-144.125
X116.482Y-146.975
X116.564Y-138.3
X116.564Y-141.3
X116.655Y-131.9
X116.7Y-104.075
X116.7Y-107.075
X117.05Y-135.075
X121.357Y-144.125
X121.386Y-146.975
X121.494Y-138.3
X121.494Y-141.3
X121.57Y-131.9
X121.7Y-104.075
X121.7Y-107.075
X122.05Y-135.075
X122.58Y-66.04
X123.901Y-66.04
X125.044Y-55.169
X125.79Y-56.531
X126.238Y-62.84
X126.261Y-144.125
X126.291Y-146.975
X126.425Y-138.3
X126.425Y-141.3
X126.485Y-131.9
X126.746Y-76.708
X127.05Y-135.075
X127.152Y-67.462
X127.886Y-76.786
X128.727Y-56.531
X131.089Y-76.886
X131.166Y-144.125
X131.195Y-146.975
X131.279Y-103.276
X131.4Y-131.9
X132.05Y-135.075
X132.08Y-121.209
X132.086Y-71.386
X134.01Y-106.223
X134.214Y-111.1
X134.874Y-103.175
X135.788Y-105.156
X136.07Y-144.125
X136.1Y-146.975
X136.315Y-131.9
X136.375Y-98.075
X136.728Y-123.088
X137.05Y-114.575
X137.05Y-135.075
X137.75Y-68.8
X137.75Y-71.8
X137.76Y-120.676
X138.153Y-116.628
X138.25Y-113.6
X138.25Y-115.1
X138.582Y-88.9
X138.684Y-121.056
X138.938Y-108.814
X139.125Y-143.912
X139.65Y-58.125
X139.65Y-63.125
X139.85Y-118.25
X139.88Y-121.104
X140.075Y-126.125
X140.222Y-122.149
X140.425Y-93.725
X140.564Y-123.088
X140.614Y-107.442
X140.755Y-147.05
X140.798Y-143.912
X140.818Y-98.247
X140.868Y-103.327
X141.141Y-108.351
X141.23Y-131.9
X141.326Y-124.003
X141.402Y-124.999
X142.037Y-89.306
X142.05Y-135.075
X142.325Y-124.003
X142.342Y-94.183
X142.471Y-143.912
X142.75Y-68.8
X142.75Y-71.8
X143.476Y-125.679
X143.534Y-123.323
X143.597Y-124.605
X144.144Y-143.912
X144.25Y-113.425
X144.275Y-104.925
X144.475Y-122.987
X144.475Y-125.679
X144.485Y-111.062
X144.577Y-124.409
X144.65Y-58.125
X144.65Y-63.125
X144.856Y-99.955
X144.882Y-109.372
X144.932Y-98.958
X145.085Y-111.862
X145.087Y-121.312
X145.203Y-116.32
X145.659Y-147.05
X145.675Y-94.725
X145.816Y-143.912
X146.145Y-131.9
X146.253Y-108.17
X146.253Y-109.169
X146.456Y-89.256
X146.504Y-106.183
X146.757Y-107.15
X146.812Y-115.519
X146.922Y-114.526
X147.05Y-135.075
X147.251Y-108.115
X147.489Y-143.912
X147.75Y-68.8
X147.75Y-71.8
X148.641Y-125.273
X148.975Y-107.625
X149.008Y-115.108
X149.125Y-143.925
X149.25Y-116.078
X149.6Y-100.5
X149.65Y-58.125
X149.65Y-63.125
X149.86Y-94.234
X150.24Y-115.937
X150.3Y-143.925
X150.432Y-125.286
X150.564Y-147.05
X151.06Y-131.9
X151.375Y-108.8
X151.375Y-111.65
X151.79Y-116.129
X152.3Y-97.65
X152.667Y-125.388
X152.75Y-68.8
X152.75Y-71.8
X153.013Y-92.229
X153.568Y-94.183
X154.025Y-108.8
X154.025Y-111.65
X154.178Y-92.405
X154.534Y-125.422
X154.65Y-58.125
X154.65Y-63.125
X154.95Y-119.025
X154.95Y-120.0
X155.35Y-102.425
X155.35Y-105.275
X155.468Y-147.05
X155.6Y-107.8
X155.6Y-110.65
X155.65Y-85.625
X155.65Y-88.275
X155.975Y-131.9
X156.0Y-135.075
X156.632Y-125.374
X157.042Y-97.555
X157.6Y-52.625
X157.65Y-33.1
X157.65Y-38.1
X157.65Y-43.1
X157.65Y-48.1
X157.75Y-68.8
X157.75Y-71.8
X157.75Y-141.7
X157.75Y-142.8
X158.0Y-102.425
X158.0Y-105.275
X158.09Y-115.976
X158.25Y-90.65
X158.25Y-107.8
X158.25Y-110.65
X158.35Y-143.725
X158.445Y-125.476
X158.575Y-58.075
X158.575Y-63.075
X158.775Y-85.675
X158.775Y-88.325
X159.425Y-143.075
X159.512Y-94.183
X159.941Y-104.725
X160.2Y-129.675
X160.373Y-147.05
X160.475Y-143.075
X160.85Y-98.1
X160.85Y-110.15
X160.85Y-111.95
X160.85Y-113.625
X160.85Y-116.225
X161.0Y-135.075
X161.175Y-143.725
X161.95Y-143.075
X162.125Y-105.975
X162.465Y-101.935
X162.55Y-127.375
X162.6Y-52.625
X162.6Y-103.025
X162.65Y-43.1
X162.65Y-48.1
X162.75Y-68.8
X162.75Y-71.8
X162.814Y-99.05
X163.175Y-143.075
X163.575Y-58.075
X163.575Y-63.075
X163.85Y-133.775
X164.404Y-130.346
X165.15Y-119.975
X165.2Y-121.025
X165.225Y-119.025
X165.25Y-124.975
X165.275Y-121.975
X165.277Y-147.05
X165.498Y-144.125
X165.659Y-96.317
X166.072Y-129.285
X166.219Y-102.022
X166.253Y-127.794
X166.268Y-106.172
X166.319Y-111.912
X166.375Y-107.625
X166.575Y-114.55
X166.6Y-133.85
X166.65Y-121.125
X166.725Y-117.1
X167.6Y-52.625
X167.65Y-43.1
X167.65Y-48.1
X167.7Y-94.825
X167.75Y-68.8
X167.75Y-71.8
X168.575Y-58.075
X168.575Y-63.075
X168.675Y-94.825
X168.775Y-125.325
X168.775Y-129.825
X169.025Y-100.725
X169.45Y-109.075
X169.5Y-105.275
X170.025Y-118.25
X170.05Y-102.425
X170.075Y-121.05
X170.1Y-119.71
X170.182Y-147.05
X170.2Y-132.3
X170.225Y-127.525
X170.402Y-144.125
X171.125Y-97.75
X171.125Y-100.4
X171.125Y-103.05
X171.125Y-105.7
X172.356Y-76.297
X172.6Y-52.625
X172.75Y-68.8
X172.75Y-71.8
X173.233Y-77.009
X173.314Y-76.012
X173.575Y-58.075
X173.575Y-63.075
X173.975Y-87.4
X173.975Y-90.05
X173.975Y-92.7
X173.975Y-95.35
X173.975Y-97.75
X173.975Y-100.4
X173.975Y-103.05
X173.975Y-105.7
X174.056Y-75.27
X174.19Y-74.279
X175.02Y-128.65
X175.055Y-75.24
X175.08Y-126.9
X176.55Y-130.18
X176.925Y-42.925
X177.1Y-97.8
X177.1Y-100.45
X177.1Y-103.1
X177.1Y-105.75
X177.17Y-128.73
X177.2Y-52.575
X177.25Y-48.05
X177.26Y-126.93
X177.75Y-68.8
X177.75Y-71.8
X177.75Y-73.725
X177.75Y-76.725
X177.8Y-118.25
X177.925Y-116.6
X178.05Y-131.57
X178.87Y-127.12
X178.99Y-130.18
X179.63Y-133.53
X179.928Y-99.668
X180.05Y-120.275
X180.125Y-118.225
X180.211Y-144.125
X180.575Y-127.175
X180.71Y-116.39
X180.75Y-130.04
X180.82Y-128.85
X180.85Y-131.32
X181.2Y-115.45
X181.305Y-113.995
X181.45Y-133.75
X181.458Y-136.093
X181.675Y-97.725
X181.675Y-100.725
X181.925Y-42.925
X181.991Y-132.232
X182.25Y-48.05
X182.75Y-68.8
X182.75Y-71.8
X182.75Y-73.725
X182.75Y-76.725
X184.111Y-114.91
X184.395Y-60.397
X184.699Y-135.799
X184.925Y-32.3
X184.925Y-37.3
X184.925Y-42.3
X185.116Y-144.125
X185.175Y-97.925
X185.175Y-100.925
X185.512Y-66.574
X185.572Y-139.294
X185.942Y-115.621
X186.122Y-63.678
X186.225Y-70.675
X186.225Y-75.675
X186.575Y-105.5
X187.128Y-99.428
X187.95Y-115.15
X188.025Y-135.1
X188.611Y-64.786
X188.714Y-136.354
X189.074Y-101.19
X189.225Y-70.675
X189.225Y-75.675
X189.4Y-67.769
X190.02Y-144.125
X190.05Y-121.35
X190.1Y-107.825
X190.618Y-94.197
X190.8Y-122.7
X190.975Y-128.0
X191.1Y-126.875
X191.125Y-121.125
X191.125Y-125.775
X191.375Y-124.575
X191.468Y-95.18
X191.551Y-94.25
X192.175Y-111.125
X192.275Y-126.325
X192.294Y-93.507
X192.3Y-127.625
X192.301Y-92.573
X192.866Y-95.777
X193.03Y-97.949
X193.116Y-104.62
X193.142Y-103.68
X193.224Y-93.415
X193.7Y-96.199
X193.7Y-97.299
X193.954Y-72.695
X193.954Y-81.077
X193.954Y-83.109
X193.975Y-103.125
X193.996Y-67.793
X194.0Y-122.725
X194.005Y-74.828
X194.005Y-76.911
X194.005Y-79.096
X194.276Y-98.035
X194.55Y-119.425
X194.62Y-95.86
X194.925Y-144.125
X195.1Y-103.075
X195.575Y-98.235
X195.636Y-123.225
X195.65Y-102.3
X195.675Y-127.2
X195.775Y-125.075
X196.114Y-119.325
X196.15Y-138.975
X196.333Y-66.523
X196.625Y-102.3
X196.85Y-108.191
X197.35Y-125.1
X197.425Y-55.601
X197.425Y-127.225
X197.475Y-132.3
X197.5Y-68.125
X197.5Y-71.125
X197.525Y-102.3
X197.805Y-101.055
X197.806Y-56.709
X197.9Y-108.191
X198.069Y-90.526
X198.525Y-102.3
X198.822Y-63.678
X198.984Y-86.817
X199.025Y-103.225
X199.25Y-143.85
X199.675Y-102.4
X199.697Y-104.028
X199.8Y-108.191
X200.325Y-103.025
X200.475Y-143.225
X200.575Y-127.2
X200.625Y-129.625
X200.675Y-104.025
X200.75Y-138.225
X200.965Y-111.252
X201.397Y-91.846
X201.4Y-102.475
X201.425Y-98.7
X201.45Y-133.35
X201.575Y-106.575
X201.575Y-110.334
X201.65Y-72.725
X201.676Y-75.895
X201.676Y-80.112
X201.676Y-80.112
X201.676Y-83.109
X201.725Y-143.05
X202.5Y-68.125
X202.5Y-71.125
X202.692Y-125.832
X202.775Y-59.475
X202.775Y-62.475
X202.997Y-91.694
X203.15Y-129.625
X203.15Y-143.075
X203.337Y-108.69
X203.35Y-119.6
X203.984Y-109.364
X204.155Y-97.538
X204.25Y-118.65
X204.268Y-95.184
X204.368Y-110.287
X204.45Y-142.8
X204.47Y-125.425
X204.617Y-108.677
X204.876Y-95.893
X204.876Y-96.943
X204.927Y-93.425
X204.927Y-94.475
X205.435Y-124.612
X205.479Y-97.658
X205.5Y-116.275
X205.5Y-118.125
X205.575Y-129.625
X205.588Y-102.083
X205.59Y-95.17
X206.146Y-121.31
X206.78Y-104.745
X207.28Y-134.599
X207.5Y-68.125
X207.5Y-71.125
X207.62Y-121.006
X207.7Y-133.35
X207.775Y-59.475
X207.775Y-62.475
X207.919Y-97.775
X207.975Y-102.413
X208.686Y-110.642
X208.992Y-112.756
X209.55Y-136.825
X209.906Y-92.177
X209.946Y-91.225
X210.363Y-110.998
X210.5Y-88.45
X210.75Y-137.975
X210.8Y-139.15
X210.825Y-140.273
X210.869Y-103.787
X211.05Y-110.05
X211.162Y-111.482
X211.375Y-99.4
X211.662Y-88.638
X211.709Y-130.023
X211.75Y-101.325
X211.76Y-119.101
X211.785Y-125.4
X211.85Y-110.85
X212.5Y-121.8
X212.547Y-83.058
X212.731Y-94.47
X212.775Y-59.475
X212.775Y-62.475
X212.852Y-80.924
X213.0Y-133.677
X213.415Y-113.279
X213.512Y-128.626
X213.868Y-125.832
X214.125Y-118.15
X215.175Y-103.45
X215.375Y-90.675
X215.544Y-86.563
X215.575Y-106.925
X215.697Y-122.072
X215.8Y-126.3
X216.713Y-121.92
X217.325Y-110.525
X218.186Y-82.956
X218.389Y-80.874
X218.4Y-127.225
X218.9Y-106.65
X218.999Y-73.686
X218.999Y-74.736
X219.1Y-92.375
X219.1Y-97.375
X220.32Y-76.606
X220.421Y-71.882
X221.4Y-114.25
X221.425Y-115.625
X221.7Y-123.55
X221.775Y-125.8
X221.85Y-108.15
X221.875Y-128.2
X221.9Y-120.85
X222.1Y-92.375
X222.1Y-97.375
X222.475Y-114.25
X222.5Y-115.625
X222.91Y-66.65
X223.625Y-114.25
X223.65Y-115.625
X224.536Y-77.622
X224.925Y-94.15
X224.925Y-95.621
X224.925Y-97.092
X224.925Y-98.562
X224.925Y-100.033
X225.589Y-60.397
X225.95Y-128.7
X226.06Y-77.572
X226.875Y-94.15
X226.875Y-95.623
X226.875Y-97.096
X226.875Y-98.569
X226.875Y-100.042
X226.975Y-101.525
X227.0Y-102.8
X227.025Y-78.384
X227.178Y-63.5
X228.905Y-79.502
X229.6Y-115.75
X229.87Y-64.811
X230.109Y-67.665
X231.425Y-114.2
X232.95Y-122.075
X233.925Y-122.05
X234.25Y-114.15
X234.659Y-67.665
X236.83Y-66.446
X236.947Y-79.438
X237.125Y-131.4
X237.316Y-133.125
X237.35Y-96.5
X237.35Y-97.87
X237.35Y-99.24
X237.35Y-100.61
X237.35Y-101.98
X237.35Y-103.35
X237.439Y-70.206
X238.277Y-55.55
X238.862Y-56.734
X239.225Y-85.775
X239.225Y-88.775
X239.225Y-91.775
X239.725Y-63.398
X240.2Y-79.375
X240.55Y-68.225
X240.55Y-131.45
X241.225Y-133.0
X242.722Y-56.734
X242.85Y-128.0
X243.75Y-123.825
X244.125Y-131.45
X244.16Y-73.827
X244.225Y-85.775
X244.225Y-88.775
X244.225Y-91.775
X244.45Y-78.511
X245.1Y-75.833
X245.1Y-76.883
X245.15Y-58.925
X245.15Y-61.925
X247.45Y-125.475
X249.6Y-67.6
X249.6Y-70.6
X249.6Y-73.6
X249.6Y-76.6
X249.6Y-79.6
X249.6Y-82.6
X249.6Y-85.6
X249.6Y-88.6
X249.6Y-91.6
X249.6Y-94.6
X250.15Y-58.925
X252.574Y-107.867
X252.574Y-109.067
X253.905Y-109.067
X254.6Y-67.6
X254.6Y-70.6
X254.6Y-73.6
X254.6Y-76.6
X254.6Y-79.6
X254.6Y-82.6
X254.6Y-85.6
X254.6Y-88.6
X254.6Y-91.6
X254.6Y-94.6
X254.8Y-142.625
X254.8Y-145.625
X254.825Y-131.4
X254.825Y-134.4
X254.825Y-137.4
X254.825Y-140.4
X254.85Y-113.625
X254.85Y-116.625
X254.85Y-119.625
X254.85Y-122.625
X254.85Y-125.625
X254.85Y-128.625
X254.925Y-111.275
X255.235Y-109.067
X256.175Y-59.2
X256.175Y-62.2
X256.566Y-109.067
X257.896Y-109.067
X258.774Y-108.067
X259.225Y-113.9
X259.225Y-116.839
X259.225Y-119.777
X259.225Y-122.716
X259.225Y-125.655
X259.225Y-128.593
X259.225Y-131.532
X259.225Y-134.47
X259.225Y-137.409
X259.225Y-140.348
X259.225Y-143.286
X259.225Y-146.225
X259.227Y-109.067
X259.6Y-67.6
X259.6Y-70.6
X259.6Y-73.6
X259.6Y-76.6
X259.6Y-79.6
X259.6Y-82.6
X259.6Y-85.6
X259.6Y-88.6
X259.6Y-91.6
X259.6Y-94.6
X260.557Y-109.067
X261.175Y-59.2
X261.175Y-62.2
X261.7Y-113.925
X261.888Y-109.067
X261.95Y-116.575
X262.214Y-146.225
X262.526Y-118.625
X262.534Y-119.975
X262.534Y-121.514
X263.218Y-109.067
X264.6Y-67.6
X264.6Y-70.6
X264.6Y-73.6
X264.6Y-76.6
X264.6Y-79.6
X264.6Y-82.6
X264.6Y-85.6
X264.6Y-88.6
X264.6Y-91.6
X264.6Y-94.6
X264.7Y-113.925
X264.719Y-109.093
X265.203Y-146.225
X266.09Y-109.068
X266.175Y-59.2
X266.175Y-62.2
X266.301Y-107.864
X266.598Y-130.2
X266.64Y-135.349
X267.268Y-99.309
X267.268Y-100.538
X267.268Y-101.767
X267.268Y-102.996
X267.268Y-104.225
X267.7Y-113.925
X267.919Y-131.47
X267.941Y-130.2
X267.941Y-132.775
X267.941Y-134.062
X267.941Y-135.349
X268.192Y-146.225
X268.35Y-99.321
X269.718Y-99.338
X270.8Y-99.35
X271.181Y-146.225
X272.143Y-99.422
X272.143Y-100.651
X272.143Y-101.88
X272.143Y-103.109
X272.143Y-104.338
X273.2Y-114.15
X274.169Y-146.225
X274.7Y-99.384
X274.7Y-100.613
X274.7Y-101.842
X274.7Y-103.071
X274.7Y-104.3
X276.2Y-114.15
X277.018Y-99.572
X277.018Y-100.801
X277.018Y-102.03
X277.018Y-103.259
X277.018Y-104.488
X277.158Y-146.225
X278.875Y-100.888
X278.875Y-102.117
X278.875Y-103.346
X278.875Y-104.575
X279.2Y-114.15
X280.147Y-146.225
X280.725Y-102.117
X280.725Y-103.346
X280.725Y-104.575
X281.381Y-82.55
X281.381Y-84.328
X281.381Y-95.301
X281.483Y-71.496
X281.584Y-70.206
X282.2Y-103.371
X282.2Y-104.6
X282.918Y-84.328
X282.918Y-86.207
X282.918Y-88.067
X282.918Y-89.926
X282.918Y-91.785
X282.918Y-93.645
X282.918Y-95.301
X282.988Y-64.816
X282.988Y-66.268
X282.988Y-67.719
X282.988Y-69.171
X283.007Y-70.256
X283.007Y-82.55
X283.019Y-80.843
X283.032Y-78.984
X283.045Y-77.124
X283.058Y-75.265
X283.07Y-73.406
X283.083Y-71.546
X283.136Y-146.225
X283.95Y-125.55
X284.632Y-82.55
X284.632Y-84.328
X284.632Y-95.301
X284.725Y-97.6
X284.734Y-71.526
X284.937Y-126.797
X284.937Y-128.067
X286.125Y-146.225
X286.3Y-97.6
X286.36Y-126.797
X287.731Y-125.476
X287.731Y-125.476
X287.731Y-126.797
X287.731Y-126.797
X287.731Y-128.067
X287.85Y-114.625
X289.154Y-126.797
X290.525Y-125.476
X290.525Y-126.797
X290.525Y-128.118
X290.85Y-114.625
X292.375Y-49.275
X292.375Y-52.275
X292.375Y-55.275
X292.375Y-58.275
X292.375Y-61.275
X292.375Y-64.275
X293.35Y-101.4
X293.35Y-104.4
X293.35Y-107.4
X293.4Y-114.625
X293.4Y-117.625
X293.4Y-120.625
X296.475Y-109.375
X296.7Y-132.25
X296.85Y-134.85
X297.25Y-96.175
X297.25Y-99.175
X297.275Y-78.4
X297.275Y-81.4
X297.275Y-84.4
X297.275Y-87.4
X297.275Y-90.4
X297.275Y-93.4
X297.35Y-67.05
X297.35Y-70.05
X297.35Y-73.05
X297.35Y-76.05
X297.375Y-49.275
X297.375Y-58.275
X297.375Y-61.275
X297.375Y-64.275
X298.4Y-114.625
X298.4Y-117.625
X298.4Y-120.625
X299.475Y-109.375
X300.05Y-123.825
X300.05Y-126.825
X300.05Y-129.825
X300.05Y-132.25
X300.05Y-134.85
X302.25Y-96.175
X302.25Y-99.175
X302.25Y-102.175
X302.25Y-105.175
X302.275Y-78.4
X302.275Y-81.4
X302.275Y-84.4
X302.275Y-87.4
X302.275Y-90.4
X302.275Y-93.4
X302.35Y-67.05
X302.35Y-70.05
X302.35Y-73.05
X302.35Y-76.05
X302.375Y-49.275
X302.375Y-52.275
X302.375Y-55.275
X302.375Y-58.275
X302.375Y-61.275
X302.375Y-64.275
X302.475Y-109.375
X303.4Y-114.625
X303.4Y-117.625
X303.4Y-120.625
X303.4Y-123.85
X303.4Y-126.85
X303.4Y-129.85
X303.4Y-132.25
X303.4Y-134.85
T4
X282.988Y-60.33
X282.988Y-61.782
X282.988Y-63.234
X287.477Y-66.548
X288.442Y-67.462
T5
X134.715Y-139.2
X134.715Y-141.7
X167.75Y-139.16
X167.75Y-141.66
X220.426Y-101.165
X220.426Y-103.665
X227.36Y-123.05
X228.694Y-107.135
X229.86Y-123.05
X231.194Y-107.135
X239.045Y-115.566
X239.045Y-118.066
X245.834Y-98.907
X245.834Y-101.407
X248.487Y-105.598
X248.487Y-108.098
X252.949Y-99.023
X252.949Y-101.523
X262.868Y-140.992
X262.868Y-143.492
X270.076Y-140.992
X270.076Y-143.492
X271.023Y-57.736
X271.023Y-60.236
X271.207Y-124.152
X271.207Y-126.652
X271.319Y-65.116
X271.319Y-67.616
X273.153Y-83.766
X274.746Y-130.493
X274.746Y-132.993
X275.653Y-83.766
X277.285Y-140.992
X277.285Y-143.492
X278.203Y-124.232
X278.203Y-126.732
X284.493Y-140.992
X284.493Y-143.492
X290.808Y-83.805
X293.308Y-83.805
T6
X270.21Y-101.333
X270.21Y-103.873
X270.21Y-106.413
X270.21Y-108.953
X270.21Y-114.033
X270.21Y-116.573
X270.21Y-119.113
X284.823Y-101.433
X284.823Y-103.973
X284.823Y-106.513
X284.823Y-109.053
X284.823Y-114.133
X284.823Y-116.673
X284.823Y-119.213
T7
X53.564Y-132.496
X53.564Y-134.996
X53.564Y-136.996
X53.564Y-139.496
T8
X51.445Y-96.896
X51.699Y-123.929
X53.945Y-96.896
X54.199Y-123.929
X56.445Y-96.896
X56.699Y-123.929
X81.445Y-96.896
X81.699Y-123.929
X83.945Y-96.896
X84.199Y-123.929
X86.445Y-96.896
X86.699Y-123.929
X111.445Y-96.896
X111.699Y-123.929
X113.945Y-96.896
X114.199Y-123.929
X116.445Y-96.896
X116.699Y-123.929
X129.508Y-85.587
X129.508Y-88.127
X129.508Y-90.667
X129.508Y-93.207
X129.508Y-95.747
X129.508Y-98.287
X129.508Y-100.827
X129.508Y-103.367
X129.508Y-105.907
X129.508Y-108.447
X129.508Y-110.987
X129.508Y-113.527
X129.508Y-116.067
X129.508Y-118.607
X129.508Y-121.147
X129.508Y-123.687
X161.596Y-88.374
X164.136Y-88.374
X166.676Y-88.374
X169.216Y-88.374
X213.5Y-137.825
X216.04Y-137.825
X218.58Y-137.825
X221.12Y-137.825
X234.708Y-139.811
X234.708Y-142.351
X237.248Y-139.811
X237.248Y-142.351
X239.788Y-139.811
X239.788Y-142.351
X242.328Y-139.811
X242.328Y-142.351
X244.868Y-139.811
X244.868Y-142.351
T10
X47.601Y-64.868
X47.601Y-81.098
X53.951Y-64.868
X53.951Y-81.098
X60.301Y-64.868
X60.301Y-81.098
X62.476Y-33.633
X62.476Y-39.983
X62.476Y-46.333
X78.706Y-33.633
X78.706Y-39.983
X78.706Y-46.333
X87.476Y-33.633
X87.476Y-39.983
X87.476Y-46.333
X103.706Y-33.633
X103.706Y-39.983
X103.706Y-46.333
X112.476Y-33.633
X112.476Y-39.983
X112.476Y-46.333
X128.706Y-33.633
X128.706Y-39.983
X128.706Y-46.333
X137.476Y-33.633
X137.476Y-39.983
X137.476Y-46.333
X153.706Y-33.633
X153.706Y-39.983
X153.706Y-46.333
X192.486Y-33.633
X192.486Y-39.983
X192.486Y-46.333
X208.716Y-33.633
X208.716Y-39.983
X208.716Y-46.333
X217.486Y-33.633
X217.486Y-39.983
X217.486Y-46.333
X233.716Y-33.633
X233.716Y-39.983
X233.716Y-46.333
X242.486Y-33.633
X242.486Y-39.983
X242.486Y-46.333
X258.716Y-33.633
X258.716Y-39.983
X258.716Y-46.333
X267.486Y-33.633
X267.486Y-39.983
X267.486Y-46.333
X283.716Y-33.633
X283.716Y-39.983
X283.716Y-46.333
T11
X50.854Y-129.426
X50.854Y-142.566
T12
X48.5Y-54.519
X48.5Y-104.519
X171.808Y-46.644
X177.889Y-93.435
X298.5Y-54.519
X298.5Y-104.794
T8
X290.236Y-143.392G85X290.236Y-140.792
G05
X292.036Y-137.292G85X294.236Y-137.292
G05
X296.536Y-143.192G85X296.536Y-140.992
G05
T9
X48.845Y-89.396G85X49.545Y-89.396
G05
X49.099Y-116.429G85X49.799Y-116.429
G05
X58.345Y-89.396G85X59.045Y-89.396
G05
X58.599Y-116.429G85X59.299Y-116.429
G05
X78.845Y-89.396G85X79.545Y-89.396
G05
X79.099Y-116.429G85X79.799Y-116.429
G05
X88.345Y-89.396G85X89.045Y-89.396
G05
X88.599Y-116.429G85X89.299Y-116.429
G05
X108.845Y-89.396G85X109.545Y-89.396
G05
X109.099Y-116.429G85X109.799Y-116.429
G05
X118.345Y-89.396G85X119.045Y-89.396
G05
X118.599Y-116.429G85X119.299Y-116.429
G05
T0
M30
