M48
; DRILL file {KiCad 7.0.2} date Mon Apr  8 23:14:57 2024
; FORMAT={-:-/ absolute / metric / decimal}
; #@! TF.CreationDate,2024-04-08T23:14:57+02:00
; #@! TF.GenerationSoftware,Kicad,Pcbnew,7.0.2
; #@! TF.FileFunction,Plated,1,4,PTH
FMAT,2
METRIC
; #@! TA.AperFunction,Plated,PTH,ViaDrill
T1C0.300
; #@! TA.AperFunction,Plated,PTH,ViaDrill
T2C0.400
; #@! TA.AperFunction,Plated,PTH,ViaDrill
T3C0.600
; #@! TA.AperFunction,Plated,PTH,ComponentDrill
T4C0.600
; #@! TA.AperFunction,Plated,PTH,ComponentDrill
T5C0.800
; #@! TA.AperFunction,Plated,PTH,ComponentDrill
T6C0.850
; #@! TA.AperFunction,Plated,PTH,ComponentDrill
T7C1.000
; #@! TA.AperFunction,Plated,PTH,ComponentDrill
T8C1.100
; #@! TA.AperFunction,Plated,PTH,ComponentDrill
T9C1.400
; #@! TA.AperFunction,Plated,PTH,ComponentDrill
T10C3.200
%
G90
G05
T1
X-137.882Y-18.958
X-137.882Y-19.858
X-137.082Y-18.358
X-137.082Y-19.358
X-134.132Y-15.783
X-26.657Y18.642
X-17.382Y15.742
X-15.782Y14.542
X-15.782Y14.542
X-11.682Y1.942
X-11.682Y-18.258
X-10.582Y1.942
X-10.582Y-18.258
X-9.671Y-0.358
X-9.657Y-1.658
X-9.621Y-2.558
X-9.582Y-4.058
X-9.407Y-5.808
X-9.182Y0.742
X-9.082Y-0.958
X-9.082Y-3.258
X-8.782Y-5.233
X-2.082Y-6.358
X-1.982Y-5.068
X-1.982Y-9.158
X-1.572Y-13.708
X-1.532Y-7.108
X-1.262Y-4.258
X-1.257Y-0.055
X-1.25Y-0.898
X-1.232Y-11.808
X-1.171Y-1.943
X-1.082Y-5.058
X-1.055Y0.835
X-1.032Y-6.333
X-0.807Y-16.133
X1.508Y-11.123
X1.629Y-2.343
X1.629Y-4.043
X1.629Y-17.043
X1.818Y-15.408
X1.893Y-17.858
X2.029Y-14.593
X2.118Y-10.333
X2.418Y-4.258
X2.975Y-10.329
X3.618Y-4.058
X3.718Y4.342
X3.818Y-13.183
X4.073Y-3.318
X4.343Y-12.568
X4.618Y4.942
X4.733Y4.056
X4.818Y7.342
X5.018Y2.942
X5.718Y3.942
X5.918Y6.223
X6.118Y5.242
X6.523Y7.045
X6.718Y-10.043
X6.816Y-7.563
X6.818Y-5.758
X6.832Y-8.706
X7.052Y-11.358
X7.468Y-13.018
X7.618Y-10.558
X7.643Y-8.108
X7.718Y-9.158
X8.418Y-12.958
X10.293Y-2.133
X11.118Y-17.658
X11.418Y-16.383
X11.823Y-6.218
X11.968Y-17.018
X12.498Y-17.843
X13.018Y-16.558
X13.973Y-16.768
X14.518Y-3.358
X14.643Y-17.283
X14.693Y-16.258
X14.818Y-20.274
X15.618Y-21.958
X15.993Y-21.082
X16.818Y-21.258
X17.243Y0.532
X17.418Y-0.358
X18.218Y-0.958
X19.073Y4.782
X19.218Y5.642
X19.343Y-0.808
X19.618Y-1.758
X19.812Y3.962
X20.518Y-1.258
X20.618Y3.542
X21.168Y23.992
X21.218Y-2.258
X21.718Y-0.758
X22.173Y-6.168
X22.468Y-15.283
X22.713Y23.917
X22.843Y12.542
X23.273Y-0.268
X23.743Y0.417
X23.918Y13.242
X24.018Y-14.358
X24.618Y-12.858
X24.623Y-13.718
X24.643Y-15.083
X25.458Y-5.471
X25.518Y-15.458
X25.748Y5.192
X28.618Y-14.508
X29.168Y3.092
X29.618Y5.142
X29.718Y4.342
X29.818Y6.017
X30.218Y-8.083
X30.293Y-9.708
X31.318Y-4.158
X31.518Y3.542
X31.768Y-8.283
X31.923Y-5.687
X33.718Y-3.858
X35.418Y-4.958
X35.868Y31.292
X35.868Y30.492
X35.868Y29.692
X35.868Y28.892
T2
X-141.627Y-8.333
X-141.582Y69.142
X-141.582Y64.142
X-141.582Y59.142
X-140.782Y28.242
X-140.782Y23.242
X-140.782Y18.242
X-140.707Y12.667
X-140.707Y9.667
X-140.382Y4.792
X-139.082Y-20.158
X-138.782Y-18.058
X-137.782Y28.242
X-137.782Y23.242
X-137.782Y18.242
X-137.382Y4.792
X-136.712Y-8.333
X-136.582Y69.142
X-133.682Y-22.558
X-133.057Y69.142
X-130.707Y12.667
X-130.707Y9.667
X-128.626Y-20.472
X-128.626Y-21.488
X-128.057Y69.142
X-128.057Y64.142
X-128.057Y59.142
X-126.318Y-28.058
X-126.248Y-24.833
X-125.882Y-21.058
X-125.707Y12.667
X-125.707Y9.667
X-124.177Y-5.196
X-122.482Y-17.058
X-121.387Y-28.058
X-121.248Y-24.833
X-121.006Y-16.662
X-120.707Y12.667
X-120.707Y9.667
X-119.685Y-21.336
X-117.482Y29.292
X-117.482Y26.292
X-116.457Y-28.058
X-116.282Y4.392
X-116.282Y1.392
X-116.248Y-24.833
X-115.707Y12.667
X-115.707Y9.667
X-115.468Y-12.446
X-114.782Y-8.158
X-114.782Y-9.158
X-114.782Y-10.158
X-114.782Y-11.058
X-113.782Y-7.458
X-113.685Y-8.997
X-113.537Y-25.033
X-113.481Y-12.394
X-113.398Y-21.808
X-113.308Y56.811
X-112.518Y50.839
X-112.482Y26.292
X-112.482Y-7.358
X-111.756Y53.531
X-111.282Y4.392
X-111.282Y1.392
X-110.782Y-7.358
X-110.707Y12.667
X-110.707Y9.667
X-110.262Y-29.458
X-110.123Y-26.233
X-109.947Y44.397
X-109.931Y-14.224
X-109.482Y-7.458
X-109.322Y-12.497
X-109.318Y51.55
X-108.607Y-25.033
X-108.482Y-8.358
X-108.482Y-9.458
X-108.482Y-10.458
X-108.482Y-11.458
X-108.454Y48.908
X-108.398Y-21.808
X-107.482Y29.292
X-107.482Y26.292
X-107.172Y41.172
X-106.282Y4.392
X-106.282Y1.392
X-106.257Y12.667
X-106.257Y9.667
X-105.407Y59.017
X-105.332Y-29.458
X-105.123Y-26.233
X-104.947Y39.397
X-103.882Y48.705
X-103.582Y53.542
X-103.082Y45.342
X-102.172Y36.172
X-101.698Y50.229
X-101.257Y12.667
X-101.257Y9.667
X-100.932Y-18.133
X-100.932Y-21.358
X-100.932Y-24.358
X-100.857Y48.567
X-100.857Y43.567
X-100.732Y-14.958
X-100.605Y59.83
X-100.529Y61.151
X-99.757Y47.742
X-99.158Y53.48
X-98.082Y45.342
X-98.082Y40.342
X-97.332Y59.017
X-97.332Y54.017
X-96.257Y12.667
X-96.257Y9.667
X-96.001Y-21.358
X-96.001Y-24.358
X-95.957Y-27.183
X-95.932Y-18.133
X-95.927Y-30.033
X-95.857Y48.567
X-95.857Y43.567
X-95.817Y-14.958
X-93.082Y45.342
X-93.082Y40.342
X-92.332Y54.017
X-91.257Y12.667
X-91.257Y9.667
X-91.07Y-21.358
X-91.07Y-24.358
X-91.052Y-27.183
X-91.023Y-30.033
X-90.932Y-18.133
X-90.902Y-14.958
X-90.857Y48.567
X-90.857Y43.567
X-89.56Y52.334
X-88.082Y45.342
X-88.082Y40.342
X-87.332Y59.017
X-87.232Y29.067
X-87.232Y26.067
X-86.682Y5.867
X-86.682Y2.867
X-86.657Y-0.008
X-86.657Y-3.008
X-86.257Y12.667
X-86.257Y9.667
X-86.148Y-27.183
X-86.14Y-21.358
X-86.14Y-24.358
X-86.118Y-30.033
X-85.987Y-14.958
X-85.932Y-18.133
X-83.132Y58.917
X-82.232Y29.067
X-82.232Y26.067
X-81.682Y5.867
X-81.682Y2.867
X-81.657Y-0.008
X-81.657Y-3.008
X-81.257Y12.667
X-81.257Y9.667
X-81.243Y-27.183
X-81.213Y-30.033
X-81.209Y-21.358
X-81.209Y-24.358
X-81.072Y-14.958
X-80.932Y-18.133
X-80.582Y56.467
X-79.335Y46.222
X-78.527Y43.874
X-78.384Y45.914
X-78.384Y44.864
X-78.174Y46.891
X-78.132Y58.917
X-78.132Y53.917
X-77.495Y44.408
X-77.232Y29.067
X-77.232Y26.067
X-76.682Y5.867
X-76.682Y2.867
X-76.657Y-0.008
X-76.657Y-3.008
X-76.338Y-27.183
X-76.309Y-30.033
X-76.279Y-21.358
X-76.279Y-24.358
X-76.257Y12.667
X-76.257Y9.667
X-76.157Y-14.958
X-75.932Y-18.133
X-75.59Y47.32
X-75.573Y43.096
X-71.577Y41.91
X-71.434Y-27.183
X-71.404Y-30.033
X-71.348Y-21.358
X-71.348Y-24.358
X-71.282Y12.867
X-71.282Y9.867
X-71.242Y-14.958
X-70.932Y-18.133
X-70.669Y57.525
X-70.155Y50.8
X-69.937Y41.764
X-69.368Y54.051
X-68.682Y41.123
X-66.954Y52.334
X-66.904Y50.902
X-66.529Y-27.183
X-66.5Y-30.033
X-66.418Y-21.358
X-66.418Y-24.358
X-66.327Y-14.958
X-66.282Y12.867
X-66.282Y9.867
X-65.932Y-18.133
X-61.625Y-27.183
X-61.595Y-30.033
X-61.487Y-21.358
X-61.487Y-24.358
X-61.412Y-14.958
X-61.282Y12.867
X-61.282Y9.867
X-60.932Y-18.133
X-60.401Y50.902
X-59.08Y50.902
X-57.937Y61.773
X-57.191Y60.411
X-56.744Y54.102
X-56.72Y-27.183
X-56.691Y-30.033
X-56.557Y-21.358
X-56.557Y-24.358
X-56.497Y-14.958
X-56.236Y40.234
X-55.932Y-18.133
X-55.829Y49.479
X-55.096Y40.156
X-54.254Y60.411
X-51.892Y40.056
X-51.816Y-27.183
X-51.786Y-30.033
X-51.703Y13.665
X-51.582Y-14.958
X-50.932Y-18.133
X-50.902Y-4.267
X-50.896Y45.556
X-48.971Y10.719
X-48.768Y5.842
X-48.108Y13.767
X-47.193Y11.786
X-46.911Y-27.183
X-46.882Y-30.033
X-46.667Y-14.958
X-46.607Y18.867
X-46.253Y-6.147
X-45.932Y2.367
X-45.932Y-18.133
X-45.232Y48.142
X-45.232Y45.142
X-45.222Y-3.734
X-44.992Y40.872
X-44.828Y0.313
X-44.732Y3.342
X-44.732Y1.842
X-44.399Y28.042
X-44.298Y-4.115
X-44.044Y8.128
X-43.857Y-26.971
X-43.332Y58.817
X-43.332Y53.817
X-43.132Y-1.308
X-43.102Y-4.162
X-42.907Y-9.183
X-42.76Y-5.207
X-42.557Y23.217
X-42.418Y-6.147
X-42.367Y9.5
X-42.227Y-30.108
X-42.184Y-26.971
X-42.164Y18.694
X-42.113Y13.614
X-41.84Y8.59
X-41.752Y-14.958
X-41.656Y-7.061
X-41.579Y-8.058
X-40.945Y27.635
X-40.932Y-18.133
X-40.656Y-7.061
X-40.64Y22.758
X-40.511Y-26.971
X-40.232Y48.142
X-40.232Y45.142
X-39.992Y40.872
X-39.506Y-8.738
X-39.448Y-6.381
X-39.385Y-7.664
X-38.838Y-26.971
X-38.732Y3.517
X-38.707Y12.017
X-38.506Y-6.045
X-38.506Y-8.738
X-38.497Y5.88
X-38.405Y-7.468
X-38.332Y58.817
X-38.332Y53.817
X-38.126Y16.987
X-38.1Y7.569
X-38.049Y17.983
X-37.897Y5.08
X-37.895Y-4.37
X-37.779Y0.622
X-37.323Y-30.108
X-37.307Y22.217
X-37.165Y-26.971
X-36.837Y-14.958
X-36.728Y8.772
X-36.728Y7.772
X-36.525Y27.686
X-36.478Y10.759
X-36.225Y9.792
X-36.17Y1.422
X-36.06Y2.416
X-35.932Y-18.133
X-35.73Y8.826
X-35.492Y-26.971
X-35.232Y48.142
X-35.232Y45.142
X-34.992Y40.872
X-34.341Y-8.331
X-34.007Y9.317
X-33.974Y1.833
X-33.857Y-26.983
X-33.731Y0.864
X-33.382Y16.442
X-33.332Y58.817
X-33.332Y53.817
X-33.122Y22.708
X-32.742Y1.005
X-32.682Y-26.983
X-32.549Y-8.345
X-32.418Y-30.108
X-31.922Y-14.958
X-31.607Y8.142
X-31.607Y5.292
X-31.191Y0.813
X-30.682Y19.292
X-30.314Y-8.446
X-30.232Y48.142
X-30.232Y45.142
X-29.992Y40.872
X-29.969Y24.712
X-29.413Y22.758
X-28.957Y8.142
X-28.957Y5.292
X-28.804Y24.536
X-28.448Y-8.481
X-28.332Y58.817
X-28.332Y53.817
X-28.032Y-2.083
X-28.032Y-3.058
X-27.632Y14.517
X-27.632Y11.667
X-27.513Y-30.108
X-27.382Y9.142
X-27.382Y6.292
X-27.332Y31.317
X-27.332Y28.667
X-27.007Y-14.958
X-26.982Y-18.133
X-26.349Y-8.433
X-25.939Y19.387
X-25.382Y64.317
X-25.332Y83.842
X-25.332Y78.842
X-25.332Y73.842
X-25.332Y68.842
X-25.232Y48.142
X-25.232Y45.142
X-25.232Y-24.758
X-25.232Y-25.858
X-24.992Y40.872
X-24.982Y14.517
X-24.982Y11.667
X-24.892Y0.965
X-24.732Y26.292
X-24.732Y9.142
X-24.732Y6.292
X-24.632Y-26.783
X-24.536Y-8.534
X-24.407Y58.867
X-24.407Y53.867
X-24.207Y31.267
X-24.207Y28.617
X-23.557Y-26.133
X-23.47Y22.758
X-23.041Y12.217
X-22.782Y-12.733
X-22.609Y-30.108
X-22.507Y-26.133
X-22.132Y18.842
X-22.132Y6.792
X-22.132Y4.992
X-22.132Y3.317
X-22.132Y0.717
X-21.982Y-18.133
X-21.807Y-26.783
X-21.032Y-26.133
X-20.857Y10.967
X-20.516Y15.007
X-20.432Y-10.433
X-20.382Y64.317
X-20.382Y13.917
X-20.332Y73.842
X-20.332Y68.842
X-20.232Y48.142
X-20.232Y45.142
X-20.168Y17.892
X-19.992Y40.872
X-19.807Y-26.133
X-19.407Y58.867
X-19.407Y53.867
X-18.577Y-13.405
X-17.832Y-3.033
X-17.782Y-4.083
X-17.757Y-2.083
X-17.732Y-8.033
X-17.707Y-5.033
X-17.704Y-30.108
X-17.484Y-27.183
X-17.323Y20.625
X-16.91Y-12.344
X-16.762Y14.92
X-16.729Y-10.852
X-16.713Y10.77
X-16.662Y5.029
X-16.607Y9.317
X-16.457Y2.392
X-16.457Y-0.896
X-16.457Y-4.183
X-15.382Y64.317
X-15.332Y73.842
X-15.332Y68.842
X-15.282Y22.117
X-15.232Y48.142
X-15.232Y45.142
X-14.992Y40.872
X-14.407Y58.867
X-14.407Y53.867
X-14.307Y22.117
X-14.207Y-8.383
X-14.207Y-12.883
X-13.957Y16.217
X-13.532Y7.867
X-13.482Y11.667
X-12.957Y-1.308
X-12.957Y-2.925
X-12.957Y-4.542
X-12.957Y-6.158
X-12.932Y14.517
X-12.8Y-30.108
X-12.782Y-15.358
X-12.757Y-10.583
X-12.579Y-27.183
X-11.857Y19.192
X-11.857Y16.542
X-11.857Y13.892
X-11.857Y11.242
X-10.626Y40.645
X-10.382Y64.317
X-10.232Y48.142
X-10.232Y45.142
X-9.749Y39.933
X-9.668Y40.929
X-9.407Y58.867
X-9.407Y53.867
X-9.007Y29.542
X-9.007Y26.892
X-9.007Y24.242
X-9.007Y21.592
X-9.007Y19.192
X-9.007Y16.542
X-9.007Y13.892
X-9.007Y11.242
X-8.925Y41.672
X-8.792Y42.662
X-7.962Y-11.708
X-7.926Y41.701
X-7.902Y-9.958
X-6.432Y-13.238
X-6.057Y74.017
X-5.882Y19.142
X-5.882Y16.492
X-5.882Y13.842
X-5.882Y11.192
X-5.812Y-11.788
X-5.782Y64.367
X-5.732Y68.892
X-5.722Y-9.988
X-5.232Y48.142
X-5.232Y45.142
X-5.232Y43.217
X-5.232Y40.217
X-5.182Y-1.308
X-5.057Y0.342
X-4.932Y-14.628
X-4.112Y-10.178
X-3.992Y-13.238
X-3.352Y-16.588
X-3.053Y17.273
X-2.932Y-3.333
X-2.857Y-1.283
X-2.77Y-27.183
X-2.582Y-13.098
X-2.582Y-14.358
X-2.482Y-11.558
X-2.407Y-10.233
X-2.272Y0.552
X-1.782Y1.492
X-1.676Y2.946
X-1.532Y-16.808
X-1.524Y-19.152
X-1.307Y19.217
X-1.307Y16.217
X-1.057Y74.017
X-0.991Y-15.291
X-0.732Y68.892
X-0.232Y48.142
X-0.232Y45.142
X-0.232Y43.217
X-0.232Y40.217
X1.129Y2.032
X1.413Y56.545
X1.718Y-18.858
X1.943Y84.642
X1.943Y79.642
X1.943Y74.642
X2.134Y-27.183
X2.193Y19.017
X2.193Y16.017
X2.531Y50.368
X2.591Y-22.352
X2.96Y1.321
X3.14Y53.263
X3.243Y46.267
X3.243Y41.267
X3.593Y11.442
X4.147Y17.514
X4.968Y1.792
X5.043Y-18.158
X5.63Y52.155
X5.732Y-19.413
X6.093Y15.752
X6.243Y46.267
X6.243Y41.267
X6.418Y49.173
X7.039Y-27.183
X7.068Y-4.408
X7.118Y9.117
X7.637Y22.745
X7.818Y-5.758
X8.143Y-4.183
X8.486Y21.761
X8.57Y22.692
X9.193Y5.817
X9.293Y-9.383
X9.312Y23.434
X9.318Y-8.061
X9.318Y-10.683
X9.319Y24.369
X9.885Y21.164
X10.048Y18.992
X10.135Y12.322
X10.16Y13.261
X10.242Y23.526
X10.719Y20.743
X10.719Y19.643
X10.973Y44.247
X10.973Y35.865
X10.973Y33.833
X10.993Y13.817
X11.014Y49.149
X11.018Y-5.784
X11.024Y42.113
X11.024Y40.03
X11.024Y37.846
X11.295Y18.907
X11.568Y-2.483
X11.638Y21.082
X11.943Y-27.183
X12.118Y13.867
X12.593Y18.707
X12.693Y-10.258
X12.793Y-8.133
X12.918Y-6.158
X13.168Y-22.033
X13.218Y14.342
X13.351Y50.419
X13.868Y8.751
X14.368Y-8.158
X14.443Y61.341
X14.443Y-10.283
X14.493Y-15.358
X14.518Y48.817
X14.518Y45.817
X14.823Y15.887
X14.824Y60.233
X14.918Y8.751
X15.088Y26.416
X15.84Y53.263
X16.032Y30.284
X16.218Y13.442
X16.268Y-26.908
X16.818Y8.751
X17.493Y-26.283
X17.593Y-10.258
X17.643Y-12.683
X17.768Y-21.283
X17.983Y5.69
X18.415Y25.095
X18.418Y14.467
X18.443Y18.242
X18.468Y-16.408
X18.593Y10.367
X18.593Y6.607
X18.668Y44.217
X18.694Y41.046
X18.694Y36.83
X18.694Y36.83
X18.694Y33.833
X18.743Y-26.108
X19.518Y48.817
X19.518Y45.817
X19.71Y-8.89
X19.793Y57.467
X19.793Y54.467
X20.015Y25.248
X20.018Y-3.949
X20.168Y-12.683
X20.168Y-26.133
X20.355Y8.252
X21.002Y7.577
X21.174Y19.404
X21.286Y21.757
X21.387Y6.655
X21.468Y-25.858
X21.488Y-8.484
X21.636Y8.265
X21.895Y21.048
X21.895Y19.998
X21.946Y23.517
X21.946Y22.467
X22.454Y-7.671
X22.498Y19.284
X22.518Y0.667
X22.518Y-1.183
X22.593Y-12.683
X22.606Y14.859
X22.608Y21.772
X23.165Y-4.369
X23.799Y12.197
X24.298Y-17.657
X24.518Y48.817
X24.518Y45.817
X24.638Y-4.064
X24.718Y-16.408
X24.793Y57.467
X24.793Y54.467
X24.937Y19.167
X24.994Y14.529
X25.705Y6.299
X26.011Y4.185
X26.568Y-19.883
X26.924Y24.765
X26.965Y25.717
X27.381Y5.944
X27.518Y28.492
X27.768Y-21.033
X27.818Y-22.208
X27.843Y-23.332
X27.887Y13.155
X28.068Y6.892
X28.18Y5.459
X28.393Y17.542
X28.681Y28.304
X28.727Y-13.081
X28.768Y15.617
X28.778Y-2.159
X28.804Y-8.458
X28.868Y6.092
X29.518Y-4.858
X29.566Y33.884
X29.75Y22.472
X29.793Y57.467
X29.793Y54.467
X29.87Y36.017
X30.018Y-16.735
X30.434Y3.662
X30.531Y-11.684
X30.886Y-8.89
X31.143Y-1.208
X32.193Y13.492
X32.393Y26.267
X32.563Y30.378
X32.593Y10.017
X32.715Y-5.131
X32.818Y-9.358
X33.731Y-4.978
X34.343Y6.417
X35.204Y33.985
X35.408Y36.068
X35.418Y-10.283
X35.918Y10.292
X36.017Y43.256
X36.017Y42.206
X36.118Y24.567
X36.118Y19.567
X37.338Y40.335
X37.44Y45.06
X38.418Y2.692
X38.443Y1.317
X38.718Y-6.608
X38.793Y-8.858
X38.868Y8.792
X38.893Y-11.258
X38.918Y-3.908
X39.118Y24.567
X39.118Y19.567
X39.493Y2.692
X39.518Y1.317
X39.929Y50.292
X40.643Y2.692
X40.668Y1.317
X41.554Y39.319
X41.943Y22.792
X41.943Y21.321
X41.943Y19.85
X41.943Y18.379
X41.943Y16.908
X42.608Y56.545
X42.968Y-11.758
X43.078Y39.37
X43.893Y22.792
X43.893Y21.319
X43.893Y19.846
X43.893Y18.373
X43.893Y16.9
X43.993Y15.417
X44.018Y14.142
X44.044Y38.557
X44.196Y53.442
X45.923Y37.44
X46.618Y1.192
X46.888Y52.13
X47.128Y49.277
X48.443Y2.742
X49.968Y-5.133
X50.943Y-5.108
X51.268Y2.792
X51.678Y49.277
X53.848Y50.495
X53.965Y37.504
X54.143Y-14.458
X54.335Y-16.183
X54.368Y20.442
X54.368Y19.072
X54.368Y17.702
X54.368Y16.332
X54.368Y14.962
X54.368Y13.592
X54.458Y46.736
X55.296Y61.392
X55.88Y60.208
X56.243Y31.167
X56.243Y28.167
X56.243Y25.167
X56.744Y53.543
X57.218Y37.567
X57.568Y48.717
X57.568Y-14.508
X58.243Y-16.058
X59.741Y60.208
X59.868Y-11.058
X60.768Y-6.883
X61.143Y-14.508
X61.178Y43.114
X61.243Y31.167
X61.243Y28.167
X61.243Y25.167
X61.468Y38.43
X62.119Y41.108
X62.119Y40.058
X62.168Y58.017
X62.168Y55.017
X64.468Y-8.533
X66.618Y49.342
X66.618Y46.342
X66.618Y43.342
X66.618Y40.342
X66.618Y37.342
X66.618Y34.342
X66.618Y31.342
X66.618Y28.342
X66.618Y25.342
X66.618Y22.342
X67.168Y58.017
X69.592Y9.075
X69.592Y7.875
X70.923Y7.875
X71.618Y49.342
X71.618Y46.342
X71.618Y43.342
X71.618Y40.342
X71.618Y37.342
X71.618Y34.342
X71.618Y31.342
X71.618Y28.342
X71.618Y25.342
X71.618Y22.342
X71.818Y-25.683
X71.818Y-28.683
X71.843Y-14.458
X71.843Y-17.458
X71.843Y-20.458
X71.843Y-23.458
X71.868Y3.317
X71.868Y0.317
X71.868Y-2.683
X71.868Y-5.683
X71.868Y-8.683
X71.868Y-11.683
X71.943Y5.667
X72.254Y7.875
X73.193Y57.742
X73.193Y54.742
X73.584Y7.875
X74.915Y7.875
X75.792Y8.875
X76.243Y3.042
X76.243Y0.103
X76.243Y-2.836
X76.243Y-5.774
X76.243Y-8.713
X76.243Y-11.652
X76.243Y-14.59
X76.243Y-17.529
X76.243Y-20.467
X76.243Y-23.406
X76.243Y-26.345
X76.243Y-29.283
X76.245Y7.875
X76.618Y49.342
X76.618Y46.342
X76.618Y43.342
X76.618Y40.342
X76.618Y37.342
X76.618Y34.342
X76.618Y31.342
X76.618Y28.342
X76.618Y25.342
X76.618Y22.342
X77.576Y7.875
X78.193Y57.742
X78.193Y54.742
X78.718Y3.017
X78.906Y7.875
X78.968Y0.367
X79.232Y-29.283
X79.545Y-1.683
X79.553Y-3.033
X79.553Y-4.572
X80.237Y7.875
X81.618Y49.342
X81.618Y46.342
X81.618Y43.342
X81.618Y40.342
X81.618Y37.342
X81.618Y34.342
X81.618Y31.342
X81.618Y28.342
X81.618Y25.342
X81.618Y22.342
X81.718Y3.017
X81.737Y7.849
X82.221Y-29.283
X83.109Y7.874
X83.193Y57.742
X83.193Y54.742
X83.319Y9.078
X83.617Y-13.259
X83.718Y-18.186
X84.286Y17.632
X84.286Y16.403
X84.286Y15.174
X84.286Y13.946
X84.286Y12.717
X84.718Y3.017
X84.938Y-14.529
X84.96Y-13.259
X84.96Y-15.833
X84.96Y-17.12
X84.96Y-18.186
X85.21Y-29.283
X85.368Y17.621
X86.736Y17.603
X87.818Y17.592
X88.199Y-29.283
X89.161Y17.519
X89.161Y16.29
X89.161Y15.061
X89.161Y13.832
X89.161Y12.603
X90.218Y2.792
X91.188Y-29.283
X91.718Y17.557
X91.718Y16.328
X91.718Y15.099
X91.718Y13.871
X91.718Y12.642
X93.218Y2.792
X94.036Y13.682
X94.036Y12.453
X94.177Y-29.283
X95.893Y13.596
X95.893Y12.367
X96.218Y2.792
X97.166Y-29.283
X97.743Y13.596
X97.743Y12.367
X98.4Y34.392
X98.4Y32.614
X98.4Y21.641
X98.501Y45.446
X98.603Y46.736
X99.218Y13.571
X99.218Y12.342
X99.936Y32.614
X99.936Y30.734
X99.936Y28.875
X99.936Y27.016
X99.936Y25.156
X99.936Y23.297
X99.936Y21.641
X100.006Y52.126
X100.006Y50.674
X100.006Y49.222
X100.006Y47.771
X100.025Y46.685
X100.025Y34.392
X100.038Y36.099
X100.051Y37.958
X100.063Y39.817
X100.076Y41.677
X100.089Y43.536
X100.101Y45.395
X100.155Y-29.283
X100.968Y-8.608
X101.651Y34.392
X101.651Y32.614
X101.651Y21.641
X101.743Y19.342
X101.752Y45.415
X101.956Y-9.855
X101.956Y-11.125
X103.143Y-29.283
X103.318Y19.342
X103.378Y-9.855
X104.75Y-8.534
X104.75Y-8.534
X104.75Y-9.855
X104.75Y-9.855
X104.75Y-11.125
X104.868Y2.317
X106.172Y-9.855
X107.544Y-8.534
X107.544Y-9.855
X107.544Y-11.176
X107.868Y2.317
X109.393Y67.667
X109.393Y64.667
X109.393Y61.667
X109.393Y58.667
X109.393Y55.667
X109.393Y52.667
X110.418Y2.317
X110.418Y-0.683
X110.418Y-3.683
X113.493Y7.567
X113.718Y-15.308
X113.868Y-17.908
X114.268Y20.767
X114.268Y17.767
X114.293Y38.542
X114.293Y35.542
X114.293Y32.542
X114.293Y29.542
X114.293Y26.542
X114.293Y23.542
X114.368Y49.892
X114.368Y46.892
X114.368Y43.892
X114.368Y40.892
X114.393Y67.667
X114.393Y58.667
X114.393Y55.667
X114.393Y52.667
X115.418Y2.317
X115.418Y-0.683
X115.418Y-3.683
X116.493Y7.567
X117.068Y-6.883
X117.068Y-9.883
X117.068Y-12.883
X117.068Y-15.308
X117.068Y-17.908
X119.268Y20.767
X119.268Y17.767
X119.268Y14.767
X119.268Y11.767
X119.293Y38.542
X119.293Y35.542
X119.293Y32.542
X119.293Y29.542
X119.293Y26.542
X119.293Y23.542
X119.368Y49.892
X119.368Y46.892
X119.368Y43.892
X119.368Y40.892
X119.393Y67.667
X119.393Y64.667
X119.393Y61.667
X119.393Y58.667
X119.393Y55.667
X119.393Y52.667
X119.493Y7.567
X120.418Y2.317
X120.418Y-0.683
X120.418Y-3.683
X120.418Y-6.908
X120.418Y-9.908
X120.418Y-12.908
X120.418Y-15.308
X120.418Y-17.908
T3
X-130.673Y-17.435
X-129.642Y-20.98
X-118.182Y-5.196
X100.006Y56.611
X100.006Y55.16
X100.006Y53.708
X104.496Y50.394
X105.461Y49.479
T5
X-48.267Y-22.284
X-48.267Y-24.784
X-15.74Y-22.244
X-15.74Y-24.744
X37.445Y15.802
X37.445Y13.302
X44.658Y-6.108
X45.687Y9.806
X47.158Y-6.108
X48.187Y9.806
X56.063Y1.401
X56.063Y-1.099
X62.852Y18.06
X62.852Y15.56
X65.505Y11.065
X65.505Y8.565
X69.967Y18.198
X69.967Y15.698
X79.886Y-24.076
X79.886Y-26.576
X87.095Y-24.076
X87.095Y-26.576
X88.042Y59.942
X88.042Y57.442
X88.338Y51.851
X88.338Y49.351
X88.479Y-7.185
X88.479Y-9.685
X89.943Y33.175
X91.764Y-13.83
X91.764Y-16.33
X92.443Y33.175
X94.303Y-24.076
X94.303Y-26.576
X95.475Y-7.011
X95.475Y-9.511
X101.511Y-24.076
X101.511Y-26.576
X107.852Y33.137
X110.352Y33.137
T6
X87.229Y15.608
X87.229Y13.068
X87.229Y10.528
X87.229Y7.988
X87.229Y2.908
X87.229Y0.368
X87.229Y-2.172
X101.841Y15.508
X101.841Y12.968
X101.841Y10.428
X101.841Y7.888
X101.841Y2.808
X101.841Y0.268
X101.841Y-2.272
T7
X-131.536Y20.045
X-131.282Y-6.988
X-129.036Y20.045
X-128.782Y-6.988
X-126.536Y20.045
X-126.282Y-6.988
X-101.536Y20.045
X-101.282Y-6.988
X-99.036Y20.045
X-98.782Y-6.988
X-96.536Y20.045
X-96.282Y-6.988
X-71.536Y20.045
X-71.282Y-6.988
X-69.036Y20.045
X-68.782Y-6.988
X-66.536Y20.045
X-66.282Y-6.988
X-53.474Y31.354
X-53.474Y28.814
X-53.474Y26.274
X-53.474Y23.734
X-53.474Y21.194
X-53.474Y18.654
X-53.474Y16.114
X-53.474Y13.574
X-53.474Y11.034
X-53.474Y8.494
X-53.474Y5.954
X-53.474Y3.414
X-53.474Y0.874
X-53.474Y-1.666
X-53.474Y-4.206
X-53.474Y-6.746
X-21.386Y28.568
X-18.846Y28.568
X-17.581Y-17.725
X-16.306Y28.568
X-15.041Y-17.725
X-13.766Y28.568
X30.518Y-20.883
X33.058Y-20.883
X35.598Y-20.883
X38.138Y-20.883
X51.726Y-22.87
X51.726Y-25.41
X54.266Y-22.87
X54.266Y-25.41
X56.806Y-22.87
X56.806Y-25.41
X59.346Y-22.87
X59.346Y-25.41
X61.886Y-22.87
X61.886Y-25.41
X111.663Y7.875
X111.663Y0.375
T9
X-135.634Y51.82
X-135.634Y35.59
X-129.284Y51.82
X-129.284Y35.59
X-122.934Y51.82
X-122.934Y35.59
X-120.549Y83.227
X-120.549Y76.877
X-120.549Y70.527
X-104.319Y83.227
X-104.319Y76.877
X-104.319Y70.527
X-95.549Y83.227
X-95.549Y76.877
X-95.549Y70.527
X-79.319Y83.227
X-79.319Y76.877
X-79.319Y70.527
X-70.549Y83.227
X-70.549Y76.877
X-70.549Y70.527
X-54.319Y83.227
X-54.319Y76.877
X-54.319Y70.527
X-45.549Y83.227
X-45.549Y76.877
X-45.549Y70.527
X-29.319Y83.227
X-29.319Y76.877
X-29.319Y70.527
X9.505Y83.308
X9.505Y76.958
X9.505Y70.608
X25.735Y83.308
X25.735Y76.958
X25.735Y70.608
X34.505Y83.308
X34.505Y76.958
X34.505Y70.608
X50.735Y83.308
X50.735Y76.958
X50.735Y70.608
X59.505Y83.308
X59.505Y76.958
X59.505Y70.608
X75.735Y83.308
X75.735Y76.958
X75.735Y70.608
X84.505Y83.308
X84.505Y76.958
X84.505Y70.608
X100.735Y83.308
X100.735Y76.958
X100.735Y70.608
T10
X-134.482Y62.423
X-134.482Y12.423
X-11.174Y70.298
X-5.093Y23.506
X115.518Y62.423
X115.518Y12.148
T4
X-140.412Y-14.813G85X-141.012Y-14.813
G05
X-140.412Y-23.453G85X-141.012Y-23.453
G05
X-135.982Y-14.813G85X-137.082Y-14.813
G05
X-135.982Y-23.453G85X-137.082Y-23.453
G05
T7
X107.285Y-26.345G85X107.285Y-23.745
G05
X109.085Y-20.245G85X111.285Y-20.245
G05
X113.585Y-26.145G85X113.585Y-23.945
G05
T8
X-134.136Y27.545G85X-133.436Y27.545
G05
X-133.882Y0.512G85X-133.182Y0.512
G05
X-124.636Y27.545G85X-123.936Y27.545
G05
X-124.382Y0.512G85X-123.682Y0.512
G05
X-104.136Y27.545G85X-103.436Y27.545
G05
X-103.882Y0.512G85X-103.182Y0.512
G05
X-94.636Y27.545G85X-93.936Y27.545
G05
X-94.382Y0.512G85X-93.682Y0.512
G05
X-74.136Y27.545G85X-73.436Y27.545
G05
X-73.882Y0.512G85X-73.182Y0.512
G05
X-64.636Y27.545G85X-63.936Y27.545
G05
X-64.382Y0.512G85X-63.682Y0.512
G05
T0
M30
