G04 #@! TF.GenerationSoftware,KiCad,Pcbnew,7.0.2*
G04 #@! TF.CreationDate,2024-03-06T23:49:30+01:00*
G04 #@! TF.ProjectId,stm_audio_board_V3,73746d5f-6175-4646-996f-5f626f617264,rev?*
G04 #@! TF.SameCoordinates,Original*
G04 #@! TF.FileFunction,Paste,Top*
G04 #@! TF.FilePolarity,Positive*
%FSLAX46Y46*%
G04 Gerber Fmt 4.6, Leading zero omitted, Abs format (unit mm)*
G04 Created by KiCad (PCBNEW 7.0.2) date 2024-03-06 23:49:30*
%MOMM*%
%LPD*%
G01*
G04 APERTURE LIST*
G04 Aperture macros list*
%AMRoundRect*
0 Rectangle with rounded corners*
0 $1 Rounding radius*
0 $2 $3 $4 $5 $6 $7 $8 $9 X,Y pos of 4 corners*
0 Add a 4 corners polygon primitive as box body*
4,1,4,$2,$3,$4,$5,$6,$7,$8,$9,$2,$3,0*
0 Add four circle primitives for the rounded corners*
1,1,$1+$1,$2,$3*
1,1,$1+$1,$4,$5*
1,1,$1+$1,$6,$7*
1,1,$1+$1,$8,$9*
0 Add four rect primitives between the rounded corners*
20,1,$1+$1,$2,$3,$4,$5,0*
20,1,$1+$1,$4,$5,$6,$7,0*
20,1,$1+$1,$6,$7,$8,$9,0*
20,1,$1+$1,$8,$9,$2,$3,0*%
G04 Aperture macros list end*
%ADD10RoundRect,0.225000X-0.225000X-0.250000X0.225000X-0.250000X0.225000X0.250000X-0.225000X0.250000X0*%
%ADD11RoundRect,0.225000X-0.250000X0.225000X-0.250000X-0.225000X0.250000X-0.225000X0.250000X0.225000X0*%
%ADD12RoundRect,0.150000X-0.625000X-0.150000X0.625000X-0.150000X0.625000X0.150000X-0.625000X0.150000X0*%
%ADD13RoundRect,0.200000X-0.200000X-0.275000X0.200000X-0.275000X0.200000X0.275000X-0.200000X0.275000X0*%
%ADD14RoundRect,0.150000X-0.150000X0.625000X-0.150000X-0.625000X0.150000X-0.625000X0.150000X0.625000X0*%
%ADD15RoundRect,0.200000X0.275000X-0.200000X0.275000X0.200000X-0.275000X0.200000X-0.275000X-0.200000X0*%
%ADD16RoundRect,0.250000X-0.337500X-0.475000X0.337500X-0.475000X0.337500X0.475000X-0.337500X0.475000X0*%
%ADD17RoundRect,0.200000X0.200000X0.275000X-0.200000X0.275000X-0.200000X-0.275000X0.200000X-0.275000X0*%
%ADD18RoundRect,0.200000X-0.275000X0.200000X-0.275000X-0.200000X0.275000X-0.200000X0.275000X0.200000X0*%
%ADD19R,0.400000X1.500000*%
%ADD20RoundRect,0.225000X0.225000X0.250000X-0.225000X0.250000X-0.225000X-0.250000X0.225000X-0.250000X0*%
%ADD21R,2.100000X1.725000*%
%ADD22RoundRect,0.225000X0.250000X-0.225000X0.250000X0.225000X-0.250000X0.225000X-0.250000X-0.225000X0*%
%ADD23RoundRect,0.250001X-0.624999X0.462499X-0.624999X-0.462499X0.624999X-0.462499X0.624999X0.462499X0*%
%ADD24RoundRect,0.250000X0.337500X0.475000X-0.337500X0.475000X-0.337500X-0.475000X0.337500X-0.475000X0*%
%ADD25RoundRect,0.250000X-0.350000X-0.450000X0.350000X-0.450000X0.350000X0.450000X-0.350000X0.450000X0*%
%ADD26RoundRect,0.237500X0.250000X0.237500X-0.250000X0.237500X-0.250000X-0.237500X0.250000X-0.237500X0*%
%ADD27RoundRect,0.237500X-0.250000X-0.237500X0.250000X-0.237500X0.250000X0.237500X-0.250000X0.237500X0*%
%ADD28RoundRect,0.250000X0.475000X-0.337500X0.475000X0.337500X-0.475000X0.337500X-0.475000X-0.337500X0*%
%ADD29RoundRect,0.150000X-0.150000X0.825000X-0.150000X-0.825000X0.150000X-0.825000X0.150000X0.825000X0*%
%ADD30RoundRect,0.250000X-0.875000X-1.025000X0.875000X-1.025000X0.875000X1.025000X-0.875000X1.025000X0*%
%ADD31R,1.600000X1.400000*%
%ADD32RoundRect,0.075000X-0.075000X-0.700000X0.075000X-0.700000X0.075000X0.700000X-0.075000X0.700000X0*%
%ADD33RoundRect,0.075000X-0.700000X-0.075000X0.700000X-0.075000X0.700000X0.075000X-0.700000X0.075000X0*%
%ADD34RoundRect,0.075000X-0.662500X-0.075000X0.662500X-0.075000X0.662500X0.075000X-0.662500X0.075000X0*%
%ADD35RoundRect,0.075000X-0.075000X-0.662500X0.075000X-0.662500X0.075000X0.662500X-0.075000X0.662500X0*%
%ADD36RoundRect,0.250000X-0.875000X-0.925000X0.875000X-0.925000X0.875000X0.925000X-0.875000X0.925000X0*%
%ADD37RoundRect,0.250000X1.025000X-0.875000X1.025000X0.875000X-1.025000X0.875000X-1.025000X-0.875000X0*%
%ADD38RoundRect,0.237500X0.237500X-0.250000X0.237500X0.250000X-0.237500X0.250000X-0.237500X-0.250000X0*%
%ADD39R,1.500000X2.000000*%
%ADD40R,3.800000X2.000000*%
%ADD41R,2.000000X1.500000*%
%ADD42R,2.000000X3.800000*%
%ADD43RoundRect,0.237500X-0.287500X-0.237500X0.287500X-0.237500X0.287500X0.237500X-0.287500X0.237500X0*%
G04 APERTURE END LIST*
D10*
X225980000Y-86655000D03*
X224430000Y-86655000D03*
X205580000Y-70755000D03*
X204030000Y-70755000D03*
X112430000Y-68305000D03*
X113980000Y-68305000D03*
D11*
X257915000Y-69730000D03*
X257915000Y-71280000D03*
D10*
X210730000Y-55375000D03*
X212280000Y-55375000D03*
X161255000Y-55290000D03*
X162805000Y-55290000D03*
X111830000Y-55655000D03*
X113380000Y-55655000D03*
X79900000Y-129865000D03*
X81450000Y-129865000D03*
D12*
X204250000Y-57700000D03*
X204250000Y-58970000D03*
X204250000Y-60240000D03*
X204250000Y-61510000D03*
X209600000Y-61510000D03*
X209600000Y-60240000D03*
X209600000Y-58970000D03*
X209600000Y-57700000D03*
D10*
X114600000Y-72125000D03*
X113050000Y-72125000D03*
D13*
X195200000Y-70375000D03*
X196850000Y-70375000D03*
D11*
X213075000Y-61800000D03*
X213075000Y-63350000D03*
D14*
X256770000Y-62530000D03*
X255500000Y-62530000D03*
X254230000Y-62530000D03*
X252960000Y-62530000D03*
X252960000Y-67880000D03*
X254230000Y-67880000D03*
X255500000Y-67880000D03*
X256770000Y-67880000D03*
D15*
X99075000Y-72200000D03*
X99075000Y-70550000D03*
D13*
X96000000Y-72175000D03*
X97650000Y-72175000D03*
D10*
X111400000Y-124415000D03*
X112950000Y-124415000D03*
D16*
X250349500Y-121563862D03*
X252424500Y-121563862D03*
D17*
X117700000Y-75375000D03*
X119350000Y-75375000D03*
X152000000Y-61575000D03*
X150350000Y-61575000D03*
D18*
X212975000Y-58400000D03*
X212975000Y-60050000D03*
D11*
X229285000Y-92400000D03*
X229285000Y-93950000D03*
D19*
X212185000Y-141585000D03*
X212985000Y-141585000D03*
X213785000Y-141585000D03*
X214585000Y-141585000D03*
X215385000Y-141585000D03*
X216185000Y-141585000D03*
X216985000Y-141585000D03*
X217785000Y-141585000D03*
X218585000Y-141585000D03*
X219385000Y-141585000D03*
X220185000Y-141585000D03*
X220985000Y-141585000D03*
X221785000Y-141585000D03*
X222585000Y-141585000D03*
X223385000Y-141585000D03*
X224185000Y-141585000D03*
X224985000Y-141585000D03*
X225785000Y-141585000D03*
X226585000Y-141585000D03*
X227385000Y-141585000D03*
X228185000Y-141585000D03*
X228985000Y-141585000D03*
X229785000Y-141585000D03*
X230585000Y-141585000D03*
X231385000Y-141585000D03*
X231385000Y-130085000D03*
X230585000Y-130085000D03*
X229785000Y-130085000D03*
X228985000Y-130085000D03*
X228185000Y-130085000D03*
X227385000Y-130085000D03*
X226585000Y-130085000D03*
X225785000Y-130085000D03*
X224985000Y-130085000D03*
X224185000Y-130085000D03*
X223385000Y-130085000D03*
X222585000Y-130085000D03*
X221785000Y-130085000D03*
X220985000Y-130085000D03*
X220185000Y-130085000D03*
X219385000Y-130085000D03*
X218585000Y-130085000D03*
X217785000Y-130085000D03*
X216985000Y-130085000D03*
X216185000Y-130085000D03*
X215385000Y-130085000D03*
X214585000Y-130085000D03*
X213785000Y-130085000D03*
X212985000Y-130085000D03*
X212185000Y-130085000D03*
D17*
X202450000Y-61825000D03*
X200800000Y-61825000D03*
X102200000Y-73825000D03*
X100550000Y-73825000D03*
X199450000Y-57075000D03*
X197800000Y-57075000D03*
D18*
X201025000Y-56900000D03*
X201025000Y-58550000D03*
D15*
X258865000Y-65820000D03*
X258865000Y-64170000D03*
D10*
X255540000Y-60545000D03*
X257090000Y-60545000D03*
X107050000Y-119395000D03*
X108600000Y-119395000D03*
D15*
X207825000Y-75700000D03*
X207825000Y-74050000D03*
D11*
X248025000Y-65720000D03*
X248025000Y-67270000D03*
D10*
X79900000Y-127355000D03*
X81450000Y-127355000D03*
D20*
X202400000Y-60295000D03*
X200850000Y-60295000D03*
D10*
X119300000Y-76915000D03*
X117750000Y-76915000D03*
D20*
X232660000Y-93925000D03*
X231110000Y-93925000D03*
D13*
X190850000Y-75575000D03*
X192500000Y-75575000D03*
D21*
X89535000Y-135962500D03*
X92435000Y-135962500D03*
X92435000Y-133787500D03*
X89535000Y-133787500D03*
D15*
X209475000Y-78700000D03*
X209475000Y-77050000D03*
D22*
X202415000Y-58500000D03*
X202415000Y-56950000D03*
D17*
X252690000Y-69745000D03*
X251040000Y-69745000D03*
D23*
X246517000Y-116076638D03*
X246517000Y-119051638D03*
D13*
X249490000Y-65745000D03*
X251140000Y-65745000D03*
D20*
X99400000Y-60525000D03*
X97850000Y-60525000D03*
D11*
X162555000Y-61350000D03*
X162555000Y-62900000D03*
D10*
X207750000Y-66385000D03*
X209300000Y-66385000D03*
D20*
X99400000Y-58875000D03*
X97850000Y-58875000D03*
X208050000Y-67905000D03*
X206500000Y-67905000D03*
D15*
X116225000Y-75300000D03*
X116225000Y-76950000D03*
D22*
X215865000Y-86860000D03*
X215865000Y-85310000D03*
X111705000Y-60150000D03*
X111705000Y-58600000D03*
D13*
X97800000Y-62125000D03*
X99450000Y-62125000D03*
D15*
X194075000Y-73950000D03*
X194075000Y-72300000D03*
X157325000Y-64550000D03*
X157325000Y-62900000D03*
D16*
X262617500Y-105743000D03*
X264692500Y-105743000D03*
D17*
X117700000Y-73835000D03*
X119350000Y-73835000D03*
D20*
X102500000Y-60525000D03*
X100950000Y-60525000D03*
D22*
X160985000Y-59700000D03*
X160985000Y-58150000D03*
D24*
X193492500Y-70205000D03*
X191417500Y-70205000D03*
D22*
X246515000Y-66020000D03*
X246515000Y-64470000D03*
D10*
X102700000Y-131945000D03*
X104250000Y-131945000D03*
X98350000Y-139405000D03*
X99900000Y-139405000D03*
D20*
X247710000Y-121510000D03*
X246160000Y-121510000D03*
D13*
X190950000Y-73915000D03*
X192600000Y-73915000D03*
X114650000Y-75325000D03*
X113000000Y-75325000D03*
D10*
X79900000Y-132375000D03*
X81450000Y-132375000D03*
D13*
X84400000Y-139645000D03*
X86050000Y-139645000D03*
D15*
X206275000Y-64900000D03*
X206275000Y-63250000D03*
D10*
X205000000Y-102685000D03*
X206550000Y-102685000D03*
D20*
X199470000Y-58625000D03*
X197920000Y-58625000D03*
D22*
X102485000Y-58900000D03*
X102485000Y-57350000D03*
D20*
X199400000Y-60215000D03*
X197850000Y-60215000D03*
D22*
X242135000Y-93872000D03*
X242135000Y-92322000D03*
D10*
X107050000Y-131945000D03*
X108600000Y-131945000D03*
D18*
X207925000Y-77050000D03*
X207925000Y-78700000D03*
D10*
X244874000Y-105575000D03*
X246424000Y-105575000D03*
D13*
X212640000Y-87685000D03*
X214290000Y-87685000D03*
D20*
X252650000Y-71345000D03*
X251100000Y-71345000D03*
D13*
X100550000Y-72175000D03*
X102200000Y-72175000D03*
D18*
X113275000Y-58600000D03*
X113275000Y-60250000D03*
D10*
X262807524Y-97805000D03*
X264357524Y-97805000D03*
D11*
X248035000Y-62720000D03*
X248035000Y-64270000D03*
D15*
X193875000Y-77150000D03*
X193875000Y-75500000D03*
D17*
X156700000Y-55425000D03*
X155050000Y-55425000D03*
X99450000Y-57325000D03*
X97800000Y-57325000D03*
D12*
X153800000Y-57180000D03*
X153800000Y-58450000D03*
X153800000Y-59720000D03*
X153800000Y-60990000D03*
X159150000Y-60990000D03*
X159150000Y-59720000D03*
X159150000Y-58450000D03*
X159150000Y-57180000D03*
D16*
X115967500Y-69905000D03*
X118042500Y-69905000D03*
D18*
X161025000Y-61300000D03*
X161025000Y-62950000D03*
D10*
X105050000Y-66515000D03*
X106600000Y-66515000D03*
D20*
X192350000Y-77135000D03*
X190800000Y-77135000D03*
D17*
X210950000Y-75525000D03*
X212600000Y-75525000D03*
D20*
X213350000Y-97685000D03*
X211800000Y-97685000D03*
D12*
X104500000Y-57670000D03*
X104500000Y-58940000D03*
X104500000Y-60210000D03*
X104500000Y-61480000D03*
X109850000Y-61480000D03*
X109850000Y-60210000D03*
X109850000Y-58940000D03*
X109850000Y-57670000D03*
D13*
X147250000Y-61625000D03*
X148900000Y-61625000D03*
D11*
X255545000Y-55890000D03*
X255545000Y-57440000D03*
D15*
X116225000Y-72200000D03*
X116225000Y-73850000D03*
D10*
X254190000Y-69765000D03*
X255740000Y-69765000D03*
X107050000Y-126925000D03*
X108600000Y-126925000D03*
X154320000Y-66025000D03*
X155870000Y-66025000D03*
X102700000Y-129435000D03*
X104250000Y-129435000D03*
D17*
X107200000Y-55875000D03*
X105550000Y-55875000D03*
D24*
X99042500Y-68515000D03*
X96967500Y-68515000D03*
D17*
X148900000Y-56975000D03*
X147250000Y-56975000D03*
D25*
X98325000Y-136675000D03*
X100325000Y-136675000D03*
D20*
X102200000Y-70575000D03*
X100650000Y-70575000D03*
D11*
X113305000Y-61750000D03*
X113305000Y-63300000D03*
D20*
X148850000Y-59995000D03*
X147300000Y-59995000D03*
D15*
X106575000Y-65100000D03*
X106575000Y-63450000D03*
D26*
X248949500Y-94142000D03*
X247124500Y-94142000D03*
D20*
X113050000Y-76865000D03*
X114600000Y-76865000D03*
D10*
X97580000Y-70625000D03*
X96030000Y-70625000D03*
X195400000Y-77175000D03*
X196950000Y-77175000D03*
X102700000Y-116885000D03*
X104250000Y-116885000D03*
X98350000Y-131945000D03*
X99900000Y-131945000D03*
D18*
X211475000Y-61750000D03*
X211475000Y-63400000D03*
D20*
X212450000Y-92025000D03*
X210900000Y-92025000D03*
X197100000Y-72515000D03*
X195550000Y-72515000D03*
D10*
X107050000Y-129435000D03*
X108600000Y-129435000D03*
X226650000Y-100595000D03*
X228200000Y-100595000D03*
D18*
X111675000Y-61750000D03*
X111675000Y-63400000D03*
D22*
X206365000Y-78650000D03*
X206365000Y-77100000D03*
D17*
X210950000Y-77075000D03*
X212600000Y-77075000D03*
D13*
X249490000Y-64195000D03*
X251140000Y-64195000D03*
D27*
X79762500Y-137395000D03*
X81587500Y-137395000D03*
D16*
X211217500Y-71815000D03*
X213292500Y-71815000D03*
D28*
X251175000Y-94163500D03*
X251175000Y-92088500D03*
D10*
X98350000Y-116885000D03*
X99900000Y-116885000D03*
D16*
X84217500Y-133655000D03*
X86292500Y-133655000D03*
D10*
X107050000Y-121905000D03*
X108600000Y-121905000D03*
D16*
X84217500Y-136665000D03*
X86292500Y-136665000D03*
D20*
X157500000Y-67585000D03*
X155950000Y-67585000D03*
D29*
X258734000Y-93516000D03*
X257464000Y-93516000D03*
X256194000Y-93516000D03*
X254924000Y-93516000D03*
X254924000Y-98466000D03*
X256194000Y-98466000D03*
X257464000Y-98466000D03*
X258734000Y-98466000D03*
D30*
X228185000Y-86325000D03*
X234585000Y-86325000D03*
D18*
X252515000Y-55810000D03*
X252515000Y-57460000D03*
D10*
X111400000Y-129435000D03*
X112950000Y-129435000D03*
D12*
X198950000Y-72900000D03*
X198950000Y-74170000D03*
X198950000Y-75440000D03*
X198950000Y-76710000D03*
X204300000Y-76710000D03*
X204300000Y-75440000D03*
X204300000Y-74170000D03*
X204300000Y-72900000D03*
D10*
X211000000Y-78605000D03*
X212550000Y-78605000D03*
D13*
X96000000Y-75325000D03*
X97650000Y-75325000D03*
D16*
X212157500Y-85605000D03*
X214232500Y-85605000D03*
D22*
X254055000Y-57410000D03*
X254055000Y-55860000D03*
D10*
X191000000Y-72455000D03*
X192550000Y-72455000D03*
D17*
X197000000Y-75575000D03*
X195350000Y-75575000D03*
D10*
X111400000Y-119395000D03*
X112950000Y-119395000D03*
D22*
X151865000Y-58500000D03*
X151865000Y-56950000D03*
D15*
X155775000Y-64550000D03*
X155775000Y-62900000D03*
D20*
X117850000Y-72195000D03*
X119400000Y-72195000D03*
D31*
X84425000Y-127625000D03*
X91625000Y-127625000D03*
X84425000Y-130625000D03*
X91625000Y-130625000D03*
D17*
X255840000Y-71395000D03*
X254190000Y-71395000D03*
D10*
X236550000Y-106425000D03*
X238100000Y-106425000D03*
D22*
X254065000Y-60570000D03*
X254065000Y-59020000D03*
D32*
X217350000Y-88725000D03*
X217850000Y-88725000D03*
X218350000Y-88725000D03*
X218850000Y-88725000D03*
X219350000Y-88725000D03*
X219850000Y-88725000D03*
X220350000Y-88725000D03*
X220850000Y-88725000D03*
X221350000Y-88725000D03*
X221850000Y-88725000D03*
X222350000Y-88725000D03*
X222850000Y-88725000D03*
X223350000Y-88725000D03*
X223850000Y-88725000D03*
X224350000Y-88725000D03*
X224850000Y-88725000D03*
D33*
X226775000Y-90650000D03*
X226775000Y-91150000D03*
X226775000Y-91650000D03*
X226775000Y-92150000D03*
X226775000Y-92650000D03*
X226775000Y-93150000D03*
X226775000Y-93650000D03*
X226775000Y-94150000D03*
X226775000Y-94650000D03*
X226775000Y-95150000D03*
X226775000Y-95650000D03*
X226775000Y-96150000D03*
X226775000Y-96650000D03*
X226775000Y-97150000D03*
X226775000Y-97650000D03*
X226775000Y-98150000D03*
D32*
X224850000Y-100075000D03*
X224350000Y-100075000D03*
X223850000Y-100075000D03*
X223350000Y-100075000D03*
X222850000Y-100075000D03*
X222350000Y-100075000D03*
X221850000Y-100075000D03*
X221350000Y-100075000D03*
X220850000Y-100075000D03*
X220350000Y-100075000D03*
X219850000Y-100075000D03*
X219350000Y-100075000D03*
X218850000Y-100075000D03*
X218350000Y-100075000D03*
X217850000Y-100075000D03*
X217350000Y-100075000D03*
D33*
X215425000Y-98150000D03*
X215425000Y-97650000D03*
X215425000Y-97150000D03*
X215425000Y-96650000D03*
X215425000Y-96150000D03*
X215425000Y-95650000D03*
X215425000Y-95150000D03*
X215425000Y-94650000D03*
X215425000Y-94150000D03*
X215425000Y-93650000D03*
X215425000Y-93150000D03*
X215425000Y-92650000D03*
X215425000Y-92150000D03*
X215425000Y-91650000D03*
X215425000Y-91150000D03*
X215425000Y-90650000D03*
D20*
X214200000Y-89225000D03*
X212650000Y-89225000D03*
X212600000Y-74005000D03*
X211050000Y-74005000D03*
D15*
X252575000Y-60670000D03*
X252575000Y-59020000D03*
D10*
X107050000Y-116885000D03*
X108600000Y-116885000D03*
D13*
X100750000Y-68775000D03*
X102400000Y-68775000D03*
D12*
X109950000Y-71210000D03*
X109950000Y-72480000D03*
X109950000Y-73750000D03*
X109950000Y-75020000D03*
X104600000Y-75020000D03*
X104600000Y-73750000D03*
X104600000Y-72480000D03*
X104600000Y-71210000D03*
D20*
X215900000Y-100505000D03*
X214350000Y-100505000D03*
D18*
X162525000Y-58100000D03*
X162525000Y-59750000D03*
D10*
X111400000Y-126925000D03*
X112950000Y-126925000D03*
X111400000Y-116885000D03*
X112950000Y-116885000D03*
D28*
X245049000Y-94163500D03*
X245049000Y-92088500D03*
D34*
X211912500Y-106075000D03*
X211912500Y-106575000D03*
X211912500Y-107075000D03*
X211912500Y-107575000D03*
X211912500Y-108075000D03*
X211912500Y-108575000D03*
X211912500Y-109075000D03*
X211912500Y-109575000D03*
X211912500Y-110075000D03*
X211912500Y-110575000D03*
X211912500Y-111075000D03*
X211912500Y-111575000D03*
X211912500Y-112075000D03*
X211912500Y-112575000D03*
X211912500Y-113075000D03*
X211912500Y-113575000D03*
X211912500Y-114075000D03*
X211912500Y-114575000D03*
X211912500Y-115075000D03*
X211912500Y-115575000D03*
X211912500Y-116075000D03*
X211912500Y-116575000D03*
X211912500Y-117075000D03*
X211912500Y-117575000D03*
X211912500Y-118075000D03*
X211912500Y-118575000D03*
X211912500Y-119075000D03*
X211912500Y-119575000D03*
X211912500Y-120075000D03*
X211912500Y-120575000D03*
X211912500Y-121075000D03*
X211912500Y-121575000D03*
X211912500Y-122075000D03*
X211912500Y-122575000D03*
X211912500Y-123075000D03*
X211912500Y-123575000D03*
D35*
X213825000Y-125487500D03*
X214325000Y-125487500D03*
X214825000Y-125487500D03*
X215325000Y-125487500D03*
X215825000Y-125487500D03*
X216325000Y-125487500D03*
X216825000Y-125487500D03*
X217325000Y-125487500D03*
X217825000Y-125487500D03*
X218325000Y-125487500D03*
X218825000Y-125487500D03*
X219325000Y-125487500D03*
X219825000Y-125487500D03*
X220325000Y-125487500D03*
X220825000Y-125487500D03*
X221325000Y-125487500D03*
X221825000Y-125487500D03*
X222325000Y-125487500D03*
X222825000Y-125487500D03*
X223325000Y-125487500D03*
X223825000Y-125487500D03*
X224325000Y-125487500D03*
X224825000Y-125487500D03*
X225325000Y-125487500D03*
X225825000Y-125487500D03*
X226325000Y-125487500D03*
X226825000Y-125487500D03*
X227325000Y-125487500D03*
X227825000Y-125487500D03*
X228325000Y-125487500D03*
X228825000Y-125487500D03*
X229325000Y-125487500D03*
X229825000Y-125487500D03*
X230325000Y-125487500D03*
X230825000Y-125487500D03*
X231325000Y-125487500D03*
D34*
X233237500Y-123575000D03*
X233237500Y-123075000D03*
X233237500Y-122575000D03*
X233237500Y-122075000D03*
X233237500Y-121575000D03*
X233237500Y-121075000D03*
X233237500Y-120575000D03*
X233237500Y-120075000D03*
X233237500Y-119575000D03*
X233237500Y-119075000D03*
X233237500Y-118575000D03*
X233237500Y-118075000D03*
X233237500Y-117575000D03*
X233237500Y-117075000D03*
X233237500Y-116575000D03*
X233237500Y-116075000D03*
X233237500Y-115575000D03*
X233237500Y-115075000D03*
X233237500Y-114575000D03*
X233237500Y-114075000D03*
X233237500Y-113575000D03*
X233237500Y-113075000D03*
X233237500Y-112575000D03*
X233237500Y-112075000D03*
X233237500Y-111575000D03*
X233237500Y-111075000D03*
X233237500Y-110575000D03*
X233237500Y-110075000D03*
X233237500Y-109575000D03*
X233237500Y-109075000D03*
X233237500Y-108575000D03*
X233237500Y-108075000D03*
X233237500Y-107575000D03*
X233237500Y-107075000D03*
X233237500Y-106575000D03*
X233237500Y-106075000D03*
D35*
X231325000Y-104162500D03*
X230825000Y-104162500D03*
X230325000Y-104162500D03*
X229825000Y-104162500D03*
X229325000Y-104162500D03*
X228825000Y-104162500D03*
X228325000Y-104162500D03*
X227825000Y-104162500D03*
X227325000Y-104162500D03*
X226825000Y-104162500D03*
X226325000Y-104162500D03*
X225825000Y-104162500D03*
X225325000Y-104162500D03*
X224825000Y-104162500D03*
X224325000Y-104162500D03*
X223825000Y-104162500D03*
X223325000Y-104162500D03*
X222825000Y-104162500D03*
X222325000Y-104162500D03*
X221825000Y-104162500D03*
X221325000Y-104162500D03*
X220825000Y-104162500D03*
X220325000Y-104162500D03*
X219825000Y-104162500D03*
X219325000Y-104162500D03*
X218825000Y-104162500D03*
X218325000Y-104162500D03*
X217825000Y-104162500D03*
X217325000Y-104162500D03*
X216825000Y-104162500D03*
X216325000Y-104162500D03*
X215825000Y-104162500D03*
X215325000Y-104162500D03*
X214825000Y-104162500D03*
X214325000Y-104162500D03*
X213825000Y-104162500D03*
D20*
X148850000Y-58485000D03*
X147300000Y-58485000D03*
D17*
X207400000Y-55925000D03*
X205750000Y-55925000D03*
D10*
X111400000Y-121905000D03*
X112950000Y-121905000D03*
D36*
X231785000Y-91025000D03*
X236885000Y-91025000D03*
D37*
X254193000Y-131053862D03*
X254193000Y-124653862D03*
D17*
X257140000Y-58995000D03*
X255490000Y-58995000D03*
D11*
X99085000Y-73800000D03*
X99085000Y-75350000D03*
D15*
X108125000Y-65100000D03*
X108125000Y-63450000D03*
D20*
X151900000Y-59975000D03*
X150350000Y-59975000D03*
D10*
X236550000Y-108935000D03*
X238100000Y-108935000D03*
X107050000Y-124415000D03*
X108600000Y-124415000D03*
X263830000Y-89087000D03*
X265380000Y-89087000D03*
X102700000Y-119395000D03*
X104250000Y-119395000D03*
D13*
X195500000Y-73975000D03*
X197150000Y-73975000D03*
D17*
X114200000Y-70125000D03*
X112550000Y-70125000D03*
D10*
X204700000Y-66385000D03*
X206250000Y-66385000D03*
D13*
X96000000Y-73725000D03*
X97650000Y-73725000D03*
D22*
X211435000Y-60000000D03*
X211435000Y-58450000D03*
D38*
X262505000Y-103719500D03*
X262505000Y-101894500D03*
D17*
X209650000Y-71925000D03*
X208000000Y-71925000D03*
D39*
X249356000Y-124754000D03*
X247056000Y-124754000D03*
D40*
X247056000Y-131054000D03*
D39*
X244756000Y-124754000D03*
D41*
X243475000Y-98613000D03*
X243475000Y-100913000D03*
D42*
X249775000Y-100913000D03*
D41*
X243475000Y-103213000D03*
D16*
X262617500Y-99715000D03*
X264692500Y-99715000D03*
D17*
X102500000Y-62125000D03*
X100850000Y-62125000D03*
D15*
X257065000Y-57520000D03*
X257065000Y-55870000D03*
D43*
X89005000Y-138895000D03*
X90755000Y-138895000D03*
D18*
X100925000Y-57300000D03*
X100925000Y-58950000D03*
D15*
X207825000Y-64900000D03*
X207825000Y-63250000D03*
D10*
X108050000Y-66525000D03*
X109600000Y-66525000D03*
D15*
X209425000Y-75650000D03*
X209425000Y-74000000D03*
D10*
X100600000Y-75335000D03*
X102150000Y-75335000D03*
X102700000Y-121905000D03*
X104250000Y-121905000D03*
D13*
X197750000Y-61775000D03*
X199400000Y-61775000D03*
D43*
X83305000Y-146085000D03*
X85055000Y-146085000D03*
D17*
X113000000Y-73725000D03*
X114650000Y-73725000D03*
D10*
X157300000Y-66005000D03*
X158850000Y-66005000D03*
D27*
X79762500Y-139905000D03*
X81587500Y-139905000D03*
D20*
X231860000Y-82945000D03*
X230310000Y-82945000D03*
D13*
X79850000Y-134885000D03*
X81500000Y-134885000D03*
D18*
X150425000Y-56900000D03*
X150425000Y-58550000D03*
D20*
X108050000Y-68065000D03*
X106500000Y-68065000D03*
D22*
X206325000Y-75600000D03*
X206325000Y-74050000D03*
M02*
