G04 #@! TF.GenerationSoftware,KiCad,Pcbnew,7.0.2*
G04 #@! TF.CreationDate,2024-04-03T16:33:45+02:00*
G04 #@! TF.ProjectId,stm_audio_board_V3,73746d5f-6175-4646-996f-5f626f617264,rev?*
G04 #@! TF.SameCoordinates,Original*
G04 #@! TF.FileFunction,Copper,L4,Bot*
G04 #@! TF.FilePolarity,Positive*
%FSLAX46Y46*%
G04 Gerber Fmt 4.6, Leading zero omitted, Abs format (unit mm)*
G04 Created by KiCad (PCBNEW 7.0.2) date 2024-04-03 16:33:45*
%MOMM*%
%LPD*%
G01*
G04 APERTURE LIST*
G04 Aperture macros list*
%AMRoundRect*
0 Rectangle with rounded corners*
0 $1 Rounding radius*
0 $2 $3 $4 $5 $6 $7 $8 $9 X,Y pos of 4 corners*
0 Add a 4 corners polygon primitive as box body*
4,1,4,$2,$3,$4,$5,$6,$7,$8,$9,$2,$3,0*
0 Add four circle primitives for the rounded corners*
1,1,$1+$1,$2,$3*
1,1,$1+$1,$4,$5*
1,1,$1+$1,$6,$7*
1,1,$1+$1,$8,$9*
0 Add four rect primitives between the rounded corners*
20,1,$1+$1,$2,$3,$4,$5,0*
20,1,$1+$1,$4,$5,$6,$7,0*
20,1,$1+$1,$6,$7,$8,$9,0*
20,1,$1+$1,$8,$9,$2,$3,0*%
G04 Aperture macros list end*
G04 #@! TA.AperFunction,ComponentPad*
%ADD10C,5.600000*%
G04 #@! TD*
G04 #@! TA.AperFunction,ComponentPad*
%ADD11C,3.000000*%
G04 #@! TD*
G04 #@! TA.AperFunction,ComponentPad*
%ADD12R,1.600000X1.600000*%
G04 #@! TD*
G04 #@! TA.AperFunction,ComponentPad*
%ADD13C,1.600000*%
G04 #@! TD*
G04 #@! TA.AperFunction,ComponentPad*
%ADD14R,1.850000X1.850000*%
G04 #@! TD*
G04 #@! TA.AperFunction,ComponentPad*
%ADD15C,1.850000*%
G04 #@! TD*
G04 #@! TA.AperFunction,ComponentPad*
%ADD16R,2.000000X4.600000*%
G04 #@! TD*
G04 #@! TA.AperFunction,ComponentPad*
%ADD17O,2.000000X4.200000*%
G04 #@! TD*
G04 #@! TA.AperFunction,ComponentPad*
%ADD18O,4.200000X2.000000*%
G04 #@! TD*
G04 #@! TA.AperFunction,ComponentPad*
%ADD19RoundRect,0.250000X0.600000X-0.600000X0.600000X0.600000X-0.600000X0.600000X-0.600000X-0.600000X0*%
G04 #@! TD*
G04 #@! TA.AperFunction,ComponentPad*
%ADD20C,1.700000*%
G04 #@! TD*
G04 #@! TA.AperFunction,ComponentPad*
%ADD21R,1.700000X1.700000*%
G04 #@! TD*
G04 #@! TA.AperFunction,ComponentPad*
%ADD22O,1.700000X1.700000*%
G04 #@! TD*
G04 #@! TA.AperFunction,ComponentPad*
%ADD23R,1.524000X1.524000*%
G04 #@! TD*
G04 #@! TA.AperFunction,ComponentPad*
%ADD24C,1.524000*%
G04 #@! TD*
G04 #@! TA.AperFunction,ComponentPad*
%ADD25C,3.500000*%
G04 #@! TD*
G04 #@! TA.AperFunction,ComponentPad*
%ADD26R,1.800000X1.800000*%
G04 #@! TD*
G04 #@! TA.AperFunction,ComponentPad*
%ADD27C,1.800000*%
G04 #@! TD*
G04 #@! TA.AperFunction,ComponentPad*
%ADD28RoundRect,0.500000X1.000000X-0.500000X1.000000X0.500000X-1.000000X0.500000X-1.000000X-0.500000X0*%
G04 #@! TD*
G04 #@! TA.AperFunction,ViaPad*
%ADD29C,0.800000*%
G04 #@! TD*
G04 #@! TA.AperFunction,ViaPad*
%ADD30C,0.350000*%
G04 #@! TD*
G04 #@! TA.AperFunction,ViaPad*
%ADD31C,0.500000*%
G04 #@! TD*
G04 #@! TA.AperFunction,Conductor*
%ADD32C,0.200000*%
G04 #@! TD*
G04 #@! TA.AperFunction,Conductor*
%ADD33C,1.016000*%
G04 #@! TD*
G04 #@! TA.AperFunction,Conductor*
%ADD34C,1.524000*%
G04 #@! TD*
G04 #@! TA.AperFunction,Conductor*
%ADD35C,2.032000*%
G04 #@! TD*
G04 #@! TA.AperFunction,Conductor*
%ADD36C,0.304800*%
G04 #@! TD*
G04 #@! TA.AperFunction,Conductor*
%ADD37C,0.635000*%
G04 #@! TD*
G04 #@! TA.AperFunction,Conductor*
%ADD38C,0.508000*%
G04 #@! TD*
G04 #@! TA.AperFunction,Conductor*
%ADD39C,0.762000*%
G04 #@! TD*
G04 #@! TA.AperFunction,Conductor*
%ADD40C,2.540000*%
G04 #@! TD*
G04 APERTURE END LIST*
D10*
X298500000Y-54518750D03*
X298500000Y-104793750D03*
D11*
X53951445Y-81097886D03*
X53951445Y-64867886D03*
X47601445Y-81097886D03*
X47601445Y-64867886D03*
X60301445Y-81097886D03*
X60301445Y-64867886D03*
X242486250Y-39983400D03*
X258716250Y-39983400D03*
X242486250Y-33633400D03*
X258716250Y-33633400D03*
X242486250Y-46333400D03*
X258716250Y-46333400D03*
X192486250Y-39983400D03*
X208716250Y-39983400D03*
X192486250Y-33633400D03*
X208716250Y-33633400D03*
X192486250Y-46333400D03*
X208716250Y-46333400D03*
D12*
X134714759Y-139200000D03*
D13*
X134714759Y-141700000D03*
D11*
X112476251Y-39983400D03*
X128706251Y-39983400D03*
X112476251Y-33633400D03*
X128706251Y-33633400D03*
X112476251Y-46333400D03*
X128706251Y-46333400D03*
D14*
X284822821Y-119213400D03*
D15*
X284822821Y-116673400D03*
X284822821Y-114133400D03*
X284822821Y-109053400D03*
X284822821Y-106513400D03*
X284822821Y-103973400D03*
X284822821Y-101433400D03*
D12*
X252948559Y-101523400D03*
D13*
X252948559Y-99023400D03*
D12*
X227360241Y-123050000D03*
D13*
X229860241Y-123050000D03*
D16*
X290236200Y-142092000D03*
D17*
X296536200Y-142092000D03*
D18*
X293136200Y-137292000D03*
D12*
X277284562Y-140991800D03*
D13*
X277284562Y-143491800D03*
D12*
X220426287Y-103665080D03*
D13*
X220426287Y-101165080D03*
D19*
X234707600Y-142351400D03*
D20*
X234707600Y-139811400D03*
X237247600Y-142351400D03*
X237247600Y-139811400D03*
X239787600Y-142351400D03*
X239787600Y-139811400D03*
X242327600Y-142351400D03*
X242327600Y-139811400D03*
X244867600Y-142351400D03*
X244867600Y-139811400D03*
D12*
X239044959Y-118066160D03*
D13*
X239044959Y-115566160D03*
D12*
X271207000Y-126652135D03*
D13*
X271207000Y-124152135D03*
D12*
X273152759Y-83766318D03*
D13*
X275652759Y-83766318D03*
D12*
X248487000Y-105597641D03*
D13*
X248487000Y-108097641D03*
D11*
X62476251Y-39983400D03*
X78706251Y-39983400D03*
X62476251Y-33633400D03*
X78706251Y-33633400D03*
X62476251Y-46333400D03*
X78706251Y-46333400D03*
D12*
X271319359Y-67616000D03*
D13*
X271319359Y-65116000D03*
D12*
X271023200Y-57736159D03*
D13*
X271023200Y-60236159D03*
D12*
X270076167Y-140991800D03*
D13*
X270076167Y-143491800D03*
D11*
X137476251Y-39983400D03*
X153706251Y-39983400D03*
X137476251Y-33633400D03*
X153706251Y-33633400D03*
X137476251Y-46333400D03*
X153706251Y-46333400D03*
D10*
X48500000Y-54518750D03*
D12*
X290807800Y-83804759D03*
D13*
X293307800Y-83804759D03*
D12*
X245833800Y-101407041D03*
D13*
X245833800Y-98907041D03*
D21*
X169215820Y-88374078D03*
D22*
X166675820Y-88374078D03*
X164135820Y-88374078D03*
X161595820Y-88374078D03*
D12*
X167750000Y-139160241D03*
D13*
X167750000Y-141660241D03*
D21*
X221119899Y-137824541D03*
D22*
X218579899Y-137824541D03*
X216039899Y-137824541D03*
X213499899Y-137824541D03*
D12*
X284492959Y-140991800D03*
D13*
X284492959Y-143491800D03*
D14*
X270210359Y-119113221D03*
D15*
X270210359Y-116573221D03*
X270210359Y-114033221D03*
X270210359Y-108953221D03*
X270210359Y-106413221D03*
X270210359Y-103873221D03*
X270210359Y-101333221D03*
D10*
X48500000Y-104518750D03*
D12*
X231193800Y-107135441D03*
D13*
X228693800Y-107135441D03*
D23*
X53563600Y-132496400D03*
D24*
X53563600Y-134996400D03*
X53563600Y-136996400D03*
X53563600Y-139496400D03*
D25*
X50853600Y-129426400D03*
X50853600Y-142566400D03*
D11*
X87476251Y-39983400D03*
X103706251Y-39983400D03*
X87476251Y-33633400D03*
X103706251Y-33633400D03*
X87476251Y-46333400D03*
X103706251Y-46333400D03*
D12*
X278203000Y-126731800D03*
D13*
X278203000Y-124231800D03*
D12*
X274745670Y-130492600D03*
D13*
X274745670Y-132992600D03*
D10*
X177889000Y-93435400D03*
X171807600Y-46643600D03*
D11*
X267486250Y-39983400D03*
X283716250Y-39983400D03*
X267486250Y-33633400D03*
X283716250Y-33633400D03*
X267486250Y-46333400D03*
X283716250Y-46333400D03*
D12*
X262867772Y-140991800D03*
D13*
X262867772Y-143491800D03*
D11*
X217486250Y-39983400D03*
X233716250Y-39983400D03*
X217486250Y-33633400D03*
X233716250Y-33633400D03*
X217486250Y-46333400D03*
X233716250Y-46333400D03*
D26*
X116699195Y-123929281D03*
D27*
X114199195Y-123929281D03*
X111699195Y-123929281D03*
D28*
X109449195Y-116429281D03*
X118949195Y-116429281D03*
D26*
X86445195Y-96896243D03*
D27*
X83945195Y-96896243D03*
X81445195Y-96896243D03*
D28*
X79195195Y-89396243D03*
X88695195Y-89396243D03*
D26*
X86699195Y-123929281D03*
D27*
X84199195Y-123929281D03*
X81699195Y-123929281D03*
D28*
X79449195Y-116429281D03*
X88949195Y-116429281D03*
D21*
X129507600Y-85587200D03*
D22*
X129507600Y-88127200D03*
X129507600Y-90667200D03*
X129507600Y-93207200D03*
X129507600Y-95747200D03*
X129507600Y-98287200D03*
X129507600Y-100827200D03*
X129507600Y-103367200D03*
X129507600Y-105907200D03*
X129507600Y-108447200D03*
X129507600Y-110987200D03*
X129507600Y-113527200D03*
X129507600Y-116067200D03*
X129507600Y-118607200D03*
X129507600Y-121147200D03*
X129507600Y-123687200D03*
D26*
X56445195Y-96896243D03*
D27*
X53945195Y-96896243D03*
X51445195Y-96896243D03*
D28*
X49195195Y-89396243D03*
X58695195Y-89396243D03*
D26*
X56699195Y-123929281D03*
D27*
X54199195Y-123929281D03*
X51699195Y-123929281D03*
D28*
X49449195Y-116429281D03*
X58949195Y-116429281D03*
D26*
X116445195Y-96896243D03*
D27*
X113945195Y-96896243D03*
X111445195Y-96896243D03*
D28*
X109195195Y-89396243D03*
X118695195Y-89396243D03*
D29*
X204267815Y-95184232D03*
X205590000Y-95170000D03*
X205479186Y-97657503D03*
X204155448Y-97537978D03*
X170100000Y-119710000D03*
X181450000Y-133750000D03*
X178990000Y-130180000D03*
X179630000Y-133530000D03*
X178870000Y-127120000D03*
X177170000Y-128730000D03*
X178050000Y-131570000D03*
X176550000Y-130180000D03*
X175020000Y-128650000D03*
X177260000Y-126930000D03*
X175080000Y-126900000D03*
D30*
X180910000Y-123470000D03*
X181000000Y-122010000D03*
X181720000Y-121360000D03*
D29*
X180710000Y-116390000D03*
X180850000Y-131320000D03*
X180750000Y-130040000D03*
D30*
X181410000Y-130650000D03*
D29*
X180820000Y-128850000D03*
D30*
X181750000Y-128750000D03*
X181360600Y-126359500D03*
D29*
X180575000Y-127175000D03*
X192300000Y-127625000D03*
X192275000Y-126325000D03*
X191375000Y-124575000D03*
X191125000Y-125775000D03*
X191100000Y-126875000D03*
X190975000Y-128000000D03*
X195675000Y-127200000D03*
X197425000Y-127225000D03*
X197350000Y-125100000D03*
X195775000Y-125075000D03*
X204617278Y-108676998D03*
X203336883Y-108689967D03*
X211050000Y-110050000D03*
X211161966Y-111482380D03*
X205500000Y-116275000D03*
X205500000Y-118125000D03*
X204250000Y-118650000D03*
X203350000Y-119600000D03*
X194550000Y-119425000D03*
X196113900Y-119325000D03*
X195636219Y-123225100D03*
X194000000Y-122725100D03*
X190800000Y-122700000D03*
X190050000Y-121350000D03*
X194276208Y-98034630D03*
X193029575Y-97949207D03*
X192866159Y-95777487D03*
X194620000Y-95860000D03*
X191467798Y-95180408D03*
X190618161Y-94196780D03*
X193223604Y-93415255D03*
X192300574Y-92572691D03*
D30*
X218850000Y-88050000D03*
X218850000Y-87250000D03*
X218850000Y-86450000D03*
X218850000Y-85650000D03*
X172225000Y-135225000D03*
X171350000Y-135200000D03*
X214825000Y-120875000D03*
X218250000Y-122025000D03*
X181450000Y-124050000D03*
X202225000Y-118600000D03*
X205450000Y-132225000D03*
X190449200Y-129960100D03*
X173175000Y-121375000D03*
X172250000Y-114800000D03*
X171275000Y-114800000D03*
X208729118Y-111750000D03*
X173950000Y-119085500D03*
D29*
X170225000Y-127525000D03*
X170200000Y-132300000D03*
X240200000Y-79375000D03*
X73664000Y-65391800D03*
X58804900Y-122137238D03*
X163850000Y-133775000D03*
X162600000Y-103025000D03*
X166600000Y-133850000D03*
X140754550Y-147050000D03*
X160372730Y-147050000D03*
X145659095Y-147050000D03*
X155468185Y-147050000D03*
X150563640Y-147050000D03*
X170181820Y-147050000D03*
X165277275Y-147050000D03*
X87054550Y-146975000D03*
X106672730Y-146975000D03*
X91959095Y-146975000D03*
X126290910Y-146975000D03*
X101768185Y-146975000D03*
X96863640Y-146975000D03*
X136100000Y-146975000D03*
X116481820Y-146975000D03*
X131195455Y-146975000D03*
X121386365Y-146975000D03*
X111577275Y-146975000D03*
X186575000Y-105500000D03*
X200325000Y-103025000D03*
X199675000Y-102400000D03*
X199697316Y-104027684D03*
X195100000Y-103075000D03*
X193975000Y-103125000D03*
X200675500Y-104025000D03*
X199025000Y-103225000D03*
X198525000Y-102300000D03*
X197525000Y-102300000D03*
X196625000Y-102300000D03*
X195650000Y-102300000D03*
X155650000Y-85625000D03*
X158775000Y-85675000D03*
X155650000Y-88275000D03*
X158775000Y-88325000D03*
X158250000Y-90650000D03*
X162125000Y-105975000D03*
X158250000Y-107800000D03*
X155600000Y-107800000D03*
X155600000Y-110650000D03*
X158250000Y-110650000D03*
X158000000Y-102425000D03*
X155350000Y-102425000D03*
X155350000Y-105275000D03*
X158000000Y-105275000D03*
X159941000Y-104725000D03*
D30*
X165650000Y-102675000D03*
X167075000Y-102025000D03*
X165675000Y-101375000D03*
D29*
X162465500Y-101934588D03*
X164404495Y-130346366D03*
X166252866Y-127793768D03*
X166219101Y-102021816D03*
X136375000Y-98075000D03*
X199250000Y-143850000D03*
X196150000Y-138975000D03*
D30*
X205694869Y-93025000D03*
D29*
X87165000Y-131900000D03*
X224536000Y-77622400D03*
X173575000Y-58075000D03*
X89900000Y-71600000D03*
D30*
X202650000Y-126925000D03*
X212324500Y-111559566D03*
D29*
X104807351Y-70050840D03*
X173975000Y-90050000D03*
X292375000Y-52275000D03*
D30*
X208400000Y-121675000D03*
D29*
X96725000Y-107275000D03*
X114300000Y-75819000D03*
X219100000Y-92375000D03*
X96300000Y-114075000D03*
X67275000Y-107275000D03*
X212500000Y-121800000D03*
D30*
X202575000Y-124750000D03*
D29*
X244225000Y-85775000D03*
X126424995Y-141300000D03*
X302475000Y-109375000D03*
X162650000Y-48100000D03*
X96725000Y-104275000D03*
X297250000Y-96175000D03*
X210868600Y-103786600D03*
X221875000Y-128200000D03*
D30*
X211600000Y-131450000D03*
D29*
X140868400Y-103327200D03*
X54925000Y-52800000D03*
X100750000Y-90875000D03*
D30*
X189855214Y-129463077D03*
D29*
X82050000Y-141300000D03*
D30*
X206100000Y-123050000D03*
D29*
X283083000Y-71546352D03*
X224925000Y-97091666D03*
D30*
X188025000Y-113950000D03*
D29*
X177750000Y-73725000D03*
D30*
X208025000Y-129925000D03*
D29*
X63296800Y-138277600D03*
X126424995Y-138300000D03*
X157042297Y-97554707D03*
X67275000Y-104275000D03*
X214125000Y-118150000D03*
X147251216Y-108115209D03*
X210825000Y-140273500D03*
X139650000Y-58125000D03*
D30*
X184800000Y-132350000D03*
D29*
X95750000Y-90875000D03*
X74375000Y-141975000D03*
D30*
X199553900Y-117935100D03*
D29*
X264600000Y-82600000D03*
X283006800Y-70256400D03*
X282988000Y-66267680D03*
X167750000Y-68800000D03*
X237350000Y-100610000D03*
X177100000Y-100450000D03*
X272142644Y-103109224D03*
X146456400Y-89255600D03*
X72719445Y-146400000D03*
X254850000Y-113625000D03*
X69444445Y-141975000D03*
X79099600Y-68236600D03*
X249600000Y-73600000D03*
X137050000Y-135075000D03*
X278875000Y-103346055D03*
X182750000Y-73725000D03*
X200750000Y-138225000D03*
X177925000Y-116600000D03*
X162550000Y-127375000D03*
X172750000Y-68800000D03*
X101325000Y-116950000D03*
X280725000Y-104575000D03*
X122580400Y-66040000D03*
X277017644Y-104488169D03*
X254850000Y-122625000D03*
X244225000Y-91775000D03*
D30*
X214800000Y-122500000D03*
D29*
X85650000Y-57925000D03*
X77858335Y-143175000D03*
X138938000Y-108813600D03*
X256565665Y-109067000D03*
X185175000Y-97925000D03*
X106325000Y-116950000D03*
X42200000Y-88700000D03*
X212731355Y-94469602D03*
X278875000Y-104575000D03*
X282917900Y-91785316D03*
X254925000Y-111275000D03*
X259600000Y-79600000D03*
X194005200Y-76911200D03*
X71700000Y-115550000D03*
X181305200Y-113995200D03*
X192175000Y-111125000D03*
X254800000Y-145625000D03*
X95750000Y-87875000D03*
X264600000Y-91600000D03*
X146253200Y-109169200D03*
X193954400Y-72694800D03*
D30*
X184875000Y-134700000D03*
D29*
X302250000Y-105175000D03*
X112050000Y-135075000D03*
X173975000Y-92700000D03*
X270800000Y-99350000D03*
X254850000Y-119625000D03*
D30*
X213200000Y-125025000D03*
D29*
X184925000Y-42300000D03*
X144855742Y-99954958D03*
X138250000Y-115100000D03*
X222475000Y-114250000D03*
X221900000Y-120850000D03*
X297275000Y-93400000D03*
X283057600Y-75265034D03*
D30*
X195479400Y-134784600D03*
X206050000Y-120150000D03*
D29*
X52275000Y-104275000D03*
X154025000Y-111650000D03*
X297350000Y-73050000D03*
X212775000Y-62475000D03*
X150300000Y-143925000D03*
X261887885Y-109067000D03*
X297350000Y-70050000D03*
X159512000Y-94183200D03*
X54925000Y-57800000D03*
X267267644Y-102996055D03*
X116078000Y-66040000D03*
X209946300Y-91225000D03*
X169500000Y-105275000D03*
X54925000Y-47800000D03*
D30*
X201050000Y-117900000D03*
D29*
X302275000Y-78400000D03*
X151375000Y-111650000D03*
X274700000Y-100613169D03*
X162750000Y-68800000D03*
X277017644Y-102030281D03*
X172355701Y-76296561D03*
X149650000Y-63125000D03*
X145202915Y-116320031D03*
D30*
X190033679Y-128513577D03*
D29*
X239225000Y-85775000D03*
X166071610Y-129285472D03*
X150432178Y-125286178D03*
X154533600Y-125422401D03*
X82125000Y-68375000D03*
X158350000Y-143725000D03*
X302250000Y-102175000D03*
X116563885Y-138300000D03*
D30*
X172960600Y-123085000D03*
D29*
X153012893Y-92229336D03*
X152300000Y-97650000D03*
D30*
X187175000Y-121000000D03*
D29*
X72858335Y-143175000D03*
X101300000Y-111075000D03*
X61594445Y-145000000D03*
X264600000Y-70600000D03*
X302375000Y-55275000D03*
X121700000Y-107075000D03*
D30*
X207453900Y-110075000D03*
D29*
X66700000Y-112550000D03*
X283019500Y-80843057D03*
X283032200Y-78983716D03*
D30*
X204300000Y-121450000D03*
D29*
X221775000Y-125800000D03*
D30*
X203225000Y-109900000D03*
D29*
X42275000Y-107275000D03*
X134213600Y-111099600D03*
X266301100Y-107863800D03*
X281584400Y-70205600D03*
X96995000Y-131900000D03*
X149860000Y-94234000D03*
X73660000Y-129438400D03*
X157650000Y-43100000D03*
X174189798Y-74279403D03*
X244449600Y-78511400D03*
X106725000Y-104275000D03*
D30*
X173925000Y-117450000D03*
D29*
X222100000Y-97375000D03*
X145675000Y-94725000D03*
X222500000Y-115625000D03*
X224925000Y-100033334D03*
X146145000Y-131900000D03*
X209550000Y-136825000D03*
X220421200Y-71882000D03*
X230109200Y-67665000D03*
X104850000Y-63025000D03*
X198983600Y-86817200D03*
X111547725Y-144125000D03*
X151375000Y-108800000D03*
X197805000Y-101055000D03*
X106325000Y-119950000D03*
X293350000Y-107400000D03*
X292375000Y-64275000D03*
X210800000Y-139150000D03*
X231425000Y-114200000D03*
X139879876Y-121103767D03*
X96841665Y-138300000D03*
X142325103Y-124002800D03*
X249600000Y-88600000D03*
D30*
X212750000Y-112575000D03*
D29*
X205575000Y-129625000D03*
X180050000Y-120275000D03*
D30*
X207100000Y-131325000D03*
D29*
X249600000Y-82600000D03*
X77650000Y-146400000D03*
X113613700Y-62890400D03*
D30*
X186800000Y-130125000D03*
D29*
X223625000Y-114250000D03*
X56663890Y-145000000D03*
X254850000Y-128625000D03*
D30*
X188800000Y-113275000D03*
X207453900Y-112325000D03*
D29*
X45200000Y-93700000D03*
X297275000Y-81400000D03*
X141402258Y-124999359D03*
D30*
X196200000Y-133875000D03*
D29*
X101910000Y-131900000D03*
X215375000Y-90675000D03*
X299475000Y-109375000D03*
X73050400Y-131165600D03*
X45600000Y-112150000D03*
X132050000Y-135075000D03*
X259600000Y-85600000D03*
X259600000Y-76600000D03*
X166319200Y-111912400D03*
X274700000Y-101842112D03*
X280725000Y-102117112D03*
X234659200Y-67665000D03*
X82125000Y-73375000D03*
X166650000Y-121125000D03*
X272142644Y-99422395D03*
X177100000Y-105750000D03*
X249600000Y-91600000D03*
D30*
X186750000Y-128950000D03*
X186850000Y-119550000D03*
D29*
X239725200Y-63398400D03*
X106702775Y-141300000D03*
X92080000Y-131900000D03*
X267267644Y-101767112D03*
X171125000Y-97750000D03*
X253904555Y-109067000D03*
D30*
X207453900Y-110900000D03*
D29*
X267267644Y-99309226D03*
X81725000Y-107275000D03*
X170075000Y-121050000D03*
X284632400Y-82550000D03*
X254600000Y-67600000D03*
X263218440Y-109067000D03*
X177800000Y-118250000D03*
X244125000Y-131450000D03*
X177750000Y-76725000D03*
X266090400Y-109067600D03*
D30*
X207067937Y-121700000D03*
D29*
X111700000Y-104075000D03*
D30*
X201893077Y-125906923D03*
D29*
X55625000Y-136125000D03*
X268350000Y-99321057D03*
X76725000Y-107275000D03*
X157650000Y-48100000D03*
X254825000Y-140400000D03*
X302275000Y-87400000D03*
X250150000Y-58925000D03*
X171125000Y-105700000D03*
X302375000Y-61275000D03*
X154650000Y-58125000D03*
X218186000Y-82956400D03*
X267267644Y-100538169D03*
X272142644Y-100651338D03*
X252574000Y-109067000D03*
X170050000Y-102425000D03*
X283044900Y-77124375D03*
X237350000Y-97870000D03*
D30*
X206325000Y-124100000D03*
D29*
X87125000Y-68375000D03*
X96325000Y-116950000D03*
X194005200Y-79095600D03*
X297275000Y-78400000D03*
X92125000Y-68375000D03*
X210500000Y-88450000D03*
D30*
X208400000Y-132475000D03*
D29*
X138582400Y-88900000D03*
X165200000Y-121025000D03*
X243750000Y-123825000D03*
X150239857Y-115936649D03*
X77575000Y-57925000D03*
X41400000Y-57800000D03*
X239225000Y-91775000D03*
X282917900Y-84328000D03*
X280725000Y-103346055D03*
X238277400Y-55549800D03*
X259600000Y-91600000D03*
X218389200Y-80873600D03*
X272142644Y-101880281D03*
X224925000Y-94150000D03*
X281381200Y-82550000D03*
X237350000Y-103350000D03*
X112312800Y-59416200D03*
D30*
X169975000Y-117300000D03*
D29*
X218900000Y-106650000D03*
X245150000Y-58925000D03*
X104850000Y-58025000D03*
X162750000Y-71800000D03*
X177250000Y-48050000D03*
X160200000Y-129675000D03*
X200625000Y-129625000D03*
D30*
X198600000Y-138725000D03*
D29*
X171125000Y-103050000D03*
X121494440Y-138300000D03*
D30*
X203425000Y-125125000D03*
D29*
X142036800Y-89306400D03*
X186225000Y-70675000D03*
X101725000Y-104275000D03*
X177750000Y-71800000D03*
D30*
X200975000Y-116875000D03*
D29*
X264600000Y-88600000D03*
X89900000Y-76600000D03*
X69500346Y-129335828D03*
X145086826Y-121311826D03*
X147489219Y-143912344D03*
X116700000Y-107075000D03*
X205587600Y-102082600D03*
X95650000Y-57925000D03*
X177750000Y-68800000D03*
X292375000Y-55275000D03*
X283070300Y-73405693D03*
X203150000Y-129625000D03*
X220319600Y-76606400D03*
X287477200Y-66548000D03*
X101772220Y-138300000D03*
X42275000Y-104275000D03*
X62077600Y-136167900D03*
D30*
X194450000Y-134550000D03*
D29*
X154650000Y-63125000D03*
X211709000Y-130022600D03*
X169450000Y-109075000D03*
D30*
X185100000Y-127200000D03*
D29*
X151060000Y-131900000D03*
X172600000Y-52625000D03*
X99850000Y-58025000D03*
X215800000Y-126300000D03*
X237350000Y-101980000D03*
X211662500Y-88637500D03*
X254825000Y-134400000D03*
X166375000Y-107625000D03*
X157600000Y-52625000D03*
X215575000Y-106925000D03*
X254600000Y-76600000D03*
X226875000Y-95622916D03*
X143596707Y-124605219D03*
X165497720Y-144125000D03*
X41400000Y-47800000D03*
X151790400Y-116128800D03*
X189225000Y-75675000D03*
X264600000Y-73600000D03*
X141141343Y-108351300D03*
X282988000Y-61781856D03*
X264600000Y-76600000D03*
X266175000Y-59200000D03*
X297375000Y-61275000D03*
X229600000Y-115750000D03*
X249600000Y-94600000D03*
X121356815Y-144125000D03*
X211785200Y-125399800D03*
X249600000Y-79600000D03*
X221700000Y-123550000D03*
X165150000Y-119975000D03*
X162814000Y-99050000D03*
X282988000Y-64816024D03*
X86980555Y-141300000D03*
X116452270Y-144125000D03*
X104454900Y-73067321D03*
X136315000Y-131900000D03*
X237439200Y-70205600D03*
X202500000Y-68125000D03*
X292375000Y-61275000D03*
X66733335Y-141775000D03*
X256175000Y-59200000D03*
X181200000Y-115450000D03*
X256175000Y-62200000D03*
X111404400Y-75031600D03*
D30*
X174050000Y-122175000D03*
D29*
X65500000Y-87650000D03*
X139125000Y-143912344D03*
X282917900Y-89925975D03*
X278875000Y-100888169D03*
X302375000Y-64275000D03*
X277017644Y-99572395D03*
X152750000Y-71800000D03*
X297375000Y-58275000D03*
X106825000Y-131900000D03*
D30*
X213275000Y-126650000D03*
D29*
X234250000Y-114150000D03*
X293350000Y-101400000D03*
X212775000Y-59475000D03*
X236946600Y-79438000D03*
X259600000Y-88600000D03*
X131165905Y-144125000D03*
X116700000Y-104075000D03*
X147750000Y-71800000D03*
X126485000Y-131900000D03*
X176925000Y-42925000D03*
X267267644Y-104225000D03*
X168575000Y-58075000D03*
X42200000Y-98700000D03*
D30*
X191222611Y-130001202D03*
D29*
X281482800Y-71495552D03*
X296475000Y-109375000D03*
X297275000Y-90400000D03*
X144143529Y-143912344D03*
X207775000Y-59475000D03*
X302350000Y-73050000D03*
X65500000Y-90650000D03*
X181675000Y-97725000D03*
X97050000Y-135075000D03*
X163575000Y-58075000D03*
D30*
X204375000Y-126400000D03*
D29*
X140797843Y-143912344D03*
D30*
X199800000Y-138200000D03*
D29*
X42600000Y-112150000D03*
X101325000Y-119950000D03*
X221850000Y-108150000D03*
D30*
X212150000Y-113850000D03*
D29*
X92050000Y-135075000D03*
D30*
X214249628Y-113442386D03*
D29*
X56733335Y-141775000D03*
X107409000Y-73845400D03*
X226875000Y-97095832D03*
X157750000Y-141700000D03*
X113044400Y-75177600D03*
X221400000Y-114250000D03*
X207500000Y-68125000D03*
X62275000Y-107275000D03*
X282200000Y-104600000D03*
X76725000Y-104275000D03*
D30*
X194525000Y-133325000D03*
D29*
X76700000Y-115550000D03*
X157650000Y-33100000D03*
X101772220Y-141300000D03*
X165250000Y-124975000D03*
X177200000Y-52575000D03*
X142050000Y-135075000D03*
X167750000Y-71800000D03*
X75500000Y-90650000D03*
X103646364Y-70719915D03*
X173975000Y-103050000D03*
X94900000Y-71600000D03*
X274700000Y-99384226D03*
X184925000Y-37300000D03*
X134010400Y-106222800D03*
X144650000Y-58125000D03*
X302250000Y-99175000D03*
X297350000Y-67050000D03*
D30*
X197675000Y-133200000D03*
D29*
X132080000Y-121208800D03*
D30*
X208425000Y-123175000D03*
D29*
X160475000Y-143075000D03*
X302375000Y-52275000D03*
X217325000Y-110525000D03*
D30*
X206917959Y-103935714D03*
D29*
X143475697Y-125679200D03*
D30*
X186353903Y-120959600D03*
D29*
X165275000Y-121975000D03*
D30*
X173850000Y-120125000D03*
D29*
X139650000Y-63125000D03*
X165225000Y-119025000D03*
X70500000Y-90650000D03*
X161000000Y-135075000D03*
X302375000Y-58275000D03*
X197500000Y-71125000D03*
X84900000Y-71600000D03*
X166268400Y-106172000D03*
X180211355Y-144125000D03*
X282988000Y-60330200D03*
X190020445Y-144125000D03*
X170025000Y-118250000D03*
X96834090Y-144125000D03*
X186225000Y-75675000D03*
X167650000Y-48100000D03*
X162650000Y-43100000D03*
X254825000Y-131400000D03*
X116563885Y-141300000D03*
X149007985Y-115108340D03*
X94900000Y-76600000D03*
X264600000Y-94600000D03*
X184925000Y-32300000D03*
X288442400Y-67462400D03*
X148640800Y-125272800D03*
D30*
X184610600Y-119285000D03*
D29*
X226060000Y-77571600D03*
X277017644Y-100801338D03*
X187128200Y-99427800D03*
X62275000Y-104275000D03*
X245150000Y-61925000D03*
D30*
X188900000Y-111700000D03*
D29*
X166725000Y-117100000D03*
X211375000Y-99400000D03*
X96325000Y-119950000D03*
X186122000Y-63678200D03*
X116655000Y-131900000D03*
X144485098Y-111061998D03*
X102050000Y-135075000D03*
X106702775Y-138300000D03*
X96841665Y-141300000D03*
X106300000Y-114075000D03*
X105750000Y-87875000D03*
X72275000Y-107275000D03*
X254600000Y-73600000D03*
X210750000Y-137975000D03*
X82050000Y-135075000D03*
X66525000Y-145000000D03*
X284734000Y-71526400D03*
X189225000Y-70675000D03*
X136070450Y-144125000D03*
D30*
X188650000Y-109800000D03*
D29*
X79400000Y-63400000D03*
X155975000Y-131900000D03*
X274700000Y-103071055D03*
X227025200Y-78384400D03*
X147750000Y-68800000D03*
X200964800Y-111252000D03*
X260557330Y-109067000D03*
X179928200Y-99668200D03*
X209905600Y-92176600D03*
X249600000Y-85600000D03*
X87125000Y-73375000D03*
X57275000Y-107275000D03*
X284725000Y-97600000D03*
D30*
X214750000Y-125225000D03*
D29*
X167600000Y-52625000D03*
X283006800Y-82550000D03*
D30*
X216700000Y-120675000D03*
D29*
X226875000Y-98568748D03*
X204368400Y-110286800D03*
X127050000Y-135075000D03*
X140222026Y-122149074D03*
X172750000Y-71800000D03*
X173975000Y-87400000D03*
X224925000Y-95620833D03*
X74527600Y-68033400D03*
X167650000Y-43100000D03*
X145816372Y-143912344D03*
X138250000Y-113600000D03*
X297375000Y-64275000D03*
X166575000Y-114550000D03*
X207500000Y-71125000D03*
D30*
X187225000Y-113200000D03*
D29*
X69296200Y-125938200D03*
X255235110Y-109067000D03*
X121700000Y-104075000D03*
X237125000Y-131400000D03*
X282988000Y-63233512D03*
X135788400Y-105156000D03*
X126746000Y-76708000D03*
X277017644Y-103259224D03*
X193141600Y-103680200D03*
X184394800Y-60397000D03*
X227000000Y-102800000D03*
X264718800Y-109093000D03*
X226875000Y-94150000D03*
X223650000Y-115625000D03*
X158575000Y-58075000D03*
X302275000Y-90400000D03*
X259600000Y-82600000D03*
X264600000Y-67600000D03*
X81725000Y-104275000D03*
X254600000Y-88600000D03*
X131400000Y-131900000D03*
X211759800Y-119100600D03*
X266175000Y-62200000D03*
X264600000Y-79600000D03*
X101738635Y-144125000D03*
X169025000Y-100725000D03*
X127885600Y-76785600D03*
X226875000Y-100041664D03*
X201396600Y-91846400D03*
X86980555Y-138300000D03*
X144650000Y-63125000D03*
X293350000Y-104400000D03*
X297275000Y-87400000D03*
X69673200Y-60130800D03*
X302250000Y-96175000D03*
X87050000Y-135075000D03*
X157750000Y-68800000D03*
X154950000Y-119025000D03*
X76700000Y-112550000D03*
X142470686Y-143912344D03*
X168575000Y-63075000D03*
X180125000Y-118225000D03*
X107050000Y-135075000D03*
X140817600Y-98247200D03*
X282988000Y-67719336D03*
X175055489Y-75240129D03*
X197500000Y-68125000D03*
D30*
X207200000Y-129950000D03*
D29*
X91911110Y-141300000D03*
X86725000Y-104275000D03*
X240550000Y-68225000D03*
X249600000Y-70600000D03*
X261175000Y-62200000D03*
X52275000Y-107275000D03*
X106725000Y-107275000D03*
X149125000Y-143925000D03*
X254600000Y-79600000D03*
X222100000Y-92375000D03*
X101725000Y-107275000D03*
X106300000Y-111075000D03*
X107391200Y-69621400D03*
X157750000Y-71800000D03*
X302375000Y-49275000D03*
X200575000Y-127200000D03*
X69583335Y-138750000D03*
X189400000Y-67769000D03*
D30*
X197625000Y-134225000D03*
D29*
X254600000Y-94600000D03*
X252574000Y-107867000D03*
X259226775Y-109067000D03*
D30*
X184375000Y-127275000D03*
D29*
X302275000Y-93400000D03*
X254825000Y-137400000D03*
X185175000Y-100925000D03*
X182250000Y-48050000D03*
X282988000Y-69170992D03*
X156000000Y-135075000D03*
X188713555Y-136354288D03*
X226975000Y-101525000D03*
X181675000Y-100725000D03*
X111633330Y-138300000D03*
D30*
X201950000Y-111450000D03*
D29*
X282200000Y-103371055D03*
X254600000Y-82600000D03*
X82050000Y-138300000D03*
X96300000Y-111075000D03*
X177100000Y-103100000D03*
X157750000Y-142800000D03*
X162600000Y-52625000D03*
X302275000Y-84400000D03*
X292375000Y-58275000D03*
X141230000Y-131900000D03*
X254850000Y-125625000D03*
X157650000Y-38100000D03*
D30*
X199525000Y-116950000D03*
X187925000Y-112375000D03*
D29*
X142750000Y-71800000D03*
X167700000Y-94825000D03*
X197900000Y-108190500D03*
X111700000Y-107075000D03*
X225589200Y-60396600D03*
X254600000Y-85600000D03*
X193954400Y-81076800D03*
X126261360Y-144125000D03*
X42200000Y-93700000D03*
X297275000Y-84400000D03*
X105486889Y-72533477D03*
D30*
X202825000Y-112225000D03*
D29*
X185115900Y-144125000D03*
X282917900Y-88066634D03*
X302275000Y-81400000D03*
D30*
X203400000Y-113375000D03*
D29*
X74583335Y-138750000D03*
X207775000Y-62475000D03*
X57275000Y-104275000D03*
X111633330Y-141300000D03*
X71225600Y-63410600D03*
X199800000Y-108190500D03*
X152750000Y-68800000D03*
X185572400Y-139293600D03*
X281381200Y-95300800D03*
X138153400Y-116628400D03*
X173975000Y-100400000D03*
X136728200Y-123088400D03*
X244225000Y-88775000D03*
X224925000Y-98562499D03*
X154025000Y-108800000D03*
X45200000Y-88700000D03*
X66700000Y-115550000D03*
X274700000Y-104300000D03*
X91929545Y-144125000D03*
X193996000Y-67793000D03*
X153568400Y-94183200D03*
X163175000Y-143075000D03*
X84900000Y-76600000D03*
X144250000Y-113425000D03*
X165658800Y-96316800D03*
X161950000Y-143075000D03*
X286300000Y-97600000D03*
X90650000Y-62925000D03*
X193954400Y-83108800D03*
X272142644Y-104338169D03*
X75500000Y-87650000D03*
X177100000Y-97800000D03*
X195575000Y-98235000D03*
X278875000Y-102117112D03*
X143533927Y-123322969D03*
X144275000Y-104925000D03*
X126238000Y-62839600D03*
X82452400Y-55790600D03*
X122050000Y-135075000D03*
X173575000Y-63075000D03*
X197425000Y-55601000D03*
X282917900Y-93644657D03*
X41400000Y-52800000D03*
X242850000Y-128000000D03*
X83824000Y-63461400D03*
X49925000Y-47800000D03*
D30*
X208430839Y-120916206D03*
D29*
X237350000Y-99240000D03*
X207279900Y-134598911D03*
X131089400Y-76885800D03*
X159425000Y-143075000D03*
X171125000Y-100400000D03*
X173975000Y-95350000D03*
X259600000Y-73600000D03*
X181457600Y-136093200D03*
X264600000Y-85600000D03*
D30*
X205825000Y-104400000D03*
D29*
X79900000Y-71600000D03*
X61733335Y-141775000D03*
X219100000Y-97375000D03*
X259600000Y-70600000D03*
X254800000Y-142625000D03*
X46400000Y-47800000D03*
X182750000Y-68800000D03*
X142750000Y-68800000D03*
X202775000Y-59475000D03*
D30*
X204150000Y-92950000D03*
D29*
X254600000Y-91600000D03*
X261175000Y-59200000D03*
D30*
X205525000Y-125575000D03*
D29*
X41355000Y-125275000D03*
D30*
X205675000Y-123700000D03*
D29*
X198069200Y-90525600D03*
X92125000Y-73375000D03*
X111740000Y-131900000D03*
X182750000Y-71800000D03*
X142341600Y-94183200D03*
X102400000Y-60475000D03*
X152667378Y-125387778D03*
X297350000Y-76050000D03*
X173233053Y-77008654D03*
X201425000Y-98700000D03*
X284632400Y-95300800D03*
X196850000Y-108190500D03*
X125044200Y-55168800D03*
D30*
X212800000Y-110925000D03*
D29*
X257896220Y-109067000D03*
X100750000Y-87875000D03*
X233925000Y-122050000D03*
D30*
X207975000Y-131300000D03*
D29*
X67513200Y-129387600D03*
X139850000Y-118250000D03*
X156632360Y-125374400D03*
X91725000Y-104275000D03*
X249600000Y-67600000D03*
X82250000Y-131900000D03*
X146922075Y-114525777D03*
X86725000Y-107275000D03*
X121570000Y-131900000D03*
X297250000Y-99175000D03*
X170402265Y-144125000D03*
X302350000Y-67050000D03*
X282917900Y-86207293D03*
X85650000Y-62925000D03*
X284632400Y-84328000D03*
X221425000Y-115625000D03*
X83225000Y-69200000D03*
X158575000Y-63075000D03*
X127152400Y-67462400D03*
X302350000Y-70050000D03*
X258774000Y-108067000D03*
X101300000Y-114075000D03*
X146503764Y-106182685D03*
X237350000Y-96500000D03*
X173975000Y-97750000D03*
X137750000Y-71800000D03*
X168675000Y-94825000D03*
X259600000Y-67600000D03*
X244159600Y-73827200D03*
X239225000Y-88775000D03*
X202500000Y-71125000D03*
X240550000Y-131450000D03*
X187950000Y-115150000D03*
X297375000Y-49275000D03*
X91725000Y-107275000D03*
X158445200Y-125476000D03*
D30*
X187875000Y-110750000D03*
D29*
X147050000Y-135075000D03*
D30*
X206725000Y-116525000D03*
D29*
X254600000Y-70600000D03*
X198822000Y-63678200D03*
X292375000Y-49275000D03*
X302350000Y-76050000D03*
X154950000Y-120000000D03*
X105750000Y-90875000D03*
X161175000Y-143725000D03*
X137750000Y-68800000D03*
X72275000Y-104275000D03*
X106643180Y-144125000D03*
X45200000Y-98700000D03*
X232950000Y-122075000D03*
X117050000Y-135075000D03*
X189074400Y-101190000D03*
X259600000Y-94600000D03*
X227177600Y-63500000D03*
X202775000Y-62475000D03*
X281381200Y-84328000D03*
X163575000Y-63075000D03*
X71700000Y-112550000D03*
X181991000Y-132232400D03*
X249600000Y-76600000D03*
X193116200Y-104620000D03*
X46270000Y-125275000D03*
X137759782Y-120675840D03*
X194005200Y-74828400D03*
X194925000Y-144125000D03*
X91911110Y-138300000D03*
X87025000Y-144125000D03*
X282917900Y-95300800D03*
X132085600Y-71385600D03*
X269717644Y-99338169D03*
X254850000Y-116625000D03*
X149650000Y-58125000D03*
X181925000Y-42925000D03*
X182750000Y-76725000D03*
X215175000Y-103450000D03*
X173975000Y-105700000D03*
X121494440Y-141300000D03*
X201575000Y-106575000D03*
X149600000Y-100500000D03*
X201575000Y-110334500D03*
X185941700Y-115620800D03*
X65750000Y-140025000D03*
X184110900Y-114909600D03*
X160850000Y-111950000D03*
X160850000Y-110150000D03*
X168775000Y-129825000D03*
X190100000Y-107825000D03*
X188025000Y-135100000D03*
X168775000Y-125325000D03*
X201450000Y-133350000D03*
X241225000Y-133000000D03*
X218400000Y-127225000D03*
D31*
X197800000Y-137215600D03*
D29*
X207700000Y-133350000D03*
X184699278Y-135799278D03*
X160850000Y-113625000D03*
X160850000Y-98100000D03*
X211750000Y-101325000D03*
X237316500Y-133125000D03*
X197475000Y-132300000D03*
D31*
X156325000Y-98300000D03*
D29*
X201400000Y-102475000D03*
X140075000Y-126125000D03*
X247450000Y-125475000D03*
X225950000Y-128700000D03*
X160850000Y-116225000D03*
D30*
X194950000Y-133959600D03*
X184610600Y-133985000D03*
D29*
X213000000Y-133676900D03*
X211850000Y-110850000D03*
X112826800Y-66141600D03*
X123901200Y-66040000D03*
X236829600Y-66446400D03*
X70463600Y-66103000D03*
X222910400Y-66649600D03*
X185512400Y-66573800D03*
X196332800Y-66523000D03*
X81284000Y-66712600D03*
X215544400Y-86563200D03*
X212547200Y-83058000D03*
X202996800Y-91694000D03*
X201676000Y-75895200D03*
X201650000Y-72725000D03*
X201676000Y-80111600D03*
X201676000Y-80111600D03*
X207918693Y-97774700D03*
X212852000Y-80924400D03*
X201676000Y-83108800D03*
D30*
X182175000Y-133075000D03*
X196954400Y-133709600D03*
D29*
X125790400Y-56530800D03*
X82376200Y-57111400D03*
X238861600Y-56734000D03*
X242722400Y-56734000D03*
X128727200Y-56530800D03*
X197806000Y-56709000D03*
X116027200Y-64608000D03*
X228904800Y-79502000D03*
X188611200Y-64786200D03*
X229870000Y-64811200D03*
X93421200Y-64608000D03*
D30*
X207625000Y-132025000D03*
X185010600Y-131535000D03*
X207604400Y-130659600D03*
D29*
X205435324Y-124612276D03*
X216712800Y-121920000D03*
D30*
X190225000Y-126950000D03*
X185956183Y-127270123D03*
X184490077Y-128064477D03*
X190125000Y-127775000D03*
X187325000Y-129509600D03*
X187054400Y-120259600D03*
X197500000Y-120300000D03*
X190500000Y-126275000D03*
X203125000Y-118400000D03*
X181810600Y-118885000D03*
X181731714Y-117839562D03*
X202325000Y-117750000D03*
X181724143Y-116996850D03*
X200350000Y-117411933D03*
X200225000Y-116409600D03*
X181926848Y-116106806D03*
X188899800Y-110718600D03*
X202793600Y-112979200D03*
D29*
X204470000Y-125425200D03*
X213868000Y-125831600D03*
D30*
X202054400Y-112159600D03*
X189504233Y-109897031D03*
X189754400Y-122859600D03*
X173310600Y-117900000D03*
X173325000Y-118600000D03*
X189797186Y-124504791D03*
X190625000Y-125050000D03*
X173360600Y-119500000D03*
X173462500Y-120712500D03*
X189813419Y-125647545D03*
D29*
X204450000Y-142800000D03*
X203150000Y-143075000D03*
X204927200Y-93425000D03*
X218998800Y-73685799D03*
X204927200Y-94475000D03*
X218998800Y-74735799D03*
X204876400Y-96943400D03*
X245100216Y-75833292D03*
X204876400Y-95893400D03*
X245100216Y-76883292D03*
X174056432Y-75269968D03*
X192293632Y-93507168D03*
X173313968Y-76012432D03*
X191551168Y-94249632D03*
X193700400Y-96198600D03*
X104597200Y-72078000D03*
X104597200Y-71028000D03*
X193700400Y-97298600D03*
X148975000Y-107625000D03*
X140425000Y-93725000D03*
D30*
X205154400Y-123109600D03*
X181950000Y-123275000D03*
X194804400Y-123159600D03*
D29*
X213415498Y-113279302D03*
X203983976Y-109364182D03*
X202692000Y-125831600D03*
X215696800Y-122072400D03*
X213512400Y-128625600D03*
X207975200Y-102412800D03*
X206780120Y-104744598D03*
D30*
X181860600Y-122235000D03*
X208440096Y-122412720D03*
X184610600Y-120985000D03*
X193275000Y-119075000D03*
D29*
X259225000Y-146225000D03*
X271180552Y-146225000D03*
X277158328Y-146225000D03*
X267941200Y-135349200D03*
X287850000Y-114625000D03*
X259225000Y-125654544D03*
X300050000Y-123825000D03*
X286125000Y-146225000D03*
X259225000Y-119777272D03*
X303400000Y-134850000D03*
X303400000Y-132250000D03*
X286359600Y-126796800D03*
X266639600Y-135349200D03*
X259225000Y-128593180D03*
X283950000Y-125550000D03*
X276200000Y-114150000D03*
X293400000Y-120625000D03*
X298400000Y-120625000D03*
X259225000Y-137409088D03*
X259225000Y-134470452D03*
X267941200Y-130200400D03*
X261700000Y-113925000D03*
X303400000Y-117625000D03*
X267941200Y-134062000D03*
X287731200Y-128066800D03*
X262534400Y-119975000D03*
X298400000Y-117625000D03*
X287731200Y-126796800D03*
X296700000Y-132250000D03*
X262526400Y-118625000D03*
X284937200Y-126796800D03*
X259225000Y-116838636D03*
X287731200Y-126796800D03*
X303400000Y-129850000D03*
X280147216Y-146225000D03*
X287731200Y-125476000D03*
X300050000Y-126825000D03*
X259225000Y-113900000D03*
X259225000Y-122715908D03*
X273200000Y-114150000D03*
X290525200Y-125476000D03*
X296850000Y-134850000D03*
X290525200Y-126796800D03*
X290525200Y-128117600D03*
X264700000Y-113925000D03*
X290850000Y-114625000D03*
X262534400Y-121513600D03*
X298400000Y-114625000D03*
X303400000Y-120625000D03*
X300050000Y-132250000D03*
X266598400Y-130200400D03*
X268191664Y-146225000D03*
X293400000Y-117625000D03*
X289153600Y-126796800D03*
X287731200Y-125476000D03*
X293400000Y-114625000D03*
X259225000Y-143286360D03*
X303400000Y-114625000D03*
X267919200Y-131470400D03*
X259225000Y-131531816D03*
X284937200Y-128066800D03*
X303400000Y-126850000D03*
X259225000Y-140347724D03*
X300050000Y-134850000D03*
X262213888Y-146225000D03*
X279200000Y-114150000D03*
X261950000Y-116575000D03*
X303400000Y-123850000D03*
X300050000Y-129825000D03*
X265202776Y-146225000D03*
X267700000Y-113925000D03*
X283136104Y-146225000D03*
X274169440Y-146225000D03*
X267941200Y-132774800D03*
D30*
X173575000Y-122750000D03*
X198975000Y-138023600D03*
X188010800Y-113182400D03*
X206254400Y-117209600D03*
D29*
X201725000Y-143050000D03*
X200475000Y-143225000D03*
X144475200Y-122986800D03*
X144932400Y-98958400D03*
X141325600Y-124002800D03*
X146812000Y-115519200D03*
X137050000Y-114575000D03*
X138684000Y-121056400D03*
X149250400Y-116078000D03*
X144576800Y-124409200D03*
X140563600Y-123088400D03*
X144881600Y-109372400D03*
X144475200Y-125679200D03*
X158089600Y-115976400D03*
X154178000Y-92405200D03*
X140614400Y-107442000D03*
X146757082Y-107149554D03*
X146253200Y-108169697D03*
X145084800Y-111861600D03*
X134874000Y-103174800D03*
X131278900Y-103276400D03*
X191125000Y-121125000D03*
X208992298Y-112756250D03*
X206146400Y-121310100D03*
X208686400Y-110642400D03*
X207619600Y-121005600D03*
X210362800Y-110998000D03*
D32*
X182155000Y-129535000D02*
X187299600Y-129535000D01*
X187299600Y-129535000D02*
X187325000Y-129509600D01*
X181750000Y-129130000D02*
X182155000Y-129535000D01*
X181750000Y-128750000D02*
X181750000Y-129130000D01*
X190365400Y-126409600D02*
X181410700Y-126409600D01*
X181410700Y-126409600D02*
X181360600Y-126359500D01*
X190500000Y-126275000D02*
X190365400Y-126409600D01*
X181425000Y-130625000D02*
X181459600Y-130659600D01*
X181450000Y-130650000D02*
X181425000Y-130650000D01*
X181459600Y-130659600D02*
X207604400Y-130659600D01*
X181450000Y-130650000D02*
X181450000Y-130650000D01*
X197500000Y-120300000D02*
X197459600Y-120259600D01*
X197459600Y-120259600D02*
X187054400Y-120259600D01*
X195954400Y-132709600D02*
X196954400Y-133709600D01*
X192400000Y-133050000D02*
X192740400Y-132709600D01*
X182200000Y-133050000D02*
X192400000Y-133050000D01*
X192740400Y-132709600D02*
X195954400Y-132709600D01*
X182175000Y-133075000D02*
X182200000Y-133050000D01*
X181640400Y-123859600D02*
X184660700Y-123859600D01*
X181450000Y-124050000D02*
X181640400Y-123859600D01*
X194604400Y-123359600D02*
X194804400Y-123159600D01*
X182034600Y-123359600D02*
X194604400Y-123359600D01*
X181950000Y-123275000D02*
X182034600Y-123359600D01*
X172931779Y-117900000D02*
X173310600Y-117900000D01*
X172622171Y-117590392D02*
X172931779Y-117900000D01*
X172900419Y-116918640D02*
X172622171Y-117196888D01*
X180735600Y-122710000D02*
X174944240Y-116918640D01*
X189604800Y-122710000D02*
X180735600Y-122710000D01*
X172622171Y-117196888D02*
X172622171Y-117590392D01*
X189754400Y-122859600D02*
X189604800Y-122710000D01*
X174944240Y-116918640D02*
X172900419Y-116918640D01*
X208991200Y-112757348D02*
X208992298Y-112756250D01*
X203314257Y-121525000D02*
X208991200Y-115848057D01*
X191525000Y-121525000D02*
X203314257Y-121525000D01*
X191125000Y-121125000D02*
X191525000Y-121525000D01*
X208991200Y-115848057D02*
X208991200Y-112757348D01*
X200225000Y-116409600D02*
X182229642Y-116409600D01*
X181836893Y-117109600D02*
X181724143Y-116996850D01*
X197625133Y-117411933D02*
X197322800Y-117109600D01*
X200350000Y-117411933D02*
X197625133Y-117411933D01*
X197322800Y-117109600D02*
X181836893Y-117109600D01*
X181801752Y-117909600D02*
X181731714Y-117839562D01*
X196504400Y-117909600D02*
X181801752Y-117909600D01*
X197004400Y-118409600D02*
X196504400Y-117909600D01*
X202325000Y-117750000D02*
X201665400Y-118409600D01*
X201665400Y-118409600D02*
X197004400Y-118409600D01*
X182236000Y-118459600D02*
X181810600Y-118885000D01*
X196154400Y-118459600D02*
X182236000Y-118459600D01*
X203125000Y-118400000D02*
X202465400Y-119059600D01*
X202465400Y-119059600D02*
X196754400Y-119059600D01*
X196754400Y-119059600D02*
X196154400Y-118459600D01*
X185036000Y-131509600D02*
X185010600Y-131535000D01*
X206109600Y-131509600D02*
X185036000Y-131509600D01*
X207625000Y-132025000D02*
X206625000Y-132025000D01*
X206625000Y-132025000D02*
X206109600Y-131509600D01*
X173660600Y-122835600D02*
X173575000Y-122750000D01*
X173660600Y-133335000D02*
X173660600Y-122835600D01*
X178374600Y-138049000D02*
X173660600Y-133335000D01*
X179543000Y-138049000D02*
X178374600Y-138049000D01*
X179568400Y-138023600D02*
X179543000Y-138049000D01*
X198975000Y-138023600D02*
X179568400Y-138023600D01*
X184636000Y-133959600D02*
X184610600Y-133985000D01*
X194950000Y-133959600D02*
X184636000Y-133959600D01*
X184515477Y-128039077D02*
X184490077Y-128064477D01*
X189860923Y-128039077D02*
X184515477Y-128039077D01*
X190125000Y-127775000D02*
X189860923Y-128039077D01*
X174535600Y-119560000D02*
X173420600Y-119560000D01*
X190576326Y-125098674D02*
X180074274Y-125098674D01*
X190625000Y-125050000D02*
X190576326Y-125098674D01*
X173420600Y-119560000D02*
X173360600Y-119500000D01*
X180074274Y-125098674D02*
X174535600Y-119560000D01*
X186266706Y-126959600D02*
X185956183Y-127270123D01*
X190225000Y-126950000D02*
X190215400Y-126959600D01*
X190215400Y-126959600D02*
X186266706Y-126959600D01*
X189455063Y-125809600D02*
X189617118Y-125647545D01*
X178559600Y-125809600D02*
X189455063Y-125809600D01*
X189617118Y-125647545D02*
X189813419Y-125647545D01*
X173462500Y-120712500D02*
X178559600Y-125809600D01*
X184610600Y-120722800D02*
X184610600Y-120985000D01*
X193265400Y-119084600D02*
X186248800Y-119084600D01*
X186248800Y-119084600D02*
X184610600Y-120722800D01*
X193275000Y-119075000D02*
X193265400Y-119084600D01*
X189809209Y-124504791D02*
X189797186Y-124504791D01*
X189804400Y-124509600D02*
X189809209Y-124504791D01*
X187032648Y-124509600D02*
X189804400Y-124509600D01*
X182179000Y-124685000D02*
X182204400Y-124659600D01*
X182204400Y-124659600D02*
X186882648Y-124659600D01*
X186882648Y-124659600D02*
X187032648Y-124509600D01*
X181010600Y-124685000D02*
X182179000Y-124685000D01*
X174925600Y-118600000D02*
X181010600Y-124685000D01*
X173325000Y-118600000D02*
X174925600Y-118600000D01*
D33*
X74447800Y-64608000D02*
X73664000Y-65391800D01*
D34*
X116699195Y-123929281D02*
X118734181Y-123929281D01*
X118734181Y-123929281D02*
X118804900Y-124000000D01*
D35*
X118804900Y-124000000D02*
X118804900Y-122137238D01*
X118804900Y-128079900D02*
X118804900Y-124000000D01*
X116575000Y-100827200D02*
X118475000Y-100827200D01*
X116445195Y-96896243D02*
X116445195Y-100697395D01*
X116445195Y-100697395D02*
X116575000Y-100827200D01*
D36*
X163652095Y-104077095D02*
X162600000Y-103025000D01*
X163652095Y-133577095D02*
X163652095Y-104077095D01*
X163850000Y-133775000D02*
X163652095Y-133577095D01*
X167504000Y-103306715D02*
X166219101Y-102021816D01*
X167504000Y-130346000D02*
X167504000Y-103306715D01*
X166600000Y-131250000D02*
X167504000Y-130346000D01*
X166600000Y-133850000D02*
X166600000Y-131250000D01*
D34*
X62750000Y-83546441D02*
X62750000Y-100827200D01*
X60301445Y-81097886D02*
X62750000Y-83546441D01*
D33*
X81855000Y-66141600D02*
X81284000Y-66712600D01*
X112826800Y-66141600D02*
X81855000Y-66141600D01*
X82698549Y-57111400D02*
X82376200Y-57111400D01*
X83279149Y-56530800D02*
X82698549Y-57111400D01*
X125790400Y-56530800D02*
X83279149Y-56530800D01*
X93421200Y-64608000D02*
X74447800Y-64608000D01*
D35*
X161595820Y-97354180D02*
X161595820Y-88374078D01*
X160850000Y-98100000D02*
X161595820Y-97354180D01*
X62750000Y-100827200D02*
X60327200Y-100827200D01*
X88425000Y-100827200D02*
X62750000Y-100827200D01*
D33*
X229870000Y-64811200D02*
X178511200Y-64811200D01*
X178511200Y-64811200D02*
X175563051Y-64811200D01*
X175563051Y-64811200D02*
X175351851Y-64600000D01*
X175351851Y-64600000D02*
X93429200Y-64600000D01*
X93429200Y-64600000D02*
X93421200Y-64608000D01*
D35*
X86675000Y-100827200D02*
X88425000Y-100827200D01*
X86445195Y-100597395D02*
X86675000Y-100827200D01*
X86445195Y-96896243D02*
X86445195Y-100597395D01*
X60327200Y-100827200D02*
X56445195Y-96945195D01*
X56445195Y-96945195D02*
X56445195Y-96896243D01*
X88525000Y-128400000D02*
X88900000Y-128400000D01*
X86699195Y-126574195D02*
X88525000Y-128400000D01*
X86699195Y-123929281D02*
X86699195Y-126574195D01*
D34*
X58491238Y-122137238D02*
X56699195Y-123929281D01*
X58804900Y-122137238D02*
X58491238Y-122137238D01*
D35*
X159941000Y-104725000D02*
X159941000Y-101359000D01*
X159941000Y-106916000D02*
X159941000Y-104725000D01*
X159941000Y-101359000D02*
X160850000Y-100450000D01*
X160850000Y-107825000D02*
X159941000Y-106916000D01*
X160850000Y-110150000D02*
X160850000Y-107825000D01*
D37*
X200000000Y-135015600D02*
X200000000Y-133350000D01*
X197800000Y-137215600D02*
X197634400Y-137050000D01*
X193525000Y-137050000D02*
X191575000Y-135100000D01*
X197634400Y-137050000D02*
X193525000Y-137050000D01*
X191575000Y-135100000D02*
X188025000Y-135100000D01*
X197800000Y-137215600D02*
X200000000Y-135015600D01*
D35*
X244324766Y-145816000D02*
X174666000Y-145816000D01*
X239044959Y-118066160D02*
X246491160Y-118066160D01*
X246491160Y-118066160D02*
X250300000Y-121875000D01*
X250300000Y-121875000D02*
X250300000Y-139840766D01*
X174666000Y-145816000D02*
X172300000Y-143450000D01*
X169435241Y-139160241D02*
X167750000Y-139160241D01*
X172300000Y-143450000D02*
X172300000Y-142025000D01*
X172300000Y-142025000D02*
X169435241Y-139160241D01*
X250300000Y-139840766D02*
X244324766Y-145816000D01*
D33*
X218400000Y-127225000D02*
X223000000Y-131825000D01*
D35*
X190100000Y-107825000D02*
X184125000Y-107825000D01*
D33*
X208225000Y-133350000D02*
X207700000Y-133350000D01*
D35*
X174950000Y-107825000D02*
X173325000Y-109450000D01*
D33*
X184110900Y-114909600D02*
X184110900Y-114873150D01*
D36*
X247450000Y-125475000D02*
X247450000Y-126775000D01*
D38*
X246425000Y-140794000D02*
X246425000Y-138200000D01*
D35*
X160850000Y-116225000D02*
X160850000Y-119525000D01*
D39*
X184748556Y-135750000D02*
X184699278Y-135799278D01*
D35*
X160850000Y-100450000D02*
X160850000Y-98100000D01*
D34*
X223275000Y-134650000D02*
X215472359Y-134650000D01*
D35*
X126922200Y-108447200D02*
X126875000Y-108400000D01*
D39*
X58804900Y-135173044D02*
X63656856Y-140025000D01*
X140200000Y-126250000D02*
X140075000Y-126125000D01*
D33*
X173325000Y-109450000D02*
X168775000Y-114000000D01*
D34*
X225950000Y-128700000D02*
X225950000Y-131825000D01*
D33*
X213499899Y-137824541D02*
X212699541Y-137824541D01*
D35*
X129507600Y-108447200D02*
X126922200Y-108447200D01*
D40*
X226150000Y-123050000D02*
X225950000Y-123250000D01*
D35*
X201575000Y-106575000D02*
X194871570Y-106575000D01*
X157806570Y-128400000D02*
X140200000Y-128400000D01*
X160850000Y-125356570D02*
X157806570Y-128400000D01*
D33*
X184110900Y-114873150D02*
X184125000Y-114859050D01*
D37*
X185230500Y-114909600D02*
X185941700Y-115620800D01*
D36*
X247450000Y-126775000D02*
X241225000Y-133000000D01*
D40*
X134445000Y-138930241D02*
X134445000Y-128405000D01*
D35*
X126875000Y-118607200D02*
X122334938Y-118607200D01*
D39*
X198950000Y-132300000D02*
X197475000Y-132300000D01*
D35*
X126875000Y-100963000D02*
X127010800Y-100827200D01*
D36*
X211750000Y-101325000D02*
X202550000Y-101325000D01*
X202550000Y-101325000D02*
X201400000Y-102475000D01*
D35*
X88900000Y-128400000D02*
X81625000Y-128400000D01*
D33*
X204450000Y-133350000D02*
X201450000Y-133350000D01*
D38*
X244867600Y-142351400D02*
X246425000Y-140794000D01*
D35*
X225950000Y-121525000D02*
X222441000Y-118016000D01*
D39*
X200000000Y-133350000D02*
X198950000Y-132300000D01*
D34*
X225950000Y-131975000D02*
X224200000Y-133725000D01*
D35*
X211175000Y-106575000D02*
X201575000Y-106575000D01*
X160850000Y-113625000D02*
X160850000Y-116225000D01*
X140200000Y-128400000D02*
X134450000Y-128400000D01*
X126875000Y-118607200D02*
X126875000Y-108400000D01*
D39*
X187375000Y-135750000D02*
X184748556Y-135750000D01*
D35*
X149650000Y-100450000D02*
X160850000Y-100450000D01*
X194871570Y-106575000D02*
X193621570Y-107825000D01*
D33*
X201450000Y-133350000D02*
X200000000Y-133350000D01*
D34*
X213499899Y-136622460D02*
X213499899Y-137824541D01*
D38*
X228600000Y-133125000D02*
X237316500Y-133125000D01*
D39*
X188025000Y-135100000D02*
X187375000Y-135750000D01*
D35*
X149600000Y-100500000D02*
X149650000Y-100450000D01*
D36*
X241100000Y-133125000D02*
X241225000Y-133000000D01*
D35*
X119125000Y-128400000D02*
X88900000Y-128400000D01*
D34*
X224200000Y-133725000D02*
X223275000Y-134650000D01*
D39*
X63656856Y-140025000D02*
X65750000Y-140025000D01*
X140200000Y-128400000D02*
X140200000Y-126250000D01*
D38*
X225950000Y-131975000D02*
X227450000Y-131975000D01*
D37*
X127010800Y-100827200D02*
X126949200Y-100888800D01*
D35*
X129507600Y-118607200D02*
X126875000Y-118607200D01*
X221280630Y-118016000D02*
X214750000Y-111485370D01*
D34*
X215472359Y-134650000D02*
X213499899Y-136622460D01*
D35*
X75362238Y-122137238D02*
X58804900Y-122137238D01*
X81625000Y-128400000D02*
X75362238Y-122137238D01*
D33*
X184125000Y-114859050D02*
X184125000Y-107825000D01*
D35*
X222441000Y-118016000D02*
X221280630Y-118016000D01*
X119125000Y-128400000D02*
X118804900Y-128079900D01*
D40*
X227360241Y-123050000D02*
X226150000Y-123050000D01*
D38*
X156325000Y-98300000D02*
X156325000Y-100300000D01*
D39*
X201575000Y-110334500D02*
X201575000Y-106575000D01*
D35*
X126875000Y-108400000D02*
X126875000Y-100963000D01*
X118475000Y-100827200D02*
X88425000Y-100827200D01*
D40*
X134714759Y-139200000D02*
X134445000Y-138930241D01*
D39*
X58804900Y-122137238D02*
X58804900Y-135173044D01*
D35*
X184125000Y-107825000D02*
X174950000Y-107825000D01*
D33*
X212699541Y-137824541D02*
X208225000Y-133350000D01*
D35*
X193621570Y-107825000D02*
X190100000Y-107825000D01*
D38*
X227450000Y-131975000D02*
X228600000Y-133125000D01*
D34*
X223000000Y-131825000D02*
X225950000Y-131825000D01*
D33*
X168775000Y-114000000D02*
X168775000Y-129825000D01*
D35*
X134450000Y-128400000D02*
X119125000Y-128400000D01*
D37*
X184110900Y-114909600D02*
X185230500Y-114909600D01*
D40*
X134445000Y-128405000D02*
X134450000Y-128400000D01*
D34*
X225950000Y-131825000D02*
X225950000Y-131975000D01*
D35*
X129507600Y-100827200D02*
X127010800Y-100827200D01*
X214750000Y-110150000D02*
X211175000Y-106575000D01*
X225950000Y-128700000D02*
X225950000Y-123250000D01*
X122334938Y-118607200D02*
X118804900Y-122137238D01*
D38*
X237316500Y-133125000D02*
X241100000Y-133125000D01*
X246425000Y-138200000D02*
X241225000Y-133000000D01*
D35*
X160850000Y-110150000D02*
X160850000Y-113625000D01*
D33*
X207700000Y-133350000D02*
X204450000Y-133350000D01*
D35*
X214750000Y-111485370D02*
X214750000Y-110150000D01*
X127010800Y-100827200D02*
X118475000Y-100827200D01*
X160850000Y-119525000D02*
X160850000Y-125356570D01*
X225950000Y-123250000D02*
X225950000Y-121525000D01*
D32*
X217412800Y-118266554D02*
X211850000Y-112703754D01*
X213000000Y-133676900D02*
X213000000Y-130925000D01*
X213000000Y-130925000D02*
X217412800Y-126512200D01*
X217412800Y-126512200D02*
X217412800Y-118266554D01*
X211850000Y-112703754D02*
X211850000Y-110850000D01*
D33*
X186334400Y-66649600D02*
X186232800Y-66548000D01*
X227380800Y-84632800D02*
X236331200Y-75682400D01*
X175371200Y-66557600D02*
X136560000Y-66557600D01*
X81284000Y-66712600D02*
X81071600Y-66925000D01*
X236331200Y-66944800D02*
X236829600Y-66446400D01*
X222961200Y-66700400D02*
X222910400Y-66649600D01*
X222961200Y-78079600D02*
X222961200Y-77876400D01*
X113833200Y-67148000D02*
X112826800Y-66141600D01*
X186232800Y-66548000D02*
X175463200Y-66548000D01*
X175412400Y-66598800D02*
X175371200Y-66557600D01*
X81071600Y-66925000D02*
X71285600Y-66925000D01*
X215544400Y-84988400D02*
X215900000Y-84632800D01*
X222961200Y-77876400D02*
X222961200Y-66700400D01*
X136356800Y-66354400D02*
X124215600Y-66354400D01*
X123039349Y-67148000D02*
X113833200Y-67148000D01*
X215544400Y-82143600D02*
X218846400Y-78841600D01*
X215900000Y-84632800D02*
X227380800Y-84632800D01*
X222199200Y-78841600D02*
X222961200Y-78079600D01*
X123901200Y-66040000D02*
X123901200Y-66286149D01*
X175463200Y-66548000D02*
X175412400Y-66598800D01*
X136560000Y-66557600D02*
X136356800Y-66354400D01*
X236331200Y-75682400D02*
X236331200Y-66944800D01*
X123901200Y-66286149D02*
X123039349Y-67148000D01*
X218846400Y-78841600D02*
X222199200Y-78841600D01*
X124215600Y-66354400D02*
X123901200Y-66040000D01*
X215544400Y-86563200D02*
X215544400Y-84988400D01*
X71285600Y-66925000D02*
X70463600Y-66103000D01*
X222910400Y-66649600D02*
X186334400Y-66649600D01*
X215544400Y-84988400D02*
X215544400Y-82143600D01*
D38*
X202996800Y-84429600D02*
X211175600Y-84429600D01*
D33*
X219415080Y-103665080D02*
X213803000Y-98053000D01*
X213803000Y-98053000D02*
X208196993Y-98053000D01*
D38*
X212547200Y-81229200D02*
X212852000Y-80924400D01*
D37*
X201676000Y-80111600D02*
X201676000Y-75895200D01*
D38*
X202996800Y-91694000D02*
X202996800Y-84429600D01*
D37*
X201650000Y-72725000D02*
X201650000Y-75869200D01*
X201676000Y-83108800D02*
X201676000Y-80111600D01*
D33*
X220426287Y-103665080D02*
X219415080Y-103665080D01*
X208196993Y-98053000D02*
X207918693Y-97774700D01*
D38*
X212547200Y-83058000D02*
X212547200Y-81229200D01*
X202996800Y-84429600D02*
X201676000Y-83108800D01*
D37*
X201650000Y-75869200D02*
X201676000Y-75895200D01*
D38*
X211175600Y-84429600D02*
X212547200Y-83058000D01*
D33*
X128727200Y-56530800D02*
X125790400Y-56530800D01*
X271023200Y-57736159D02*
X270021041Y-56734000D01*
X270021041Y-56734000D02*
X242722400Y-56734000D01*
X128930400Y-56734000D02*
X238861600Y-56734000D01*
X128727200Y-56530800D02*
X128930400Y-56734000D01*
X242722400Y-56734000D02*
X238861600Y-56734000D01*
X229001200Y-65680000D02*
X229001200Y-79405600D01*
X271014559Y-64811200D02*
X229870000Y-64811200D01*
X229001200Y-79405600D02*
X228904800Y-79502000D01*
X229870000Y-64811200D02*
X229001200Y-65680000D01*
X271319359Y-65116000D02*
X271014559Y-64811200D01*
D32*
X205435324Y-124612276D02*
X211582124Y-124612276D01*
X211582124Y-124612276D02*
X214822000Y-121372400D01*
X214822000Y-121372400D02*
X216165200Y-121372400D01*
X216165200Y-121372400D02*
X216712800Y-121920000D01*
X181926848Y-116106806D02*
X182185821Y-116365779D01*
X202524000Y-112709600D02*
X202793600Y-112979200D01*
X190890800Y-112709600D02*
X202524000Y-112709600D01*
X188899800Y-110718600D02*
X190890800Y-112709600D01*
X205144600Y-126099800D02*
X213599800Y-126099800D01*
X204470000Y-125425200D02*
X205144600Y-126099800D01*
X213599800Y-126099800D02*
X213868000Y-125831600D01*
X191738600Y-112109600D02*
X202004400Y-112109600D01*
X189526031Y-109897031D02*
X191738600Y-112109600D01*
X202004400Y-112109600D02*
X202054400Y-112159600D01*
X189504233Y-109897031D02*
X189526031Y-109897031D01*
X224938600Y-139811400D02*
X234707600Y-139811400D01*
X221950000Y-142800000D02*
X224938600Y-139811400D01*
X204450000Y-142800000D02*
X221950000Y-142800000D01*
X223725000Y-143500000D02*
X225500000Y-141725000D01*
X225500000Y-141725000D02*
X234081200Y-141725000D01*
X203575000Y-143500000D02*
X223725000Y-143500000D01*
X203150000Y-143075000D02*
X203575000Y-143500000D01*
X205227199Y-93724999D02*
X209893201Y-93724999D01*
X210645800Y-92972400D02*
X210645800Y-90889600D01*
X209893201Y-93724999D02*
X210645800Y-92972400D01*
X214100200Y-87435200D02*
X214100200Y-78584399D01*
X210645800Y-90889600D02*
X214100200Y-87435200D01*
X204927200Y-93425000D02*
X205227199Y-93724999D01*
X214100200Y-78584399D02*
X218998800Y-73685799D01*
X218585197Y-74735799D02*
X218998800Y-74735799D01*
X204927200Y-94475000D02*
X205227199Y-94175001D01*
X211095800Y-91076000D02*
X214550200Y-87621600D01*
X214550200Y-87621600D02*
X214550200Y-78770796D01*
X205227199Y-94175001D02*
X210079599Y-94175001D01*
X210079599Y-94175001D02*
X211095800Y-93158800D01*
X211095800Y-93158800D02*
X211095800Y-91076000D01*
X214550200Y-78770796D02*
X218585197Y-74735799D01*
X244898400Y-83791000D02*
X247144296Y-81545104D01*
X246326691Y-76133291D02*
X245400215Y-76133291D01*
X212183199Y-96643401D02*
X219396800Y-89429800D01*
X205176399Y-96643401D02*
X212183199Y-96643401D01*
X245400215Y-76133291D02*
X245100216Y-75833292D01*
X227220000Y-89429800D02*
X232858800Y-83791000D01*
X204876400Y-96943400D02*
X205176399Y-96643401D01*
X247144296Y-81545104D02*
X247144296Y-76950896D01*
X219396800Y-89429800D02*
X227220000Y-89429800D01*
X232858800Y-83791000D02*
X244898400Y-83791000D01*
X247144296Y-76950896D02*
X246326691Y-76133291D01*
X227033600Y-88979800D02*
X232672400Y-83341000D01*
X245400215Y-76583293D02*
X245100216Y-76883292D01*
X232672400Y-83341000D02*
X244712000Y-83341000D01*
X246140293Y-76583293D02*
X245400215Y-76583293D01*
X204876400Y-95893400D02*
X205176399Y-96193399D01*
X244712000Y-83341000D02*
X246694296Y-81358704D01*
X205176399Y-96193399D02*
X211996801Y-96193399D01*
X246694296Y-77137296D02*
X246140293Y-76583293D01*
X246694296Y-81358704D02*
X246694296Y-77137296D01*
X219210400Y-88979800D02*
X227033600Y-88979800D01*
X211996801Y-96193399D02*
X219210400Y-88979800D01*
X174056432Y-75694233D02*
X191869367Y-93507168D01*
X174056432Y-75269968D02*
X174056432Y-75694233D01*
X191869367Y-93507168D02*
X192293632Y-93507168D01*
X173313968Y-76012432D02*
X173738233Y-76012432D01*
X191551168Y-93825367D02*
X191551168Y-94249632D01*
X173738233Y-76012432D02*
X191551168Y-93825367D01*
X108297200Y-79480200D02*
X103755400Y-74938400D01*
X193375401Y-96523599D02*
X191126599Y-96523599D01*
X174083200Y-79480200D02*
X108297200Y-79480200D01*
X193700400Y-96198600D02*
X193375401Y-96523599D01*
X104183597Y-72078000D02*
X104597200Y-72078000D01*
X191126599Y-96523599D02*
X174083200Y-79480200D01*
X103755400Y-74938400D02*
X103755400Y-72506197D01*
X103755400Y-72506197D02*
X104183597Y-72078000D01*
X193375401Y-96973601D02*
X190940201Y-96973601D01*
X190940201Y-96973601D02*
X173896800Y-79930200D01*
X103305400Y-75124800D02*
X103305400Y-72319800D01*
X173896800Y-79930200D02*
X108110800Y-79930200D01*
X193700400Y-97298600D02*
X193375401Y-96973601D01*
X103305400Y-72319800D02*
X104597200Y-71028000D01*
X108110800Y-79930200D02*
X103305400Y-75124800D01*
X140688950Y-93725000D02*
X148975000Y-102011050D01*
X140425000Y-93725000D02*
X140688950Y-93725000D01*
X148975000Y-102011050D02*
X148975000Y-107625000D01*
X205154400Y-123109600D02*
X204404400Y-123859600D01*
X204404400Y-123859600D02*
X184660700Y-123859600D01*
X211980182Y-109364182D02*
X203983976Y-109364182D01*
X213415498Y-110799498D02*
X211980182Y-109364182D01*
X213415498Y-113279302D02*
X213415498Y-110799498D01*
X204012800Y-127152400D02*
X213766400Y-127152400D01*
X213766400Y-127152400D02*
X215696800Y-125222000D01*
X215696800Y-125222000D02*
X215696800Y-122072400D01*
X202692000Y-125831600D02*
X204012800Y-127152400D01*
X213512400Y-128625600D02*
X191783700Y-128625600D01*
X191783700Y-128625600D02*
X190449200Y-129960100D01*
X207975200Y-103549518D02*
X207975200Y-102412800D01*
X206780120Y-104744598D02*
X207975200Y-103549518D01*
X196174320Y-122412720D02*
X195771200Y-122009600D01*
X195771200Y-122009600D02*
X182136730Y-122009600D01*
X181911330Y-122235000D02*
X181860600Y-122235000D01*
X182136730Y-122009600D02*
X181911330Y-122235000D01*
X208440096Y-122412720D02*
X196174320Y-122412720D01*
X190488000Y-115659600D02*
X203318368Y-115659600D01*
X188010800Y-113182400D02*
X190488000Y-115659600D01*
X203318368Y-115659600D02*
X204868368Y-117209600D01*
X204868368Y-117209600D02*
X206254400Y-117209600D01*
X202700000Y-144025000D02*
X235574000Y-144025000D01*
X235574000Y-144025000D02*
X237247600Y-142351400D01*
X201725000Y-143050000D02*
X202700000Y-144025000D01*
X200475000Y-143225000D02*
X201750000Y-144500000D01*
X237639000Y-144500000D02*
X239787600Y-142351400D01*
X201750000Y-144500000D02*
X237639000Y-144500000D01*
D36*
X148020000Y-119442000D02*
X148020000Y-102046000D01*
X148020000Y-102046000D02*
X144932400Y-98958400D01*
X144475200Y-122986800D02*
X148020000Y-119442000D01*
D32*
X146812000Y-118516400D02*
X146812000Y-115519200D01*
X141325600Y-124002800D02*
X146812000Y-118516400D01*
X137050000Y-114575000D02*
X137050000Y-118100000D01*
X137050000Y-118100000D02*
X138684000Y-119734000D01*
X138684000Y-119734000D02*
X138684000Y-121056400D01*
X149250400Y-119735600D02*
X149250400Y-116078000D01*
X144576800Y-124409200D02*
X149250400Y-119735600D01*
X140563600Y-123088400D02*
X140665200Y-123088400D01*
X146050000Y-117703600D02*
X146050000Y-110540800D01*
X146050000Y-110540800D02*
X144881600Y-109372400D01*
X140665200Y-123088400D02*
X146050000Y-117703600D01*
X144475200Y-125679200D02*
X154178000Y-115976400D01*
X154178000Y-115976400D02*
X158089600Y-115976400D01*
X148793200Y-87020400D02*
X130614400Y-87020400D01*
X154178000Y-92405200D02*
X148793200Y-87020400D01*
X130614400Y-87020400D02*
X129507600Y-88127200D01*
X129507600Y-98287200D02*
X131459600Y-98287200D01*
X131459600Y-98287200D02*
X140614400Y-107442000D01*
X141732000Y-109524800D02*
X139344400Y-109524800D01*
X139333200Y-109513600D02*
X135574000Y-109513600D01*
X144107246Y-107149554D02*
X141732000Y-109524800D01*
X139344400Y-109524800D02*
X139333200Y-109513600D01*
X146757082Y-107149554D02*
X144107246Y-107149554D01*
X135574000Y-109513600D02*
X129507600Y-103447200D01*
X144273733Y-108169697D02*
X142309030Y-110134400D01*
X142309030Y-110134400D02*
X133734800Y-110134400D01*
X133734800Y-110134400D02*
X129507600Y-105907200D01*
X146253200Y-108169697D02*
X144273733Y-108169697D01*
X145022800Y-111799600D02*
X130320000Y-111799600D01*
X145084800Y-111861600D02*
X145022800Y-111799600D01*
X130320000Y-111799600D02*
X129507600Y-110987200D01*
X134772400Y-103276400D02*
X134874000Y-103174800D01*
X131278900Y-103276400D02*
X134772400Y-103276400D01*
X208686400Y-110642400D02*
X209956400Y-111912400D01*
X209956400Y-111912400D02*
X209956400Y-117449600D01*
X206146400Y-121259600D02*
X206146400Y-121310100D01*
X209956400Y-117449600D02*
X206146400Y-121259600D01*
X207670400Y-121005600D02*
X207619600Y-121005600D01*
X208076800Y-120599200D02*
X207670400Y-121005600D01*
X210362800Y-118313200D02*
X208076800Y-120599200D01*
X210362800Y-110998000D02*
X210362800Y-118313200D01*
M02*
