G04 #@! TF.GenerationSoftware,KiCad,Pcbnew,7.0.2*
G04 #@! TF.CreationDate,2024-04-08T23:14:54+02:00*
G04 #@! TF.ProjectId,stm_audio_board_V3,73746d5f-6175-4646-996f-5f626f617264,rev?*
G04 #@! TF.SameCoordinates,PXae813e0PY6f86320*
G04 #@! TF.FileFunction,Copper,L4,Bot*
G04 #@! TF.FilePolarity,Positive*
%FSLAX46Y46*%
G04 Gerber Fmt 4.6, Leading zero omitted, Abs format (unit mm)*
G04 Created by KiCad (PCBNEW 7.0.2) date 2024-04-08 23:14:54*
%MOMM*%
%LPD*%
G01*
G04 APERTURE LIST*
G04 Aperture macros list*
%AMRoundRect*
0 Rectangle with rounded corners*
0 $1 Rounding radius*
0 $2 $3 $4 $5 $6 $7 $8 $9 X,Y pos of 4 corners*
0 Add a 4 corners polygon primitive as box body*
4,1,4,$2,$3,$4,$5,$6,$7,$8,$9,$2,$3,0*
0 Add four circle primitives for the rounded corners*
1,1,$1+$1,$2,$3*
1,1,$1+$1,$4,$5*
1,1,$1+$1,$6,$7*
1,1,$1+$1,$8,$9*
0 Add four rect primitives between the rounded corners*
20,1,$1+$1,$2,$3,$4,$5,0*
20,1,$1+$1,$4,$5,$6,$7,0*
20,1,$1+$1,$6,$7,$8,$9,0*
20,1,$1+$1,$8,$9,$2,$3,0*%
G04 Aperture macros list end*
G04 #@! TA.AperFunction,ComponentPad*
%ADD10C,3.000000*%
G04 #@! TD*
G04 #@! TA.AperFunction,ComponentPad*
%ADD11R,1.600000X1.600000*%
G04 #@! TD*
G04 #@! TA.AperFunction,ComponentPad*
%ADD12C,1.600000*%
G04 #@! TD*
G04 #@! TA.AperFunction,ComponentPad*
%ADD13R,1.850000X1.850000*%
G04 #@! TD*
G04 #@! TA.AperFunction,ComponentPad*
%ADD14C,1.850000*%
G04 #@! TD*
G04 #@! TA.AperFunction,ComponentPad*
%ADD15RoundRect,0.250000X0.600000X-0.600000X0.600000X0.600000X-0.600000X0.600000X-0.600000X-0.600000X0*%
G04 #@! TD*
G04 #@! TA.AperFunction,ComponentPad*
%ADD16C,1.700000*%
G04 #@! TD*
G04 #@! TA.AperFunction,ComponentPad*
%ADD17C,2.000000*%
G04 #@! TD*
G04 #@! TA.AperFunction,ComponentPad*
%ADD18C,5.600000*%
G04 #@! TD*
G04 #@! TA.AperFunction,ComponentPad*
%ADD19R,1.700000X1.700000*%
G04 #@! TD*
G04 #@! TA.AperFunction,ComponentPad*
%ADD20O,1.700000X1.700000*%
G04 #@! TD*
G04 #@! TA.AperFunction,ComponentPad*
%ADD21O,2.100000X1.000000*%
G04 #@! TD*
G04 #@! TA.AperFunction,ComponentPad*
%ADD22O,1.600000X1.000000*%
G04 #@! TD*
G04 #@! TA.AperFunction,ComponentPad*
%ADD23R,2.000000X4.600000*%
G04 #@! TD*
G04 #@! TA.AperFunction,ComponentPad*
%ADD24O,2.000000X4.200000*%
G04 #@! TD*
G04 #@! TA.AperFunction,ComponentPad*
%ADD25O,4.200000X2.000000*%
G04 #@! TD*
G04 #@! TA.AperFunction,ComponentPad*
%ADD26R,1.800000X1.800000*%
G04 #@! TD*
G04 #@! TA.AperFunction,ComponentPad*
%ADD27C,1.800000*%
G04 #@! TD*
G04 #@! TA.AperFunction,ComponentPad*
%ADD28RoundRect,0.500000X1.000000X-0.500000X1.000000X0.500000X-1.000000X0.500000X-1.000000X-0.500000X0*%
G04 #@! TD*
G04 #@! TA.AperFunction,ViaPad*
%ADD29C,0.450000*%
G04 #@! TD*
G04 #@! TA.AperFunction,ViaPad*
%ADD30C,0.800000*%
G04 #@! TD*
G04 #@! TA.AperFunction,ViaPad*
%ADD31C,0.500000*%
G04 #@! TD*
G04 #@! TA.AperFunction,Conductor*
%ADD32C,2.032000*%
G04 #@! TD*
G04 #@! TA.AperFunction,Conductor*
%ADD33C,1.016000*%
G04 #@! TD*
G04 #@! TA.AperFunction,Conductor*
%ADD34C,1.524000*%
G04 #@! TD*
G04 #@! TA.AperFunction,Conductor*
%ADD35C,0.304800*%
G04 #@! TD*
G04 #@! TA.AperFunction,Conductor*
%ADD36C,0.508000*%
G04 #@! TD*
G04 #@! TA.AperFunction,Conductor*
%ADD37C,0.762000*%
G04 #@! TD*
G04 #@! TA.AperFunction,Conductor*
%ADD38C,0.635000*%
G04 #@! TD*
G04 #@! TA.AperFunction,Conductor*
%ADD39C,2.540000*%
G04 #@! TD*
G04 #@! TA.AperFunction,Conductor*
%ADD40C,0.200000*%
G04 #@! TD*
G04 #@! TA.AperFunction,Conductor*
%ADD41C,0.127000*%
G04 #@! TD*
G04 APERTURE END LIST*
D10*
X59504650Y76958200D03*
X75734650Y76958200D03*
X59504650Y83308200D03*
X75734650Y83308200D03*
X59504650Y70608200D03*
X75734650Y70608200D03*
X9504650Y76958200D03*
X25734650Y76958200D03*
X9504650Y83308200D03*
X25734650Y83308200D03*
X9504650Y70608200D03*
X25734650Y70608200D03*
D11*
X-48266841Y-22283800D03*
D12*
X-48266841Y-24783800D03*
D10*
X-70548600Y76876600D03*
X-54318600Y76876600D03*
X-70548600Y83226600D03*
X-54318600Y83226600D03*
X-70548600Y70526600D03*
X-54318600Y70526600D03*
D13*
X101841221Y-2271800D03*
D14*
X101841221Y268200D03*
X101841221Y2808200D03*
X101841221Y7888200D03*
X101841221Y10428200D03*
X101841221Y12968200D03*
X101841221Y15508200D03*
D11*
X69966959Y15697600D03*
D12*
X69966959Y18197600D03*
D11*
X44658041Y-6108400D03*
D12*
X47158041Y-6108400D03*
D11*
X94302962Y-24075600D03*
D12*
X94302962Y-26575600D03*
D11*
X37444687Y13301920D03*
D12*
X37444687Y15801920D03*
D15*
X51726000Y-25409800D03*
D16*
X51726000Y-22869800D03*
X54266000Y-25409800D03*
X54266000Y-22869800D03*
X56806000Y-25409800D03*
X56806000Y-22869800D03*
X59346000Y-25409800D03*
X59346000Y-22869800D03*
X61886000Y-25409800D03*
X61886000Y-22869800D03*
D11*
X56063359Y-1099160D03*
D12*
X56063359Y1400840D03*
D11*
X88479400Y-9685135D03*
D12*
X88479400Y-7185135D03*
D11*
X89942559Y33175282D03*
D12*
X92442559Y33175282D03*
D11*
X65505400Y11064559D03*
D12*
X65505400Y8564559D03*
D10*
X-120548600Y76876600D03*
X-104318600Y76876600D03*
X-120548600Y83226600D03*
X-104318600Y83226600D03*
X-120548600Y70526600D03*
X-104318600Y70526600D03*
D17*
X111663400Y374600D03*
X111663400Y7874600D03*
D11*
X88337759Y49351000D03*
D12*
X88337759Y51851000D03*
D11*
X88041600Y59942041D03*
D12*
X88041600Y57442041D03*
D11*
X87094567Y-24075600D03*
D12*
X87094567Y-26575600D03*
D10*
X-45548600Y76876600D03*
X-29318600Y76876600D03*
X-45548600Y83226600D03*
X-29318600Y83226600D03*
X-45548600Y70526600D03*
X-29318600Y70526600D03*
D18*
X-134481600Y62422850D03*
D11*
X107851600Y33136841D03*
D12*
X110351600Y33136841D03*
D11*
X62852200Y15559959D03*
D12*
X62852200Y18059959D03*
D19*
X-13765780Y28567522D03*
D20*
X-16305780Y28567522D03*
X-18845780Y28567522D03*
X-21385780Y28567522D03*
D18*
X115518400Y12147850D03*
D10*
X-129284155Y35589714D03*
X-129284155Y51819714D03*
X-135634155Y35589714D03*
X-135634155Y51819714D03*
X-122934155Y35589714D03*
X-122934155Y51819714D03*
D11*
X-15739600Y-22244041D03*
D12*
X-15739600Y-24744041D03*
D19*
X38138299Y-20882941D03*
D20*
X35598299Y-20882941D03*
X33058299Y-20882941D03*
X30518299Y-20882941D03*
D11*
X101511359Y-24075600D03*
D12*
X101511359Y-26575600D03*
D13*
X87228759Y-2171621D03*
D14*
X87228759Y368379D03*
X87228759Y2908379D03*
X87228759Y7988379D03*
X87228759Y10528379D03*
X87228759Y13068379D03*
X87228759Y15608379D03*
D18*
X-134481600Y12422850D03*
D21*
X-136531600Y-14813400D03*
D22*
X-140711600Y-14813400D03*
D21*
X-136531600Y-23453400D03*
D22*
X-140711600Y-23453400D03*
D23*
X107285400Y-25045400D03*
D24*
X113585400Y-25045400D03*
D25*
X110185400Y-20245400D03*
D11*
X48186800Y9806159D03*
D12*
X45686800Y9806159D03*
D10*
X-95548600Y76876600D03*
X-79318600Y76876600D03*
X-95548600Y83226600D03*
X-79318600Y83226600D03*
X-95548600Y70526600D03*
X-79318600Y70526600D03*
D11*
X95475400Y-9510800D03*
D12*
X95475400Y-7010800D03*
D11*
X91764070Y-13830400D03*
D12*
X91764070Y-16330400D03*
D18*
X-5092600Y23506200D03*
X-11174000Y70298000D03*
D10*
X84504650Y76958200D03*
X100734650Y76958200D03*
X84504650Y83308200D03*
X100734650Y83308200D03*
X84504650Y70608200D03*
X100734650Y70608200D03*
D18*
X115518400Y62422850D03*
D11*
X79886172Y-24075600D03*
D12*
X79886172Y-26575600D03*
D10*
X34504650Y76958200D03*
X50734650Y76958200D03*
X34504650Y83308200D03*
X50734650Y83308200D03*
X34504650Y70608200D03*
X50734650Y70608200D03*
D19*
X-17580600Y-17725400D03*
D20*
X-15040600Y-17725400D03*
D26*
X-66282405Y-6987681D03*
D27*
X-68782405Y-6987681D03*
X-71282405Y-6987681D03*
D28*
X-73532405Y512319D03*
X-64032405Y512319D03*
D26*
X-96536405Y20045357D03*
D27*
X-99036405Y20045357D03*
X-101536405Y20045357D03*
D28*
X-103786405Y27545357D03*
X-94286405Y27545357D03*
D26*
X-96282405Y-6987681D03*
D27*
X-98782405Y-6987681D03*
X-101282405Y-6987681D03*
D28*
X-103532405Y512319D03*
X-94032405Y512319D03*
D19*
X-53474000Y31354400D03*
D20*
X-53474000Y28814400D03*
X-53474000Y26274400D03*
X-53474000Y23734400D03*
X-53474000Y21194400D03*
X-53474000Y18654400D03*
X-53474000Y16114400D03*
X-53474000Y13574400D03*
X-53474000Y11034400D03*
X-53474000Y8494400D03*
X-53474000Y5954400D03*
X-53474000Y3414400D03*
X-53474000Y874400D03*
X-53474000Y-1665600D03*
X-53474000Y-4205600D03*
X-53474000Y-6745600D03*
D26*
X-126536405Y20045357D03*
D27*
X-129036405Y20045357D03*
X-131536405Y20045357D03*
D28*
X-133786405Y27545357D03*
X-124286405Y27545357D03*
D26*
X-126282405Y-6987681D03*
D27*
X-128782405Y-6987681D03*
X-131282405Y-6987681D03*
D28*
X-133532405Y512319D03*
X-124032405Y512319D03*
D26*
X-66536405Y20045357D03*
D27*
X-69036405Y20045357D03*
X-71536405Y20045357D03*
D28*
X-73786405Y27545357D03*
X-64286405Y27545357D03*
D29*
X22713269Y23916600D03*
D30*
X-95816600Y-14958400D03*
X-109946600Y44396600D03*
X11294608Y18906970D03*
X41554400Y39319200D03*
D29*
X22468400Y-15283400D03*
D30*
X-9406600Y58866600D03*
X-27381600Y6291600D03*
X-7961600Y-11708400D03*
X-2581600Y-13098400D03*
X-93081600Y45341600D03*
D29*
X29618400Y5141600D03*
D30*
X-78174249Y46890760D03*
X-9006600Y26891600D03*
X109393400Y64666600D03*
X-20516100Y15007012D03*
X-86256600Y9666600D03*
X20018400Y-3948900D03*
X-68681600Y41122600D03*
X36118400Y24566600D03*
X-86681600Y2866600D03*
X-115706600Y9666600D03*
X29518400Y-4858400D03*
X61243400Y31166600D03*
X-56556605Y-24358400D03*
X119493400Y7566600D03*
X-20331600Y68841600D03*
X-86256600Y12666600D03*
X114268400Y20766600D03*
X27887000Y13155000D03*
X38893400Y-11258400D03*
X-27381600Y9141600D03*
D29*
X35868400Y30491600D03*
X28618400Y-14508400D03*
D30*
X-42113200Y13614400D03*
X-128056600Y64141600D03*
X-82231600Y26066600D03*
X-100931600Y-24358400D03*
X100101400Y45395248D03*
X41943400Y19849934D03*
D29*
X5018400Y2941600D03*
D30*
X-5231600Y43216600D03*
X-119684800Y-21336000D03*
X-56556605Y-21358400D03*
X-25939303Y19386893D03*
X-115706600Y12666600D03*
X31143400Y-1208400D03*
X28068400Y6891600D03*
X-35730384Y8826391D03*
X-12781600Y-15358400D03*
X27843400Y-23331900D03*
X-43331600Y58816600D03*
D29*
X1818400Y-15408400D03*
D30*
X-87231600Y26066600D03*
X-108606600Y-25033400D03*
X9318400Y-10683400D03*
X-81213415Y-30033400D03*
X81618400Y34341600D03*
X10047975Y18992393D03*
X100025200Y46685200D03*
X100006400Y50673920D03*
X-15231600Y48141600D03*
X54368400Y16331600D03*
X-5881600Y16491600D03*
X89161044Y13832376D03*
X-36525200Y27686000D03*
X-110262155Y-29458400D03*
X-114781600Y-10158400D03*
X71868400Y3316600D03*
X-113537155Y-25033400D03*
X-103882000Y48705000D03*
X66618400Y43341600D03*
X-45931600Y-18133400D03*
D29*
X31923157Y-5687476D03*
D30*
X95893400Y13595545D03*
X-231600Y43216600D03*
X17768400Y-21283400D03*
X-5056600Y341600D03*
X-20431600Y-10433400D03*
X-24206600Y31266600D03*
X-10231600Y48141600D03*
X-81656600Y-8400D03*
X97743400Y12366600D03*
X-60401200Y50901600D03*
X-27331600Y28666600D03*
X94036044Y12453431D03*
X71868400Y-5683400D03*
X61243400Y25166600D03*
X-97331600Y59016600D03*
X7818400Y-5758400D03*
X-105123265Y-26233400D03*
X-44043600Y8128000D03*
X20355283Y8251633D03*
X73584065Y7874600D03*
X2193400Y19016600D03*
X-76656600Y-8400D03*
X-140781600Y28241600D03*
X29749755Y22471998D03*
X95893400Y12366600D03*
X99936300Y25156284D03*
X9317951Y-8061031D03*
D29*
X-10581600Y1941600D03*
D30*
X71943400Y5666600D03*
X76618400Y37341600D03*
D29*
X-11681600Y1941600D03*
D30*
X11023600Y40030400D03*
X-111281600Y1391600D03*
X-12799780Y-30108400D03*
X-76308870Y-30033400D03*
X-1676400Y2946400D03*
X9193400Y5816600D03*
X71818400Y-28683400D03*
X-87231600Y29066600D03*
X81618400Y25341600D03*
X-36728400Y7772400D03*
X10972800Y44246800D03*
D29*
X1893400Y-17858400D03*
D30*
X119268400Y11766600D03*
X-70931600Y-18133400D03*
X-9006600Y24241600D03*
X87818400Y17591600D03*
X71868400Y-2683400D03*
D29*
X30218400Y-8083400D03*
D30*
X1943400Y74641600D03*
X-38125858Y16986642D03*
X-44731600Y1841600D03*
D29*
X-9081600Y-958400D03*
D30*
X39493400Y2691600D03*
X38918400Y-3908400D03*
X114293400Y23541600D03*
X100076000Y41676566D03*
D29*
X12497800Y-17843000D03*
D30*
X-130706600Y12666600D03*
X-28956600Y5291600D03*
X114368400Y43891600D03*
D29*
X-134131600Y-15783400D03*
D30*
X29793400Y54466600D03*
X-32681600Y-26983400D03*
X78906285Y7874600D03*
X114368400Y46891600D03*
X-23469600Y22758400D03*
X-128056600Y59141600D03*
X84286044Y13945545D03*
X-66903600Y50901600D03*
X26964700Y25716600D03*
X-13481600Y11666600D03*
X-128056600Y69141600D03*
X119293400Y38541600D03*
X-31606600Y5291600D03*
D29*
X24018400Y-14358400D03*
D30*
X91718400Y16328431D03*
X-20231600Y48141600D03*
X9293400Y-9383400D03*
X-10625899Y40645039D03*
X22518400Y666600D03*
X-33331600Y53816600D03*
D29*
X21218400Y-2258400D03*
D30*
X-37778685Y621569D03*
D29*
X7052079Y-11358400D03*
D30*
X56243400Y31166600D03*
X-16909990Y-12343872D03*
X-32549422Y-8344578D03*
X-28448000Y-8480801D03*
X-100856600Y48566600D03*
X-24631600Y-26783400D03*
X-122481600Y-17058400D03*
X119268400Y14766600D03*
X28180366Y5459220D03*
X-66417715Y-21358400D03*
X7068400Y-4408400D03*
X-42227050Y-30108400D03*
X-29968707Y24712264D03*
X-30681600Y19291600D03*
D29*
X3618400Y-4058400D03*
D30*
X-110123265Y-26233400D03*
X-81681600Y5866600D03*
X-121387155Y-28058400D03*
X-104946600Y39396600D03*
X11018400Y-5783500D03*
X81618400Y46341600D03*
X119393400Y61666600D03*
X-61281600Y9866600D03*
X-116281600Y4391600D03*
X100037900Y36098543D03*
X100050600Y37957884D03*
X38793400Y-8858400D03*
X-140706600Y9666600D03*
X-5721600Y-9988400D03*
X-48768000Y5842000D03*
X83319500Y9077800D03*
X10242004Y23526345D03*
X-14991600Y40871600D03*
X98602800Y46736000D03*
X-85986600Y-14958400D03*
X-33121600Y22707600D03*
X-109321600Y-12496800D03*
X-25331600Y73841600D03*
X-8791802Y42662197D03*
X61468000Y38430200D03*
X-76256600Y12666600D03*
X39118400Y19566600D03*
X-37306600Y22216600D03*
X-4111600Y-10178400D03*
X39518400Y1316600D03*
X41943400Y16908266D03*
X-36836600Y-14958400D03*
X26568400Y-19883400D03*
X37439600Y45059600D03*
X47127600Y49276600D03*
X-18577105Y-13404766D03*
X-78131600Y53916600D03*
X16032000Y30284400D03*
X-71433875Y-27183400D03*
X-31606600Y8141600D03*
X14823400Y15886600D03*
X-76656600Y-3008400D03*
X109393400Y52666600D03*
X27818400Y-22208400D03*
D29*
X-17381600Y15741600D03*
D30*
X48443400Y2741600D03*
X-43101724Y-4162167D03*
X-86139935Y-21358400D03*
X-40656497Y-7061200D03*
X66618400Y28341600D03*
X-44991600Y40871600D03*
D29*
X29718400Y4341600D03*
D30*
X22593400Y-12683400D03*
X-24731600Y6291600D03*
X-2931600Y-3333400D03*
X22608400Y21771600D03*
X66618400Y34341600D03*
X-105331600Y-29458400D03*
X-69367900Y54051200D03*
D29*
X3818400Y-13183400D03*
D30*
X-108481600Y-11458400D03*
X40643400Y2691600D03*
X-109481600Y-7458400D03*
X-126317710Y-28058400D03*
X71868400Y-11683400D03*
D29*
X5718400Y3941600D03*
D30*
X-12956600Y-6158400D03*
X-137781600Y23241600D03*
X114293400Y35541600D03*
X-41579342Y-8057759D03*
D29*
X13018400Y-16558400D03*
D30*
X-91022505Y-30033400D03*
X-81071600Y-14958400D03*
X32393400Y26266600D03*
X116493400Y7566600D03*
X-109931200Y-14224000D03*
X-137381600Y4791600D03*
X-50931600Y-18133400D03*
X9884559Y21164113D03*
X76618400Y31341600D03*
X76618400Y40341600D03*
X-16662400Y5029200D03*
X91718400Y15099488D03*
X51677600Y49276600D03*
X-100856600Y43566600D03*
X-112481600Y-7358400D03*
X-16456600Y-4183400D03*
X89161044Y17519205D03*
D29*
X25518400Y-15458400D03*
D30*
X-5881600Y11191600D03*
X66618400Y25341600D03*
X56743600Y53543200D03*
X-76278825Y-24358400D03*
X-90901600Y-14958400D03*
X84286044Y15174488D03*
X-3991600Y-13238400D03*
X-11856600Y19191600D03*
X70922955Y7874600D03*
X84286044Y17632374D03*
X-34991600Y40871600D03*
X-101256600Y9666600D03*
X-12956600Y-4541732D03*
X101650800Y34391600D03*
X71618400Y49341600D03*
D29*
X21718400Y-758400D03*
D30*
X80236840Y7874600D03*
X-5181600Y-1308400D03*
X61143400Y-14508400D03*
X-5231600Y40216600D03*
X83108800Y7874000D03*
X-71281600Y12866600D03*
X-125881600Y-21058400D03*
X85368400Y17620543D03*
X-106256600Y9666600D03*
X-25331600Y68841600D03*
X71843400Y-23458400D03*
X119293400Y29541600D03*
X67168400Y58016600D03*
X-11856600Y11241600D03*
X119393400Y55666600D03*
X-28331600Y58816600D03*
X35204400Y33985200D03*
X84286044Y16403431D03*
X89161044Y16290262D03*
X69592400Y7874600D03*
X-114781600Y-9158400D03*
X-12931600Y14516600D03*
X100063300Y39817225D03*
X54368400Y19071600D03*
X-95856600Y48566600D03*
X-86656600Y-8400D03*
D29*
X-2081600Y-6358400D03*
D30*
X11023600Y37846000D03*
X114293400Y38541600D03*
X-90856600Y48566600D03*
X27518400Y28491600D03*
X-44399200Y28041600D03*
X-16728734Y-10852168D03*
X-17781600Y-4083400D03*
X-24206600Y28616600D03*
X3593400Y11441600D03*
X60768400Y-6883400D03*
X-32741743Y1004951D03*
X-105406600Y59016600D03*
X-141581600Y59141600D03*
X56243400Y25166600D03*
X99936300Y32613600D03*
X97743400Y13595545D03*
X55295800Y61391800D03*
D29*
X33718400Y-3858400D03*
D30*
X76618400Y25341600D03*
X35407600Y36068000D03*
X89161044Y15061319D03*
X41943400Y22791600D03*
X98399600Y34391600D03*
X54368400Y13591600D03*
X-70668800Y57525400D03*
X-95927050Y-30033400D03*
X35918400Y10291600D03*
X62168400Y58016600D03*
X-78131600Y58916600D03*
X-20231600Y45141600D03*
X-5731600Y68891600D03*
X-22781600Y-12733400D03*
X17643400Y-12683400D03*
D29*
X15618400Y-21958400D03*
D30*
X-11856600Y13891600D03*
X-61487160Y-21358400D03*
X-40944800Y27635200D03*
X3243400Y46266600D03*
X-81256600Y12666600D03*
X-5231600Y45141600D03*
X81618400Y28341600D03*
X-93081600Y40341600D03*
X-3351600Y-16588400D03*
X-113481254Y-12394228D03*
X-37894774Y-4370226D03*
X-35492381Y-26970744D03*
X21286215Y21757368D03*
X-66281600Y9866600D03*
X22606000Y14859000D03*
X-87331600Y59016600D03*
X-46881600Y-30033400D03*
X-5231600Y48141600D03*
X109393400Y61666600D03*
X100088700Y43535907D03*
X20168400Y-12683400D03*
X37338000Y40335200D03*
X104495600Y50393600D03*
X-81209380Y-21358400D03*
X-140706600Y12666600D03*
D29*
X11118400Y-17658400D03*
D30*
X-28331600Y53816600D03*
X28727400Y-13081000D03*
X-13531600Y7866600D03*
X-31921600Y-14958400D03*
X-10381600Y64316600D03*
X-83131600Y58916600D03*
X32818400Y-9358400D03*
X54368400Y14961600D03*
X28680900Y28304100D03*
X71843400Y-17458400D03*
X-16606600Y9316600D03*
X-25381600Y64316600D03*
X32593400Y10016600D03*
X71618400Y40341600D03*
X43893400Y21318684D03*
X-39384893Y-7663619D03*
X-27631600Y11666600D03*
X11638400Y21081600D03*
X-17483880Y-27183400D03*
X-141581600Y69141600D03*
X-31191200Y812800D03*
X-29991600Y40871600D03*
X6243400Y41266600D03*
X81618400Y43341600D03*
X-41840257Y8590300D03*
X100006400Y55159744D03*
D29*
X-15781600Y14541600D03*
D30*
X-133681600Y-22558400D03*
X81618400Y40341600D03*
X83193400Y57741600D03*
X114393400Y55666600D03*
X46618400Y1191600D03*
X66618400Y22341600D03*
X-61624785Y-27183400D03*
X28803600Y-8458200D03*
X66618400Y37341600D03*
X38718400Y-6608400D03*
X7636561Y22744820D03*
X-17831600Y-3033400D03*
X-20167600Y17891600D03*
X100006400Y52125576D03*
X-96001045Y-24358400D03*
X-66529330Y-27183400D03*
X-78526700Y43874279D03*
X-46666600Y-14958400D03*
X54457600Y46736000D03*
X19518400Y48816600D03*
X109393400Y55666600D03*
X-116248265Y-24833400D03*
X73193400Y57741600D03*
X-51786145Y-30033400D03*
X-1781600Y1491600D03*
X73193400Y54741600D03*
X-71577200Y41910000D03*
D29*
X-8781600Y-5233400D03*
D30*
X-117481600Y29291600D03*
X-43856600Y-26970744D03*
X99936300Y27015625D03*
X119393400Y52666600D03*
X-37322505Y-30108400D03*
X-30231600Y45141600D03*
X114393400Y58666600D03*
X-76156600Y-14958400D03*
D29*
X30293400Y-9708400D03*
D30*
X51268400Y2791600D03*
X29793400Y57466600D03*
X53965000Y37503600D03*
X76618400Y28341600D03*
X-51815695Y-27183400D03*
X-139081600Y-20158400D03*
X-66281600Y12866600D03*
X-35231600Y45141600D03*
X-56496600Y-14958400D03*
X-6056600Y74016600D03*
D29*
X35868400Y29691600D03*
D30*
X84286044Y12716600D03*
X-14406600Y58866600D03*
X-140781600Y18241600D03*
D29*
X8418400Y-12958400D03*
D30*
X98501200Y45446048D03*
X113493400Y7566600D03*
X-114781600Y-8158400D03*
X114293400Y26541600D03*
X-38838071Y-26970744D03*
X24793400Y57466600D03*
D29*
X-15781600Y14541600D03*
D30*
X119368400Y43891600D03*
D29*
X-9181600Y741600D03*
D30*
X-117481600Y26291600D03*
X-1306600Y19216600D03*
X-85931600Y-18133400D03*
X-19406600Y58866600D03*
X-42183757Y-26970744D03*
D29*
X16818400Y-21258400D03*
D30*
X-140381600Y4791600D03*
X-81656600Y-3008400D03*
X38868400Y8791600D03*
X-2406600Y-10233400D03*
D29*
X29168400Y3091600D03*
D30*
X-90931600Y-18133400D03*
D29*
X-10581600Y-18258400D03*
X31518400Y3541600D03*
D30*
X-126248265Y-24833400D03*
X-75572600Y43096200D03*
X43893400Y19845768D03*
X-25231600Y-24758400D03*
X-69937200Y41764000D03*
X38418400Y2691600D03*
X16218400Y13441600D03*
X24518400Y48816600D03*
X-120706600Y9666600D03*
D29*
X18218400Y-958400D03*
D30*
X99218400Y12341600D03*
X-106256600Y12666600D03*
D29*
X11418400Y-16383400D03*
D30*
X-106281600Y1391600D03*
X-25331600Y83841600D03*
X-81209380Y-24358400D03*
D29*
X24618400Y-12858400D03*
D30*
X-17731600Y-8033400D03*
X-5781600Y64366600D03*
X-40931600Y-18133400D03*
X-15231600Y45141600D03*
X-107481600Y26291600D03*
X-79335236Y46221685D03*
X-9006600Y13891600D03*
X-88081600Y45341600D03*
X91718400Y17557374D03*
X-27331600Y31316600D03*
X-32417960Y-30108400D03*
X1943400Y79641600D03*
X-48971200Y10718800D03*
X-38331600Y58816600D03*
X119268400Y17766600D03*
X114368400Y49891600D03*
D29*
X14693400Y-16258400D03*
D30*
X-50901600Y-4267200D03*
X-114781600Y-11058400D03*
X-22506600Y-26133400D03*
X119393400Y64666600D03*
X34343400Y6416600D03*
D29*
X23918400Y13241600D03*
D30*
X-39505903Y-8737600D03*
X-24731600Y26291600D03*
X-128625600Y-21488400D03*
D29*
X2418400Y-4258400D03*
D30*
X-17706600Y-5033400D03*
D29*
X-9081600Y-3258400D03*
D30*
X-43331600Y53816600D03*
X-46606600Y18866600D03*
X-17756600Y-2083400D03*
X-112481600Y26291600D03*
X-21981600Y-18133400D03*
X119393400Y58666600D03*
X14518400Y45816600D03*
X-107171600Y41171600D03*
X-98081600Y45341600D03*
X-16713200Y10769600D03*
X-2770245Y-27183400D03*
X100006400Y56611400D03*
X7038845Y-27183400D03*
X-12956600Y-1308400D03*
X-86147510Y-27183400D03*
X-24981600Y14516600D03*
X3243400Y41266600D03*
X-15331600Y68841600D03*
X-20331600Y73841600D03*
X71843400Y-14458400D03*
X-66417715Y-24358400D03*
X-33973615Y1833260D03*
X-88081600Y40341600D03*
X81618400Y22341600D03*
X-19991600Y40871600D03*
X1943400Y84641600D03*
X105460800Y49479200D03*
X-34340800Y-8331200D03*
D29*
X1629000Y-2343400D03*
D30*
X43078400Y39370000D03*
X4146600Y17513800D03*
D29*
X35418400Y-4958400D03*
D30*
X-120706600Y12666600D03*
X62168400Y55016600D03*
D29*
X6118400Y5241600D03*
D30*
X-16456600Y-895900D03*
X28393400Y17541600D03*
X-86656600Y-3008400D03*
X3140400Y53263400D03*
X-66326600Y-14958400D03*
X-38496502Y5879602D03*
X-80931600Y-18133400D03*
X-76278825Y-21358400D03*
X-86139935Y-24358400D03*
X-76681600Y2866600D03*
X12693400Y-10258400D03*
X-77231600Y29066600D03*
X-110706600Y9666600D03*
X-27631600Y14516600D03*
X71618400Y43341600D03*
X27768400Y-21033400D03*
X-100931600Y-18133400D03*
X-116456600Y-28058400D03*
X101752400Y45415200D03*
X-24981600Y11666600D03*
X6243400Y46266600D03*
X-46911150Y-27183400D03*
D29*
X4818400Y7341600D03*
D30*
X-103581600Y53541600D03*
X-27006600Y-14958400D03*
X91718400Y13870545D03*
X44043600Y38557200D03*
X-35231600Y48141600D03*
X17983200Y5689600D03*
X77575730Y7874600D03*
X-3053400Y17273400D03*
X26924000Y24765000D03*
X66618400Y31341600D03*
X-95856600Y43566600D03*
X-125706600Y9666600D03*
X101743400Y19341600D03*
D29*
X31768400Y-8283400D03*
D30*
X-15381600Y64316600D03*
X100025200Y34391600D03*
X43893400Y18372852D03*
X21386800Y6654800D03*
X-55931600Y-18133400D03*
X-102171600Y36171600D03*
X-42759574Y-5207474D03*
X-10231600Y45141600D03*
X-138781600Y-18058400D03*
X-9006600Y29541600D03*
X41943400Y21320767D03*
X-108454000Y48908200D03*
X-15331600Y73841600D03*
X-37165228Y-26970744D03*
X-44731600Y3341600D03*
X114393400Y52666600D03*
X-16456600Y2391600D03*
X24518400Y45816600D03*
D29*
X3718400Y4341600D03*
D30*
X-113685400Y-8996600D03*
X72253510Y7874600D03*
X-86117960Y-30033400D03*
X-61281600Y12866600D03*
X54143400Y-14458400D03*
X100006400Y53708088D03*
X-47193200Y11785600D03*
X-56235600Y40233600D03*
X94036044Y13682376D03*
X10160000Y13261400D03*
X1413200Y56544600D03*
X44018400Y14141600D03*
X81737200Y7848600D03*
X43893400Y22791600D03*
X40668400Y1316600D03*
X-24406600Y58866600D03*
X119293400Y26541600D03*
X76618400Y34341600D03*
X81618400Y49341600D03*
X-101256600Y12666600D03*
X71618400Y28341600D03*
X-51581600Y-14958400D03*
X28778200Y-2159000D03*
X83193400Y54741600D03*
X81618400Y37341600D03*
D29*
X25747518Y5191600D03*
D30*
X-81242965Y-27183400D03*
X-13956600Y16216600D03*
X9318974Y24368909D03*
X-24991600Y40871600D03*
X-55096000Y40156000D03*
X43893400Y16899936D03*
X18415000Y25095200D03*
X-96001045Y-21358400D03*
X-38331600Y53816600D03*
X114293400Y29541600D03*
X-113308400Y56810800D03*
X119268400Y20766600D03*
X-95931600Y-18133400D03*
D29*
X35868400Y28891600D03*
D30*
X-25231600Y48141600D03*
X-28031600Y-2083400D03*
X-106281600Y4391600D03*
X-40510914Y-26970744D03*
X-14406600Y53866600D03*
X-2856600Y-1283400D03*
X-75931600Y-18133400D03*
X-42164000Y18694400D03*
X100006400Y49222264D03*
X-7926111Y41701471D03*
X14518400Y48816600D03*
X22497586Y19284097D03*
X-27513415Y-30108400D03*
X-91070490Y-24358400D03*
X-96256600Y12666600D03*
X22518400Y-1183400D03*
X57568400Y48716600D03*
X66618400Y46341600D03*
X78193400Y54741600D03*
X-130706600Y9666600D03*
X-76256600Y9666600D03*
X-33856600Y-26983400D03*
X71618400Y37341600D03*
X-108481600Y-10458400D03*
X39118400Y24566600D03*
X-81256600Y9666600D03*
X-76681600Y5866600D03*
X-75590400Y47320200D03*
X-25231600Y45141600D03*
X119393400Y67666600D03*
X17593400Y-10258400D03*
X-113398265Y-21808400D03*
X6418400Y49172600D03*
D29*
X14643400Y-17283400D03*
D30*
X71618400Y22341600D03*
X69592400Y9074600D03*
X76245175Y7874600D03*
D29*
X2118400Y-10333400D03*
D30*
X119293400Y23541600D03*
X71843400Y-20458400D03*
X2193400Y16016600D03*
X-731600Y68891600D03*
X-20856600Y10966600D03*
X100006400Y47770608D03*
X-26981600Y-18133400D03*
D29*
X-1261600Y-4258400D03*
D30*
X5731955Y-19412688D03*
X43993400Y15416600D03*
X-1306600Y16216600D03*
X-71348270Y-21358400D03*
D29*
X19218400Y5641600D03*
D30*
X99218400Y13570545D03*
X71618400Y34341600D03*
X-6431600Y-13238400D03*
X-100931600Y-21358400D03*
X-17704325Y-30108400D03*
X-86681600Y5866600D03*
X-5881600Y13841600D03*
X-25231600Y-25858400D03*
X-20381600Y64316600D03*
X12793400Y-8133400D03*
X119293400Y32541600D03*
X109393400Y58666600D03*
X-41751600Y-14958400D03*
X-128625600Y-20472400D03*
X71868400Y-8683400D03*
X-25331600Y78841600D03*
D29*
X4618400Y4941600D03*
D30*
X-40231600Y45141600D03*
X-15281600Y22116600D03*
X14918400Y8751100D03*
X-71281600Y9866600D03*
X42607600Y56545000D03*
X71618400Y31341600D03*
X10972800Y35864800D03*
X-56720240Y-27183400D03*
D29*
X-1981600Y-5068400D03*
D30*
X-71404325Y-30033400D03*
X-140781600Y23241600D03*
X114293400Y32541600D03*
X57218400Y37566600D03*
X-77494711Y44408123D03*
X-12956600Y-2925066D03*
X12918400Y-6158400D03*
X2134300Y-27183400D03*
X99936300Y28874966D03*
X119293400Y35541600D03*
D29*
X20618400Y3541600D03*
D30*
X14443400Y-10283400D03*
X-108398265Y-21808400D03*
X13218400Y14341600D03*
X-56690690Y-30033400D03*
X24793400Y54466600D03*
X-125706600Y12666600D03*
X-71348270Y-24358400D03*
X-111756000Y53531000D03*
X16818400Y8751100D03*
X-30231600Y48141600D03*
X2590800Y-22352000D03*
X98399600Y21640800D03*
X-44828200Y313200D03*
X-9006600Y16541600D03*
X-66499780Y-30033400D03*
X-46253400Y-6146800D03*
X61243400Y28166600D03*
X41943400Y18379101D03*
X-28956600Y8141600D03*
X-2581600Y-14358400D03*
X-137781600Y28241600D03*
X-116281600Y1391600D03*
X91718400Y12641600D03*
X-91052055Y-27183400D03*
X11014400Y49148600D03*
X-7901600Y-9958400D03*
X-29413200Y22758400D03*
X-19806600Y-26133400D03*
X16268400Y-26908400D03*
X-98081600Y40341600D03*
X-38731600Y3516600D03*
X-17322800Y20624800D03*
X-24731600Y9141600D03*
X21173848Y19403622D03*
X-21031600Y-26133400D03*
X103318400Y19341600D03*
X-92331600Y54016600D03*
X10972800Y33832800D03*
X89161044Y12603431D03*
X-107481600Y29291600D03*
X-5881600Y19141600D03*
X12593400Y18706600D03*
X-39447673Y-6381369D03*
X10993400Y13816600D03*
X-38706600Y12016600D03*
X-12756600Y-10583400D03*
X-56743600Y54102000D03*
X-100529200Y61151000D03*
X-60931600Y-18133400D03*
X-9406600Y53866600D03*
X14443400Y61340600D03*
X99936300Y23296943D03*
X-2481600Y-11558400D03*
X-141581600Y64141600D03*
X59868400Y-11058400D03*
X-99157600Y53480200D03*
X-133056600Y69141600D03*
X54368400Y17701600D03*
X24298300Y-17657311D03*
X-51892200Y40055800D03*
X-4931600Y-14628400D03*
X-61595235Y-30033400D03*
X-23556600Y-26133400D03*
X-11856600Y16541600D03*
X-9006600Y21591600D03*
X76618400Y43341600D03*
X-1524000Y-19151600D03*
X81618400Y31341600D03*
D29*
X22843400Y12541600D03*
D30*
X-103081600Y45341600D03*
X-121248265Y-24833400D03*
X36118400Y19566600D03*
D29*
X19618400Y-1758400D03*
D30*
X-39991600Y40871600D03*
X76618400Y46341600D03*
X71818400Y-25683400D03*
X-136581600Y69141600D03*
X-231600Y48141600D03*
X-40231600Y48141600D03*
X19793400Y57466600D03*
D29*
X21168400Y23991600D03*
D30*
X71618400Y25341600D03*
X78193400Y57741600D03*
X-141626600Y-8333400D03*
X15087600Y26416000D03*
X-90856600Y43566600D03*
X-71241600Y-14958400D03*
X13168400Y-22033400D03*
X-231600Y45141600D03*
X-40640000Y22758400D03*
X-80581600Y56466600D03*
X-30314222Y-8446178D03*
X114368400Y40891600D03*
X-9748547Y39932946D03*
X18443400Y18241600D03*
X101650800Y21640800D03*
X13868400Y8751100D03*
X-57937400Y61772800D03*
D29*
X29818400Y6016600D03*
D30*
X74914620Y7874600D03*
X-82231600Y29066600D03*
X50943400Y-5108400D03*
X-115468400Y-12446000D03*
X12118400Y13866600D03*
X-43131600Y-1308400D03*
X-26349240Y-8432800D03*
X-91256600Y12666600D03*
X66618400Y49341600D03*
X-100731600Y-14958400D03*
X-36059525Y2415823D03*
X-96256600Y9666600D03*
X-61411600Y-14958400D03*
X21635678Y8264602D03*
X114268400Y17766600D03*
X-12579335Y-27183400D03*
X119368400Y49891600D03*
X99936300Y30734307D03*
X-113781600Y-7458400D03*
X-97331600Y54016600D03*
X101650800Y32613600D03*
X38443400Y1316600D03*
X-99756600Y47741600D03*
X-24406600Y53866600D03*
X-55829200Y49479200D03*
X119368400Y46891600D03*
X75792400Y8874600D03*
X-81681600Y2866600D03*
X-36477836Y10758915D03*
X54368400Y20441600D03*
X-9006600Y19191600D03*
X-45231600Y45141600D03*
D29*
X31318400Y-4158400D03*
D30*
X-14306600Y22116600D03*
X76618400Y49341600D03*
X-108481600Y-9458400D03*
X61178000Y43114400D03*
X56243400Y28166600D03*
X19518400Y45816600D03*
X57568400Y-14508400D03*
X14368400Y-8158400D03*
X8486198Y21761192D03*
X4968400Y1791600D03*
X114393400Y67666600D03*
X-91256600Y9666600D03*
X-24536400Y-8534400D03*
X-35931600Y-18133400D03*
D29*
X23743400Y416600D03*
D30*
X71618400Y46341600D03*
X15840400Y53263400D03*
X109393400Y67666600D03*
X119368400Y40891600D03*
X-28031600Y-3058400D03*
X-77231600Y26066600D03*
X-21806600Y-26783400D03*
D29*
X-11681600Y-18258400D03*
D30*
X-45231600Y48141600D03*
X-110706600Y12666600D03*
X-76338420Y-27183400D03*
X-137781600Y18241600D03*
X49968400Y-5133400D03*
X-65931600Y-18133400D03*
X6092800Y15751600D03*
X76618400Y22341600D03*
X-110781600Y-7358400D03*
X44196000Y53441600D03*
X19793400Y54466600D03*
X-5811600Y-11788400D03*
X98399600Y32613600D03*
X11568400Y-2483400D03*
X-19406600Y53866600D03*
X-111281600Y4391600D03*
X-990600Y-15290800D03*
X66618400Y40341600D03*
D29*
X35868400Y31291600D03*
D30*
X10134600Y12321600D03*
X-136711600Y-8333400D03*
X-45221818Y-3734240D03*
X11023600Y42113200D03*
X11943400Y-27183400D03*
X-91070490Y-21358400D03*
X-1531600Y-16808400D03*
X-22608870Y-30108400D03*
X-95956600Y-27183400D03*
X-108481600Y-8358400D03*
X99936300Y21640800D03*
X-50896000Y45556000D03*
X86736044Y17603431D03*
X71868400Y316600D03*
X-33331600Y58816600D03*
X-1056600Y74016600D03*
X-2271600Y551600D03*
X-231600Y40216600D03*
X32193400Y13491600D03*
X-9006600Y11241600D03*
X-121005600Y-16662400D03*
X-61487160Y-24358400D03*
X18593400Y10366600D03*
X-33381600Y16441600D03*
X18593400Y6607100D03*
X2960100Y1320800D03*
X1129300Y2032000D03*
X-22131600Y4991600D03*
X-22131600Y6791600D03*
X-14206600Y-12883400D03*
X7118400Y9116600D03*
X5043400Y-18158400D03*
X-14206600Y-8383400D03*
X18468400Y-16408400D03*
X58243400Y-16058400D03*
X35418400Y-10283400D03*
D31*
X14818400Y-20274000D03*
D30*
X24718400Y-16408400D03*
X1717678Y-18857678D03*
X-118181600Y-5195638D03*
X-22131600Y3316600D03*
X-22131600Y18841600D03*
X28768400Y15616600D03*
X54334900Y-16183400D03*
X14493400Y-15358400D03*
D29*
X-26656600Y18641600D03*
D30*
X18418400Y14466600D03*
X-42906600Y-9183400D03*
X64468400Y-8533400D03*
X-23040600Y12216600D03*
X42968400Y-11758400D03*
X-124176700Y-5195638D03*
X-22131600Y716600D03*
D29*
X11968400Y-17018000D03*
X1629000Y-17043400D03*
D30*
X30018400Y-16735300D03*
X28868400Y6091600D03*
X-70154800Y50800000D03*
X-59080400Y50901600D03*
X53848000Y50495200D03*
X-112518000Y50838600D03*
X39928800Y50292000D03*
X2530800Y50367800D03*
X13351200Y50418600D03*
X-101697600Y50229000D03*
X32562800Y30378400D03*
X29565600Y33883600D03*
X20015200Y25247600D03*
X18694400Y41046400D03*
X18668400Y44216600D03*
X18694400Y36830000D03*
X18694400Y36830000D03*
X24937093Y19166900D03*
X29870400Y36017200D03*
X18694400Y33832800D03*
D29*
X-806600Y-16133400D03*
X13972800Y-16768000D03*
D30*
X-57191200Y60410800D03*
X-100605400Y59830200D03*
X55880000Y60207600D03*
X59740800Y60207600D03*
X-54254400Y60410800D03*
X14824400Y60232600D03*
X-66954400Y52333600D03*
X45923200Y37439600D03*
X-109317600Y51549800D03*
X5629600Y52155400D03*
X46888400Y52130400D03*
X-89560400Y52333600D03*
D29*
X24643400Y-15083400D03*
X2029000Y-14593400D03*
X24622800Y-13718000D03*
X-1571600Y-13708400D03*
D30*
X22453724Y-7670676D03*
X33731200Y-4978400D03*
D29*
X6718400Y-10043000D03*
X2974583Y-10328523D03*
X1508477Y-11122877D03*
X7618400Y-10558400D03*
X-1231600Y-11808400D03*
X4343400Y-12568000D03*
X4072800Y-3318000D03*
X14518400Y-3358400D03*
X-1981600Y-9158400D03*
X7718400Y-9158400D03*
X20518400Y-1258400D03*
X-1171000Y-1943400D03*
X-1249886Y-897962D03*
X19343400Y-808400D03*
X-1257457Y-55250D03*
X17418400Y-358400D03*
X17243400Y532000D03*
X-1054752Y834794D03*
X5918200Y6223000D03*
X19812000Y3962400D03*
D30*
X21488400Y-8483600D03*
X30886400Y-8890000D03*
D29*
X19072800Y4782000D03*
X6522633Y7044569D03*
X6818400Y-5758400D03*
X-9671000Y-358400D03*
X-9656600Y-1658400D03*
X6815586Y-7563191D03*
X7643400Y-8108400D03*
X-9621000Y-2558400D03*
X-9581600Y-4058400D03*
X6831819Y-8705945D03*
D30*
X21468400Y-25858400D03*
X20168400Y-26133400D03*
X21945600Y23516600D03*
X36017200Y43255801D03*
X21945600Y22466600D03*
X36017200Y42205801D03*
X21894800Y19998200D03*
X62118616Y41108308D03*
X21894800Y21048200D03*
X62118616Y40058308D03*
X-8925168Y41671632D03*
X9312032Y23434432D03*
X-9667632Y40929168D03*
X8569568Y22691968D03*
X10718800Y20743000D03*
X-78384400Y44863600D03*
X-78384400Y45913600D03*
X10718800Y19643000D03*
X-34006600Y9316600D03*
X-42556600Y23216600D03*
D29*
X-1531600Y-7108400D03*
X22172800Y-6168000D03*
X-1031600Y-6333400D03*
X11822800Y-6218000D03*
D30*
X30433898Y3662298D03*
X21002376Y7577418D03*
X19710400Y-8890000D03*
X32715200Y-5130800D03*
X30530800Y-11684000D03*
D29*
X7467600Y-13018500D03*
D30*
X-16762499Y14919784D03*
X-20381600Y13916600D03*
X24993600Y14528800D03*
X23798520Y12197002D03*
D29*
X-1081600Y-5058400D03*
X25458496Y-5471120D03*
X1629000Y-4043400D03*
X10293400Y-2133400D03*
D30*
X76243400Y-29283400D03*
X88198952Y-29283400D03*
X94176728Y-29283400D03*
X84959600Y-18186400D03*
X104868400Y2316600D03*
X76243400Y-8712944D03*
X117068400Y-6883400D03*
X103143400Y-29283400D03*
X76243400Y-2835672D03*
X120418400Y-17908400D03*
X120418400Y-15308400D03*
X103378000Y-9855200D03*
X83718400Y-18186400D03*
X76243400Y-11651580D03*
X100968400Y-8608400D03*
X93218400Y2791600D03*
X110418400Y-3683400D03*
X115418400Y-3683400D03*
X76243400Y-20467488D03*
X76243400Y-17528852D03*
X84959600Y-13258800D03*
X78718400Y3016600D03*
X120418400Y-683400D03*
X84959600Y-17120400D03*
X104749600Y-11125200D03*
X79552800Y-3033400D03*
X115418400Y-683400D03*
X104749600Y-9855200D03*
X113718400Y-15308400D03*
X79544800Y-1683400D03*
X101955600Y-9855200D03*
X76243400Y102964D03*
X104749600Y-9855200D03*
X120418400Y-12908400D03*
X97165616Y-29283400D03*
X104749600Y-8534400D03*
X117068400Y-9883400D03*
X76243400Y3041600D03*
X76243400Y-5774308D03*
X90218400Y2791600D03*
X107543600Y-8534400D03*
X113868400Y-17908400D03*
X107543600Y-9855200D03*
X107543600Y-11176000D03*
X81718400Y3016600D03*
X107868400Y2316600D03*
X79552800Y-4572000D03*
X115418400Y2316600D03*
X120418400Y-3683400D03*
X117068400Y-15308400D03*
X83616800Y-13258800D03*
X85210064Y-29283400D03*
X110418400Y-683400D03*
X106172000Y-9855200D03*
X104749600Y-8534400D03*
X110418400Y2316600D03*
X76243400Y-26344760D03*
X120418400Y2316600D03*
X84937600Y-14528800D03*
X76243400Y-14590216D03*
X101955600Y-11125200D03*
X120418400Y-9908400D03*
X76243400Y-23406124D03*
X117068400Y-17908400D03*
X79232288Y-29283400D03*
X96218400Y2791600D03*
X78968400Y366600D03*
X120418400Y-6908400D03*
X117068400Y-12883400D03*
X82221176Y-29283400D03*
X84718400Y3016600D03*
X100154504Y-29283400D03*
X91187840Y-29283400D03*
X84959600Y-15833200D03*
D29*
X-9406600Y-5808400D03*
X15993400Y-21082000D03*
X4732600Y4055800D03*
X23272800Y-268000D03*
D30*
X18743400Y-26108400D03*
X17493400Y-26283400D03*
D29*
X-137081600Y-18358400D03*
X-137081600Y-19358400D03*
X-137881600Y-18958400D03*
X-137881600Y-19858400D03*
D30*
X-38506400Y-6045200D03*
X-38049200Y17983200D03*
X-41656000Y-7061200D03*
X-36169600Y1422400D03*
X-45931600Y2366600D03*
X-44297600Y-4114800D03*
X-33731200Y863600D03*
X-38404800Y-7467600D03*
X-42418000Y-6146800D03*
X-38100000Y7569200D03*
X-38506400Y-8737600D03*
X-24892000Y965200D03*
X-28803600Y24536400D03*
X-42367200Y9499600D03*
X-36224518Y9792046D03*
X-36728400Y8771903D03*
X-37896800Y5080000D03*
X-48107600Y13766800D03*
X-51702700Y13665200D03*
X8143400Y-4183400D03*
X26010698Y4185350D03*
X23164800Y-4368500D03*
X25704800Y6299200D03*
X24638000Y-4064000D03*
X27381200Y5943600D03*
X-130673153Y-17434768D03*
X-129641600Y-20980400D03*
D32*
X67318400Y-24680400D02*
X63124400Y-28874400D01*
X-6890600Y-28874400D02*
X-13546359Y-22218641D01*
X63509560Y-1124560D02*
X67318400Y-4933400D01*
X56063359Y-1124560D02*
X63509560Y-1124560D01*
X63124400Y-28874400D02*
X-6890600Y-28874400D01*
X-13546359Y-22218641D02*
X-15231600Y-22218641D01*
X67318400Y-4933400D02*
X67318400Y-24680400D01*
X7118400Y9116600D02*
X1143400Y9116600D01*
X-126536405Y19996405D02*
X-126536405Y20045357D01*
D33*
X25243400Y-16408400D02*
X24718400Y-16408400D01*
D32*
X-8031600Y9116600D02*
X-9656600Y7491600D01*
D34*
X-96282405Y-11419205D02*
X-96282405Y-6987681D01*
D33*
X1129300Y2032000D02*
X1129300Y2068450D01*
D35*
X64468400Y-8533400D02*
X64468400Y-9833400D01*
D32*
X-122654400Y16114400D02*
X-126536405Y19996405D01*
D36*
X63443400Y-23852400D02*
X63443400Y-21258400D01*
D32*
X-22131600Y716600D02*
X-22131600Y-2583400D01*
D37*
X1766956Y-18808400D02*
X1717678Y-18857678D01*
D32*
X-22131600Y16491600D02*
X-22131600Y18841600D01*
X-94556600Y16114400D02*
X-120231600Y16114400D01*
D34*
X40293400Y-17708400D02*
X32490759Y-17708400D01*
D32*
X-96321600Y-11458400D02*
X-101356600Y-11458400D01*
X-96536405Y20045357D02*
X-96536405Y16344205D01*
X-56059400Y8494400D02*
X-56106600Y8541600D01*
X-22131600Y6791600D02*
X-22131600Y9116600D01*
D37*
X-42781600Y-9308400D02*
X-42906600Y-9183400D01*
D34*
X-9656600Y7491600D02*
X-14206600Y2941600D01*
X42968400Y-11758400D02*
X42968400Y-14883400D01*
D38*
X14652800Y-20108400D02*
X10543400Y-20108400D01*
D33*
X38023400Y-12888400D02*
X41838400Y-12888400D01*
X30518299Y-20882941D02*
X29717941Y-20882941D01*
D32*
X-53474000Y8494400D02*
X-56059400Y8494400D01*
D39*
X43168400Y-6108400D02*
X42968400Y-6308400D01*
D32*
X18593400Y10366600D02*
X11889970Y10366600D01*
X-25175030Y-11458400D02*
X-42781600Y-11458400D01*
D34*
X-120231600Y33395159D02*
X-120231600Y16114400D01*
X-124176700Y-5195638D02*
X-124490362Y-5195638D01*
D38*
X8593400Y-18158400D02*
X5043400Y-18158400D01*
D33*
X35418400Y-10283400D02*
X38023400Y-12888400D01*
D32*
X-22131600Y-8414970D02*
X-25175030Y-11458400D01*
X-96536405Y16344205D02*
X-96306600Y16114400D01*
D33*
X1129300Y2068450D02*
X1143400Y2082550D01*
D38*
X2248900Y2032000D02*
X2960100Y1320800D01*
D32*
X-64176700Y-11138300D02*
X-64176700Y-7058400D01*
D35*
X64468400Y-9833400D02*
X58243400Y-16058400D01*
D32*
X-56106600Y-1665600D02*
X-60646662Y-1665600D01*
D37*
X15968400Y-15358400D02*
X14493400Y-15358400D01*
D32*
X-56106600Y15978600D02*
X-55970800Y16114400D01*
D35*
X28768400Y15616600D02*
X19568400Y15616600D01*
D34*
X-122680155Y35843714D02*
X-120231600Y33395159D01*
D38*
X14818400Y-20274000D02*
X14652800Y-20108400D01*
D35*
X19568400Y15616600D02*
X18418400Y14466600D01*
D33*
X21468400Y-16408400D02*
X18468400Y-16408400D01*
D32*
X-66536405Y16244205D02*
X-66406600Y16114400D01*
D33*
X41838400Y-12888400D02*
X42968400Y-11758400D01*
D32*
X-96306600Y16114400D02*
X-94556600Y16114400D01*
D36*
X61886000Y-25409800D02*
X63443400Y-23852400D01*
D32*
X42968400Y-4583400D02*
X39459400Y-1074400D01*
D39*
X-48536600Y-21988641D02*
X-48536600Y-11463400D01*
D37*
X17018400Y-16408400D02*
X15968400Y-15358400D01*
D34*
X42968400Y-15033400D02*
X41218400Y-16783400D01*
D32*
X28193400Y10366600D02*
X18593400Y10366600D01*
X-66406600Y16114400D02*
X-64506600Y16114400D01*
X-22131600Y3316600D02*
X-22131600Y716600D01*
X-42781600Y-11458400D02*
X-48531600Y-11458400D01*
X-56106600Y-1665600D02*
X-56106600Y8541600D01*
D37*
X4393400Y-18808400D02*
X1766956Y-18808400D01*
D32*
X-22131600Y9116600D02*
X-23040600Y10025600D01*
D34*
X-96321600Y-11458400D02*
X-96282405Y-11419205D01*
D32*
X-64176700Y-7058400D02*
X-64176700Y-5195638D01*
D39*
X-48536600Y-11463400D02*
X-48531600Y-11458400D01*
D34*
X-64247419Y-6987681D02*
X-64176700Y-7058400D01*
D32*
X-33331600Y16491600D02*
X-22131600Y16491600D01*
X11889970Y10366600D02*
X10639970Y9116600D01*
X-94081600Y-11458400D02*
X-96321600Y-11458400D01*
D33*
X18468400Y-16408400D02*
X17018400Y-16408400D01*
D38*
X10543400Y-20108400D02*
X8593400Y-18158400D01*
D34*
X30518299Y-19680860D02*
X30518299Y-20882941D01*
D32*
X-23040600Y10025600D02*
X-23040600Y12216600D01*
D36*
X45618400Y-16183400D02*
X54334900Y-16183400D01*
D32*
X-23040600Y12216600D02*
X-23040600Y15582600D01*
D37*
X5043400Y-18158400D02*
X4393400Y-18808400D01*
D32*
X-33381600Y16441600D02*
X-33331600Y16491600D01*
D35*
X58118400Y-16183400D02*
X58243400Y-16058400D01*
D32*
X-63856600Y-11458400D02*
X-94081600Y-11458400D01*
D34*
X41218400Y-16783400D02*
X40293400Y-17708400D01*
D37*
X-42781600Y-11458400D02*
X-42781600Y-9308400D01*
D36*
X42968400Y-15033400D02*
X44468400Y-15033400D01*
D38*
X-55970800Y16114400D02*
X-56032400Y16052800D01*
D32*
X-53474000Y-1665600D02*
X-56106600Y-1665600D01*
X38299030Y-1074400D02*
X31768400Y5456230D01*
D34*
X32490759Y-17708400D02*
X30518299Y-19680860D01*
D32*
X-66536405Y20045357D02*
X-66536405Y16244205D01*
X-21385780Y19587420D02*
X-21385780Y28567522D01*
X-101356600Y-11458400D02*
X-107619362Y-5195638D01*
D33*
X1143400Y2082550D02*
X1143400Y9116600D01*
D38*
X14818400Y-20274000D02*
X17018400Y-18074000D01*
D32*
X39459400Y-1074400D02*
X38299030Y-1074400D01*
X-120231600Y16114400D02*
X-122654400Y16114400D01*
X-23040600Y15582600D02*
X-22131600Y16491600D01*
D34*
X-124490362Y-5195638D02*
X-126282405Y-6987681D01*
D32*
X-63856600Y-11458400D02*
X-64176700Y-11138300D01*
D39*
X44378641Y-6108400D02*
X43168400Y-6108400D01*
D36*
X-26656600Y18641600D02*
X-26656600Y16641600D01*
D37*
X18593400Y6607100D02*
X18593400Y10366600D01*
D32*
X-107619362Y-5195638D02*
X-118181600Y-5195638D01*
X-56106600Y8541600D02*
X-56106600Y15978600D01*
X-64506600Y16114400D02*
X-94556600Y16114400D01*
X1143400Y9116600D02*
X-8031600Y9116600D01*
D33*
X29717941Y-20882941D02*
X25243400Y-16408400D01*
D32*
X10639970Y9116600D02*
X7118400Y9116600D01*
D36*
X44468400Y-15033400D02*
X45618400Y-16183400D01*
D33*
X-14206600Y2941600D02*
X-14206600Y-12883400D01*
D38*
X17018400Y-18074000D02*
X17018400Y-16408400D01*
D32*
X-48531600Y-11458400D02*
X-63856600Y-11458400D01*
D38*
X1129300Y2032000D02*
X2248900Y2032000D01*
D34*
X-66282405Y-6987681D02*
X-64247419Y-6987681D01*
X42968400Y-14883400D02*
X42968400Y-15033400D01*
D32*
X-53474000Y16114400D02*
X-55970800Y16114400D01*
X-118181600Y-5195638D02*
X-124176700Y-5195638D01*
X31768400Y6791600D02*
X28193400Y10366600D01*
X42968400Y-11758400D02*
X42968400Y-6308400D01*
X-60646662Y-1665600D02*
X-64176700Y-5195638D01*
X-22131600Y18841600D02*
X-21385780Y19587420D01*
D36*
X54334900Y-16183400D02*
X58118400Y-16183400D01*
X63443400Y-21258400D02*
X58243400Y-16058400D01*
D32*
X-22131600Y6791600D02*
X-22131600Y3316600D01*
D33*
X24718400Y-16408400D02*
X21468400Y-16408400D01*
D32*
X31768400Y5456230D02*
X31768400Y6791600D01*
X-55970800Y16114400D02*
X-64506600Y16114400D01*
X-22131600Y-2583400D02*
X-22131600Y-8414970D01*
X42968400Y-6308400D02*
X42968400Y-4583400D01*
D40*
X1654400Y-17018000D02*
X1629000Y-17043400D01*
X11968400Y-17018000D02*
X1654400Y-17018000D01*
X34431200Y-1324954D02*
X28868400Y4237846D01*
X30018400Y-16735300D02*
X30018400Y-13983400D01*
X30018400Y-13983400D02*
X34431200Y-9570600D01*
X34431200Y-9570600D02*
X34431200Y-1324954D01*
X28868400Y4237846D02*
X28868400Y6091600D01*
D33*
X3352800Y50292000D02*
X3251200Y50393600D01*
X-70154800Y50800000D02*
X-70883200Y50071600D01*
X44399200Y32308800D02*
X53349600Y41259200D01*
X-70883200Y50071600D02*
X-101540200Y50071600D01*
X-101697600Y50229000D02*
X-101910000Y50016600D01*
X53349600Y49996800D02*
X53848000Y50495200D01*
X-55776575Y50901600D02*
X-59080400Y50901600D01*
X39979600Y50241200D02*
X39928800Y50292000D01*
X39979600Y38862000D02*
X39979600Y39065200D01*
X-69148400Y49793600D02*
X-70154800Y50800000D01*
X-101540200Y50071600D02*
X-101697600Y50229000D01*
X3251200Y50393600D02*
X-7518400Y50393600D01*
X39928800Y50292000D02*
X3352800Y50292000D01*
X-101910000Y50016600D02*
X-111696000Y50016600D01*
X32562800Y31953200D02*
X32918400Y32308800D01*
X39979600Y39065200D02*
X39979600Y50241200D01*
X-59942251Y49793600D02*
X-69148400Y49793600D01*
X32562800Y34798000D02*
X35864800Y38100000D01*
X-7610400Y50384000D02*
X-55258975Y50384000D01*
X32918400Y32308800D02*
X44399200Y32308800D01*
X39217600Y38100000D02*
X39979600Y38862000D01*
X-59080400Y50901600D02*
X-59080400Y50655451D01*
X-55258975Y50384000D02*
X-55776575Y50901600D01*
X53349600Y41259200D02*
X53349600Y49996800D01*
X-59080400Y50655451D02*
X-59942251Y49793600D01*
X35864800Y38100000D02*
X39217600Y38100000D01*
X32562800Y30378400D02*
X32562800Y31953200D01*
X-111696000Y50016600D02*
X-112518000Y50838600D01*
X32562800Y31953200D02*
X32562800Y34798000D01*
D36*
X20015200Y32512000D02*
X28194000Y32512000D01*
D33*
X36433480Y13276520D02*
X30821400Y18888600D01*
X30821400Y18888600D02*
X25215393Y18888600D01*
D36*
X29565600Y35712400D02*
X29870400Y36017200D01*
D38*
X18694400Y36830000D02*
X18694400Y41046400D01*
D36*
X20015200Y25247600D02*
X20015200Y32512000D01*
D38*
X18668400Y44216600D02*
X18668400Y41072400D01*
X18694400Y33832800D02*
X18694400Y36830000D01*
D33*
X37444687Y13276520D02*
X36433480Y13276520D01*
X25215393Y18888600D02*
X24937093Y19166900D01*
D36*
X29565600Y33883600D02*
X29565600Y35712400D01*
X20015200Y32512000D02*
X18694400Y33832800D01*
D38*
X18668400Y41072400D02*
X18694400Y41046400D01*
D36*
X28194000Y32512000D02*
X29565600Y33883600D01*
D40*
X-806600Y-16133400D02*
X-781600Y-16108400D01*
X-781600Y-16108400D02*
X9418400Y-16108400D01*
X9758800Y-15768000D02*
X12972800Y-15768000D01*
X9418400Y-16108400D02*
X9758800Y-15768000D01*
X12972800Y-15768000D02*
X13972800Y-16768000D01*
D33*
X-54254400Y60410800D02*
X-57191200Y60410800D01*
X-100283051Y59830200D02*
X-100605400Y59830200D01*
X88041600Y59942041D02*
X87776041Y60207600D01*
X87776041Y60207600D02*
X59740800Y60207600D01*
X-57191200Y60410800D02*
X-99702451Y60410800D01*
X-54051200Y60207600D02*
X55880000Y60207600D01*
X-54254400Y60410800D02*
X-54051200Y60207600D01*
X-99702451Y60410800D02*
X-100283051Y59830200D01*
X59740800Y60207600D02*
X55880000Y60207600D01*
X-89552400Y52341600D02*
X-89560400Y52333600D01*
X-108533800Y52333600D02*
X-109317600Y51549800D01*
X-89560400Y52333600D02*
X-108533800Y52333600D01*
X-7418549Y52130400D02*
X-7629749Y52341600D01*
X46019600Y51261600D02*
X46019600Y37536000D01*
X88032959Y52130400D02*
X46888400Y52130400D01*
X46019600Y37536000D02*
X45923200Y37439600D01*
X46888400Y52130400D02*
X46019600Y51261600D01*
X88337759Y51825600D02*
X88032959Y52130400D01*
X46888400Y52130400D02*
X-7418549Y52130400D01*
X-7629749Y52341600D02*
X-89552400Y52341600D01*
D40*
X23643400Y-15083400D02*
X23128000Y-14568000D01*
X23128000Y-14568000D02*
X2054400Y-14568000D01*
X24643400Y-15083400D02*
X23643400Y-15083400D01*
X2054400Y-14568000D02*
X2029000Y-14593400D01*
X-1556600Y-13683400D02*
X-1522000Y-13718000D01*
X-1531600Y-13708400D02*
X-1556600Y-13708400D01*
X-1531600Y-13708400D02*
X-1531600Y-13708400D01*
X-1522000Y-13718000D02*
X24622800Y-13718000D01*
X22453724Y-7670676D02*
X28600524Y-7670676D01*
X28600524Y-7670676D02*
X31840400Y-4430800D01*
X31840400Y-4430800D02*
X33183600Y-4430800D01*
X33183600Y-4430800D02*
X33731200Y-4978400D01*
X6693400Y-10018000D02*
X3285106Y-10018000D01*
X6718400Y-10043000D02*
X6693400Y-10018000D01*
X3285106Y-10018000D02*
X2974583Y-10328523D01*
X1772954Y-10858400D02*
X1508477Y-11122877D01*
X4218400Y-10858400D02*
X1772954Y-10858400D01*
X4518400Y-10558400D02*
X4218400Y-10858400D01*
X7618400Y-10558400D02*
X4518400Y-10558400D01*
X-826600Y-12593400D02*
X4318000Y-12593400D01*
X4318000Y-12593400D02*
X4343400Y-12568000D01*
X-1231600Y-12188400D02*
X-826600Y-12593400D01*
X-1231600Y-11808400D02*
X-1231600Y-12188400D01*
X14478000Y-3318000D02*
X4072800Y-3318000D01*
X14518400Y-3358400D02*
X14478000Y-3318000D01*
X-1831500Y-9258400D02*
X7618400Y-9258400D01*
X-1931500Y-9158400D02*
X-1831500Y-9258400D01*
X-1981600Y-9158400D02*
X-1931500Y-9158400D01*
X7618400Y-9258400D02*
X7718400Y-9158400D01*
X13318400Y-2458400D02*
X12378000Y-1518000D01*
X20518400Y-1858400D02*
X19918400Y-2458400D01*
X19918400Y-2458400D02*
X13318400Y-2458400D01*
X-745600Y-1518000D02*
X-1171000Y-1943400D01*
X20518400Y-1258400D02*
X20518400Y-1858400D01*
X12378000Y-1518000D02*
X-745600Y-1518000D01*
X19343400Y-808400D02*
X18683800Y-1468000D01*
X14022800Y-1468000D02*
X13522800Y-968000D01*
X-1179848Y-968000D02*
X-1249886Y-897962D01*
X18683800Y-1468000D02*
X14022800Y-1468000D01*
X13522800Y-968000D02*
X-1179848Y-968000D01*
X14341200Y-168000D02*
X-1144707Y-168000D01*
X14531600Y-358400D02*
X14341200Y-168000D01*
X17418400Y-358400D02*
X14531600Y-358400D01*
X-1144707Y-168000D02*
X-1257457Y-55250D01*
X-1054752Y834794D02*
X-795779Y575821D01*
X17243400Y532000D02*
X-751958Y532000D01*
X19542400Y4232000D02*
X19812000Y3962400D01*
X7909200Y4232000D02*
X19542400Y4232000D01*
X5918200Y6223000D02*
X7909200Y4232000D01*
X22163000Y-9158200D02*
X30618200Y-9158200D01*
X21488400Y-8483600D02*
X22163000Y-9158200D01*
X30618200Y-9158200D02*
X30886400Y-8890000D01*
X8757000Y4832000D02*
X19022800Y4832000D01*
X6544431Y7044569D02*
X8757000Y4832000D01*
X19022800Y4832000D02*
X19072800Y4782000D01*
X6522633Y7044569D02*
X6544431Y7044569D01*
X-9671000Y-358400D02*
X-9289640Y22960D01*
X-9289640Y22960D02*
X-8037360Y22960D01*
X6808400Y-5768400D02*
X6818400Y-5758400D01*
X-2246000Y-5768400D02*
X6808400Y-5768400D01*
X-8037360Y22960D02*
X-2246000Y-5768400D01*
X-1971000Y-7743400D02*
X-802600Y-7743400D01*
X-777200Y-7718000D02*
X3901048Y-7718000D01*
X6827609Y-7563191D02*
X6815586Y-7563191D01*
X6822800Y-7568000D02*
X6827609Y-7563191D01*
X-802600Y-7743400D02*
X-777200Y-7718000D01*
X3901048Y-7718000D02*
X4051048Y-7568000D01*
X-9656600Y-1658400D02*
X-8056000Y-1658400D01*
X-8056000Y-1658400D02*
X-1971000Y-7743400D01*
X4051048Y-7568000D02*
X6822800Y-7568000D01*
X7594726Y-8157074D02*
X-2907326Y-8157074D01*
X-8506000Y-2558400D02*
X-9621000Y-2558400D01*
X7643400Y-8108400D02*
X7594726Y-8157074D01*
X-2907326Y-8157074D02*
X-8506000Y-2558400D01*
X-9581600Y-4058400D02*
X-9156600Y-4058400D01*
X-4656600Y-8558400D02*
X6684274Y-8558400D01*
X-9156600Y-4058400D02*
X-4656600Y-8558400D01*
X6684274Y-8558400D02*
X6831819Y-8705945D01*
X41957000Y-22869800D02*
X51726000Y-22869800D01*
X38968400Y-25858400D02*
X41957000Y-22869800D01*
X21468400Y-25858400D02*
X38968400Y-25858400D01*
X40743400Y-26558400D02*
X42518400Y-24783400D01*
X42518400Y-24783400D02*
X51099600Y-24783400D01*
X20593400Y-26558400D02*
X40743400Y-26558400D01*
X20168400Y-26133400D02*
X20593400Y-26558400D01*
X22245599Y23216601D02*
X26911601Y23216601D01*
X27664200Y23969200D02*
X27664200Y26052000D01*
X26911601Y23216601D02*
X27664200Y23969200D01*
X31118600Y29506400D02*
X31118600Y38357201D01*
X27664200Y26052000D02*
X31118600Y29506400D01*
X21945600Y23516600D02*
X22245599Y23216601D01*
X31118600Y38357201D02*
X36017200Y43255801D01*
X35603597Y42205801D02*
X36017200Y42205801D01*
X21945600Y22466600D02*
X22245599Y22766599D01*
X28114200Y25865600D02*
X31568600Y29320000D01*
X31568600Y29320000D02*
X31568600Y38170804D01*
X22245599Y22766599D02*
X27097999Y22766599D01*
X27097999Y22766599D02*
X28114200Y23782800D01*
X28114200Y23782800D02*
X28114200Y25865600D01*
X31568600Y38170804D02*
X35603597Y42205801D01*
X61916800Y33150600D02*
X64162696Y35396496D01*
X63345091Y40808309D02*
X62418615Y40808309D01*
X29201599Y20298199D02*
X36415200Y27511800D01*
X22194799Y20298199D02*
X29201599Y20298199D01*
X62418615Y40808309D02*
X62118616Y41108308D01*
X44238400Y27511800D02*
X49877200Y33150600D01*
X21894800Y19998200D02*
X22194799Y20298199D01*
X64162696Y35396496D02*
X64162696Y39990704D01*
X36415200Y27511800D02*
X44238400Y27511800D01*
X49877200Y33150600D02*
X61916800Y33150600D01*
X64162696Y39990704D02*
X63345091Y40808309D01*
X44052000Y27961800D02*
X49690800Y33600600D01*
X62418615Y40358307D02*
X62118616Y40058308D01*
X49690800Y33600600D02*
X61730400Y33600600D01*
X63158693Y40358307D02*
X62418615Y40358307D01*
X21894800Y21048200D02*
X22194799Y20748201D01*
X61730400Y33600600D02*
X63712696Y35582896D01*
X22194799Y20748201D02*
X29015201Y20748201D01*
X63712696Y39804304D02*
X63158693Y40358307D01*
X63712696Y35582896D02*
X63712696Y39804304D01*
X36228800Y27961800D02*
X44052000Y27961800D01*
X29015201Y20748201D02*
X36228800Y27961800D01*
X-8925168Y41247367D02*
X8887767Y23434432D01*
X-8925168Y41671632D02*
X-8925168Y41247367D01*
X8887767Y23434432D02*
X9312032Y23434432D01*
X-9667632Y40929168D02*
X-9243367Y40929168D01*
X8569568Y23116233D02*
X8569568Y22691968D01*
X-9243367Y40929168D02*
X8569568Y23116233D01*
X-74684400Y37461400D02*
X-79226200Y42003200D01*
X10393801Y20418001D02*
X8144999Y20418001D01*
X-8898400Y37461400D02*
X-74684400Y37461400D01*
X10718800Y20743000D02*
X10393801Y20418001D01*
X-78798003Y44863600D02*
X-78384400Y44863600D01*
X8144999Y20418001D02*
X-8898400Y37461400D01*
X-79226200Y42003200D02*
X-79226200Y44435403D01*
X-79226200Y44435403D02*
X-78798003Y44863600D01*
X10393801Y19967999D02*
X7958601Y19967999D01*
X7958601Y19967999D02*
X-9084800Y37011400D01*
X-79676200Y41816800D02*
X-79676200Y44621800D01*
X-9084800Y37011400D02*
X-74870800Y37011400D01*
X10718800Y19643000D02*
X10393801Y19967999D01*
X-79676200Y44621800D02*
X-78384400Y45913600D01*
X-74870800Y37011400D02*
X-79676200Y41816800D01*
X-42292650Y23216600D02*
X-34006600Y14930550D01*
X-42556600Y23216600D02*
X-42292650Y23216600D01*
X-34006600Y14930550D02*
X-34006600Y9316600D01*
X-1531600Y-7108400D02*
X-1341200Y-6918000D01*
X-1341200Y-6918000D02*
X1679100Y-6918000D01*
X22172800Y-6168000D02*
X21422800Y-6918000D01*
X21422800Y-6918000D02*
X1679100Y-6918000D01*
X11622800Y-6418000D02*
X11822800Y-6218000D01*
X-1031600Y-6333400D02*
X-947000Y-6418000D01*
X-947000Y-6418000D02*
X11622800Y-6418000D01*
X28998582Y7577418D02*
X21002376Y7577418D01*
X30433898Y6142102D02*
X28998582Y7577418D01*
X30433898Y3662298D02*
X30433898Y6142102D01*
X21178800Y-10358400D02*
X30718400Y-10358400D01*
X30718400Y-10358400D02*
X32715200Y-8361600D01*
X19710400Y-8890000D02*
X21178800Y-10358400D01*
X32715200Y-8361600D02*
X32715200Y-5130800D01*
X30530800Y-11684000D02*
X8802100Y-11684000D01*
X8802100Y-11684000D02*
X7467600Y-13018500D01*
D35*
X-15881600Y13641600D02*
X-15881600Y2788731D01*
X-16762499Y14522499D02*
X-15881600Y13641600D01*
X-16762499Y14919784D02*
X-16762499Y14522499D01*
X-15881600Y2788731D02*
X-15381600Y2288731D01*
X-15381600Y2288731D02*
X-15381600Y-17384400D01*
X-15381600Y-17384400D02*
X-15040600Y-17725400D01*
X-19329505Y12864505D02*
X-20381600Y13916600D01*
X-19329505Y-15976495D02*
X-19329505Y12864505D01*
X-17580600Y-17725400D02*
X-19329505Y-15976495D01*
D40*
X24993600Y13392082D02*
X24993600Y14528800D01*
X23798520Y12197002D02*
X24993600Y13392082D01*
X12789600Y-5068000D02*
X13192720Y-5471120D01*
X-1072000Y-5068000D02*
X12789600Y-5068000D01*
X-1081600Y-5058400D02*
X-1072000Y-5068000D01*
X13192720Y-5471120D02*
X25458496Y-5471120D01*
X1629000Y-3781200D02*
X1629000Y-4043400D01*
X10293400Y-2133400D02*
X10283800Y-2143000D01*
X10283800Y-2143000D02*
X3267200Y-2143000D01*
X3267200Y-2143000D02*
X1629000Y-3781200D01*
X15993400Y-21082000D02*
X-3413200Y-21082000D01*
X-3413200Y-21082000D02*
X-3438600Y-21107400D01*
X-3438600Y-21107400D02*
X-4607000Y-21107400D01*
X-9321000Y-5894000D02*
X-9406600Y-5808400D01*
X-4607000Y-21107400D02*
X-9321000Y-16393400D01*
X-9321000Y-16393400D02*
X-9321000Y-5894000D01*
X7506400Y1282000D02*
X20336768Y1282000D01*
X21886768Y-268000D02*
X23272800Y-268000D01*
X4732600Y4055800D02*
X7506400Y1282000D01*
X20336768Y1282000D02*
X21886768Y-268000D01*
X19718400Y-27083400D02*
X52592400Y-27083400D01*
X52592400Y-27083400D02*
X54266000Y-25409800D01*
X18743400Y-26108400D02*
X19718400Y-27083400D01*
X17493400Y-26283400D02*
X18768400Y-27558400D01*
X54657400Y-27558400D02*
X56806000Y-25409800D01*
X18768400Y-27558400D02*
X54657400Y-27558400D01*
D41*
X-137081600Y-18358400D02*
X-137081600Y-19358400D01*
X-137881600Y-19858400D02*
X-137881600Y-18958400D01*
D35*
X-34961600Y-2500400D02*
X-34961600Y14895600D01*
X-34961600Y14895600D02*
X-38049200Y17983200D01*
X-38506400Y-6045200D02*
X-34961600Y-2500400D01*
D40*
X-36169600Y-1574800D02*
X-36169600Y1422400D01*
X-41656000Y-7061200D02*
X-36169600Y-1574800D01*
X-45931600Y2366600D02*
X-45931600Y-1158400D01*
X-45931600Y-1158400D02*
X-44297600Y-2792400D01*
X-44297600Y-2792400D02*
X-44297600Y-4114800D01*
X-33731200Y-2794000D02*
X-33731200Y863600D01*
X-38404800Y-7467600D02*
X-33731200Y-2794000D01*
X-42418000Y-6146800D02*
X-42316400Y-6146800D01*
X-36931600Y-762000D02*
X-36931600Y6400800D01*
X-36931600Y6400800D02*
X-38100000Y7569200D01*
X-42316400Y-6146800D02*
X-36931600Y-762000D01*
X-38506400Y-8737600D02*
X-28803600Y965200D01*
X-28803600Y965200D02*
X-24892000Y965200D01*
X-34188400Y29921200D02*
X-52367200Y29921200D01*
X-28803600Y24536400D02*
X-34188400Y29921200D01*
X-52367200Y29921200D02*
X-53474000Y28814400D01*
X-53474000Y18654400D02*
X-51522000Y18654400D01*
X-51522000Y18654400D02*
X-42367200Y9499600D01*
X-41249600Y7416800D02*
X-43637200Y7416800D01*
X-43648400Y7428000D02*
X-47407600Y7428000D01*
X-38874354Y9792046D02*
X-41249600Y7416800D01*
X-43637200Y7416800D02*
X-43648400Y7428000D01*
X-36224518Y9792046D02*
X-38874354Y9792046D01*
X-47407600Y7428000D02*
X-53474000Y13494400D01*
X-38707867Y8771903D02*
X-40672570Y6807200D01*
X-40672570Y6807200D02*
X-49246800Y6807200D01*
X-49246800Y6807200D02*
X-53474000Y11034400D01*
X-36728400Y8771903D02*
X-38707867Y8771903D01*
X-37958800Y5142000D02*
X-52661600Y5142000D01*
X-37896800Y5080000D02*
X-37958800Y5142000D01*
X-52661600Y5142000D02*
X-53474000Y5954400D01*
X-48209200Y13665200D02*
X-48107600Y13766800D01*
X-51702700Y13665200D02*
X-48209200Y13665200D01*
X8543400Y-4583400D02*
X20332657Y-4583400D01*
X8143400Y-4183400D02*
X8543400Y-4583400D01*
X20332657Y-4583400D02*
X26009600Y1093543D01*
X26009600Y1093543D02*
X26009600Y4184252D01*
X26009600Y4184252D02*
X26010698Y4185350D01*
X25704800Y6299200D02*
X26974800Y5029200D01*
X26974800Y5029200D02*
X26974800Y-508000D01*
X23164800Y-4318000D02*
X23164800Y-4368500D01*
X26974800Y-508000D02*
X23164800Y-4318000D01*
X24688800Y-4064000D02*
X24638000Y-4064000D01*
X25095200Y-3657600D02*
X24688800Y-4064000D01*
X27381200Y-1371600D02*
X25095200Y-3657600D01*
X27381200Y5943600D02*
X27381200Y-1371600D01*
D35*
X-130149600Y-17932400D02*
X-129641600Y-18440400D01*
X-130149600Y-17932400D02*
X-130175521Y-17932400D01*
X-130175521Y-17932400D02*
X-130673153Y-17434768D01*
X-129641600Y-18440400D02*
X-129641600Y-20980400D01*
M02*
