G04 #@! TF.GenerationSoftware,KiCad,Pcbnew,7.0.2*
G04 #@! TF.CreationDate,2024-03-01T18:45:41+01:00*
G04 #@! TF.ProjectId,stm_audio_board_V3,73746d5f-6175-4646-996f-5f626f617264,rev?*
G04 #@! TF.SameCoordinates,Original*
G04 #@! TF.FileFunction,Legend,Bot*
G04 #@! TF.FilePolarity,Positive*
%FSLAX46Y46*%
G04 Gerber Fmt 4.6, Leading zero omitted, Abs format (unit mm)*
G04 Created by KiCad (PCBNEW 7.0.2) date 2024-03-01 18:45:41*
%MOMM*%
%LPD*%
G01*
G04 APERTURE LIST*
G04 Aperture macros list*
%AMRoundRect*
0 Rectangle with rounded corners*
0 $1 Rounding radius*
0 $2 $3 $4 $5 $6 $7 $8 $9 X,Y pos of 4 corners*
0 Add a 4 corners polygon primitive as box body*
4,1,4,$2,$3,$4,$5,$6,$7,$8,$9,$2,$3,0*
0 Add four circle primitives for the rounded corners*
1,1,$1+$1,$2,$3*
1,1,$1+$1,$4,$5*
1,1,$1+$1,$6,$7*
1,1,$1+$1,$8,$9*
0 Add four rect primitives between the rounded corners*
20,1,$1+$1,$2,$3,$4,$5,0*
20,1,$1+$1,$4,$5,$6,$7,0*
20,1,$1+$1,$6,$7,$8,$9,0*
20,1,$1+$1,$8,$9,$2,$3,0*%
G04 Aperture macros list end*
%ADD10C,0.150000*%
%ADD11C,0.120000*%
%ADD12R,1.524000X1.524000*%
%ADD13C,1.524000*%
%ADD14C,3.500000*%
%ADD15C,1.600000*%
%ADD16R,2.000000X4.000000*%
%ADD17O,2.000000X3.300000*%
%ADD18O,3.500000X2.000000*%
%ADD19C,3.000000*%
%ADD20RoundRect,0.250000X-0.350000X-0.450000X0.350000X-0.450000X0.350000X0.450000X-0.350000X0.450000X0*%
%ADD21RoundRect,0.237500X-0.300000X-0.237500X0.300000X-0.237500X0.300000X0.237500X-0.300000X0.237500X0*%
%ADD22RoundRect,0.250000X-0.475000X0.337500X-0.475000X-0.337500X0.475000X-0.337500X0.475000X0.337500X0*%
%ADD23RoundRect,0.250000X-0.450000X0.350000X-0.450000X-0.350000X0.450000X-0.350000X0.450000X0.350000X0*%
%ADD24RoundRect,0.250000X0.350000X0.450000X-0.350000X0.450000X-0.350000X-0.450000X0.350000X-0.450000X0*%
%ADD25RoundRect,0.250000X0.450000X-0.350000X0.450000X0.350000X-0.450000X0.350000X-0.450000X-0.350000X0*%
%ADD26RoundRect,0.237500X0.237500X-0.300000X0.237500X0.300000X-0.237500X0.300000X-0.237500X-0.300000X0*%
%ADD27RoundRect,0.237500X0.300000X0.237500X-0.300000X0.237500X-0.300000X-0.237500X0.300000X-0.237500X0*%
%ADD28RoundRect,0.237500X-0.237500X0.300000X-0.237500X-0.300000X0.237500X-0.300000X0.237500X0.300000X0*%
%ADD29R,2.000000X1.905000*%
%ADD30O,2.000000X1.905000*%
%ADD31O,1.500000X1.050000*%
%ADD32R,1.500000X1.050000*%
%ADD33R,1.600000X1.600000*%
G04 APERTURE END LIST*
D10*
X74077742Y-77012825D02*
X74030123Y-76965206D01*
X74030123Y-76965206D02*
X73887266Y-76917586D01*
X73887266Y-76917586D02*
X73792028Y-76917586D01*
X73792028Y-76917586D02*
X73649171Y-76965206D01*
X73649171Y-76965206D02*
X73553933Y-77060444D01*
X73553933Y-77060444D02*
X73506314Y-77155682D01*
X73506314Y-77155682D02*
X73458695Y-77346158D01*
X73458695Y-77346158D02*
X73458695Y-77489015D01*
X73458695Y-77489015D02*
X73506314Y-77679491D01*
X73506314Y-77679491D02*
X73553933Y-77774729D01*
X73553933Y-77774729D02*
X73649171Y-77869967D01*
X73649171Y-77869967D02*
X73792028Y-77917586D01*
X73792028Y-77917586D02*
X73887266Y-77917586D01*
X73887266Y-77917586D02*
X74030123Y-77869967D01*
X74030123Y-77869967D02*
X74077742Y-77822348D01*
X74411076Y-77917586D02*
X75030123Y-77917586D01*
X75030123Y-77917586D02*
X74696790Y-77536634D01*
X74696790Y-77536634D02*
X74839647Y-77536634D01*
X74839647Y-77536634D02*
X74934885Y-77489015D01*
X74934885Y-77489015D02*
X74982504Y-77441396D01*
X74982504Y-77441396D02*
X75030123Y-77346158D01*
X75030123Y-77346158D02*
X75030123Y-77108063D01*
X75030123Y-77108063D02*
X74982504Y-77012825D01*
X74982504Y-77012825D02*
X74934885Y-76965206D01*
X74934885Y-76965206D02*
X74839647Y-76917586D01*
X74839647Y-76917586D02*
X74553933Y-76917586D01*
X74553933Y-76917586D02*
X74458695Y-76965206D01*
X74458695Y-76965206D02*
X74411076Y-77012825D01*
X75411076Y-77822348D02*
X75458695Y-77869967D01*
X75458695Y-77869967D02*
X75553933Y-77917586D01*
X75553933Y-77917586D02*
X75792028Y-77917586D01*
X75792028Y-77917586D02*
X75887266Y-77869967D01*
X75887266Y-77869967D02*
X75934885Y-77822348D01*
X75934885Y-77822348D02*
X75982504Y-77727110D01*
X75982504Y-77727110D02*
X75982504Y-77631872D01*
X75982504Y-77631872D02*
X75934885Y-77489015D01*
X75934885Y-77489015D02*
X75363457Y-76917586D01*
X75363457Y-76917586D02*
X75982504Y-76917586D01*
X124511569Y-76797516D02*
X124463950Y-76749897D01*
X124463950Y-76749897D02*
X124321093Y-76702277D01*
X124321093Y-76702277D02*
X124225855Y-76702277D01*
X124225855Y-76702277D02*
X124082998Y-76749897D01*
X124082998Y-76749897D02*
X123987760Y-76845135D01*
X123987760Y-76845135D02*
X123940141Y-76940373D01*
X123940141Y-76940373D02*
X123892522Y-77130849D01*
X123892522Y-77130849D02*
X123892522Y-77273706D01*
X123892522Y-77273706D02*
X123940141Y-77464182D01*
X123940141Y-77464182D02*
X123987760Y-77559420D01*
X123987760Y-77559420D02*
X124082998Y-77654658D01*
X124082998Y-77654658D02*
X124225855Y-77702277D01*
X124225855Y-77702277D02*
X124321093Y-77702277D01*
X124321093Y-77702277D02*
X124463950Y-77654658D01*
X124463950Y-77654658D02*
X124511569Y-77607039D01*
X124844903Y-77702277D02*
X125463950Y-77702277D01*
X125463950Y-77702277D02*
X125130617Y-77321325D01*
X125130617Y-77321325D02*
X125273474Y-77321325D01*
X125273474Y-77321325D02*
X125368712Y-77273706D01*
X125368712Y-77273706D02*
X125416331Y-77226087D01*
X125416331Y-77226087D02*
X125463950Y-77130849D01*
X125463950Y-77130849D02*
X125463950Y-76892754D01*
X125463950Y-76892754D02*
X125416331Y-76797516D01*
X125416331Y-76797516D02*
X125368712Y-76749897D01*
X125368712Y-76749897D02*
X125273474Y-76702277D01*
X125273474Y-76702277D02*
X124987760Y-76702277D01*
X124987760Y-76702277D02*
X124892522Y-76749897D01*
X124892522Y-76749897D02*
X124844903Y-76797516D01*
X125844903Y-77607039D02*
X125892522Y-77654658D01*
X125892522Y-77654658D02*
X125987760Y-77702277D01*
X125987760Y-77702277D02*
X126225855Y-77702277D01*
X126225855Y-77702277D02*
X126321093Y-77654658D01*
X126321093Y-77654658D02*
X126368712Y-77607039D01*
X126368712Y-77607039D02*
X126416331Y-77511801D01*
X126416331Y-77511801D02*
X126416331Y-77416563D01*
X126416331Y-77416563D02*
X126368712Y-77273706D01*
X126368712Y-77273706D02*
X125797284Y-76702277D01*
X125797284Y-76702277D02*
X126416331Y-76702277D01*
X174450742Y-77322825D02*
X174403123Y-77275206D01*
X174403123Y-77275206D02*
X174260266Y-77227586D01*
X174260266Y-77227586D02*
X174165028Y-77227586D01*
X174165028Y-77227586D02*
X174022171Y-77275206D01*
X174022171Y-77275206D02*
X173926933Y-77370444D01*
X173926933Y-77370444D02*
X173879314Y-77465682D01*
X173879314Y-77465682D02*
X173831695Y-77656158D01*
X173831695Y-77656158D02*
X173831695Y-77799015D01*
X173831695Y-77799015D02*
X173879314Y-77989491D01*
X173879314Y-77989491D02*
X173926933Y-78084729D01*
X173926933Y-78084729D02*
X174022171Y-78179967D01*
X174022171Y-78179967D02*
X174165028Y-78227586D01*
X174165028Y-78227586D02*
X174260266Y-78227586D01*
X174260266Y-78227586D02*
X174403123Y-78179967D01*
X174403123Y-78179967D02*
X174450742Y-78132348D01*
X174784076Y-78227586D02*
X175403123Y-78227586D01*
X175403123Y-78227586D02*
X175069790Y-77846634D01*
X175069790Y-77846634D02*
X175212647Y-77846634D01*
X175212647Y-77846634D02*
X175307885Y-77799015D01*
X175307885Y-77799015D02*
X175355504Y-77751396D01*
X175355504Y-77751396D02*
X175403123Y-77656158D01*
X175403123Y-77656158D02*
X175403123Y-77418063D01*
X175403123Y-77418063D02*
X175355504Y-77322825D01*
X175355504Y-77322825D02*
X175307885Y-77275206D01*
X175307885Y-77275206D02*
X175212647Y-77227586D01*
X175212647Y-77227586D02*
X174926933Y-77227586D01*
X174926933Y-77227586D02*
X174831695Y-77275206D01*
X174831695Y-77275206D02*
X174784076Y-77322825D01*
X175784076Y-78132348D02*
X175831695Y-78179967D01*
X175831695Y-78179967D02*
X175926933Y-78227586D01*
X175926933Y-78227586D02*
X176165028Y-78227586D01*
X176165028Y-78227586D02*
X176260266Y-78179967D01*
X176260266Y-78179967D02*
X176307885Y-78132348D01*
X176307885Y-78132348D02*
X176355504Y-78037110D01*
X176355504Y-78037110D02*
X176355504Y-77941872D01*
X176355504Y-77941872D02*
X176307885Y-77799015D01*
X176307885Y-77799015D02*
X175736457Y-77227586D01*
X175736457Y-77227586D02*
X176355504Y-77227586D01*
X226077742Y-77312825D02*
X226030123Y-77265206D01*
X226030123Y-77265206D02*
X225887266Y-77217586D01*
X225887266Y-77217586D02*
X225792028Y-77217586D01*
X225792028Y-77217586D02*
X225649171Y-77265206D01*
X225649171Y-77265206D02*
X225553933Y-77360444D01*
X225553933Y-77360444D02*
X225506314Y-77455682D01*
X225506314Y-77455682D02*
X225458695Y-77646158D01*
X225458695Y-77646158D02*
X225458695Y-77789015D01*
X225458695Y-77789015D02*
X225506314Y-77979491D01*
X225506314Y-77979491D02*
X225553933Y-78074729D01*
X225553933Y-78074729D02*
X225649171Y-78169967D01*
X225649171Y-78169967D02*
X225792028Y-78217586D01*
X225792028Y-78217586D02*
X225887266Y-78217586D01*
X225887266Y-78217586D02*
X226030123Y-78169967D01*
X226030123Y-78169967D02*
X226077742Y-78122348D01*
X226411076Y-78217586D02*
X227030123Y-78217586D01*
X227030123Y-78217586D02*
X226696790Y-77836634D01*
X226696790Y-77836634D02*
X226839647Y-77836634D01*
X226839647Y-77836634D02*
X226934885Y-77789015D01*
X226934885Y-77789015D02*
X226982504Y-77741396D01*
X226982504Y-77741396D02*
X227030123Y-77646158D01*
X227030123Y-77646158D02*
X227030123Y-77408063D01*
X227030123Y-77408063D02*
X226982504Y-77312825D01*
X226982504Y-77312825D02*
X226934885Y-77265206D01*
X226934885Y-77265206D02*
X226839647Y-77217586D01*
X226839647Y-77217586D02*
X226553933Y-77217586D01*
X226553933Y-77217586D02*
X226458695Y-77265206D01*
X226458695Y-77265206D02*
X226411076Y-77312825D01*
X227411076Y-78122348D02*
X227458695Y-78169967D01*
X227458695Y-78169967D02*
X227553933Y-78217586D01*
X227553933Y-78217586D02*
X227792028Y-78217586D01*
X227792028Y-78217586D02*
X227887266Y-78169967D01*
X227887266Y-78169967D02*
X227934885Y-78122348D01*
X227934885Y-78122348D02*
X227982504Y-78027110D01*
X227982504Y-78027110D02*
X227982504Y-77931872D01*
X227982504Y-77931872D02*
X227934885Y-77789015D01*
X227934885Y-77789015D02*
X227363457Y-77217586D01*
X227363457Y-77217586D02*
X227982504Y-77217586D01*
X85521458Y-63067219D02*
X85854791Y-62591028D01*
X86092886Y-63067219D02*
X86092886Y-62067219D01*
X86092886Y-62067219D02*
X85711934Y-62067219D01*
X85711934Y-62067219D02*
X85616696Y-62114838D01*
X85616696Y-62114838D02*
X85569077Y-62162457D01*
X85569077Y-62162457D02*
X85521458Y-62257695D01*
X85521458Y-62257695D02*
X85521458Y-62400552D01*
X85521458Y-62400552D02*
X85569077Y-62495790D01*
X85569077Y-62495790D02*
X85616696Y-62543409D01*
X85616696Y-62543409D02*
X85711934Y-62591028D01*
X85711934Y-62591028D02*
X86092886Y-62591028D01*
X85140505Y-62162457D02*
X85092886Y-62114838D01*
X85092886Y-62114838D02*
X84997648Y-62067219D01*
X84997648Y-62067219D02*
X84759553Y-62067219D01*
X84759553Y-62067219D02*
X84664315Y-62114838D01*
X84664315Y-62114838D02*
X84616696Y-62162457D01*
X84616696Y-62162457D02*
X84569077Y-62257695D01*
X84569077Y-62257695D02*
X84569077Y-62352933D01*
X84569077Y-62352933D02*
X84616696Y-62495790D01*
X84616696Y-62495790D02*
X85188124Y-63067219D01*
X85188124Y-63067219D02*
X84569077Y-63067219D01*
X84188124Y-62162457D02*
X84140505Y-62114838D01*
X84140505Y-62114838D02*
X84045267Y-62067219D01*
X84045267Y-62067219D02*
X83807172Y-62067219D01*
X83807172Y-62067219D02*
X83711934Y-62114838D01*
X83711934Y-62114838D02*
X83664315Y-62162457D01*
X83664315Y-62162457D02*
X83616696Y-62257695D01*
X83616696Y-62257695D02*
X83616696Y-62352933D01*
X83616696Y-62352933D02*
X83664315Y-62495790D01*
X83664315Y-62495790D02*
X84235743Y-63067219D01*
X84235743Y-63067219D02*
X83616696Y-63067219D01*
X81709057Y-63444250D02*
X81756676Y-63491870D01*
X81756676Y-63491870D02*
X81899533Y-63539489D01*
X81899533Y-63539489D02*
X81994771Y-63539489D01*
X81994771Y-63539489D02*
X82137628Y-63491870D01*
X82137628Y-63491870D02*
X82232866Y-63396631D01*
X82232866Y-63396631D02*
X82280485Y-63301393D01*
X82280485Y-63301393D02*
X82328104Y-63110917D01*
X82328104Y-63110917D02*
X82328104Y-62968060D01*
X82328104Y-62968060D02*
X82280485Y-62777584D01*
X82280485Y-62777584D02*
X82232866Y-62682346D01*
X82232866Y-62682346D02*
X82137628Y-62587108D01*
X82137628Y-62587108D02*
X81994771Y-62539489D01*
X81994771Y-62539489D02*
X81899533Y-62539489D01*
X81899533Y-62539489D02*
X81756676Y-62587108D01*
X81756676Y-62587108D02*
X81709057Y-62634727D01*
X80851914Y-62872822D02*
X80851914Y-63539489D01*
X81090009Y-62491870D02*
X81328104Y-63206155D01*
X81328104Y-63206155D02*
X80709057Y-63206155D01*
X79899533Y-62872822D02*
X79899533Y-63539489D01*
X80137628Y-62491870D02*
X80375723Y-63206155D01*
X80375723Y-63206155D02*
X79756676Y-63206155D01*
X78053976Y-57587742D02*
X78101596Y-57540123D01*
X78101596Y-57540123D02*
X78149215Y-57397266D01*
X78149215Y-57397266D02*
X78149215Y-57302028D01*
X78149215Y-57302028D02*
X78101596Y-57159171D01*
X78101596Y-57159171D02*
X78006357Y-57063933D01*
X78006357Y-57063933D02*
X77911119Y-57016314D01*
X77911119Y-57016314D02*
X77720643Y-56968695D01*
X77720643Y-56968695D02*
X77577786Y-56968695D01*
X77577786Y-56968695D02*
X77387310Y-57016314D01*
X77387310Y-57016314D02*
X77292072Y-57063933D01*
X77292072Y-57063933D02*
X77196834Y-57159171D01*
X77196834Y-57159171D02*
X77149215Y-57302028D01*
X77149215Y-57302028D02*
X77149215Y-57397266D01*
X77149215Y-57397266D02*
X77196834Y-57540123D01*
X77196834Y-57540123D02*
X77244453Y-57587742D01*
X77482548Y-58444885D02*
X78149215Y-58444885D01*
X77101596Y-58206790D02*
X77815881Y-57968695D01*
X77815881Y-57968695D02*
X77815881Y-58587742D01*
X77149215Y-59397266D02*
X77149215Y-59206790D01*
X77149215Y-59206790D02*
X77196834Y-59111552D01*
X77196834Y-59111552D02*
X77244453Y-59063933D01*
X77244453Y-59063933D02*
X77387310Y-58968695D01*
X77387310Y-58968695D02*
X77577786Y-58921076D01*
X77577786Y-58921076D02*
X77958738Y-58921076D01*
X77958738Y-58921076D02*
X78053976Y-58968695D01*
X78053976Y-58968695D02*
X78101596Y-59016314D01*
X78101596Y-59016314D02*
X78149215Y-59111552D01*
X78149215Y-59111552D02*
X78149215Y-59302028D01*
X78149215Y-59302028D02*
X78101596Y-59397266D01*
X78101596Y-59397266D02*
X78053976Y-59444885D01*
X78053976Y-59444885D02*
X77958738Y-59492504D01*
X77958738Y-59492504D02*
X77720643Y-59492504D01*
X77720643Y-59492504D02*
X77625405Y-59444885D01*
X77625405Y-59444885D02*
X77577786Y-59397266D01*
X77577786Y-59397266D02*
X77530167Y-59302028D01*
X77530167Y-59302028D02*
X77530167Y-59111552D01*
X77530167Y-59111552D02*
X77577786Y-59016314D01*
X77577786Y-59016314D02*
X77625405Y-58968695D01*
X77625405Y-58968695D02*
X77720643Y-58921076D01*
X74989853Y-61960381D02*
X75037472Y-62008001D01*
X75037472Y-62008001D02*
X75180329Y-62055620D01*
X75180329Y-62055620D02*
X75275567Y-62055620D01*
X75275567Y-62055620D02*
X75418424Y-62008001D01*
X75418424Y-62008001D02*
X75513662Y-61912762D01*
X75513662Y-61912762D02*
X75561281Y-61817524D01*
X75561281Y-61817524D02*
X75608900Y-61627048D01*
X75608900Y-61627048D02*
X75608900Y-61484191D01*
X75608900Y-61484191D02*
X75561281Y-61293715D01*
X75561281Y-61293715D02*
X75513662Y-61198477D01*
X75513662Y-61198477D02*
X75418424Y-61103239D01*
X75418424Y-61103239D02*
X75275567Y-61055620D01*
X75275567Y-61055620D02*
X75180329Y-61055620D01*
X75180329Y-61055620D02*
X75037472Y-61103239D01*
X75037472Y-61103239D02*
X74989853Y-61150858D01*
X74132710Y-61388953D02*
X74132710Y-62055620D01*
X74370805Y-61008001D02*
X74608900Y-61722286D01*
X74608900Y-61722286D02*
X73989853Y-61722286D01*
X73132710Y-61055620D02*
X73608900Y-61055620D01*
X73608900Y-61055620D02*
X73656519Y-61531810D01*
X73656519Y-61531810D02*
X73608900Y-61484191D01*
X73608900Y-61484191D02*
X73513662Y-61436572D01*
X73513662Y-61436572D02*
X73275567Y-61436572D01*
X73275567Y-61436572D02*
X73180329Y-61484191D01*
X73180329Y-61484191D02*
X73132710Y-61531810D01*
X73132710Y-61531810D02*
X73085091Y-61627048D01*
X73085091Y-61627048D02*
X73085091Y-61865143D01*
X73085091Y-61865143D02*
X73132710Y-61960381D01*
X73132710Y-61960381D02*
X73180329Y-62008001D01*
X73180329Y-62008001D02*
X73275567Y-62055620D01*
X73275567Y-62055620D02*
X73513662Y-62055620D01*
X73513662Y-62055620D02*
X73608900Y-62008001D01*
X73608900Y-62008001D02*
X73656519Y-61960381D01*
X75586823Y-57465742D02*
X75110632Y-57132409D01*
X75586823Y-56894314D02*
X74586823Y-56894314D01*
X74586823Y-56894314D02*
X74586823Y-57275266D01*
X74586823Y-57275266D02*
X74634442Y-57370504D01*
X74634442Y-57370504D02*
X74682061Y-57418123D01*
X74682061Y-57418123D02*
X74777299Y-57465742D01*
X74777299Y-57465742D02*
X74920156Y-57465742D01*
X74920156Y-57465742D02*
X75015394Y-57418123D01*
X75015394Y-57418123D02*
X75063013Y-57370504D01*
X75063013Y-57370504D02*
X75110632Y-57275266D01*
X75110632Y-57275266D02*
X75110632Y-56894314D01*
X74682061Y-57846695D02*
X74634442Y-57894314D01*
X74634442Y-57894314D02*
X74586823Y-57989552D01*
X74586823Y-57989552D02*
X74586823Y-58227647D01*
X74586823Y-58227647D02*
X74634442Y-58322885D01*
X74634442Y-58322885D02*
X74682061Y-58370504D01*
X74682061Y-58370504D02*
X74777299Y-58418123D01*
X74777299Y-58418123D02*
X74872537Y-58418123D01*
X74872537Y-58418123D02*
X75015394Y-58370504D01*
X75015394Y-58370504D02*
X75586823Y-57799076D01*
X75586823Y-57799076D02*
X75586823Y-58418123D01*
X74920156Y-59275266D02*
X75586823Y-59275266D01*
X74539204Y-59037171D02*
X75253489Y-58799076D01*
X75253489Y-58799076D02*
X75253489Y-59418123D01*
X80976023Y-57635342D02*
X80499832Y-57302009D01*
X80976023Y-57063914D02*
X79976023Y-57063914D01*
X79976023Y-57063914D02*
X79976023Y-57444866D01*
X79976023Y-57444866D02*
X80023642Y-57540104D01*
X80023642Y-57540104D02*
X80071261Y-57587723D01*
X80071261Y-57587723D02*
X80166499Y-57635342D01*
X80166499Y-57635342D02*
X80309356Y-57635342D01*
X80309356Y-57635342D02*
X80404594Y-57587723D01*
X80404594Y-57587723D02*
X80452213Y-57540104D01*
X80452213Y-57540104D02*
X80499832Y-57444866D01*
X80499832Y-57444866D02*
X80499832Y-57063914D01*
X80071261Y-58016295D02*
X80023642Y-58063914D01*
X80023642Y-58063914D02*
X79976023Y-58159152D01*
X79976023Y-58159152D02*
X79976023Y-58397247D01*
X79976023Y-58397247D02*
X80023642Y-58492485D01*
X80023642Y-58492485D02*
X80071261Y-58540104D01*
X80071261Y-58540104D02*
X80166499Y-58587723D01*
X80166499Y-58587723D02*
X80261737Y-58587723D01*
X80261737Y-58587723D02*
X80404594Y-58540104D01*
X80404594Y-58540104D02*
X80976023Y-57968676D01*
X80976023Y-57968676D02*
X80976023Y-58587723D01*
X79976023Y-58921057D02*
X79976023Y-59540104D01*
X79976023Y-59540104D02*
X80356975Y-59206771D01*
X80356975Y-59206771D02*
X80356975Y-59349628D01*
X80356975Y-59349628D02*
X80404594Y-59444866D01*
X80404594Y-59444866D02*
X80452213Y-59492485D01*
X80452213Y-59492485D02*
X80547451Y-59540104D01*
X80547451Y-59540104D02*
X80785546Y-59540104D01*
X80785546Y-59540104D02*
X80880784Y-59492485D01*
X80880784Y-59492485D02*
X80928404Y-59444866D01*
X80928404Y-59444866D02*
X80976023Y-59349628D01*
X80976023Y-59349628D02*
X80976023Y-59063914D01*
X80976023Y-59063914D02*
X80928404Y-58968676D01*
X80928404Y-58968676D02*
X80880784Y-58921057D01*
X74835457Y-64763487D02*
X75168790Y-64287296D01*
X75406885Y-64763487D02*
X75406885Y-63763487D01*
X75406885Y-63763487D02*
X75025933Y-63763487D01*
X75025933Y-63763487D02*
X74930695Y-63811106D01*
X74930695Y-63811106D02*
X74883076Y-63858725D01*
X74883076Y-63858725D02*
X74835457Y-63953963D01*
X74835457Y-63953963D02*
X74835457Y-64096820D01*
X74835457Y-64096820D02*
X74883076Y-64192058D01*
X74883076Y-64192058D02*
X74930695Y-64239677D01*
X74930695Y-64239677D02*
X75025933Y-64287296D01*
X75025933Y-64287296D02*
X75406885Y-64287296D01*
X74454504Y-63858725D02*
X74406885Y-63811106D01*
X74406885Y-63811106D02*
X74311647Y-63763487D01*
X74311647Y-63763487D02*
X74073552Y-63763487D01*
X74073552Y-63763487D02*
X73978314Y-63811106D01*
X73978314Y-63811106D02*
X73930695Y-63858725D01*
X73930695Y-63858725D02*
X73883076Y-63953963D01*
X73883076Y-63953963D02*
X73883076Y-64049201D01*
X73883076Y-64049201D02*
X73930695Y-64192058D01*
X73930695Y-64192058D02*
X74502123Y-64763487D01*
X74502123Y-64763487D02*
X73883076Y-64763487D01*
X72930695Y-64763487D02*
X73502123Y-64763487D01*
X73216409Y-64763487D02*
X73216409Y-63763487D01*
X73216409Y-63763487D02*
X73311647Y-63906344D01*
X73311647Y-63906344D02*
X73406885Y-64001582D01*
X73406885Y-64001582D02*
X73502123Y-64049201D01*
X86688392Y-66696019D02*
X87021725Y-66219828D01*
X87259820Y-66696019D02*
X87259820Y-65696019D01*
X87259820Y-65696019D02*
X86878868Y-65696019D01*
X86878868Y-65696019D02*
X86783630Y-65743638D01*
X86783630Y-65743638D02*
X86736011Y-65791257D01*
X86736011Y-65791257D02*
X86688392Y-65886495D01*
X86688392Y-65886495D02*
X86688392Y-66029352D01*
X86688392Y-66029352D02*
X86736011Y-66124590D01*
X86736011Y-66124590D02*
X86783630Y-66172209D01*
X86783630Y-66172209D02*
X86878868Y-66219828D01*
X86878868Y-66219828D02*
X87259820Y-66219828D01*
X86307439Y-65791257D02*
X86259820Y-65743638D01*
X86259820Y-65743638D02*
X86164582Y-65696019D01*
X86164582Y-65696019D02*
X85926487Y-65696019D01*
X85926487Y-65696019D02*
X85831249Y-65743638D01*
X85831249Y-65743638D02*
X85783630Y-65791257D01*
X85783630Y-65791257D02*
X85736011Y-65886495D01*
X85736011Y-65886495D02*
X85736011Y-65981733D01*
X85736011Y-65981733D02*
X85783630Y-66124590D01*
X85783630Y-66124590D02*
X86355058Y-66696019D01*
X86355058Y-66696019D02*
X85736011Y-66696019D01*
X85116963Y-65696019D02*
X85021725Y-65696019D01*
X85021725Y-65696019D02*
X84926487Y-65743638D01*
X84926487Y-65743638D02*
X84878868Y-65791257D01*
X84878868Y-65791257D02*
X84831249Y-65886495D01*
X84831249Y-65886495D02*
X84783630Y-66076971D01*
X84783630Y-66076971D02*
X84783630Y-66315066D01*
X84783630Y-66315066D02*
X84831249Y-66505542D01*
X84831249Y-66505542D02*
X84878868Y-66600780D01*
X84878868Y-66600780D02*
X84926487Y-66648400D01*
X84926487Y-66648400D02*
X85021725Y-66696019D01*
X85021725Y-66696019D02*
X85116963Y-66696019D01*
X85116963Y-66696019D02*
X85212201Y-66648400D01*
X85212201Y-66648400D02*
X85259820Y-66600780D01*
X85259820Y-66600780D02*
X85307439Y-66505542D01*
X85307439Y-66505542D02*
X85355058Y-66315066D01*
X85355058Y-66315066D02*
X85355058Y-66076971D01*
X85355058Y-66076971D02*
X85307439Y-65886495D01*
X85307439Y-65886495D02*
X85259820Y-65791257D01*
X85259820Y-65791257D02*
X85212201Y-65743638D01*
X85212201Y-65743638D02*
X85116963Y-65696019D01*
X78420955Y-70098942D02*
X77944764Y-69765609D01*
X78420955Y-69527514D02*
X77420955Y-69527514D01*
X77420955Y-69527514D02*
X77420955Y-69908466D01*
X77420955Y-69908466D02*
X77468574Y-70003704D01*
X77468574Y-70003704D02*
X77516193Y-70051323D01*
X77516193Y-70051323D02*
X77611431Y-70098942D01*
X77611431Y-70098942D02*
X77754288Y-70098942D01*
X77754288Y-70098942D02*
X77849526Y-70051323D01*
X77849526Y-70051323D02*
X77897145Y-70003704D01*
X77897145Y-70003704D02*
X77944764Y-69908466D01*
X77944764Y-69908466D02*
X77944764Y-69527514D01*
X78420955Y-71051323D02*
X78420955Y-70479895D01*
X78420955Y-70765609D02*
X77420955Y-70765609D01*
X77420955Y-70765609D02*
X77563812Y-70670371D01*
X77563812Y-70670371D02*
X77659050Y-70575133D01*
X77659050Y-70575133D02*
X77706669Y-70479895D01*
X77420955Y-71956085D02*
X77420955Y-71479895D01*
X77420955Y-71479895D02*
X77897145Y-71432276D01*
X77897145Y-71432276D02*
X77849526Y-71479895D01*
X77849526Y-71479895D02*
X77801907Y-71575133D01*
X77801907Y-71575133D02*
X77801907Y-71813228D01*
X77801907Y-71813228D02*
X77849526Y-71908466D01*
X77849526Y-71908466D02*
X77897145Y-71956085D01*
X77897145Y-71956085D02*
X77992383Y-72003704D01*
X77992383Y-72003704D02*
X78230478Y-72003704D01*
X78230478Y-72003704D02*
X78325716Y-71956085D01*
X78325716Y-71956085D02*
X78373336Y-71908466D01*
X78373336Y-71908466D02*
X78420955Y-71813228D01*
X78420955Y-71813228D02*
X78420955Y-71575133D01*
X78420955Y-71575133D02*
X78373336Y-71479895D01*
X78373336Y-71479895D02*
X78325716Y-71432276D01*
X76304118Y-66746819D02*
X76637451Y-66270628D01*
X76875546Y-66746819D02*
X76875546Y-65746819D01*
X76875546Y-65746819D02*
X76494594Y-65746819D01*
X76494594Y-65746819D02*
X76399356Y-65794438D01*
X76399356Y-65794438D02*
X76351737Y-65842057D01*
X76351737Y-65842057D02*
X76304118Y-65937295D01*
X76304118Y-65937295D02*
X76304118Y-66080152D01*
X76304118Y-66080152D02*
X76351737Y-66175390D01*
X76351737Y-66175390D02*
X76399356Y-66223009D01*
X76399356Y-66223009D02*
X76494594Y-66270628D01*
X76494594Y-66270628D02*
X76875546Y-66270628D01*
X75351737Y-66746819D02*
X75923165Y-66746819D01*
X75637451Y-66746819D02*
X75637451Y-65746819D01*
X75637451Y-65746819D02*
X75732689Y-65889676D01*
X75732689Y-65889676D02*
X75827927Y-65984914D01*
X75827927Y-65984914D02*
X75923165Y-66032533D01*
X74875546Y-66746819D02*
X74685070Y-66746819D01*
X74685070Y-66746819D02*
X74589832Y-66699200D01*
X74589832Y-66699200D02*
X74542213Y-66651580D01*
X74542213Y-66651580D02*
X74446975Y-66508723D01*
X74446975Y-66508723D02*
X74399356Y-66318247D01*
X74399356Y-66318247D02*
X74399356Y-65937295D01*
X74399356Y-65937295D02*
X74446975Y-65842057D01*
X74446975Y-65842057D02*
X74494594Y-65794438D01*
X74494594Y-65794438D02*
X74589832Y-65746819D01*
X74589832Y-65746819D02*
X74780308Y-65746819D01*
X74780308Y-65746819D02*
X74875546Y-65794438D01*
X74875546Y-65794438D02*
X74923165Y-65842057D01*
X74923165Y-65842057D02*
X74970784Y-65937295D01*
X74970784Y-65937295D02*
X74970784Y-66175390D01*
X74970784Y-66175390D02*
X74923165Y-66270628D01*
X74923165Y-66270628D02*
X74875546Y-66318247D01*
X74875546Y-66318247D02*
X74780308Y-66365866D01*
X74780308Y-66365866D02*
X74589832Y-66365866D01*
X74589832Y-66365866D02*
X74494594Y-66318247D01*
X74494594Y-66318247D02*
X74446975Y-66270628D01*
X74446975Y-66270628D02*
X74399356Y-66175390D01*
X84155619Y-70049742D02*
X83679428Y-69716409D01*
X84155619Y-69478314D02*
X83155619Y-69478314D01*
X83155619Y-69478314D02*
X83155619Y-69859266D01*
X83155619Y-69859266D02*
X83203238Y-69954504D01*
X83203238Y-69954504D02*
X83250857Y-70002123D01*
X83250857Y-70002123D02*
X83346095Y-70049742D01*
X83346095Y-70049742D02*
X83488952Y-70049742D01*
X83488952Y-70049742D02*
X83584190Y-70002123D01*
X83584190Y-70002123D02*
X83631809Y-69954504D01*
X83631809Y-69954504D02*
X83679428Y-69859266D01*
X83679428Y-69859266D02*
X83679428Y-69478314D01*
X84155619Y-71002123D02*
X84155619Y-70430695D01*
X84155619Y-70716409D02*
X83155619Y-70716409D01*
X83155619Y-70716409D02*
X83298476Y-70621171D01*
X83298476Y-70621171D02*
X83393714Y-70525933D01*
X83393714Y-70525933D02*
X83441333Y-70430695D01*
X83155619Y-71859266D02*
X83155619Y-71668790D01*
X83155619Y-71668790D02*
X83203238Y-71573552D01*
X83203238Y-71573552D02*
X83250857Y-71525933D01*
X83250857Y-71525933D02*
X83393714Y-71430695D01*
X83393714Y-71430695D02*
X83584190Y-71383076D01*
X83584190Y-71383076D02*
X83965142Y-71383076D01*
X83965142Y-71383076D02*
X84060380Y-71430695D01*
X84060380Y-71430695D02*
X84108000Y-71478314D01*
X84108000Y-71478314D02*
X84155619Y-71573552D01*
X84155619Y-71573552D02*
X84155619Y-71764028D01*
X84155619Y-71764028D02*
X84108000Y-71859266D01*
X84108000Y-71859266D02*
X84060380Y-71906885D01*
X84060380Y-71906885D02*
X83965142Y-71954504D01*
X83965142Y-71954504D02*
X83727047Y-71954504D01*
X83727047Y-71954504D02*
X83631809Y-71906885D01*
X83631809Y-71906885D02*
X83584190Y-71859266D01*
X83584190Y-71859266D02*
X83536571Y-71764028D01*
X83536571Y-71764028D02*
X83536571Y-71573552D01*
X83536571Y-71573552D02*
X83584190Y-71478314D01*
X83584190Y-71478314D02*
X83631809Y-71430695D01*
X83631809Y-71430695D02*
X83727047Y-71383076D01*
X76509857Y-76155180D02*
X76557476Y-76202800D01*
X76557476Y-76202800D02*
X76700333Y-76250419D01*
X76700333Y-76250419D02*
X76795571Y-76250419D01*
X76795571Y-76250419D02*
X76938428Y-76202800D01*
X76938428Y-76202800D02*
X77033666Y-76107561D01*
X77033666Y-76107561D02*
X77081285Y-76012323D01*
X77081285Y-76012323D02*
X77128904Y-75821847D01*
X77128904Y-75821847D02*
X77128904Y-75678990D01*
X77128904Y-75678990D02*
X77081285Y-75488514D01*
X77081285Y-75488514D02*
X77033666Y-75393276D01*
X77033666Y-75393276D02*
X76938428Y-75298038D01*
X76938428Y-75298038D02*
X76795571Y-75250419D01*
X76795571Y-75250419D02*
X76700333Y-75250419D01*
X76700333Y-75250419D02*
X76557476Y-75298038D01*
X76557476Y-75298038D02*
X76509857Y-75345657D01*
X76176523Y-75250419D02*
X75557476Y-75250419D01*
X75557476Y-75250419D02*
X75890809Y-75631371D01*
X75890809Y-75631371D02*
X75747952Y-75631371D01*
X75747952Y-75631371D02*
X75652714Y-75678990D01*
X75652714Y-75678990D02*
X75605095Y-75726609D01*
X75605095Y-75726609D02*
X75557476Y-75821847D01*
X75557476Y-75821847D02*
X75557476Y-76059942D01*
X75557476Y-76059942D02*
X75605095Y-76155180D01*
X75605095Y-76155180D02*
X75652714Y-76202800D01*
X75652714Y-76202800D02*
X75747952Y-76250419D01*
X75747952Y-76250419D02*
X76033666Y-76250419D01*
X76033666Y-76250419D02*
X76128904Y-76202800D01*
X76128904Y-76202800D02*
X76176523Y-76155180D01*
X75224142Y-75250419D02*
X74605095Y-75250419D01*
X74605095Y-75250419D02*
X74938428Y-75631371D01*
X74938428Y-75631371D02*
X74795571Y-75631371D01*
X74795571Y-75631371D02*
X74700333Y-75678990D01*
X74700333Y-75678990D02*
X74652714Y-75726609D01*
X74652714Y-75726609D02*
X74605095Y-75821847D01*
X74605095Y-75821847D02*
X74605095Y-76059942D01*
X74605095Y-76059942D02*
X74652714Y-76155180D01*
X74652714Y-76155180D02*
X74700333Y-76202800D01*
X74700333Y-76202800D02*
X74795571Y-76250419D01*
X74795571Y-76250419D02*
X75081285Y-76250419D01*
X75081285Y-76250419D02*
X75176523Y-76202800D01*
X75176523Y-76202800D02*
X75224142Y-76155180D01*
X73078981Y-57549142D02*
X73126601Y-57501523D01*
X73126601Y-57501523D02*
X73174220Y-57358666D01*
X73174220Y-57358666D02*
X73174220Y-57263428D01*
X73174220Y-57263428D02*
X73126601Y-57120571D01*
X73126601Y-57120571D02*
X73031362Y-57025333D01*
X73031362Y-57025333D02*
X72936124Y-56977714D01*
X72936124Y-56977714D02*
X72745648Y-56930095D01*
X72745648Y-56930095D02*
X72602791Y-56930095D01*
X72602791Y-56930095D02*
X72412315Y-56977714D01*
X72412315Y-56977714D02*
X72317077Y-57025333D01*
X72317077Y-57025333D02*
X72221839Y-57120571D01*
X72221839Y-57120571D02*
X72174220Y-57263428D01*
X72174220Y-57263428D02*
X72174220Y-57358666D01*
X72174220Y-57358666D02*
X72221839Y-57501523D01*
X72221839Y-57501523D02*
X72269458Y-57549142D01*
X72507553Y-58406285D02*
X73174220Y-58406285D01*
X72126601Y-58168190D02*
X72840886Y-57930095D01*
X72840886Y-57930095D02*
X72840886Y-58549142D01*
X72174220Y-58834857D02*
X72174220Y-59501523D01*
X72174220Y-59501523D02*
X73174220Y-59072952D01*
X86469057Y-68444776D02*
X86516676Y-68492396D01*
X86516676Y-68492396D02*
X86659533Y-68540015D01*
X86659533Y-68540015D02*
X86754771Y-68540015D01*
X86754771Y-68540015D02*
X86897628Y-68492396D01*
X86897628Y-68492396D02*
X86992866Y-68397157D01*
X86992866Y-68397157D02*
X87040485Y-68301919D01*
X87040485Y-68301919D02*
X87088104Y-68111443D01*
X87088104Y-68111443D02*
X87088104Y-67968586D01*
X87088104Y-67968586D02*
X87040485Y-67778110D01*
X87040485Y-67778110D02*
X86992866Y-67682872D01*
X86992866Y-67682872D02*
X86897628Y-67587634D01*
X86897628Y-67587634D02*
X86754771Y-67540015D01*
X86754771Y-67540015D02*
X86659533Y-67540015D01*
X86659533Y-67540015D02*
X86516676Y-67587634D01*
X86516676Y-67587634D02*
X86469057Y-67635253D01*
X85611914Y-67873348D02*
X85611914Y-68540015D01*
X85850009Y-67492396D02*
X86088104Y-68206681D01*
X86088104Y-68206681D02*
X85469057Y-68206681D01*
X84564295Y-68540015D02*
X85135723Y-68540015D01*
X84850009Y-68540015D02*
X84850009Y-67540015D01*
X84850009Y-67540015D02*
X84945247Y-67682872D01*
X84945247Y-67682872D02*
X85040485Y-67778110D01*
X85040485Y-67778110D02*
X85135723Y-67825729D01*
X76570394Y-68554780D02*
X76618013Y-68602400D01*
X76618013Y-68602400D02*
X76760870Y-68650019D01*
X76760870Y-68650019D02*
X76856108Y-68650019D01*
X76856108Y-68650019D02*
X76998965Y-68602400D01*
X76998965Y-68602400D02*
X77094203Y-68507161D01*
X77094203Y-68507161D02*
X77141822Y-68411923D01*
X77141822Y-68411923D02*
X77189441Y-68221447D01*
X77189441Y-68221447D02*
X77189441Y-68078590D01*
X77189441Y-68078590D02*
X77141822Y-67888114D01*
X77141822Y-67888114D02*
X77094203Y-67792876D01*
X77094203Y-67792876D02*
X76998965Y-67697638D01*
X76998965Y-67697638D02*
X76856108Y-67650019D01*
X76856108Y-67650019D02*
X76760870Y-67650019D01*
X76760870Y-67650019D02*
X76618013Y-67697638D01*
X76618013Y-67697638D02*
X76570394Y-67745257D01*
X75713251Y-67983352D02*
X75713251Y-68650019D01*
X75951346Y-67602400D02*
X76189441Y-68316685D01*
X76189441Y-68316685D02*
X75570394Y-68316685D01*
X74998965Y-67650019D02*
X74903727Y-67650019D01*
X74903727Y-67650019D02*
X74808489Y-67697638D01*
X74808489Y-67697638D02*
X74760870Y-67745257D01*
X74760870Y-67745257D02*
X74713251Y-67840495D01*
X74713251Y-67840495D02*
X74665632Y-68030971D01*
X74665632Y-68030971D02*
X74665632Y-68269066D01*
X74665632Y-68269066D02*
X74713251Y-68459542D01*
X74713251Y-68459542D02*
X74760870Y-68554780D01*
X74760870Y-68554780D02*
X74808489Y-68602400D01*
X74808489Y-68602400D02*
X74903727Y-68650019D01*
X74903727Y-68650019D02*
X74998965Y-68650019D01*
X74998965Y-68650019D02*
X75094203Y-68602400D01*
X75094203Y-68602400D02*
X75141822Y-68554780D01*
X75141822Y-68554780D02*
X75189441Y-68459542D01*
X75189441Y-68459542D02*
X75237060Y-68269066D01*
X75237060Y-68269066D02*
X75237060Y-68030971D01*
X75237060Y-68030971D02*
X75189441Y-67840495D01*
X75189441Y-67840495D02*
X75141822Y-67745257D01*
X75141822Y-67745257D02*
X75094203Y-67697638D01*
X75094203Y-67697638D02*
X74998965Y-67650019D01*
X105176685Y-65538219D02*
X105510018Y-65062028D01*
X105748113Y-65538219D02*
X105748113Y-64538219D01*
X105748113Y-64538219D02*
X105367161Y-64538219D01*
X105367161Y-64538219D02*
X105271923Y-64585838D01*
X105271923Y-64585838D02*
X105224304Y-64633457D01*
X105224304Y-64633457D02*
X105176685Y-64728695D01*
X105176685Y-64728695D02*
X105176685Y-64871552D01*
X105176685Y-64871552D02*
X105224304Y-64966790D01*
X105224304Y-64966790D02*
X105271923Y-65014409D01*
X105271923Y-65014409D02*
X105367161Y-65062028D01*
X105367161Y-65062028D02*
X105748113Y-65062028D01*
X104224304Y-65538219D02*
X104795732Y-65538219D01*
X104510018Y-65538219D02*
X104510018Y-64538219D01*
X104510018Y-64538219D02*
X104605256Y-64681076D01*
X104605256Y-64681076D02*
X104700494Y-64776314D01*
X104700494Y-64776314D02*
X104795732Y-64823933D01*
X103271923Y-65538219D02*
X103843351Y-65538219D01*
X103557637Y-65538219D02*
X103557637Y-64538219D01*
X103557637Y-64538219D02*
X103652875Y-64681076D01*
X103652875Y-64681076D02*
X103748113Y-64776314D01*
X103748113Y-64776314D02*
X103843351Y-64823933D01*
X103648180Y-67168718D02*
X103695800Y-67121099D01*
X103695800Y-67121099D02*
X103743419Y-66978242D01*
X103743419Y-66978242D02*
X103743419Y-66883004D01*
X103743419Y-66883004D02*
X103695800Y-66740147D01*
X103695800Y-66740147D02*
X103600561Y-66644909D01*
X103600561Y-66644909D02*
X103505323Y-66597290D01*
X103505323Y-66597290D02*
X103314847Y-66549671D01*
X103314847Y-66549671D02*
X103171990Y-66549671D01*
X103171990Y-66549671D02*
X102981514Y-66597290D01*
X102981514Y-66597290D02*
X102886276Y-66644909D01*
X102886276Y-66644909D02*
X102791038Y-66740147D01*
X102791038Y-66740147D02*
X102743419Y-66883004D01*
X102743419Y-66883004D02*
X102743419Y-66978242D01*
X102743419Y-66978242D02*
X102791038Y-67121099D01*
X102791038Y-67121099D02*
X102838657Y-67168718D01*
X103743419Y-68121099D02*
X103743419Y-67549671D01*
X103743419Y-67835385D02*
X102743419Y-67835385D01*
X102743419Y-67835385D02*
X102886276Y-67740147D01*
X102886276Y-67740147D02*
X102981514Y-67644909D01*
X102981514Y-67644909D02*
X103029133Y-67549671D01*
X102743419Y-68454433D02*
X102743419Y-69121099D01*
X102743419Y-69121099D02*
X103743419Y-68692528D01*
X105955619Y-67694685D02*
X105479428Y-67361352D01*
X105955619Y-67123257D02*
X104955619Y-67123257D01*
X104955619Y-67123257D02*
X104955619Y-67504209D01*
X104955619Y-67504209D02*
X105003238Y-67599447D01*
X105003238Y-67599447D02*
X105050857Y-67647066D01*
X105050857Y-67647066D02*
X105146095Y-67694685D01*
X105146095Y-67694685D02*
X105288952Y-67694685D01*
X105288952Y-67694685D02*
X105384190Y-67647066D01*
X105384190Y-67647066D02*
X105431809Y-67599447D01*
X105431809Y-67599447D02*
X105479428Y-67504209D01*
X105479428Y-67504209D02*
X105479428Y-67123257D01*
X104955619Y-68028019D02*
X104955619Y-68647066D01*
X104955619Y-68647066D02*
X105336571Y-68313733D01*
X105336571Y-68313733D02*
X105336571Y-68456590D01*
X105336571Y-68456590D02*
X105384190Y-68551828D01*
X105384190Y-68551828D02*
X105431809Y-68599447D01*
X105431809Y-68599447D02*
X105527047Y-68647066D01*
X105527047Y-68647066D02*
X105765142Y-68647066D01*
X105765142Y-68647066D02*
X105860380Y-68599447D01*
X105860380Y-68599447D02*
X105908000Y-68551828D01*
X105908000Y-68551828D02*
X105955619Y-68456590D01*
X105955619Y-68456590D02*
X105955619Y-68170876D01*
X105955619Y-68170876D02*
X105908000Y-68075638D01*
X105908000Y-68075638D02*
X105860380Y-68028019D01*
X105235952Y-58212342D02*
X105283572Y-58164723D01*
X105283572Y-58164723D02*
X105331191Y-58021866D01*
X105331191Y-58021866D02*
X105331191Y-57926628D01*
X105331191Y-57926628D02*
X105283572Y-57783771D01*
X105283572Y-57783771D02*
X105188333Y-57688533D01*
X105188333Y-57688533D02*
X105093095Y-57640914D01*
X105093095Y-57640914D02*
X104902619Y-57593295D01*
X104902619Y-57593295D02*
X104759762Y-57593295D01*
X104759762Y-57593295D02*
X104569286Y-57640914D01*
X104569286Y-57640914D02*
X104474048Y-57688533D01*
X104474048Y-57688533D02*
X104378810Y-57783771D01*
X104378810Y-57783771D02*
X104331191Y-57926628D01*
X104331191Y-57926628D02*
X104331191Y-58021866D01*
X104331191Y-58021866D02*
X104378810Y-58164723D01*
X104378810Y-58164723D02*
X104426429Y-58212342D01*
X105331191Y-59164723D02*
X105331191Y-58593295D01*
X105331191Y-58879009D02*
X104331191Y-58879009D01*
X104331191Y-58879009D02*
X104474048Y-58783771D01*
X104474048Y-58783771D02*
X104569286Y-58688533D01*
X104569286Y-58688533D02*
X104616905Y-58593295D01*
X104759762Y-59736152D02*
X104712143Y-59640914D01*
X104712143Y-59640914D02*
X104664524Y-59593295D01*
X104664524Y-59593295D02*
X104569286Y-59545676D01*
X104569286Y-59545676D02*
X104521667Y-59545676D01*
X104521667Y-59545676D02*
X104426429Y-59593295D01*
X104426429Y-59593295D02*
X104378810Y-59640914D01*
X104378810Y-59640914D02*
X104331191Y-59736152D01*
X104331191Y-59736152D02*
X104331191Y-59926628D01*
X104331191Y-59926628D02*
X104378810Y-60021866D01*
X104378810Y-60021866D02*
X104426429Y-60069485D01*
X104426429Y-60069485D02*
X104521667Y-60117104D01*
X104521667Y-60117104D02*
X104569286Y-60117104D01*
X104569286Y-60117104D02*
X104664524Y-60069485D01*
X104664524Y-60069485D02*
X104712143Y-60021866D01*
X104712143Y-60021866D02*
X104759762Y-59926628D01*
X104759762Y-59926628D02*
X104759762Y-59736152D01*
X104759762Y-59736152D02*
X104807381Y-59640914D01*
X104807381Y-59640914D02*
X104855000Y-59593295D01*
X104855000Y-59593295D02*
X104950238Y-59545676D01*
X104950238Y-59545676D02*
X105140714Y-59545676D01*
X105140714Y-59545676D02*
X105235952Y-59593295D01*
X105235952Y-59593295D02*
X105283572Y-59640914D01*
X105283572Y-59640914D02*
X105331191Y-59736152D01*
X105331191Y-59736152D02*
X105331191Y-59926628D01*
X105331191Y-59926628D02*
X105283572Y-60021866D01*
X105283572Y-60021866D02*
X105235952Y-60069485D01*
X105235952Y-60069485D02*
X105140714Y-60117104D01*
X105140714Y-60117104D02*
X104950238Y-60117104D01*
X104950238Y-60117104D02*
X104855000Y-60069485D01*
X104855000Y-60069485D02*
X104807381Y-60021866D01*
X104807381Y-60021866D02*
X104759762Y-59926628D01*
X132142884Y-63228941D02*
X132190503Y-63276561D01*
X132190503Y-63276561D02*
X132333360Y-63324180D01*
X132333360Y-63324180D02*
X132428598Y-63324180D01*
X132428598Y-63324180D02*
X132571455Y-63276561D01*
X132571455Y-63276561D02*
X132666693Y-63181322D01*
X132666693Y-63181322D02*
X132714312Y-63086084D01*
X132714312Y-63086084D02*
X132761931Y-62895608D01*
X132761931Y-62895608D02*
X132761931Y-62752751D01*
X132761931Y-62752751D02*
X132714312Y-62562275D01*
X132714312Y-62562275D02*
X132666693Y-62467037D01*
X132666693Y-62467037D02*
X132571455Y-62371799D01*
X132571455Y-62371799D02*
X132428598Y-62324180D01*
X132428598Y-62324180D02*
X132333360Y-62324180D01*
X132333360Y-62324180D02*
X132190503Y-62371799D01*
X132190503Y-62371799D02*
X132142884Y-62419418D01*
X131285741Y-62657513D02*
X131285741Y-63324180D01*
X131523836Y-62276561D02*
X131761931Y-62990846D01*
X131761931Y-62990846D02*
X131142884Y-62990846D01*
X130333360Y-62657513D02*
X130333360Y-63324180D01*
X130571455Y-62276561D02*
X130809550Y-62990846D01*
X130809550Y-62990846D02*
X130190503Y-62990846D01*
X128487803Y-57372433D02*
X128535423Y-57324814D01*
X128535423Y-57324814D02*
X128583042Y-57181957D01*
X128583042Y-57181957D02*
X128583042Y-57086719D01*
X128583042Y-57086719D02*
X128535423Y-56943862D01*
X128535423Y-56943862D02*
X128440184Y-56848624D01*
X128440184Y-56848624D02*
X128344946Y-56801005D01*
X128344946Y-56801005D02*
X128154470Y-56753386D01*
X128154470Y-56753386D02*
X128011613Y-56753386D01*
X128011613Y-56753386D02*
X127821137Y-56801005D01*
X127821137Y-56801005D02*
X127725899Y-56848624D01*
X127725899Y-56848624D02*
X127630661Y-56943862D01*
X127630661Y-56943862D02*
X127583042Y-57086719D01*
X127583042Y-57086719D02*
X127583042Y-57181957D01*
X127583042Y-57181957D02*
X127630661Y-57324814D01*
X127630661Y-57324814D02*
X127678280Y-57372433D01*
X127916375Y-58229576D02*
X128583042Y-58229576D01*
X127535423Y-57991481D02*
X128249708Y-57753386D01*
X128249708Y-57753386D02*
X128249708Y-58372433D01*
X127583042Y-59181957D02*
X127583042Y-58991481D01*
X127583042Y-58991481D02*
X127630661Y-58896243D01*
X127630661Y-58896243D02*
X127678280Y-58848624D01*
X127678280Y-58848624D02*
X127821137Y-58753386D01*
X127821137Y-58753386D02*
X128011613Y-58705767D01*
X128011613Y-58705767D02*
X128392565Y-58705767D01*
X128392565Y-58705767D02*
X128487803Y-58753386D01*
X128487803Y-58753386D02*
X128535423Y-58801005D01*
X128535423Y-58801005D02*
X128583042Y-58896243D01*
X128583042Y-58896243D02*
X128583042Y-59086719D01*
X128583042Y-59086719D02*
X128535423Y-59181957D01*
X128535423Y-59181957D02*
X128487803Y-59229576D01*
X128487803Y-59229576D02*
X128392565Y-59277195D01*
X128392565Y-59277195D02*
X128154470Y-59277195D01*
X128154470Y-59277195D02*
X128059232Y-59229576D01*
X128059232Y-59229576D02*
X128011613Y-59181957D01*
X128011613Y-59181957D02*
X127963994Y-59086719D01*
X127963994Y-59086719D02*
X127963994Y-58896243D01*
X127963994Y-58896243D02*
X128011613Y-58801005D01*
X128011613Y-58801005D02*
X128059232Y-58753386D01*
X128059232Y-58753386D02*
X128154470Y-58705767D01*
X135955285Y-62851910D02*
X136288618Y-62375719D01*
X136526713Y-62851910D02*
X136526713Y-61851910D01*
X136526713Y-61851910D02*
X136145761Y-61851910D01*
X136145761Y-61851910D02*
X136050523Y-61899529D01*
X136050523Y-61899529D02*
X136002904Y-61947148D01*
X136002904Y-61947148D02*
X135955285Y-62042386D01*
X135955285Y-62042386D02*
X135955285Y-62185243D01*
X135955285Y-62185243D02*
X136002904Y-62280481D01*
X136002904Y-62280481D02*
X136050523Y-62328100D01*
X136050523Y-62328100D02*
X136145761Y-62375719D01*
X136145761Y-62375719D02*
X136526713Y-62375719D01*
X135574332Y-61947148D02*
X135526713Y-61899529D01*
X135526713Y-61899529D02*
X135431475Y-61851910D01*
X135431475Y-61851910D02*
X135193380Y-61851910D01*
X135193380Y-61851910D02*
X135098142Y-61899529D01*
X135098142Y-61899529D02*
X135050523Y-61947148D01*
X135050523Y-61947148D02*
X135002904Y-62042386D01*
X135002904Y-62042386D02*
X135002904Y-62137624D01*
X135002904Y-62137624D02*
X135050523Y-62280481D01*
X135050523Y-62280481D02*
X135621951Y-62851910D01*
X135621951Y-62851910D02*
X135002904Y-62851910D01*
X134621951Y-61947148D02*
X134574332Y-61899529D01*
X134574332Y-61899529D02*
X134479094Y-61851910D01*
X134479094Y-61851910D02*
X134240999Y-61851910D01*
X134240999Y-61851910D02*
X134145761Y-61899529D01*
X134145761Y-61899529D02*
X134098142Y-61947148D01*
X134098142Y-61947148D02*
X134050523Y-62042386D01*
X134050523Y-62042386D02*
X134050523Y-62137624D01*
X134050523Y-62137624D02*
X134098142Y-62280481D01*
X134098142Y-62280481D02*
X134669570Y-62851910D01*
X134669570Y-62851910D02*
X134050523Y-62851910D01*
X125423680Y-61745072D02*
X125471299Y-61792692D01*
X125471299Y-61792692D02*
X125614156Y-61840311D01*
X125614156Y-61840311D02*
X125709394Y-61840311D01*
X125709394Y-61840311D02*
X125852251Y-61792692D01*
X125852251Y-61792692D02*
X125947489Y-61697453D01*
X125947489Y-61697453D02*
X125995108Y-61602215D01*
X125995108Y-61602215D02*
X126042727Y-61411739D01*
X126042727Y-61411739D02*
X126042727Y-61268882D01*
X126042727Y-61268882D02*
X125995108Y-61078406D01*
X125995108Y-61078406D02*
X125947489Y-60983168D01*
X125947489Y-60983168D02*
X125852251Y-60887930D01*
X125852251Y-60887930D02*
X125709394Y-60840311D01*
X125709394Y-60840311D02*
X125614156Y-60840311D01*
X125614156Y-60840311D02*
X125471299Y-60887930D01*
X125471299Y-60887930D02*
X125423680Y-60935549D01*
X124566537Y-61173644D02*
X124566537Y-61840311D01*
X124804632Y-60792692D02*
X125042727Y-61506977D01*
X125042727Y-61506977D02*
X124423680Y-61506977D01*
X123566537Y-60840311D02*
X124042727Y-60840311D01*
X124042727Y-60840311D02*
X124090346Y-61316501D01*
X124090346Y-61316501D02*
X124042727Y-61268882D01*
X124042727Y-61268882D02*
X123947489Y-61221263D01*
X123947489Y-61221263D02*
X123709394Y-61221263D01*
X123709394Y-61221263D02*
X123614156Y-61268882D01*
X123614156Y-61268882D02*
X123566537Y-61316501D01*
X123566537Y-61316501D02*
X123518918Y-61411739D01*
X123518918Y-61411739D02*
X123518918Y-61649834D01*
X123518918Y-61649834D02*
X123566537Y-61745072D01*
X123566537Y-61745072D02*
X123614156Y-61792692D01*
X123614156Y-61792692D02*
X123709394Y-61840311D01*
X123709394Y-61840311D02*
X123947489Y-61840311D01*
X123947489Y-61840311D02*
X124042727Y-61792692D01*
X124042727Y-61792692D02*
X124090346Y-61745072D01*
X123512808Y-57333833D02*
X123560428Y-57286214D01*
X123560428Y-57286214D02*
X123608047Y-57143357D01*
X123608047Y-57143357D02*
X123608047Y-57048119D01*
X123608047Y-57048119D02*
X123560428Y-56905262D01*
X123560428Y-56905262D02*
X123465189Y-56810024D01*
X123465189Y-56810024D02*
X123369951Y-56762405D01*
X123369951Y-56762405D02*
X123179475Y-56714786D01*
X123179475Y-56714786D02*
X123036618Y-56714786D01*
X123036618Y-56714786D02*
X122846142Y-56762405D01*
X122846142Y-56762405D02*
X122750904Y-56810024D01*
X122750904Y-56810024D02*
X122655666Y-56905262D01*
X122655666Y-56905262D02*
X122608047Y-57048119D01*
X122608047Y-57048119D02*
X122608047Y-57143357D01*
X122608047Y-57143357D02*
X122655666Y-57286214D01*
X122655666Y-57286214D02*
X122703285Y-57333833D01*
X122941380Y-58190976D02*
X123608047Y-58190976D01*
X122560428Y-57952881D02*
X123274713Y-57714786D01*
X123274713Y-57714786D02*
X123274713Y-58333833D01*
X122608047Y-58619548D02*
X122608047Y-59286214D01*
X122608047Y-59286214D02*
X123608047Y-58857643D01*
X125269284Y-64548178D02*
X125602617Y-64071987D01*
X125840712Y-64548178D02*
X125840712Y-63548178D01*
X125840712Y-63548178D02*
X125459760Y-63548178D01*
X125459760Y-63548178D02*
X125364522Y-63595797D01*
X125364522Y-63595797D02*
X125316903Y-63643416D01*
X125316903Y-63643416D02*
X125269284Y-63738654D01*
X125269284Y-63738654D02*
X125269284Y-63881511D01*
X125269284Y-63881511D02*
X125316903Y-63976749D01*
X125316903Y-63976749D02*
X125364522Y-64024368D01*
X125364522Y-64024368D02*
X125459760Y-64071987D01*
X125459760Y-64071987D02*
X125840712Y-64071987D01*
X124888331Y-63643416D02*
X124840712Y-63595797D01*
X124840712Y-63595797D02*
X124745474Y-63548178D01*
X124745474Y-63548178D02*
X124507379Y-63548178D01*
X124507379Y-63548178D02*
X124412141Y-63595797D01*
X124412141Y-63595797D02*
X124364522Y-63643416D01*
X124364522Y-63643416D02*
X124316903Y-63738654D01*
X124316903Y-63738654D02*
X124316903Y-63833892D01*
X124316903Y-63833892D02*
X124364522Y-63976749D01*
X124364522Y-63976749D02*
X124935950Y-64548178D01*
X124935950Y-64548178D02*
X124316903Y-64548178D01*
X123364522Y-64548178D02*
X123935950Y-64548178D01*
X123650236Y-64548178D02*
X123650236Y-63548178D01*
X123650236Y-63548178D02*
X123745474Y-63691035D01*
X123745474Y-63691035D02*
X123840712Y-63786273D01*
X123840712Y-63786273D02*
X123935950Y-63833892D01*
X134589446Y-69834433D02*
X134113255Y-69501100D01*
X134589446Y-69263005D02*
X133589446Y-69263005D01*
X133589446Y-69263005D02*
X133589446Y-69643957D01*
X133589446Y-69643957D02*
X133637065Y-69739195D01*
X133637065Y-69739195D02*
X133684684Y-69786814D01*
X133684684Y-69786814D02*
X133779922Y-69834433D01*
X133779922Y-69834433D02*
X133922779Y-69834433D01*
X133922779Y-69834433D02*
X134018017Y-69786814D01*
X134018017Y-69786814D02*
X134065636Y-69739195D01*
X134065636Y-69739195D02*
X134113255Y-69643957D01*
X134113255Y-69643957D02*
X134113255Y-69263005D01*
X134589446Y-70786814D02*
X134589446Y-70215386D01*
X134589446Y-70501100D02*
X133589446Y-70501100D01*
X133589446Y-70501100D02*
X133732303Y-70405862D01*
X133732303Y-70405862D02*
X133827541Y-70310624D01*
X133827541Y-70310624D02*
X133875160Y-70215386D01*
X133589446Y-71643957D02*
X133589446Y-71453481D01*
X133589446Y-71453481D02*
X133637065Y-71358243D01*
X133637065Y-71358243D02*
X133684684Y-71310624D01*
X133684684Y-71310624D02*
X133827541Y-71215386D01*
X133827541Y-71215386D02*
X134018017Y-71167767D01*
X134018017Y-71167767D02*
X134398969Y-71167767D01*
X134398969Y-71167767D02*
X134494207Y-71215386D01*
X134494207Y-71215386D02*
X134541827Y-71263005D01*
X134541827Y-71263005D02*
X134589446Y-71358243D01*
X134589446Y-71358243D02*
X134589446Y-71548719D01*
X134589446Y-71548719D02*
X134541827Y-71643957D01*
X134541827Y-71643957D02*
X134494207Y-71691576D01*
X134494207Y-71691576D02*
X134398969Y-71739195D01*
X134398969Y-71739195D02*
X134160874Y-71739195D01*
X134160874Y-71739195D02*
X134065636Y-71691576D01*
X134065636Y-71691576D02*
X134018017Y-71643957D01*
X134018017Y-71643957D02*
X133970398Y-71548719D01*
X133970398Y-71548719D02*
X133970398Y-71358243D01*
X133970398Y-71358243D02*
X134018017Y-71263005D01*
X134018017Y-71263005D02*
X134065636Y-71215386D01*
X134065636Y-71215386D02*
X134160874Y-71167767D01*
X127004221Y-68339471D02*
X127051840Y-68387091D01*
X127051840Y-68387091D02*
X127194697Y-68434710D01*
X127194697Y-68434710D02*
X127289935Y-68434710D01*
X127289935Y-68434710D02*
X127432792Y-68387091D01*
X127432792Y-68387091D02*
X127528030Y-68291852D01*
X127528030Y-68291852D02*
X127575649Y-68196614D01*
X127575649Y-68196614D02*
X127623268Y-68006138D01*
X127623268Y-68006138D02*
X127623268Y-67863281D01*
X127623268Y-67863281D02*
X127575649Y-67672805D01*
X127575649Y-67672805D02*
X127528030Y-67577567D01*
X127528030Y-67577567D02*
X127432792Y-67482329D01*
X127432792Y-67482329D02*
X127289935Y-67434710D01*
X127289935Y-67434710D02*
X127194697Y-67434710D01*
X127194697Y-67434710D02*
X127051840Y-67482329D01*
X127051840Y-67482329D02*
X127004221Y-67529948D01*
X126147078Y-67768043D02*
X126147078Y-68434710D01*
X126385173Y-67387091D02*
X126623268Y-68101376D01*
X126623268Y-68101376D02*
X126004221Y-68101376D01*
X125432792Y-67434710D02*
X125337554Y-67434710D01*
X125337554Y-67434710D02*
X125242316Y-67482329D01*
X125242316Y-67482329D02*
X125194697Y-67529948D01*
X125194697Y-67529948D02*
X125147078Y-67625186D01*
X125147078Y-67625186D02*
X125099459Y-67815662D01*
X125099459Y-67815662D02*
X125099459Y-68053757D01*
X125099459Y-68053757D02*
X125147078Y-68244233D01*
X125147078Y-68244233D02*
X125194697Y-68339471D01*
X125194697Y-68339471D02*
X125242316Y-68387091D01*
X125242316Y-68387091D02*
X125337554Y-68434710D01*
X125337554Y-68434710D02*
X125432792Y-68434710D01*
X125432792Y-68434710D02*
X125528030Y-68387091D01*
X125528030Y-68387091D02*
X125575649Y-68339471D01*
X125575649Y-68339471D02*
X125623268Y-68244233D01*
X125623268Y-68244233D02*
X125670887Y-68053757D01*
X125670887Y-68053757D02*
X125670887Y-67815662D01*
X125670887Y-67815662D02*
X125623268Y-67625186D01*
X125623268Y-67625186D02*
X125575649Y-67529948D01*
X125575649Y-67529948D02*
X125528030Y-67482329D01*
X125528030Y-67482329D02*
X125432792Y-67434710D01*
X126943684Y-75939871D02*
X126991303Y-75987491D01*
X126991303Y-75987491D02*
X127134160Y-76035110D01*
X127134160Y-76035110D02*
X127229398Y-76035110D01*
X127229398Y-76035110D02*
X127372255Y-75987491D01*
X127372255Y-75987491D02*
X127467493Y-75892252D01*
X127467493Y-75892252D02*
X127515112Y-75797014D01*
X127515112Y-75797014D02*
X127562731Y-75606538D01*
X127562731Y-75606538D02*
X127562731Y-75463681D01*
X127562731Y-75463681D02*
X127515112Y-75273205D01*
X127515112Y-75273205D02*
X127467493Y-75177967D01*
X127467493Y-75177967D02*
X127372255Y-75082729D01*
X127372255Y-75082729D02*
X127229398Y-75035110D01*
X127229398Y-75035110D02*
X127134160Y-75035110D01*
X127134160Y-75035110D02*
X126991303Y-75082729D01*
X126991303Y-75082729D02*
X126943684Y-75130348D01*
X126610350Y-75035110D02*
X125991303Y-75035110D01*
X125991303Y-75035110D02*
X126324636Y-75416062D01*
X126324636Y-75416062D02*
X126181779Y-75416062D01*
X126181779Y-75416062D02*
X126086541Y-75463681D01*
X126086541Y-75463681D02*
X126038922Y-75511300D01*
X126038922Y-75511300D02*
X125991303Y-75606538D01*
X125991303Y-75606538D02*
X125991303Y-75844633D01*
X125991303Y-75844633D02*
X126038922Y-75939871D01*
X126038922Y-75939871D02*
X126086541Y-75987491D01*
X126086541Y-75987491D02*
X126181779Y-76035110D01*
X126181779Y-76035110D02*
X126467493Y-76035110D01*
X126467493Y-76035110D02*
X126562731Y-75987491D01*
X126562731Y-75987491D02*
X126610350Y-75939871D01*
X125657969Y-75035110D02*
X125038922Y-75035110D01*
X125038922Y-75035110D02*
X125372255Y-75416062D01*
X125372255Y-75416062D02*
X125229398Y-75416062D01*
X125229398Y-75416062D02*
X125134160Y-75463681D01*
X125134160Y-75463681D02*
X125086541Y-75511300D01*
X125086541Y-75511300D02*
X125038922Y-75606538D01*
X125038922Y-75606538D02*
X125038922Y-75844633D01*
X125038922Y-75844633D02*
X125086541Y-75939871D01*
X125086541Y-75939871D02*
X125134160Y-75987491D01*
X125134160Y-75987491D02*
X125229398Y-76035110D01*
X125229398Y-76035110D02*
X125515112Y-76035110D01*
X125515112Y-76035110D02*
X125610350Y-75987491D01*
X125610350Y-75987491D02*
X125657969Y-75939871D01*
X126737945Y-66531510D02*
X127071278Y-66055319D01*
X127309373Y-66531510D02*
X127309373Y-65531510D01*
X127309373Y-65531510D02*
X126928421Y-65531510D01*
X126928421Y-65531510D02*
X126833183Y-65579129D01*
X126833183Y-65579129D02*
X126785564Y-65626748D01*
X126785564Y-65626748D02*
X126737945Y-65721986D01*
X126737945Y-65721986D02*
X126737945Y-65864843D01*
X126737945Y-65864843D02*
X126785564Y-65960081D01*
X126785564Y-65960081D02*
X126833183Y-66007700D01*
X126833183Y-66007700D02*
X126928421Y-66055319D01*
X126928421Y-66055319D02*
X127309373Y-66055319D01*
X125785564Y-66531510D02*
X126356992Y-66531510D01*
X126071278Y-66531510D02*
X126071278Y-65531510D01*
X126071278Y-65531510D02*
X126166516Y-65674367D01*
X126166516Y-65674367D02*
X126261754Y-65769605D01*
X126261754Y-65769605D02*
X126356992Y-65817224D01*
X125309373Y-66531510D02*
X125118897Y-66531510D01*
X125118897Y-66531510D02*
X125023659Y-66483891D01*
X125023659Y-66483891D02*
X124976040Y-66436271D01*
X124976040Y-66436271D02*
X124880802Y-66293414D01*
X124880802Y-66293414D02*
X124833183Y-66102938D01*
X124833183Y-66102938D02*
X124833183Y-65721986D01*
X124833183Y-65721986D02*
X124880802Y-65626748D01*
X124880802Y-65626748D02*
X124928421Y-65579129D01*
X124928421Y-65579129D02*
X125023659Y-65531510D01*
X125023659Y-65531510D02*
X125214135Y-65531510D01*
X125214135Y-65531510D02*
X125309373Y-65579129D01*
X125309373Y-65579129D02*
X125356992Y-65626748D01*
X125356992Y-65626748D02*
X125404611Y-65721986D01*
X125404611Y-65721986D02*
X125404611Y-65960081D01*
X125404611Y-65960081D02*
X125356992Y-66055319D01*
X125356992Y-66055319D02*
X125309373Y-66102938D01*
X125309373Y-66102938D02*
X125214135Y-66150557D01*
X125214135Y-66150557D02*
X125023659Y-66150557D01*
X125023659Y-66150557D02*
X124928421Y-66102938D01*
X124928421Y-66102938D02*
X124880802Y-66055319D01*
X124880802Y-66055319D02*
X124833183Y-65960081D01*
X137122219Y-66480710D02*
X137455552Y-66004519D01*
X137693647Y-66480710D02*
X137693647Y-65480710D01*
X137693647Y-65480710D02*
X137312695Y-65480710D01*
X137312695Y-65480710D02*
X137217457Y-65528329D01*
X137217457Y-65528329D02*
X137169838Y-65575948D01*
X137169838Y-65575948D02*
X137122219Y-65671186D01*
X137122219Y-65671186D02*
X137122219Y-65814043D01*
X137122219Y-65814043D02*
X137169838Y-65909281D01*
X137169838Y-65909281D02*
X137217457Y-65956900D01*
X137217457Y-65956900D02*
X137312695Y-66004519D01*
X137312695Y-66004519D02*
X137693647Y-66004519D01*
X136741266Y-65575948D02*
X136693647Y-65528329D01*
X136693647Y-65528329D02*
X136598409Y-65480710D01*
X136598409Y-65480710D02*
X136360314Y-65480710D01*
X136360314Y-65480710D02*
X136265076Y-65528329D01*
X136265076Y-65528329D02*
X136217457Y-65575948D01*
X136217457Y-65575948D02*
X136169838Y-65671186D01*
X136169838Y-65671186D02*
X136169838Y-65766424D01*
X136169838Y-65766424D02*
X136217457Y-65909281D01*
X136217457Y-65909281D02*
X136788885Y-66480710D01*
X136788885Y-66480710D02*
X136169838Y-66480710D01*
X135550790Y-65480710D02*
X135455552Y-65480710D01*
X135455552Y-65480710D02*
X135360314Y-65528329D01*
X135360314Y-65528329D02*
X135312695Y-65575948D01*
X135312695Y-65575948D02*
X135265076Y-65671186D01*
X135265076Y-65671186D02*
X135217457Y-65861662D01*
X135217457Y-65861662D02*
X135217457Y-66099757D01*
X135217457Y-66099757D02*
X135265076Y-66290233D01*
X135265076Y-66290233D02*
X135312695Y-66385471D01*
X135312695Y-66385471D02*
X135360314Y-66433091D01*
X135360314Y-66433091D02*
X135455552Y-66480710D01*
X135455552Y-66480710D02*
X135550790Y-66480710D01*
X135550790Y-66480710D02*
X135646028Y-66433091D01*
X135646028Y-66433091D02*
X135693647Y-66385471D01*
X135693647Y-66385471D02*
X135741266Y-66290233D01*
X135741266Y-66290233D02*
X135788885Y-66099757D01*
X135788885Y-66099757D02*
X135788885Y-65861662D01*
X135788885Y-65861662D02*
X135741266Y-65671186D01*
X135741266Y-65671186D02*
X135693647Y-65575948D01*
X135693647Y-65575948D02*
X135646028Y-65528329D01*
X135646028Y-65528329D02*
X135550790Y-65480710D01*
X136902884Y-68229467D02*
X136950503Y-68277087D01*
X136950503Y-68277087D02*
X137093360Y-68324706D01*
X137093360Y-68324706D02*
X137188598Y-68324706D01*
X137188598Y-68324706D02*
X137331455Y-68277087D01*
X137331455Y-68277087D02*
X137426693Y-68181848D01*
X137426693Y-68181848D02*
X137474312Y-68086610D01*
X137474312Y-68086610D02*
X137521931Y-67896134D01*
X137521931Y-67896134D02*
X137521931Y-67753277D01*
X137521931Y-67753277D02*
X137474312Y-67562801D01*
X137474312Y-67562801D02*
X137426693Y-67467563D01*
X137426693Y-67467563D02*
X137331455Y-67372325D01*
X137331455Y-67372325D02*
X137188598Y-67324706D01*
X137188598Y-67324706D02*
X137093360Y-67324706D01*
X137093360Y-67324706D02*
X136950503Y-67372325D01*
X136950503Y-67372325D02*
X136902884Y-67419944D01*
X136045741Y-67658039D02*
X136045741Y-68324706D01*
X136283836Y-67277087D02*
X136521931Y-67991372D01*
X136521931Y-67991372D02*
X135902884Y-67991372D01*
X134998122Y-68324706D02*
X135569550Y-68324706D01*
X135283836Y-68324706D02*
X135283836Y-67324706D01*
X135283836Y-67324706D02*
X135379074Y-67467563D01*
X135379074Y-67467563D02*
X135474312Y-67562801D01*
X135474312Y-67562801D02*
X135569550Y-67610420D01*
X126020650Y-57250433D02*
X125544459Y-56917100D01*
X126020650Y-56679005D02*
X125020650Y-56679005D01*
X125020650Y-56679005D02*
X125020650Y-57059957D01*
X125020650Y-57059957D02*
X125068269Y-57155195D01*
X125068269Y-57155195D02*
X125115888Y-57202814D01*
X125115888Y-57202814D02*
X125211126Y-57250433D01*
X125211126Y-57250433D02*
X125353983Y-57250433D01*
X125353983Y-57250433D02*
X125449221Y-57202814D01*
X125449221Y-57202814D02*
X125496840Y-57155195D01*
X125496840Y-57155195D02*
X125544459Y-57059957D01*
X125544459Y-57059957D02*
X125544459Y-56679005D01*
X125115888Y-57631386D02*
X125068269Y-57679005D01*
X125068269Y-57679005D02*
X125020650Y-57774243D01*
X125020650Y-57774243D02*
X125020650Y-58012338D01*
X125020650Y-58012338D02*
X125068269Y-58107576D01*
X125068269Y-58107576D02*
X125115888Y-58155195D01*
X125115888Y-58155195D02*
X125211126Y-58202814D01*
X125211126Y-58202814D02*
X125306364Y-58202814D01*
X125306364Y-58202814D02*
X125449221Y-58155195D01*
X125449221Y-58155195D02*
X126020650Y-57583767D01*
X126020650Y-57583767D02*
X126020650Y-58202814D01*
X125353983Y-59059957D02*
X126020650Y-59059957D01*
X124973031Y-58821862D02*
X125687316Y-58583767D01*
X125687316Y-58583767D02*
X125687316Y-59202814D01*
X131409850Y-57420033D02*
X130933659Y-57086700D01*
X131409850Y-56848605D02*
X130409850Y-56848605D01*
X130409850Y-56848605D02*
X130409850Y-57229557D01*
X130409850Y-57229557D02*
X130457469Y-57324795D01*
X130457469Y-57324795D02*
X130505088Y-57372414D01*
X130505088Y-57372414D02*
X130600326Y-57420033D01*
X130600326Y-57420033D02*
X130743183Y-57420033D01*
X130743183Y-57420033D02*
X130838421Y-57372414D01*
X130838421Y-57372414D02*
X130886040Y-57324795D01*
X130886040Y-57324795D02*
X130933659Y-57229557D01*
X130933659Y-57229557D02*
X130933659Y-56848605D01*
X130505088Y-57800986D02*
X130457469Y-57848605D01*
X130457469Y-57848605D02*
X130409850Y-57943843D01*
X130409850Y-57943843D02*
X130409850Y-58181938D01*
X130409850Y-58181938D02*
X130457469Y-58277176D01*
X130457469Y-58277176D02*
X130505088Y-58324795D01*
X130505088Y-58324795D02*
X130600326Y-58372414D01*
X130600326Y-58372414D02*
X130695564Y-58372414D01*
X130695564Y-58372414D02*
X130838421Y-58324795D01*
X130838421Y-58324795D02*
X131409850Y-57753367D01*
X131409850Y-57753367D02*
X131409850Y-58372414D01*
X130409850Y-58705748D02*
X130409850Y-59324795D01*
X130409850Y-59324795D02*
X130790802Y-58991462D01*
X130790802Y-58991462D02*
X130790802Y-59134319D01*
X130790802Y-59134319D02*
X130838421Y-59229557D01*
X130838421Y-59229557D02*
X130886040Y-59277176D01*
X130886040Y-59277176D02*
X130981278Y-59324795D01*
X130981278Y-59324795D02*
X131219373Y-59324795D01*
X131219373Y-59324795D02*
X131314611Y-59277176D01*
X131314611Y-59277176D02*
X131362231Y-59229557D01*
X131362231Y-59229557D02*
X131409850Y-59134319D01*
X131409850Y-59134319D02*
X131409850Y-58848605D01*
X131409850Y-58848605D02*
X131362231Y-58753367D01*
X131362231Y-58753367D02*
X131314611Y-58705748D01*
X128854782Y-69883633D02*
X128378591Y-69550300D01*
X128854782Y-69312205D02*
X127854782Y-69312205D01*
X127854782Y-69312205D02*
X127854782Y-69693157D01*
X127854782Y-69693157D02*
X127902401Y-69788395D01*
X127902401Y-69788395D02*
X127950020Y-69836014D01*
X127950020Y-69836014D02*
X128045258Y-69883633D01*
X128045258Y-69883633D02*
X128188115Y-69883633D01*
X128188115Y-69883633D02*
X128283353Y-69836014D01*
X128283353Y-69836014D02*
X128330972Y-69788395D01*
X128330972Y-69788395D02*
X128378591Y-69693157D01*
X128378591Y-69693157D02*
X128378591Y-69312205D01*
X128854782Y-70836014D02*
X128854782Y-70264586D01*
X128854782Y-70550300D02*
X127854782Y-70550300D01*
X127854782Y-70550300D02*
X127997639Y-70455062D01*
X127997639Y-70455062D02*
X128092877Y-70359824D01*
X128092877Y-70359824D02*
X128140496Y-70264586D01*
X127854782Y-71740776D02*
X127854782Y-71264586D01*
X127854782Y-71264586D02*
X128330972Y-71216967D01*
X128330972Y-71216967D02*
X128283353Y-71264586D01*
X128283353Y-71264586D02*
X128235734Y-71359824D01*
X128235734Y-71359824D02*
X128235734Y-71597919D01*
X128235734Y-71597919D02*
X128283353Y-71693157D01*
X128283353Y-71693157D02*
X128330972Y-71740776D01*
X128330972Y-71740776D02*
X128426210Y-71788395D01*
X128426210Y-71788395D02*
X128664305Y-71788395D01*
X128664305Y-71788395D02*
X128759543Y-71740776D01*
X128759543Y-71740776D02*
X128807163Y-71693157D01*
X128807163Y-71693157D02*
X128854782Y-71597919D01*
X128854782Y-71597919D02*
X128854782Y-71359824D01*
X128854782Y-71359824D02*
X128807163Y-71264586D01*
X128807163Y-71264586D02*
X128759543Y-71216967D01*
X206426685Y-65488219D02*
X206760018Y-65012028D01*
X206998113Y-65488219D02*
X206998113Y-64488219D01*
X206998113Y-64488219D02*
X206617161Y-64488219D01*
X206617161Y-64488219D02*
X206521923Y-64535838D01*
X206521923Y-64535838D02*
X206474304Y-64583457D01*
X206474304Y-64583457D02*
X206426685Y-64678695D01*
X206426685Y-64678695D02*
X206426685Y-64821552D01*
X206426685Y-64821552D02*
X206474304Y-64916790D01*
X206474304Y-64916790D02*
X206521923Y-64964409D01*
X206521923Y-64964409D02*
X206617161Y-65012028D01*
X206617161Y-65012028D02*
X206998113Y-65012028D01*
X205474304Y-65488219D02*
X206045732Y-65488219D01*
X205760018Y-65488219D02*
X205760018Y-64488219D01*
X205760018Y-64488219D02*
X205855256Y-64631076D01*
X205855256Y-64631076D02*
X205950494Y-64726314D01*
X205950494Y-64726314D02*
X206045732Y-64773933D01*
X204521923Y-65488219D02*
X205093351Y-65488219D01*
X204807637Y-65488219D02*
X204807637Y-64488219D01*
X204807637Y-64488219D02*
X204902875Y-64631076D01*
X204902875Y-64631076D02*
X204998113Y-64726314D01*
X204998113Y-64726314D02*
X205093351Y-64773933D01*
X204898180Y-67118718D02*
X204945800Y-67071099D01*
X204945800Y-67071099D02*
X204993419Y-66928242D01*
X204993419Y-66928242D02*
X204993419Y-66833004D01*
X204993419Y-66833004D02*
X204945800Y-66690147D01*
X204945800Y-66690147D02*
X204850561Y-66594909D01*
X204850561Y-66594909D02*
X204755323Y-66547290D01*
X204755323Y-66547290D02*
X204564847Y-66499671D01*
X204564847Y-66499671D02*
X204421990Y-66499671D01*
X204421990Y-66499671D02*
X204231514Y-66547290D01*
X204231514Y-66547290D02*
X204136276Y-66594909D01*
X204136276Y-66594909D02*
X204041038Y-66690147D01*
X204041038Y-66690147D02*
X203993419Y-66833004D01*
X203993419Y-66833004D02*
X203993419Y-66928242D01*
X203993419Y-66928242D02*
X204041038Y-67071099D01*
X204041038Y-67071099D02*
X204088657Y-67118718D01*
X204993419Y-68071099D02*
X204993419Y-67499671D01*
X204993419Y-67785385D02*
X203993419Y-67785385D01*
X203993419Y-67785385D02*
X204136276Y-67690147D01*
X204136276Y-67690147D02*
X204231514Y-67594909D01*
X204231514Y-67594909D02*
X204279133Y-67499671D01*
X203993419Y-68404433D02*
X203993419Y-69071099D01*
X203993419Y-69071099D02*
X204993419Y-68642528D01*
X207205619Y-67644685D02*
X206729428Y-67311352D01*
X207205619Y-67073257D02*
X206205619Y-67073257D01*
X206205619Y-67073257D02*
X206205619Y-67454209D01*
X206205619Y-67454209D02*
X206253238Y-67549447D01*
X206253238Y-67549447D02*
X206300857Y-67597066D01*
X206300857Y-67597066D02*
X206396095Y-67644685D01*
X206396095Y-67644685D02*
X206538952Y-67644685D01*
X206538952Y-67644685D02*
X206634190Y-67597066D01*
X206634190Y-67597066D02*
X206681809Y-67549447D01*
X206681809Y-67549447D02*
X206729428Y-67454209D01*
X206729428Y-67454209D02*
X206729428Y-67073257D01*
X206205619Y-67978019D02*
X206205619Y-68597066D01*
X206205619Y-68597066D02*
X206586571Y-68263733D01*
X206586571Y-68263733D02*
X206586571Y-68406590D01*
X206586571Y-68406590D02*
X206634190Y-68501828D01*
X206634190Y-68501828D02*
X206681809Y-68549447D01*
X206681809Y-68549447D02*
X206777047Y-68597066D01*
X206777047Y-68597066D02*
X207015142Y-68597066D01*
X207015142Y-68597066D02*
X207110380Y-68549447D01*
X207110380Y-68549447D02*
X207158000Y-68501828D01*
X207158000Y-68501828D02*
X207205619Y-68406590D01*
X207205619Y-68406590D02*
X207205619Y-68120876D01*
X207205619Y-68120876D02*
X207158000Y-68025638D01*
X207158000Y-68025638D02*
X207110380Y-67978019D01*
X206485952Y-58162342D02*
X206533572Y-58114723D01*
X206533572Y-58114723D02*
X206581191Y-57971866D01*
X206581191Y-57971866D02*
X206581191Y-57876628D01*
X206581191Y-57876628D02*
X206533572Y-57733771D01*
X206533572Y-57733771D02*
X206438333Y-57638533D01*
X206438333Y-57638533D02*
X206343095Y-57590914D01*
X206343095Y-57590914D02*
X206152619Y-57543295D01*
X206152619Y-57543295D02*
X206009762Y-57543295D01*
X206009762Y-57543295D02*
X205819286Y-57590914D01*
X205819286Y-57590914D02*
X205724048Y-57638533D01*
X205724048Y-57638533D02*
X205628810Y-57733771D01*
X205628810Y-57733771D02*
X205581191Y-57876628D01*
X205581191Y-57876628D02*
X205581191Y-57971866D01*
X205581191Y-57971866D02*
X205628810Y-58114723D01*
X205628810Y-58114723D02*
X205676429Y-58162342D01*
X206581191Y-59114723D02*
X206581191Y-58543295D01*
X206581191Y-58829009D02*
X205581191Y-58829009D01*
X205581191Y-58829009D02*
X205724048Y-58733771D01*
X205724048Y-58733771D02*
X205819286Y-58638533D01*
X205819286Y-58638533D02*
X205866905Y-58543295D01*
X206009762Y-59686152D02*
X205962143Y-59590914D01*
X205962143Y-59590914D02*
X205914524Y-59543295D01*
X205914524Y-59543295D02*
X205819286Y-59495676D01*
X205819286Y-59495676D02*
X205771667Y-59495676D01*
X205771667Y-59495676D02*
X205676429Y-59543295D01*
X205676429Y-59543295D02*
X205628810Y-59590914D01*
X205628810Y-59590914D02*
X205581191Y-59686152D01*
X205581191Y-59686152D02*
X205581191Y-59876628D01*
X205581191Y-59876628D02*
X205628810Y-59971866D01*
X205628810Y-59971866D02*
X205676429Y-60019485D01*
X205676429Y-60019485D02*
X205771667Y-60067104D01*
X205771667Y-60067104D02*
X205819286Y-60067104D01*
X205819286Y-60067104D02*
X205914524Y-60019485D01*
X205914524Y-60019485D02*
X205962143Y-59971866D01*
X205962143Y-59971866D02*
X206009762Y-59876628D01*
X206009762Y-59876628D02*
X206009762Y-59686152D01*
X206009762Y-59686152D02*
X206057381Y-59590914D01*
X206057381Y-59590914D02*
X206105000Y-59543295D01*
X206105000Y-59543295D02*
X206200238Y-59495676D01*
X206200238Y-59495676D02*
X206390714Y-59495676D01*
X206390714Y-59495676D02*
X206485952Y-59543295D01*
X206485952Y-59543295D02*
X206533572Y-59590914D01*
X206533572Y-59590914D02*
X206581191Y-59686152D01*
X206581191Y-59686152D02*
X206581191Y-59876628D01*
X206581191Y-59876628D02*
X206533572Y-59971866D01*
X206533572Y-59971866D02*
X206485952Y-60019485D01*
X206485952Y-60019485D02*
X206390714Y-60067104D01*
X206390714Y-60067104D02*
X206200238Y-60067104D01*
X206200238Y-60067104D02*
X206105000Y-60019485D01*
X206105000Y-60019485D02*
X206057381Y-59971866D01*
X206057381Y-59971866D02*
X206009762Y-59876628D01*
X182082057Y-63754250D02*
X182129676Y-63801870D01*
X182129676Y-63801870D02*
X182272533Y-63849489D01*
X182272533Y-63849489D02*
X182367771Y-63849489D01*
X182367771Y-63849489D02*
X182510628Y-63801870D01*
X182510628Y-63801870D02*
X182605866Y-63706631D01*
X182605866Y-63706631D02*
X182653485Y-63611393D01*
X182653485Y-63611393D02*
X182701104Y-63420917D01*
X182701104Y-63420917D02*
X182701104Y-63278060D01*
X182701104Y-63278060D02*
X182653485Y-63087584D01*
X182653485Y-63087584D02*
X182605866Y-62992346D01*
X182605866Y-62992346D02*
X182510628Y-62897108D01*
X182510628Y-62897108D02*
X182367771Y-62849489D01*
X182367771Y-62849489D02*
X182272533Y-62849489D01*
X182272533Y-62849489D02*
X182129676Y-62897108D01*
X182129676Y-62897108D02*
X182082057Y-62944727D01*
X181224914Y-63182822D02*
X181224914Y-63849489D01*
X181463009Y-62801870D02*
X181701104Y-63516155D01*
X181701104Y-63516155D02*
X181082057Y-63516155D01*
X180272533Y-63182822D02*
X180272533Y-63849489D01*
X180510628Y-62801870D02*
X180748723Y-63516155D01*
X180748723Y-63516155D02*
X180129676Y-63516155D01*
X178426976Y-57897742D02*
X178474596Y-57850123D01*
X178474596Y-57850123D02*
X178522215Y-57707266D01*
X178522215Y-57707266D02*
X178522215Y-57612028D01*
X178522215Y-57612028D02*
X178474596Y-57469171D01*
X178474596Y-57469171D02*
X178379357Y-57373933D01*
X178379357Y-57373933D02*
X178284119Y-57326314D01*
X178284119Y-57326314D02*
X178093643Y-57278695D01*
X178093643Y-57278695D02*
X177950786Y-57278695D01*
X177950786Y-57278695D02*
X177760310Y-57326314D01*
X177760310Y-57326314D02*
X177665072Y-57373933D01*
X177665072Y-57373933D02*
X177569834Y-57469171D01*
X177569834Y-57469171D02*
X177522215Y-57612028D01*
X177522215Y-57612028D02*
X177522215Y-57707266D01*
X177522215Y-57707266D02*
X177569834Y-57850123D01*
X177569834Y-57850123D02*
X177617453Y-57897742D01*
X177855548Y-58754885D02*
X178522215Y-58754885D01*
X177474596Y-58516790D02*
X178188881Y-58278695D01*
X178188881Y-58278695D02*
X178188881Y-58897742D01*
X177522215Y-59707266D02*
X177522215Y-59516790D01*
X177522215Y-59516790D02*
X177569834Y-59421552D01*
X177569834Y-59421552D02*
X177617453Y-59373933D01*
X177617453Y-59373933D02*
X177760310Y-59278695D01*
X177760310Y-59278695D02*
X177950786Y-59231076D01*
X177950786Y-59231076D02*
X178331738Y-59231076D01*
X178331738Y-59231076D02*
X178426976Y-59278695D01*
X178426976Y-59278695D02*
X178474596Y-59326314D01*
X178474596Y-59326314D02*
X178522215Y-59421552D01*
X178522215Y-59421552D02*
X178522215Y-59612028D01*
X178522215Y-59612028D02*
X178474596Y-59707266D01*
X178474596Y-59707266D02*
X178426976Y-59754885D01*
X178426976Y-59754885D02*
X178331738Y-59802504D01*
X178331738Y-59802504D02*
X178093643Y-59802504D01*
X178093643Y-59802504D02*
X177998405Y-59754885D01*
X177998405Y-59754885D02*
X177950786Y-59707266D01*
X177950786Y-59707266D02*
X177903167Y-59612028D01*
X177903167Y-59612028D02*
X177903167Y-59421552D01*
X177903167Y-59421552D02*
X177950786Y-59326314D01*
X177950786Y-59326314D02*
X177998405Y-59278695D01*
X177998405Y-59278695D02*
X178093643Y-59231076D01*
X175362853Y-62270381D02*
X175410472Y-62318001D01*
X175410472Y-62318001D02*
X175553329Y-62365620D01*
X175553329Y-62365620D02*
X175648567Y-62365620D01*
X175648567Y-62365620D02*
X175791424Y-62318001D01*
X175791424Y-62318001D02*
X175886662Y-62222762D01*
X175886662Y-62222762D02*
X175934281Y-62127524D01*
X175934281Y-62127524D02*
X175981900Y-61937048D01*
X175981900Y-61937048D02*
X175981900Y-61794191D01*
X175981900Y-61794191D02*
X175934281Y-61603715D01*
X175934281Y-61603715D02*
X175886662Y-61508477D01*
X175886662Y-61508477D02*
X175791424Y-61413239D01*
X175791424Y-61413239D02*
X175648567Y-61365620D01*
X175648567Y-61365620D02*
X175553329Y-61365620D01*
X175553329Y-61365620D02*
X175410472Y-61413239D01*
X175410472Y-61413239D02*
X175362853Y-61460858D01*
X174505710Y-61698953D02*
X174505710Y-62365620D01*
X174743805Y-61318001D02*
X174981900Y-62032286D01*
X174981900Y-62032286D02*
X174362853Y-62032286D01*
X173505710Y-61365620D02*
X173981900Y-61365620D01*
X173981900Y-61365620D02*
X174029519Y-61841810D01*
X174029519Y-61841810D02*
X173981900Y-61794191D01*
X173981900Y-61794191D02*
X173886662Y-61746572D01*
X173886662Y-61746572D02*
X173648567Y-61746572D01*
X173648567Y-61746572D02*
X173553329Y-61794191D01*
X173553329Y-61794191D02*
X173505710Y-61841810D01*
X173505710Y-61841810D02*
X173458091Y-61937048D01*
X173458091Y-61937048D02*
X173458091Y-62175143D01*
X173458091Y-62175143D02*
X173505710Y-62270381D01*
X173505710Y-62270381D02*
X173553329Y-62318001D01*
X173553329Y-62318001D02*
X173648567Y-62365620D01*
X173648567Y-62365620D02*
X173886662Y-62365620D01*
X173886662Y-62365620D02*
X173981900Y-62318001D01*
X173981900Y-62318001D02*
X174029519Y-62270381D01*
X181349023Y-57945342D02*
X180872832Y-57612009D01*
X181349023Y-57373914D02*
X180349023Y-57373914D01*
X180349023Y-57373914D02*
X180349023Y-57754866D01*
X180349023Y-57754866D02*
X180396642Y-57850104D01*
X180396642Y-57850104D02*
X180444261Y-57897723D01*
X180444261Y-57897723D02*
X180539499Y-57945342D01*
X180539499Y-57945342D02*
X180682356Y-57945342D01*
X180682356Y-57945342D02*
X180777594Y-57897723D01*
X180777594Y-57897723D02*
X180825213Y-57850104D01*
X180825213Y-57850104D02*
X180872832Y-57754866D01*
X180872832Y-57754866D02*
X180872832Y-57373914D01*
X180444261Y-58326295D02*
X180396642Y-58373914D01*
X180396642Y-58373914D02*
X180349023Y-58469152D01*
X180349023Y-58469152D02*
X180349023Y-58707247D01*
X180349023Y-58707247D02*
X180396642Y-58802485D01*
X180396642Y-58802485D02*
X180444261Y-58850104D01*
X180444261Y-58850104D02*
X180539499Y-58897723D01*
X180539499Y-58897723D02*
X180634737Y-58897723D01*
X180634737Y-58897723D02*
X180777594Y-58850104D01*
X180777594Y-58850104D02*
X181349023Y-58278676D01*
X181349023Y-58278676D02*
X181349023Y-58897723D01*
X180349023Y-59231057D02*
X180349023Y-59850104D01*
X180349023Y-59850104D02*
X180729975Y-59516771D01*
X180729975Y-59516771D02*
X180729975Y-59659628D01*
X180729975Y-59659628D02*
X180777594Y-59754866D01*
X180777594Y-59754866D02*
X180825213Y-59802485D01*
X180825213Y-59802485D02*
X180920451Y-59850104D01*
X180920451Y-59850104D02*
X181158546Y-59850104D01*
X181158546Y-59850104D02*
X181253784Y-59802485D01*
X181253784Y-59802485D02*
X181301404Y-59754866D01*
X181301404Y-59754866D02*
X181349023Y-59659628D01*
X181349023Y-59659628D02*
X181349023Y-59373914D01*
X181349023Y-59373914D02*
X181301404Y-59278676D01*
X181301404Y-59278676D02*
X181253784Y-59231057D01*
X175959823Y-57775742D02*
X175483632Y-57442409D01*
X175959823Y-57204314D02*
X174959823Y-57204314D01*
X174959823Y-57204314D02*
X174959823Y-57585266D01*
X174959823Y-57585266D02*
X175007442Y-57680504D01*
X175007442Y-57680504D02*
X175055061Y-57728123D01*
X175055061Y-57728123D02*
X175150299Y-57775742D01*
X175150299Y-57775742D02*
X175293156Y-57775742D01*
X175293156Y-57775742D02*
X175388394Y-57728123D01*
X175388394Y-57728123D02*
X175436013Y-57680504D01*
X175436013Y-57680504D02*
X175483632Y-57585266D01*
X175483632Y-57585266D02*
X175483632Y-57204314D01*
X175055061Y-58156695D02*
X175007442Y-58204314D01*
X175007442Y-58204314D02*
X174959823Y-58299552D01*
X174959823Y-58299552D02*
X174959823Y-58537647D01*
X174959823Y-58537647D02*
X175007442Y-58632885D01*
X175007442Y-58632885D02*
X175055061Y-58680504D01*
X175055061Y-58680504D02*
X175150299Y-58728123D01*
X175150299Y-58728123D02*
X175245537Y-58728123D01*
X175245537Y-58728123D02*
X175388394Y-58680504D01*
X175388394Y-58680504D02*
X175959823Y-58109076D01*
X175959823Y-58109076D02*
X175959823Y-58728123D01*
X175293156Y-59585266D02*
X175959823Y-59585266D01*
X174912204Y-59347171D02*
X175626489Y-59109076D01*
X175626489Y-59109076D02*
X175626489Y-59728123D01*
X175208457Y-65073487D02*
X175541790Y-64597296D01*
X175779885Y-65073487D02*
X175779885Y-64073487D01*
X175779885Y-64073487D02*
X175398933Y-64073487D01*
X175398933Y-64073487D02*
X175303695Y-64121106D01*
X175303695Y-64121106D02*
X175256076Y-64168725D01*
X175256076Y-64168725D02*
X175208457Y-64263963D01*
X175208457Y-64263963D02*
X175208457Y-64406820D01*
X175208457Y-64406820D02*
X175256076Y-64502058D01*
X175256076Y-64502058D02*
X175303695Y-64549677D01*
X175303695Y-64549677D02*
X175398933Y-64597296D01*
X175398933Y-64597296D02*
X175779885Y-64597296D01*
X174827504Y-64168725D02*
X174779885Y-64121106D01*
X174779885Y-64121106D02*
X174684647Y-64073487D01*
X174684647Y-64073487D02*
X174446552Y-64073487D01*
X174446552Y-64073487D02*
X174351314Y-64121106D01*
X174351314Y-64121106D02*
X174303695Y-64168725D01*
X174303695Y-64168725D02*
X174256076Y-64263963D01*
X174256076Y-64263963D02*
X174256076Y-64359201D01*
X174256076Y-64359201D02*
X174303695Y-64502058D01*
X174303695Y-64502058D02*
X174875123Y-65073487D01*
X174875123Y-65073487D02*
X174256076Y-65073487D01*
X173303695Y-65073487D02*
X173875123Y-65073487D01*
X173589409Y-65073487D02*
X173589409Y-64073487D01*
X173589409Y-64073487D02*
X173684647Y-64216344D01*
X173684647Y-64216344D02*
X173779885Y-64311582D01*
X173779885Y-64311582D02*
X173875123Y-64359201D01*
X184528619Y-70359742D02*
X184052428Y-70026409D01*
X184528619Y-69788314D02*
X183528619Y-69788314D01*
X183528619Y-69788314D02*
X183528619Y-70169266D01*
X183528619Y-70169266D02*
X183576238Y-70264504D01*
X183576238Y-70264504D02*
X183623857Y-70312123D01*
X183623857Y-70312123D02*
X183719095Y-70359742D01*
X183719095Y-70359742D02*
X183861952Y-70359742D01*
X183861952Y-70359742D02*
X183957190Y-70312123D01*
X183957190Y-70312123D02*
X184004809Y-70264504D01*
X184004809Y-70264504D02*
X184052428Y-70169266D01*
X184052428Y-70169266D02*
X184052428Y-69788314D01*
X184528619Y-71312123D02*
X184528619Y-70740695D01*
X184528619Y-71026409D02*
X183528619Y-71026409D01*
X183528619Y-71026409D02*
X183671476Y-70931171D01*
X183671476Y-70931171D02*
X183766714Y-70835933D01*
X183766714Y-70835933D02*
X183814333Y-70740695D01*
X183528619Y-72169266D02*
X183528619Y-71978790D01*
X183528619Y-71978790D02*
X183576238Y-71883552D01*
X183576238Y-71883552D02*
X183623857Y-71835933D01*
X183623857Y-71835933D02*
X183766714Y-71740695D01*
X183766714Y-71740695D02*
X183957190Y-71693076D01*
X183957190Y-71693076D02*
X184338142Y-71693076D01*
X184338142Y-71693076D02*
X184433380Y-71740695D01*
X184433380Y-71740695D02*
X184481000Y-71788314D01*
X184481000Y-71788314D02*
X184528619Y-71883552D01*
X184528619Y-71883552D02*
X184528619Y-72074028D01*
X184528619Y-72074028D02*
X184481000Y-72169266D01*
X184481000Y-72169266D02*
X184433380Y-72216885D01*
X184433380Y-72216885D02*
X184338142Y-72264504D01*
X184338142Y-72264504D02*
X184100047Y-72264504D01*
X184100047Y-72264504D02*
X184004809Y-72216885D01*
X184004809Y-72216885D02*
X183957190Y-72169266D01*
X183957190Y-72169266D02*
X183909571Y-72074028D01*
X183909571Y-72074028D02*
X183909571Y-71883552D01*
X183909571Y-71883552D02*
X183957190Y-71788314D01*
X183957190Y-71788314D02*
X184004809Y-71740695D01*
X184004809Y-71740695D02*
X184100047Y-71693076D01*
X176943394Y-68864780D02*
X176991013Y-68912400D01*
X176991013Y-68912400D02*
X177133870Y-68960019D01*
X177133870Y-68960019D02*
X177229108Y-68960019D01*
X177229108Y-68960019D02*
X177371965Y-68912400D01*
X177371965Y-68912400D02*
X177467203Y-68817161D01*
X177467203Y-68817161D02*
X177514822Y-68721923D01*
X177514822Y-68721923D02*
X177562441Y-68531447D01*
X177562441Y-68531447D02*
X177562441Y-68388590D01*
X177562441Y-68388590D02*
X177514822Y-68198114D01*
X177514822Y-68198114D02*
X177467203Y-68102876D01*
X177467203Y-68102876D02*
X177371965Y-68007638D01*
X177371965Y-68007638D02*
X177229108Y-67960019D01*
X177229108Y-67960019D02*
X177133870Y-67960019D01*
X177133870Y-67960019D02*
X176991013Y-68007638D01*
X176991013Y-68007638D02*
X176943394Y-68055257D01*
X176086251Y-68293352D02*
X176086251Y-68960019D01*
X176324346Y-67912400D02*
X176562441Y-68626685D01*
X176562441Y-68626685D02*
X175943394Y-68626685D01*
X175371965Y-67960019D02*
X175276727Y-67960019D01*
X175276727Y-67960019D02*
X175181489Y-68007638D01*
X175181489Y-68007638D02*
X175133870Y-68055257D01*
X175133870Y-68055257D02*
X175086251Y-68150495D01*
X175086251Y-68150495D02*
X175038632Y-68340971D01*
X175038632Y-68340971D02*
X175038632Y-68579066D01*
X175038632Y-68579066D02*
X175086251Y-68769542D01*
X175086251Y-68769542D02*
X175133870Y-68864780D01*
X175133870Y-68864780D02*
X175181489Y-68912400D01*
X175181489Y-68912400D02*
X175276727Y-68960019D01*
X175276727Y-68960019D02*
X175371965Y-68960019D01*
X175371965Y-68960019D02*
X175467203Y-68912400D01*
X175467203Y-68912400D02*
X175514822Y-68864780D01*
X175514822Y-68864780D02*
X175562441Y-68769542D01*
X175562441Y-68769542D02*
X175610060Y-68579066D01*
X175610060Y-68579066D02*
X175610060Y-68340971D01*
X175610060Y-68340971D02*
X175562441Y-68150495D01*
X175562441Y-68150495D02*
X175514822Y-68055257D01*
X175514822Y-68055257D02*
X175467203Y-68007638D01*
X175467203Y-68007638D02*
X175371965Y-67960019D01*
X173451981Y-57859142D02*
X173499601Y-57811523D01*
X173499601Y-57811523D02*
X173547220Y-57668666D01*
X173547220Y-57668666D02*
X173547220Y-57573428D01*
X173547220Y-57573428D02*
X173499601Y-57430571D01*
X173499601Y-57430571D02*
X173404362Y-57335333D01*
X173404362Y-57335333D02*
X173309124Y-57287714D01*
X173309124Y-57287714D02*
X173118648Y-57240095D01*
X173118648Y-57240095D02*
X172975791Y-57240095D01*
X172975791Y-57240095D02*
X172785315Y-57287714D01*
X172785315Y-57287714D02*
X172690077Y-57335333D01*
X172690077Y-57335333D02*
X172594839Y-57430571D01*
X172594839Y-57430571D02*
X172547220Y-57573428D01*
X172547220Y-57573428D02*
X172547220Y-57668666D01*
X172547220Y-57668666D02*
X172594839Y-57811523D01*
X172594839Y-57811523D02*
X172642458Y-57859142D01*
X172880553Y-58716285D02*
X173547220Y-58716285D01*
X172499601Y-58478190D02*
X173213886Y-58240095D01*
X173213886Y-58240095D02*
X173213886Y-58859142D01*
X172547220Y-59144857D02*
X172547220Y-59811523D01*
X172547220Y-59811523D02*
X173547220Y-59382952D01*
X176882857Y-76465180D02*
X176930476Y-76512800D01*
X176930476Y-76512800D02*
X177073333Y-76560419D01*
X177073333Y-76560419D02*
X177168571Y-76560419D01*
X177168571Y-76560419D02*
X177311428Y-76512800D01*
X177311428Y-76512800D02*
X177406666Y-76417561D01*
X177406666Y-76417561D02*
X177454285Y-76322323D01*
X177454285Y-76322323D02*
X177501904Y-76131847D01*
X177501904Y-76131847D02*
X177501904Y-75988990D01*
X177501904Y-75988990D02*
X177454285Y-75798514D01*
X177454285Y-75798514D02*
X177406666Y-75703276D01*
X177406666Y-75703276D02*
X177311428Y-75608038D01*
X177311428Y-75608038D02*
X177168571Y-75560419D01*
X177168571Y-75560419D02*
X177073333Y-75560419D01*
X177073333Y-75560419D02*
X176930476Y-75608038D01*
X176930476Y-75608038D02*
X176882857Y-75655657D01*
X176549523Y-75560419D02*
X175930476Y-75560419D01*
X175930476Y-75560419D02*
X176263809Y-75941371D01*
X176263809Y-75941371D02*
X176120952Y-75941371D01*
X176120952Y-75941371D02*
X176025714Y-75988990D01*
X176025714Y-75988990D02*
X175978095Y-76036609D01*
X175978095Y-76036609D02*
X175930476Y-76131847D01*
X175930476Y-76131847D02*
X175930476Y-76369942D01*
X175930476Y-76369942D02*
X175978095Y-76465180D01*
X175978095Y-76465180D02*
X176025714Y-76512800D01*
X176025714Y-76512800D02*
X176120952Y-76560419D01*
X176120952Y-76560419D02*
X176406666Y-76560419D01*
X176406666Y-76560419D02*
X176501904Y-76512800D01*
X176501904Y-76512800D02*
X176549523Y-76465180D01*
X175597142Y-75560419D02*
X174978095Y-75560419D01*
X174978095Y-75560419D02*
X175311428Y-75941371D01*
X175311428Y-75941371D02*
X175168571Y-75941371D01*
X175168571Y-75941371D02*
X175073333Y-75988990D01*
X175073333Y-75988990D02*
X175025714Y-76036609D01*
X175025714Y-76036609D02*
X174978095Y-76131847D01*
X174978095Y-76131847D02*
X174978095Y-76369942D01*
X174978095Y-76369942D02*
X175025714Y-76465180D01*
X175025714Y-76465180D02*
X175073333Y-76512800D01*
X175073333Y-76512800D02*
X175168571Y-76560419D01*
X175168571Y-76560419D02*
X175454285Y-76560419D01*
X175454285Y-76560419D02*
X175549523Y-76512800D01*
X175549523Y-76512800D02*
X175597142Y-76465180D01*
X176677118Y-67056819D02*
X177010451Y-66580628D01*
X177248546Y-67056819D02*
X177248546Y-66056819D01*
X177248546Y-66056819D02*
X176867594Y-66056819D01*
X176867594Y-66056819D02*
X176772356Y-66104438D01*
X176772356Y-66104438D02*
X176724737Y-66152057D01*
X176724737Y-66152057D02*
X176677118Y-66247295D01*
X176677118Y-66247295D02*
X176677118Y-66390152D01*
X176677118Y-66390152D02*
X176724737Y-66485390D01*
X176724737Y-66485390D02*
X176772356Y-66533009D01*
X176772356Y-66533009D02*
X176867594Y-66580628D01*
X176867594Y-66580628D02*
X177248546Y-66580628D01*
X175724737Y-67056819D02*
X176296165Y-67056819D01*
X176010451Y-67056819D02*
X176010451Y-66056819D01*
X176010451Y-66056819D02*
X176105689Y-66199676D01*
X176105689Y-66199676D02*
X176200927Y-66294914D01*
X176200927Y-66294914D02*
X176296165Y-66342533D01*
X175248546Y-67056819D02*
X175058070Y-67056819D01*
X175058070Y-67056819D02*
X174962832Y-67009200D01*
X174962832Y-67009200D02*
X174915213Y-66961580D01*
X174915213Y-66961580D02*
X174819975Y-66818723D01*
X174819975Y-66818723D02*
X174772356Y-66628247D01*
X174772356Y-66628247D02*
X174772356Y-66247295D01*
X174772356Y-66247295D02*
X174819975Y-66152057D01*
X174819975Y-66152057D02*
X174867594Y-66104438D01*
X174867594Y-66104438D02*
X174962832Y-66056819D01*
X174962832Y-66056819D02*
X175153308Y-66056819D01*
X175153308Y-66056819D02*
X175248546Y-66104438D01*
X175248546Y-66104438D02*
X175296165Y-66152057D01*
X175296165Y-66152057D02*
X175343784Y-66247295D01*
X175343784Y-66247295D02*
X175343784Y-66485390D01*
X175343784Y-66485390D02*
X175296165Y-66580628D01*
X175296165Y-66580628D02*
X175248546Y-66628247D01*
X175248546Y-66628247D02*
X175153308Y-66675866D01*
X175153308Y-66675866D02*
X174962832Y-66675866D01*
X174962832Y-66675866D02*
X174867594Y-66628247D01*
X174867594Y-66628247D02*
X174819975Y-66580628D01*
X174819975Y-66580628D02*
X174772356Y-66485390D01*
X185894458Y-63377219D02*
X186227791Y-62901028D01*
X186465886Y-63377219D02*
X186465886Y-62377219D01*
X186465886Y-62377219D02*
X186084934Y-62377219D01*
X186084934Y-62377219D02*
X185989696Y-62424838D01*
X185989696Y-62424838D02*
X185942077Y-62472457D01*
X185942077Y-62472457D02*
X185894458Y-62567695D01*
X185894458Y-62567695D02*
X185894458Y-62710552D01*
X185894458Y-62710552D02*
X185942077Y-62805790D01*
X185942077Y-62805790D02*
X185989696Y-62853409D01*
X185989696Y-62853409D02*
X186084934Y-62901028D01*
X186084934Y-62901028D02*
X186465886Y-62901028D01*
X185513505Y-62472457D02*
X185465886Y-62424838D01*
X185465886Y-62424838D02*
X185370648Y-62377219D01*
X185370648Y-62377219D02*
X185132553Y-62377219D01*
X185132553Y-62377219D02*
X185037315Y-62424838D01*
X185037315Y-62424838D02*
X184989696Y-62472457D01*
X184989696Y-62472457D02*
X184942077Y-62567695D01*
X184942077Y-62567695D02*
X184942077Y-62662933D01*
X184942077Y-62662933D02*
X184989696Y-62805790D01*
X184989696Y-62805790D02*
X185561124Y-63377219D01*
X185561124Y-63377219D02*
X184942077Y-63377219D01*
X184561124Y-62472457D02*
X184513505Y-62424838D01*
X184513505Y-62424838D02*
X184418267Y-62377219D01*
X184418267Y-62377219D02*
X184180172Y-62377219D01*
X184180172Y-62377219D02*
X184084934Y-62424838D01*
X184084934Y-62424838D02*
X184037315Y-62472457D01*
X184037315Y-62472457D02*
X183989696Y-62567695D01*
X183989696Y-62567695D02*
X183989696Y-62662933D01*
X183989696Y-62662933D02*
X184037315Y-62805790D01*
X184037315Y-62805790D02*
X184608743Y-63377219D01*
X184608743Y-63377219D02*
X183989696Y-63377219D01*
X186842057Y-68754776D02*
X186889676Y-68802396D01*
X186889676Y-68802396D02*
X187032533Y-68850015D01*
X187032533Y-68850015D02*
X187127771Y-68850015D01*
X187127771Y-68850015D02*
X187270628Y-68802396D01*
X187270628Y-68802396D02*
X187365866Y-68707157D01*
X187365866Y-68707157D02*
X187413485Y-68611919D01*
X187413485Y-68611919D02*
X187461104Y-68421443D01*
X187461104Y-68421443D02*
X187461104Y-68278586D01*
X187461104Y-68278586D02*
X187413485Y-68088110D01*
X187413485Y-68088110D02*
X187365866Y-67992872D01*
X187365866Y-67992872D02*
X187270628Y-67897634D01*
X187270628Y-67897634D02*
X187127771Y-67850015D01*
X187127771Y-67850015D02*
X187032533Y-67850015D01*
X187032533Y-67850015D02*
X186889676Y-67897634D01*
X186889676Y-67897634D02*
X186842057Y-67945253D01*
X185984914Y-68183348D02*
X185984914Y-68850015D01*
X186223009Y-67802396D02*
X186461104Y-68516681D01*
X186461104Y-68516681D02*
X185842057Y-68516681D01*
X184937295Y-68850015D02*
X185508723Y-68850015D01*
X185223009Y-68850015D02*
X185223009Y-67850015D01*
X185223009Y-67850015D02*
X185318247Y-67992872D01*
X185318247Y-67992872D02*
X185413485Y-68088110D01*
X185413485Y-68088110D02*
X185508723Y-68135729D01*
X187061392Y-67006019D02*
X187394725Y-66529828D01*
X187632820Y-67006019D02*
X187632820Y-66006019D01*
X187632820Y-66006019D02*
X187251868Y-66006019D01*
X187251868Y-66006019D02*
X187156630Y-66053638D01*
X187156630Y-66053638D02*
X187109011Y-66101257D01*
X187109011Y-66101257D02*
X187061392Y-66196495D01*
X187061392Y-66196495D02*
X187061392Y-66339352D01*
X187061392Y-66339352D02*
X187109011Y-66434590D01*
X187109011Y-66434590D02*
X187156630Y-66482209D01*
X187156630Y-66482209D02*
X187251868Y-66529828D01*
X187251868Y-66529828D02*
X187632820Y-66529828D01*
X186680439Y-66101257D02*
X186632820Y-66053638D01*
X186632820Y-66053638D02*
X186537582Y-66006019D01*
X186537582Y-66006019D02*
X186299487Y-66006019D01*
X186299487Y-66006019D02*
X186204249Y-66053638D01*
X186204249Y-66053638D02*
X186156630Y-66101257D01*
X186156630Y-66101257D02*
X186109011Y-66196495D01*
X186109011Y-66196495D02*
X186109011Y-66291733D01*
X186109011Y-66291733D02*
X186156630Y-66434590D01*
X186156630Y-66434590D02*
X186728058Y-67006019D01*
X186728058Y-67006019D02*
X186109011Y-67006019D01*
X185489963Y-66006019D02*
X185394725Y-66006019D01*
X185394725Y-66006019D02*
X185299487Y-66053638D01*
X185299487Y-66053638D02*
X185251868Y-66101257D01*
X185251868Y-66101257D02*
X185204249Y-66196495D01*
X185204249Y-66196495D02*
X185156630Y-66386971D01*
X185156630Y-66386971D02*
X185156630Y-66625066D01*
X185156630Y-66625066D02*
X185204249Y-66815542D01*
X185204249Y-66815542D02*
X185251868Y-66910780D01*
X185251868Y-66910780D02*
X185299487Y-66958400D01*
X185299487Y-66958400D02*
X185394725Y-67006019D01*
X185394725Y-67006019D02*
X185489963Y-67006019D01*
X185489963Y-67006019D02*
X185585201Y-66958400D01*
X185585201Y-66958400D02*
X185632820Y-66910780D01*
X185632820Y-66910780D02*
X185680439Y-66815542D01*
X185680439Y-66815542D02*
X185728058Y-66625066D01*
X185728058Y-66625066D02*
X185728058Y-66386971D01*
X185728058Y-66386971D02*
X185680439Y-66196495D01*
X185680439Y-66196495D02*
X185632820Y-66101257D01*
X185632820Y-66101257D02*
X185585201Y-66053638D01*
X185585201Y-66053638D02*
X185489963Y-66006019D01*
X178793955Y-70408942D02*
X178317764Y-70075609D01*
X178793955Y-69837514D02*
X177793955Y-69837514D01*
X177793955Y-69837514D02*
X177793955Y-70218466D01*
X177793955Y-70218466D02*
X177841574Y-70313704D01*
X177841574Y-70313704D02*
X177889193Y-70361323D01*
X177889193Y-70361323D02*
X177984431Y-70408942D01*
X177984431Y-70408942D02*
X178127288Y-70408942D01*
X178127288Y-70408942D02*
X178222526Y-70361323D01*
X178222526Y-70361323D02*
X178270145Y-70313704D01*
X178270145Y-70313704D02*
X178317764Y-70218466D01*
X178317764Y-70218466D02*
X178317764Y-69837514D01*
X178793955Y-71361323D02*
X178793955Y-70789895D01*
X178793955Y-71075609D02*
X177793955Y-71075609D01*
X177793955Y-71075609D02*
X177936812Y-70980371D01*
X177936812Y-70980371D02*
X178032050Y-70885133D01*
X178032050Y-70885133D02*
X178079669Y-70789895D01*
X177793955Y-72266085D02*
X177793955Y-71789895D01*
X177793955Y-71789895D02*
X178270145Y-71742276D01*
X178270145Y-71742276D02*
X178222526Y-71789895D01*
X178222526Y-71789895D02*
X178174907Y-71885133D01*
X178174907Y-71885133D02*
X178174907Y-72123228D01*
X178174907Y-72123228D02*
X178222526Y-72218466D01*
X178222526Y-72218466D02*
X178270145Y-72266085D01*
X178270145Y-72266085D02*
X178365383Y-72313704D01*
X178365383Y-72313704D02*
X178603478Y-72313704D01*
X178603478Y-72313704D02*
X178698716Y-72266085D01*
X178698716Y-72266085D02*
X178746336Y-72218466D01*
X178746336Y-72218466D02*
X178793955Y-72123228D01*
X178793955Y-72123228D02*
X178793955Y-71885133D01*
X178793955Y-71885133D02*
X178746336Y-71789895D01*
X178746336Y-71789895D02*
X178698716Y-71742276D01*
X233709057Y-63744250D02*
X233756676Y-63791870D01*
X233756676Y-63791870D02*
X233899533Y-63839489D01*
X233899533Y-63839489D02*
X233994771Y-63839489D01*
X233994771Y-63839489D02*
X234137628Y-63791870D01*
X234137628Y-63791870D02*
X234232866Y-63696631D01*
X234232866Y-63696631D02*
X234280485Y-63601393D01*
X234280485Y-63601393D02*
X234328104Y-63410917D01*
X234328104Y-63410917D02*
X234328104Y-63268060D01*
X234328104Y-63268060D02*
X234280485Y-63077584D01*
X234280485Y-63077584D02*
X234232866Y-62982346D01*
X234232866Y-62982346D02*
X234137628Y-62887108D01*
X234137628Y-62887108D02*
X233994771Y-62839489D01*
X233994771Y-62839489D02*
X233899533Y-62839489D01*
X233899533Y-62839489D02*
X233756676Y-62887108D01*
X233756676Y-62887108D02*
X233709057Y-62934727D01*
X232851914Y-63172822D02*
X232851914Y-63839489D01*
X233090009Y-62791870D02*
X233328104Y-63506155D01*
X233328104Y-63506155D02*
X232709057Y-63506155D01*
X231899533Y-63172822D02*
X231899533Y-63839489D01*
X232137628Y-62791870D02*
X232375723Y-63506155D01*
X232375723Y-63506155D02*
X231756676Y-63506155D01*
X230053976Y-57887742D02*
X230101596Y-57840123D01*
X230101596Y-57840123D02*
X230149215Y-57697266D01*
X230149215Y-57697266D02*
X230149215Y-57602028D01*
X230149215Y-57602028D02*
X230101596Y-57459171D01*
X230101596Y-57459171D02*
X230006357Y-57363933D01*
X230006357Y-57363933D02*
X229911119Y-57316314D01*
X229911119Y-57316314D02*
X229720643Y-57268695D01*
X229720643Y-57268695D02*
X229577786Y-57268695D01*
X229577786Y-57268695D02*
X229387310Y-57316314D01*
X229387310Y-57316314D02*
X229292072Y-57363933D01*
X229292072Y-57363933D02*
X229196834Y-57459171D01*
X229196834Y-57459171D02*
X229149215Y-57602028D01*
X229149215Y-57602028D02*
X229149215Y-57697266D01*
X229149215Y-57697266D02*
X229196834Y-57840123D01*
X229196834Y-57840123D02*
X229244453Y-57887742D01*
X229482548Y-58744885D02*
X230149215Y-58744885D01*
X229101596Y-58506790D02*
X229815881Y-58268695D01*
X229815881Y-58268695D02*
X229815881Y-58887742D01*
X229149215Y-59697266D02*
X229149215Y-59506790D01*
X229149215Y-59506790D02*
X229196834Y-59411552D01*
X229196834Y-59411552D02*
X229244453Y-59363933D01*
X229244453Y-59363933D02*
X229387310Y-59268695D01*
X229387310Y-59268695D02*
X229577786Y-59221076D01*
X229577786Y-59221076D02*
X229958738Y-59221076D01*
X229958738Y-59221076D02*
X230053976Y-59268695D01*
X230053976Y-59268695D02*
X230101596Y-59316314D01*
X230101596Y-59316314D02*
X230149215Y-59411552D01*
X230149215Y-59411552D02*
X230149215Y-59602028D01*
X230149215Y-59602028D02*
X230101596Y-59697266D01*
X230101596Y-59697266D02*
X230053976Y-59744885D01*
X230053976Y-59744885D02*
X229958738Y-59792504D01*
X229958738Y-59792504D02*
X229720643Y-59792504D01*
X229720643Y-59792504D02*
X229625405Y-59744885D01*
X229625405Y-59744885D02*
X229577786Y-59697266D01*
X229577786Y-59697266D02*
X229530167Y-59602028D01*
X229530167Y-59602028D02*
X229530167Y-59411552D01*
X229530167Y-59411552D02*
X229577786Y-59316314D01*
X229577786Y-59316314D02*
X229625405Y-59268695D01*
X229625405Y-59268695D02*
X229720643Y-59221076D01*
X226989853Y-62260381D02*
X227037472Y-62308001D01*
X227037472Y-62308001D02*
X227180329Y-62355620D01*
X227180329Y-62355620D02*
X227275567Y-62355620D01*
X227275567Y-62355620D02*
X227418424Y-62308001D01*
X227418424Y-62308001D02*
X227513662Y-62212762D01*
X227513662Y-62212762D02*
X227561281Y-62117524D01*
X227561281Y-62117524D02*
X227608900Y-61927048D01*
X227608900Y-61927048D02*
X227608900Y-61784191D01*
X227608900Y-61784191D02*
X227561281Y-61593715D01*
X227561281Y-61593715D02*
X227513662Y-61498477D01*
X227513662Y-61498477D02*
X227418424Y-61403239D01*
X227418424Y-61403239D02*
X227275567Y-61355620D01*
X227275567Y-61355620D02*
X227180329Y-61355620D01*
X227180329Y-61355620D02*
X227037472Y-61403239D01*
X227037472Y-61403239D02*
X226989853Y-61450858D01*
X226132710Y-61688953D02*
X226132710Y-62355620D01*
X226370805Y-61308001D02*
X226608900Y-62022286D01*
X226608900Y-62022286D02*
X225989853Y-62022286D01*
X225132710Y-61355620D02*
X225608900Y-61355620D01*
X225608900Y-61355620D02*
X225656519Y-61831810D01*
X225656519Y-61831810D02*
X225608900Y-61784191D01*
X225608900Y-61784191D02*
X225513662Y-61736572D01*
X225513662Y-61736572D02*
X225275567Y-61736572D01*
X225275567Y-61736572D02*
X225180329Y-61784191D01*
X225180329Y-61784191D02*
X225132710Y-61831810D01*
X225132710Y-61831810D02*
X225085091Y-61927048D01*
X225085091Y-61927048D02*
X225085091Y-62165143D01*
X225085091Y-62165143D02*
X225132710Y-62260381D01*
X225132710Y-62260381D02*
X225180329Y-62308001D01*
X225180329Y-62308001D02*
X225275567Y-62355620D01*
X225275567Y-62355620D02*
X225513662Y-62355620D01*
X225513662Y-62355620D02*
X225608900Y-62308001D01*
X225608900Y-62308001D02*
X225656519Y-62260381D01*
X232976023Y-57935342D02*
X232499832Y-57602009D01*
X232976023Y-57363914D02*
X231976023Y-57363914D01*
X231976023Y-57363914D02*
X231976023Y-57744866D01*
X231976023Y-57744866D02*
X232023642Y-57840104D01*
X232023642Y-57840104D02*
X232071261Y-57887723D01*
X232071261Y-57887723D02*
X232166499Y-57935342D01*
X232166499Y-57935342D02*
X232309356Y-57935342D01*
X232309356Y-57935342D02*
X232404594Y-57887723D01*
X232404594Y-57887723D02*
X232452213Y-57840104D01*
X232452213Y-57840104D02*
X232499832Y-57744866D01*
X232499832Y-57744866D02*
X232499832Y-57363914D01*
X232071261Y-58316295D02*
X232023642Y-58363914D01*
X232023642Y-58363914D02*
X231976023Y-58459152D01*
X231976023Y-58459152D02*
X231976023Y-58697247D01*
X231976023Y-58697247D02*
X232023642Y-58792485D01*
X232023642Y-58792485D02*
X232071261Y-58840104D01*
X232071261Y-58840104D02*
X232166499Y-58887723D01*
X232166499Y-58887723D02*
X232261737Y-58887723D01*
X232261737Y-58887723D02*
X232404594Y-58840104D01*
X232404594Y-58840104D02*
X232976023Y-58268676D01*
X232976023Y-58268676D02*
X232976023Y-58887723D01*
X231976023Y-59221057D02*
X231976023Y-59840104D01*
X231976023Y-59840104D02*
X232356975Y-59506771D01*
X232356975Y-59506771D02*
X232356975Y-59649628D01*
X232356975Y-59649628D02*
X232404594Y-59744866D01*
X232404594Y-59744866D02*
X232452213Y-59792485D01*
X232452213Y-59792485D02*
X232547451Y-59840104D01*
X232547451Y-59840104D02*
X232785546Y-59840104D01*
X232785546Y-59840104D02*
X232880784Y-59792485D01*
X232880784Y-59792485D02*
X232928404Y-59744866D01*
X232928404Y-59744866D02*
X232976023Y-59649628D01*
X232976023Y-59649628D02*
X232976023Y-59363914D01*
X232976023Y-59363914D02*
X232928404Y-59268676D01*
X232928404Y-59268676D02*
X232880784Y-59221057D01*
X227586823Y-57765742D02*
X227110632Y-57432409D01*
X227586823Y-57194314D02*
X226586823Y-57194314D01*
X226586823Y-57194314D02*
X226586823Y-57575266D01*
X226586823Y-57575266D02*
X226634442Y-57670504D01*
X226634442Y-57670504D02*
X226682061Y-57718123D01*
X226682061Y-57718123D02*
X226777299Y-57765742D01*
X226777299Y-57765742D02*
X226920156Y-57765742D01*
X226920156Y-57765742D02*
X227015394Y-57718123D01*
X227015394Y-57718123D02*
X227063013Y-57670504D01*
X227063013Y-57670504D02*
X227110632Y-57575266D01*
X227110632Y-57575266D02*
X227110632Y-57194314D01*
X226682061Y-58146695D02*
X226634442Y-58194314D01*
X226634442Y-58194314D02*
X226586823Y-58289552D01*
X226586823Y-58289552D02*
X226586823Y-58527647D01*
X226586823Y-58527647D02*
X226634442Y-58622885D01*
X226634442Y-58622885D02*
X226682061Y-58670504D01*
X226682061Y-58670504D02*
X226777299Y-58718123D01*
X226777299Y-58718123D02*
X226872537Y-58718123D01*
X226872537Y-58718123D02*
X227015394Y-58670504D01*
X227015394Y-58670504D02*
X227586823Y-58099076D01*
X227586823Y-58099076D02*
X227586823Y-58718123D01*
X226920156Y-59575266D02*
X227586823Y-59575266D01*
X226539204Y-59337171D02*
X227253489Y-59099076D01*
X227253489Y-59099076D02*
X227253489Y-59718123D01*
X226835457Y-65063487D02*
X227168790Y-64587296D01*
X227406885Y-65063487D02*
X227406885Y-64063487D01*
X227406885Y-64063487D02*
X227025933Y-64063487D01*
X227025933Y-64063487D02*
X226930695Y-64111106D01*
X226930695Y-64111106D02*
X226883076Y-64158725D01*
X226883076Y-64158725D02*
X226835457Y-64253963D01*
X226835457Y-64253963D02*
X226835457Y-64396820D01*
X226835457Y-64396820D02*
X226883076Y-64492058D01*
X226883076Y-64492058D02*
X226930695Y-64539677D01*
X226930695Y-64539677D02*
X227025933Y-64587296D01*
X227025933Y-64587296D02*
X227406885Y-64587296D01*
X226454504Y-64158725D02*
X226406885Y-64111106D01*
X226406885Y-64111106D02*
X226311647Y-64063487D01*
X226311647Y-64063487D02*
X226073552Y-64063487D01*
X226073552Y-64063487D02*
X225978314Y-64111106D01*
X225978314Y-64111106D02*
X225930695Y-64158725D01*
X225930695Y-64158725D02*
X225883076Y-64253963D01*
X225883076Y-64253963D02*
X225883076Y-64349201D01*
X225883076Y-64349201D02*
X225930695Y-64492058D01*
X225930695Y-64492058D02*
X226502123Y-65063487D01*
X226502123Y-65063487D02*
X225883076Y-65063487D01*
X224930695Y-65063487D02*
X225502123Y-65063487D01*
X225216409Y-65063487D02*
X225216409Y-64063487D01*
X225216409Y-64063487D02*
X225311647Y-64206344D01*
X225311647Y-64206344D02*
X225406885Y-64301582D01*
X225406885Y-64301582D02*
X225502123Y-64349201D01*
X236155619Y-70349742D02*
X235679428Y-70016409D01*
X236155619Y-69778314D02*
X235155619Y-69778314D01*
X235155619Y-69778314D02*
X235155619Y-70159266D01*
X235155619Y-70159266D02*
X235203238Y-70254504D01*
X235203238Y-70254504D02*
X235250857Y-70302123D01*
X235250857Y-70302123D02*
X235346095Y-70349742D01*
X235346095Y-70349742D02*
X235488952Y-70349742D01*
X235488952Y-70349742D02*
X235584190Y-70302123D01*
X235584190Y-70302123D02*
X235631809Y-70254504D01*
X235631809Y-70254504D02*
X235679428Y-70159266D01*
X235679428Y-70159266D02*
X235679428Y-69778314D01*
X236155619Y-71302123D02*
X236155619Y-70730695D01*
X236155619Y-71016409D02*
X235155619Y-71016409D01*
X235155619Y-71016409D02*
X235298476Y-70921171D01*
X235298476Y-70921171D02*
X235393714Y-70825933D01*
X235393714Y-70825933D02*
X235441333Y-70730695D01*
X235155619Y-72159266D02*
X235155619Y-71968790D01*
X235155619Y-71968790D02*
X235203238Y-71873552D01*
X235203238Y-71873552D02*
X235250857Y-71825933D01*
X235250857Y-71825933D02*
X235393714Y-71730695D01*
X235393714Y-71730695D02*
X235584190Y-71683076D01*
X235584190Y-71683076D02*
X235965142Y-71683076D01*
X235965142Y-71683076D02*
X236060380Y-71730695D01*
X236060380Y-71730695D02*
X236108000Y-71778314D01*
X236108000Y-71778314D02*
X236155619Y-71873552D01*
X236155619Y-71873552D02*
X236155619Y-72064028D01*
X236155619Y-72064028D02*
X236108000Y-72159266D01*
X236108000Y-72159266D02*
X236060380Y-72206885D01*
X236060380Y-72206885D02*
X235965142Y-72254504D01*
X235965142Y-72254504D02*
X235727047Y-72254504D01*
X235727047Y-72254504D02*
X235631809Y-72206885D01*
X235631809Y-72206885D02*
X235584190Y-72159266D01*
X235584190Y-72159266D02*
X235536571Y-72064028D01*
X235536571Y-72064028D02*
X235536571Y-71873552D01*
X235536571Y-71873552D02*
X235584190Y-71778314D01*
X235584190Y-71778314D02*
X235631809Y-71730695D01*
X235631809Y-71730695D02*
X235727047Y-71683076D01*
X228570394Y-68854780D02*
X228618013Y-68902400D01*
X228618013Y-68902400D02*
X228760870Y-68950019D01*
X228760870Y-68950019D02*
X228856108Y-68950019D01*
X228856108Y-68950019D02*
X228998965Y-68902400D01*
X228998965Y-68902400D02*
X229094203Y-68807161D01*
X229094203Y-68807161D02*
X229141822Y-68711923D01*
X229141822Y-68711923D02*
X229189441Y-68521447D01*
X229189441Y-68521447D02*
X229189441Y-68378590D01*
X229189441Y-68378590D02*
X229141822Y-68188114D01*
X229141822Y-68188114D02*
X229094203Y-68092876D01*
X229094203Y-68092876D02*
X228998965Y-67997638D01*
X228998965Y-67997638D02*
X228856108Y-67950019D01*
X228856108Y-67950019D02*
X228760870Y-67950019D01*
X228760870Y-67950019D02*
X228618013Y-67997638D01*
X228618013Y-67997638D02*
X228570394Y-68045257D01*
X227713251Y-68283352D02*
X227713251Y-68950019D01*
X227951346Y-67902400D02*
X228189441Y-68616685D01*
X228189441Y-68616685D02*
X227570394Y-68616685D01*
X226998965Y-67950019D02*
X226903727Y-67950019D01*
X226903727Y-67950019D02*
X226808489Y-67997638D01*
X226808489Y-67997638D02*
X226760870Y-68045257D01*
X226760870Y-68045257D02*
X226713251Y-68140495D01*
X226713251Y-68140495D02*
X226665632Y-68330971D01*
X226665632Y-68330971D02*
X226665632Y-68569066D01*
X226665632Y-68569066D02*
X226713251Y-68759542D01*
X226713251Y-68759542D02*
X226760870Y-68854780D01*
X226760870Y-68854780D02*
X226808489Y-68902400D01*
X226808489Y-68902400D02*
X226903727Y-68950019D01*
X226903727Y-68950019D02*
X226998965Y-68950019D01*
X226998965Y-68950019D02*
X227094203Y-68902400D01*
X227094203Y-68902400D02*
X227141822Y-68854780D01*
X227141822Y-68854780D02*
X227189441Y-68759542D01*
X227189441Y-68759542D02*
X227237060Y-68569066D01*
X227237060Y-68569066D02*
X227237060Y-68330971D01*
X227237060Y-68330971D02*
X227189441Y-68140495D01*
X227189441Y-68140495D02*
X227141822Y-68045257D01*
X227141822Y-68045257D02*
X227094203Y-67997638D01*
X227094203Y-67997638D02*
X226998965Y-67950019D01*
X225078981Y-57849142D02*
X225126601Y-57801523D01*
X225126601Y-57801523D02*
X225174220Y-57658666D01*
X225174220Y-57658666D02*
X225174220Y-57563428D01*
X225174220Y-57563428D02*
X225126601Y-57420571D01*
X225126601Y-57420571D02*
X225031362Y-57325333D01*
X225031362Y-57325333D02*
X224936124Y-57277714D01*
X224936124Y-57277714D02*
X224745648Y-57230095D01*
X224745648Y-57230095D02*
X224602791Y-57230095D01*
X224602791Y-57230095D02*
X224412315Y-57277714D01*
X224412315Y-57277714D02*
X224317077Y-57325333D01*
X224317077Y-57325333D02*
X224221839Y-57420571D01*
X224221839Y-57420571D02*
X224174220Y-57563428D01*
X224174220Y-57563428D02*
X224174220Y-57658666D01*
X224174220Y-57658666D02*
X224221839Y-57801523D01*
X224221839Y-57801523D02*
X224269458Y-57849142D01*
X224507553Y-58706285D02*
X225174220Y-58706285D01*
X224126601Y-58468190D02*
X224840886Y-58230095D01*
X224840886Y-58230095D02*
X224840886Y-58849142D01*
X224174220Y-59134857D02*
X224174220Y-59801523D01*
X224174220Y-59801523D02*
X225174220Y-59372952D01*
X228509857Y-76455180D02*
X228557476Y-76502800D01*
X228557476Y-76502800D02*
X228700333Y-76550419D01*
X228700333Y-76550419D02*
X228795571Y-76550419D01*
X228795571Y-76550419D02*
X228938428Y-76502800D01*
X228938428Y-76502800D02*
X229033666Y-76407561D01*
X229033666Y-76407561D02*
X229081285Y-76312323D01*
X229081285Y-76312323D02*
X229128904Y-76121847D01*
X229128904Y-76121847D02*
X229128904Y-75978990D01*
X229128904Y-75978990D02*
X229081285Y-75788514D01*
X229081285Y-75788514D02*
X229033666Y-75693276D01*
X229033666Y-75693276D02*
X228938428Y-75598038D01*
X228938428Y-75598038D02*
X228795571Y-75550419D01*
X228795571Y-75550419D02*
X228700333Y-75550419D01*
X228700333Y-75550419D02*
X228557476Y-75598038D01*
X228557476Y-75598038D02*
X228509857Y-75645657D01*
X228176523Y-75550419D02*
X227557476Y-75550419D01*
X227557476Y-75550419D02*
X227890809Y-75931371D01*
X227890809Y-75931371D02*
X227747952Y-75931371D01*
X227747952Y-75931371D02*
X227652714Y-75978990D01*
X227652714Y-75978990D02*
X227605095Y-76026609D01*
X227605095Y-76026609D02*
X227557476Y-76121847D01*
X227557476Y-76121847D02*
X227557476Y-76359942D01*
X227557476Y-76359942D02*
X227605095Y-76455180D01*
X227605095Y-76455180D02*
X227652714Y-76502800D01*
X227652714Y-76502800D02*
X227747952Y-76550419D01*
X227747952Y-76550419D02*
X228033666Y-76550419D01*
X228033666Y-76550419D02*
X228128904Y-76502800D01*
X228128904Y-76502800D02*
X228176523Y-76455180D01*
X227224142Y-75550419D02*
X226605095Y-75550419D01*
X226605095Y-75550419D02*
X226938428Y-75931371D01*
X226938428Y-75931371D02*
X226795571Y-75931371D01*
X226795571Y-75931371D02*
X226700333Y-75978990D01*
X226700333Y-75978990D02*
X226652714Y-76026609D01*
X226652714Y-76026609D02*
X226605095Y-76121847D01*
X226605095Y-76121847D02*
X226605095Y-76359942D01*
X226605095Y-76359942D02*
X226652714Y-76455180D01*
X226652714Y-76455180D02*
X226700333Y-76502800D01*
X226700333Y-76502800D02*
X226795571Y-76550419D01*
X226795571Y-76550419D02*
X227081285Y-76550419D01*
X227081285Y-76550419D02*
X227176523Y-76502800D01*
X227176523Y-76502800D02*
X227224142Y-76455180D01*
X228304118Y-67046819D02*
X228637451Y-66570628D01*
X228875546Y-67046819D02*
X228875546Y-66046819D01*
X228875546Y-66046819D02*
X228494594Y-66046819D01*
X228494594Y-66046819D02*
X228399356Y-66094438D01*
X228399356Y-66094438D02*
X228351737Y-66142057D01*
X228351737Y-66142057D02*
X228304118Y-66237295D01*
X228304118Y-66237295D02*
X228304118Y-66380152D01*
X228304118Y-66380152D02*
X228351737Y-66475390D01*
X228351737Y-66475390D02*
X228399356Y-66523009D01*
X228399356Y-66523009D02*
X228494594Y-66570628D01*
X228494594Y-66570628D02*
X228875546Y-66570628D01*
X227351737Y-67046819D02*
X227923165Y-67046819D01*
X227637451Y-67046819D02*
X227637451Y-66046819D01*
X227637451Y-66046819D02*
X227732689Y-66189676D01*
X227732689Y-66189676D02*
X227827927Y-66284914D01*
X227827927Y-66284914D02*
X227923165Y-66332533D01*
X226875546Y-67046819D02*
X226685070Y-67046819D01*
X226685070Y-67046819D02*
X226589832Y-66999200D01*
X226589832Y-66999200D02*
X226542213Y-66951580D01*
X226542213Y-66951580D02*
X226446975Y-66808723D01*
X226446975Y-66808723D02*
X226399356Y-66618247D01*
X226399356Y-66618247D02*
X226399356Y-66237295D01*
X226399356Y-66237295D02*
X226446975Y-66142057D01*
X226446975Y-66142057D02*
X226494594Y-66094438D01*
X226494594Y-66094438D02*
X226589832Y-66046819D01*
X226589832Y-66046819D02*
X226780308Y-66046819D01*
X226780308Y-66046819D02*
X226875546Y-66094438D01*
X226875546Y-66094438D02*
X226923165Y-66142057D01*
X226923165Y-66142057D02*
X226970784Y-66237295D01*
X226970784Y-66237295D02*
X226970784Y-66475390D01*
X226970784Y-66475390D02*
X226923165Y-66570628D01*
X226923165Y-66570628D02*
X226875546Y-66618247D01*
X226875546Y-66618247D02*
X226780308Y-66665866D01*
X226780308Y-66665866D02*
X226589832Y-66665866D01*
X226589832Y-66665866D02*
X226494594Y-66618247D01*
X226494594Y-66618247D02*
X226446975Y-66570628D01*
X226446975Y-66570628D02*
X226399356Y-66475390D01*
X237521458Y-63367219D02*
X237854791Y-62891028D01*
X238092886Y-63367219D02*
X238092886Y-62367219D01*
X238092886Y-62367219D02*
X237711934Y-62367219D01*
X237711934Y-62367219D02*
X237616696Y-62414838D01*
X237616696Y-62414838D02*
X237569077Y-62462457D01*
X237569077Y-62462457D02*
X237521458Y-62557695D01*
X237521458Y-62557695D02*
X237521458Y-62700552D01*
X237521458Y-62700552D02*
X237569077Y-62795790D01*
X237569077Y-62795790D02*
X237616696Y-62843409D01*
X237616696Y-62843409D02*
X237711934Y-62891028D01*
X237711934Y-62891028D02*
X238092886Y-62891028D01*
X237140505Y-62462457D02*
X237092886Y-62414838D01*
X237092886Y-62414838D02*
X236997648Y-62367219D01*
X236997648Y-62367219D02*
X236759553Y-62367219D01*
X236759553Y-62367219D02*
X236664315Y-62414838D01*
X236664315Y-62414838D02*
X236616696Y-62462457D01*
X236616696Y-62462457D02*
X236569077Y-62557695D01*
X236569077Y-62557695D02*
X236569077Y-62652933D01*
X236569077Y-62652933D02*
X236616696Y-62795790D01*
X236616696Y-62795790D02*
X237188124Y-63367219D01*
X237188124Y-63367219D02*
X236569077Y-63367219D01*
X236188124Y-62462457D02*
X236140505Y-62414838D01*
X236140505Y-62414838D02*
X236045267Y-62367219D01*
X236045267Y-62367219D02*
X235807172Y-62367219D01*
X235807172Y-62367219D02*
X235711934Y-62414838D01*
X235711934Y-62414838D02*
X235664315Y-62462457D01*
X235664315Y-62462457D02*
X235616696Y-62557695D01*
X235616696Y-62557695D02*
X235616696Y-62652933D01*
X235616696Y-62652933D02*
X235664315Y-62795790D01*
X235664315Y-62795790D02*
X236235743Y-63367219D01*
X236235743Y-63367219D02*
X235616696Y-63367219D01*
X238469057Y-68744776D02*
X238516676Y-68792396D01*
X238516676Y-68792396D02*
X238659533Y-68840015D01*
X238659533Y-68840015D02*
X238754771Y-68840015D01*
X238754771Y-68840015D02*
X238897628Y-68792396D01*
X238897628Y-68792396D02*
X238992866Y-68697157D01*
X238992866Y-68697157D02*
X239040485Y-68601919D01*
X239040485Y-68601919D02*
X239088104Y-68411443D01*
X239088104Y-68411443D02*
X239088104Y-68268586D01*
X239088104Y-68268586D02*
X239040485Y-68078110D01*
X239040485Y-68078110D02*
X238992866Y-67982872D01*
X238992866Y-67982872D02*
X238897628Y-67887634D01*
X238897628Y-67887634D02*
X238754771Y-67840015D01*
X238754771Y-67840015D02*
X238659533Y-67840015D01*
X238659533Y-67840015D02*
X238516676Y-67887634D01*
X238516676Y-67887634D02*
X238469057Y-67935253D01*
X237611914Y-68173348D02*
X237611914Y-68840015D01*
X237850009Y-67792396D02*
X238088104Y-68506681D01*
X238088104Y-68506681D02*
X237469057Y-68506681D01*
X236564295Y-68840015D02*
X237135723Y-68840015D01*
X236850009Y-68840015D02*
X236850009Y-67840015D01*
X236850009Y-67840015D02*
X236945247Y-67982872D01*
X236945247Y-67982872D02*
X237040485Y-68078110D01*
X237040485Y-68078110D02*
X237135723Y-68125729D01*
X238688392Y-66996019D02*
X239021725Y-66519828D01*
X239259820Y-66996019D02*
X239259820Y-65996019D01*
X239259820Y-65996019D02*
X238878868Y-65996019D01*
X238878868Y-65996019D02*
X238783630Y-66043638D01*
X238783630Y-66043638D02*
X238736011Y-66091257D01*
X238736011Y-66091257D02*
X238688392Y-66186495D01*
X238688392Y-66186495D02*
X238688392Y-66329352D01*
X238688392Y-66329352D02*
X238736011Y-66424590D01*
X238736011Y-66424590D02*
X238783630Y-66472209D01*
X238783630Y-66472209D02*
X238878868Y-66519828D01*
X238878868Y-66519828D02*
X239259820Y-66519828D01*
X238307439Y-66091257D02*
X238259820Y-66043638D01*
X238259820Y-66043638D02*
X238164582Y-65996019D01*
X238164582Y-65996019D02*
X237926487Y-65996019D01*
X237926487Y-65996019D02*
X237831249Y-66043638D01*
X237831249Y-66043638D02*
X237783630Y-66091257D01*
X237783630Y-66091257D02*
X237736011Y-66186495D01*
X237736011Y-66186495D02*
X237736011Y-66281733D01*
X237736011Y-66281733D02*
X237783630Y-66424590D01*
X237783630Y-66424590D02*
X238355058Y-66996019D01*
X238355058Y-66996019D02*
X237736011Y-66996019D01*
X237116963Y-65996019D02*
X237021725Y-65996019D01*
X237021725Y-65996019D02*
X236926487Y-66043638D01*
X236926487Y-66043638D02*
X236878868Y-66091257D01*
X236878868Y-66091257D02*
X236831249Y-66186495D01*
X236831249Y-66186495D02*
X236783630Y-66376971D01*
X236783630Y-66376971D02*
X236783630Y-66615066D01*
X236783630Y-66615066D02*
X236831249Y-66805542D01*
X236831249Y-66805542D02*
X236878868Y-66900780D01*
X236878868Y-66900780D02*
X236926487Y-66948400D01*
X236926487Y-66948400D02*
X237021725Y-66996019D01*
X237021725Y-66996019D02*
X237116963Y-66996019D01*
X237116963Y-66996019D02*
X237212201Y-66948400D01*
X237212201Y-66948400D02*
X237259820Y-66900780D01*
X237259820Y-66900780D02*
X237307439Y-66805542D01*
X237307439Y-66805542D02*
X237355058Y-66615066D01*
X237355058Y-66615066D02*
X237355058Y-66376971D01*
X237355058Y-66376971D02*
X237307439Y-66186495D01*
X237307439Y-66186495D02*
X237259820Y-66091257D01*
X237259820Y-66091257D02*
X237212201Y-66043638D01*
X237212201Y-66043638D02*
X237116963Y-65996019D01*
X230420955Y-70398942D02*
X229944764Y-70065609D01*
X230420955Y-69827514D02*
X229420955Y-69827514D01*
X229420955Y-69827514D02*
X229420955Y-70208466D01*
X229420955Y-70208466D02*
X229468574Y-70303704D01*
X229468574Y-70303704D02*
X229516193Y-70351323D01*
X229516193Y-70351323D02*
X229611431Y-70398942D01*
X229611431Y-70398942D02*
X229754288Y-70398942D01*
X229754288Y-70398942D02*
X229849526Y-70351323D01*
X229849526Y-70351323D02*
X229897145Y-70303704D01*
X229897145Y-70303704D02*
X229944764Y-70208466D01*
X229944764Y-70208466D02*
X229944764Y-69827514D01*
X230420955Y-71351323D02*
X230420955Y-70779895D01*
X230420955Y-71065609D02*
X229420955Y-71065609D01*
X229420955Y-71065609D02*
X229563812Y-70970371D01*
X229563812Y-70970371D02*
X229659050Y-70875133D01*
X229659050Y-70875133D02*
X229706669Y-70779895D01*
X229420955Y-72256085D02*
X229420955Y-71779895D01*
X229420955Y-71779895D02*
X229897145Y-71732276D01*
X229897145Y-71732276D02*
X229849526Y-71779895D01*
X229849526Y-71779895D02*
X229801907Y-71875133D01*
X229801907Y-71875133D02*
X229801907Y-72113228D01*
X229801907Y-72113228D02*
X229849526Y-72208466D01*
X229849526Y-72208466D02*
X229897145Y-72256085D01*
X229897145Y-72256085D02*
X229992383Y-72303704D01*
X229992383Y-72303704D02*
X230230478Y-72303704D01*
X230230478Y-72303704D02*
X230325716Y-72256085D01*
X230325716Y-72256085D02*
X230373336Y-72208466D01*
X230373336Y-72208466D02*
X230420955Y-72113228D01*
X230420955Y-72113228D02*
X230420955Y-71875133D01*
X230420955Y-71875133D02*
X230373336Y-71779895D01*
X230373336Y-71779895D02*
X230325716Y-71732276D01*
X152998180Y-67368718D02*
X153045800Y-67321099D01*
X153045800Y-67321099D02*
X153093419Y-67178242D01*
X153093419Y-67178242D02*
X153093419Y-67083004D01*
X153093419Y-67083004D02*
X153045800Y-66940147D01*
X153045800Y-66940147D02*
X152950561Y-66844909D01*
X152950561Y-66844909D02*
X152855323Y-66797290D01*
X152855323Y-66797290D02*
X152664847Y-66749671D01*
X152664847Y-66749671D02*
X152521990Y-66749671D01*
X152521990Y-66749671D02*
X152331514Y-66797290D01*
X152331514Y-66797290D02*
X152236276Y-66844909D01*
X152236276Y-66844909D02*
X152141038Y-66940147D01*
X152141038Y-66940147D02*
X152093419Y-67083004D01*
X152093419Y-67083004D02*
X152093419Y-67178242D01*
X152093419Y-67178242D02*
X152141038Y-67321099D01*
X152141038Y-67321099D02*
X152188657Y-67368718D01*
X153093419Y-68321099D02*
X153093419Y-67749671D01*
X153093419Y-68035385D02*
X152093419Y-68035385D01*
X152093419Y-68035385D02*
X152236276Y-67940147D01*
X152236276Y-67940147D02*
X152331514Y-67844909D01*
X152331514Y-67844909D02*
X152379133Y-67749671D01*
X152093419Y-68654433D02*
X152093419Y-69321099D01*
X152093419Y-69321099D02*
X153093419Y-68892528D01*
X155305619Y-67894685D02*
X154829428Y-67561352D01*
X155305619Y-67323257D02*
X154305619Y-67323257D01*
X154305619Y-67323257D02*
X154305619Y-67704209D01*
X154305619Y-67704209D02*
X154353238Y-67799447D01*
X154353238Y-67799447D02*
X154400857Y-67847066D01*
X154400857Y-67847066D02*
X154496095Y-67894685D01*
X154496095Y-67894685D02*
X154638952Y-67894685D01*
X154638952Y-67894685D02*
X154734190Y-67847066D01*
X154734190Y-67847066D02*
X154781809Y-67799447D01*
X154781809Y-67799447D02*
X154829428Y-67704209D01*
X154829428Y-67704209D02*
X154829428Y-67323257D01*
X154305619Y-68228019D02*
X154305619Y-68847066D01*
X154305619Y-68847066D02*
X154686571Y-68513733D01*
X154686571Y-68513733D02*
X154686571Y-68656590D01*
X154686571Y-68656590D02*
X154734190Y-68751828D01*
X154734190Y-68751828D02*
X154781809Y-68799447D01*
X154781809Y-68799447D02*
X154877047Y-68847066D01*
X154877047Y-68847066D02*
X155115142Y-68847066D01*
X155115142Y-68847066D02*
X155210380Y-68799447D01*
X155210380Y-68799447D02*
X155258000Y-68751828D01*
X155258000Y-68751828D02*
X155305619Y-68656590D01*
X155305619Y-68656590D02*
X155305619Y-68370876D01*
X155305619Y-68370876D02*
X155258000Y-68275638D01*
X155258000Y-68275638D02*
X155210380Y-68228019D01*
X154585952Y-58412342D02*
X154633572Y-58364723D01*
X154633572Y-58364723D02*
X154681191Y-58221866D01*
X154681191Y-58221866D02*
X154681191Y-58126628D01*
X154681191Y-58126628D02*
X154633572Y-57983771D01*
X154633572Y-57983771D02*
X154538333Y-57888533D01*
X154538333Y-57888533D02*
X154443095Y-57840914D01*
X154443095Y-57840914D02*
X154252619Y-57793295D01*
X154252619Y-57793295D02*
X154109762Y-57793295D01*
X154109762Y-57793295D02*
X153919286Y-57840914D01*
X153919286Y-57840914D02*
X153824048Y-57888533D01*
X153824048Y-57888533D02*
X153728810Y-57983771D01*
X153728810Y-57983771D02*
X153681191Y-58126628D01*
X153681191Y-58126628D02*
X153681191Y-58221866D01*
X153681191Y-58221866D02*
X153728810Y-58364723D01*
X153728810Y-58364723D02*
X153776429Y-58412342D01*
X154681191Y-59364723D02*
X154681191Y-58793295D01*
X154681191Y-59079009D02*
X153681191Y-59079009D01*
X153681191Y-59079009D02*
X153824048Y-58983771D01*
X153824048Y-58983771D02*
X153919286Y-58888533D01*
X153919286Y-58888533D02*
X153966905Y-58793295D01*
X154109762Y-59936152D02*
X154062143Y-59840914D01*
X154062143Y-59840914D02*
X154014524Y-59793295D01*
X154014524Y-59793295D02*
X153919286Y-59745676D01*
X153919286Y-59745676D02*
X153871667Y-59745676D01*
X153871667Y-59745676D02*
X153776429Y-59793295D01*
X153776429Y-59793295D02*
X153728810Y-59840914D01*
X153728810Y-59840914D02*
X153681191Y-59936152D01*
X153681191Y-59936152D02*
X153681191Y-60126628D01*
X153681191Y-60126628D02*
X153728810Y-60221866D01*
X153728810Y-60221866D02*
X153776429Y-60269485D01*
X153776429Y-60269485D02*
X153871667Y-60317104D01*
X153871667Y-60317104D02*
X153919286Y-60317104D01*
X153919286Y-60317104D02*
X154014524Y-60269485D01*
X154014524Y-60269485D02*
X154062143Y-60221866D01*
X154062143Y-60221866D02*
X154109762Y-60126628D01*
X154109762Y-60126628D02*
X154109762Y-59936152D01*
X154109762Y-59936152D02*
X154157381Y-59840914D01*
X154157381Y-59840914D02*
X154205000Y-59793295D01*
X154205000Y-59793295D02*
X154300238Y-59745676D01*
X154300238Y-59745676D02*
X154490714Y-59745676D01*
X154490714Y-59745676D02*
X154585952Y-59793295D01*
X154585952Y-59793295D02*
X154633572Y-59840914D01*
X154633572Y-59840914D02*
X154681191Y-59936152D01*
X154681191Y-59936152D02*
X154681191Y-60126628D01*
X154681191Y-60126628D02*
X154633572Y-60221866D01*
X154633572Y-60221866D02*
X154585952Y-60269485D01*
X154585952Y-60269485D02*
X154490714Y-60317104D01*
X154490714Y-60317104D02*
X154300238Y-60317104D01*
X154300238Y-60317104D02*
X154205000Y-60269485D01*
X154205000Y-60269485D02*
X154157381Y-60221866D01*
X154157381Y-60221866D02*
X154109762Y-60126628D01*
X154526685Y-65738219D02*
X154860018Y-65262028D01*
X155098113Y-65738219D02*
X155098113Y-64738219D01*
X155098113Y-64738219D02*
X154717161Y-64738219D01*
X154717161Y-64738219D02*
X154621923Y-64785838D01*
X154621923Y-64785838D02*
X154574304Y-64833457D01*
X154574304Y-64833457D02*
X154526685Y-64928695D01*
X154526685Y-64928695D02*
X154526685Y-65071552D01*
X154526685Y-65071552D02*
X154574304Y-65166790D01*
X154574304Y-65166790D02*
X154621923Y-65214409D01*
X154621923Y-65214409D02*
X154717161Y-65262028D01*
X154717161Y-65262028D02*
X155098113Y-65262028D01*
X153574304Y-65738219D02*
X154145732Y-65738219D01*
X153860018Y-65738219D02*
X153860018Y-64738219D01*
X153860018Y-64738219D02*
X153955256Y-64881076D01*
X153955256Y-64881076D02*
X154050494Y-64976314D01*
X154050494Y-64976314D02*
X154145732Y-65023933D01*
X152621923Y-65738219D02*
X153193351Y-65738219D01*
X152907637Y-65738219D02*
X152907637Y-64738219D01*
X152907637Y-64738219D02*
X153002875Y-64881076D01*
X153002875Y-64881076D02*
X153098113Y-64976314D01*
X153098113Y-64976314D02*
X153193351Y-65023933D01*
X253571829Y-65616219D02*
X253905162Y-65140028D01*
X254143257Y-65616219D02*
X254143257Y-64616219D01*
X254143257Y-64616219D02*
X253762305Y-64616219D01*
X253762305Y-64616219D02*
X253667067Y-64663838D01*
X253667067Y-64663838D02*
X253619448Y-64711457D01*
X253619448Y-64711457D02*
X253571829Y-64806695D01*
X253571829Y-64806695D02*
X253571829Y-64949552D01*
X253571829Y-64949552D02*
X253619448Y-65044790D01*
X253619448Y-65044790D02*
X253667067Y-65092409D01*
X253667067Y-65092409D02*
X253762305Y-65140028D01*
X253762305Y-65140028D02*
X254143257Y-65140028D01*
X252619448Y-65616219D02*
X253190876Y-65616219D01*
X252905162Y-65616219D02*
X252905162Y-64616219D01*
X252905162Y-64616219D02*
X253000400Y-64759076D01*
X253000400Y-64759076D02*
X253095638Y-64854314D01*
X253095638Y-64854314D02*
X253190876Y-64901933D01*
X251667067Y-65616219D02*
X252238495Y-65616219D01*
X251952781Y-65616219D02*
X251952781Y-64616219D01*
X251952781Y-64616219D02*
X252048019Y-64759076D01*
X252048019Y-64759076D02*
X252143257Y-64854314D01*
X252143257Y-64854314D02*
X252238495Y-64901933D01*
X254350763Y-67772685D02*
X253874572Y-67439352D01*
X254350763Y-67201257D02*
X253350763Y-67201257D01*
X253350763Y-67201257D02*
X253350763Y-67582209D01*
X253350763Y-67582209D02*
X253398382Y-67677447D01*
X253398382Y-67677447D02*
X253446001Y-67725066D01*
X253446001Y-67725066D02*
X253541239Y-67772685D01*
X253541239Y-67772685D02*
X253684096Y-67772685D01*
X253684096Y-67772685D02*
X253779334Y-67725066D01*
X253779334Y-67725066D02*
X253826953Y-67677447D01*
X253826953Y-67677447D02*
X253874572Y-67582209D01*
X253874572Y-67582209D02*
X253874572Y-67201257D01*
X253350763Y-68106019D02*
X253350763Y-68725066D01*
X253350763Y-68725066D02*
X253731715Y-68391733D01*
X253731715Y-68391733D02*
X253731715Y-68534590D01*
X253731715Y-68534590D02*
X253779334Y-68629828D01*
X253779334Y-68629828D02*
X253826953Y-68677447D01*
X253826953Y-68677447D02*
X253922191Y-68725066D01*
X253922191Y-68725066D02*
X254160286Y-68725066D01*
X254160286Y-68725066D02*
X254255524Y-68677447D01*
X254255524Y-68677447D02*
X254303144Y-68629828D01*
X254303144Y-68629828D02*
X254350763Y-68534590D01*
X254350763Y-68534590D02*
X254350763Y-68248876D01*
X254350763Y-68248876D02*
X254303144Y-68153638D01*
X254303144Y-68153638D02*
X254255524Y-68106019D01*
X253631096Y-58290342D02*
X253678716Y-58242723D01*
X253678716Y-58242723D02*
X253726335Y-58099866D01*
X253726335Y-58099866D02*
X253726335Y-58004628D01*
X253726335Y-58004628D02*
X253678716Y-57861771D01*
X253678716Y-57861771D02*
X253583477Y-57766533D01*
X253583477Y-57766533D02*
X253488239Y-57718914D01*
X253488239Y-57718914D02*
X253297763Y-57671295D01*
X253297763Y-57671295D02*
X253154906Y-57671295D01*
X253154906Y-57671295D02*
X252964430Y-57718914D01*
X252964430Y-57718914D02*
X252869192Y-57766533D01*
X252869192Y-57766533D02*
X252773954Y-57861771D01*
X252773954Y-57861771D02*
X252726335Y-58004628D01*
X252726335Y-58004628D02*
X252726335Y-58099866D01*
X252726335Y-58099866D02*
X252773954Y-58242723D01*
X252773954Y-58242723D02*
X252821573Y-58290342D01*
X253726335Y-59242723D02*
X253726335Y-58671295D01*
X253726335Y-58957009D02*
X252726335Y-58957009D01*
X252726335Y-58957009D02*
X252869192Y-58861771D01*
X252869192Y-58861771D02*
X252964430Y-58766533D01*
X252964430Y-58766533D02*
X253012049Y-58671295D01*
X253154906Y-59814152D02*
X253107287Y-59718914D01*
X253107287Y-59718914D02*
X253059668Y-59671295D01*
X253059668Y-59671295D02*
X252964430Y-59623676D01*
X252964430Y-59623676D02*
X252916811Y-59623676D01*
X252916811Y-59623676D02*
X252821573Y-59671295D01*
X252821573Y-59671295D02*
X252773954Y-59718914D01*
X252773954Y-59718914D02*
X252726335Y-59814152D01*
X252726335Y-59814152D02*
X252726335Y-60004628D01*
X252726335Y-60004628D02*
X252773954Y-60099866D01*
X252773954Y-60099866D02*
X252821573Y-60147485D01*
X252821573Y-60147485D02*
X252916811Y-60195104D01*
X252916811Y-60195104D02*
X252964430Y-60195104D01*
X252964430Y-60195104D02*
X253059668Y-60147485D01*
X253059668Y-60147485D02*
X253107287Y-60099866D01*
X253107287Y-60099866D02*
X253154906Y-60004628D01*
X253154906Y-60004628D02*
X253154906Y-59814152D01*
X253154906Y-59814152D02*
X253202525Y-59718914D01*
X253202525Y-59718914D02*
X253250144Y-59671295D01*
X253250144Y-59671295D02*
X253345382Y-59623676D01*
X253345382Y-59623676D02*
X253535858Y-59623676D01*
X253535858Y-59623676D02*
X253631096Y-59671295D01*
X253631096Y-59671295D02*
X253678716Y-59718914D01*
X253678716Y-59718914D02*
X253726335Y-59814152D01*
X253726335Y-59814152D02*
X253726335Y-60004628D01*
X253726335Y-60004628D02*
X253678716Y-60099866D01*
X253678716Y-60099866D02*
X253631096Y-60147485D01*
X253631096Y-60147485D02*
X253535858Y-60195104D01*
X253535858Y-60195104D02*
X253345382Y-60195104D01*
X253345382Y-60195104D02*
X253250144Y-60147485D01*
X253250144Y-60147485D02*
X253202525Y-60099866D01*
X253202525Y-60099866D02*
X253154906Y-60004628D01*
X252043324Y-67246718D02*
X252090944Y-67199099D01*
X252090944Y-67199099D02*
X252138563Y-67056242D01*
X252138563Y-67056242D02*
X252138563Y-66961004D01*
X252138563Y-66961004D02*
X252090944Y-66818147D01*
X252090944Y-66818147D02*
X251995705Y-66722909D01*
X251995705Y-66722909D02*
X251900467Y-66675290D01*
X251900467Y-66675290D02*
X251709991Y-66627671D01*
X251709991Y-66627671D02*
X251567134Y-66627671D01*
X251567134Y-66627671D02*
X251376658Y-66675290D01*
X251376658Y-66675290D02*
X251281420Y-66722909D01*
X251281420Y-66722909D02*
X251186182Y-66818147D01*
X251186182Y-66818147D02*
X251138563Y-66961004D01*
X251138563Y-66961004D02*
X251138563Y-67056242D01*
X251138563Y-67056242D02*
X251186182Y-67199099D01*
X251186182Y-67199099D02*
X251233801Y-67246718D01*
X252138563Y-68199099D02*
X252138563Y-67627671D01*
X252138563Y-67913385D02*
X251138563Y-67913385D01*
X251138563Y-67913385D02*
X251281420Y-67818147D01*
X251281420Y-67818147D02*
X251376658Y-67722909D01*
X251376658Y-67722909D02*
X251424277Y-67627671D01*
X251138563Y-68532433D02*
X251138563Y-69199099D01*
X251138563Y-69199099D02*
X252138563Y-68770528D01*
D11*
X84747937Y-63596000D02*
X85202065Y-63596000D01*
X84747937Y-65066000D02*
X85202065Y-65066000D01*
X80870733Y-63781670D02*
X81163267Y-63781670D01*
X80870733Y-64801670D02*
X81163267Y-64801670D01*
X79775996Y-57965748D02*
X79775996Y-58488252D01*
X78305996Y-57965748D02*
X78305996Y-58488252D01*
X77100729Y-61101001D02*
X77393263Y-61101001D01*
X77100729Y-62121001D02*
X77393263Y-62121001D01*
X77122004Y-57931936D02*
X77122004Y-58386064D01*
X75652004Y-57931936D02*
X75652004Y-58386064D01*
X82576004Y-58045936D02*
X82576004Y-58500064D01*
X81106004Y-58045936D02*
X81106004Y-58500064D01*
X77570064Y-65012668D02*
X77115936Y-65012668D01*
X77570064Y-63542668D02*
X77115936Y-63542668D01*
X82613271Y-65528000D02*
X83067399Y-65528000D01*
X82613271Y-66998000D02*
X83067399Y-66998000D01*
X78951336Y-71016064D02*
X78951336Y-70561936D01*
X80421336Y-71016064D02*
X80421336Y-70561936D01*
X78584597Y-65574000D02*
X79038725Y-65574000D01*
X78584597Y-67044000D02*
X79038725Y-67044000D01*
X81286000Y-71016064D02*
X81286000Y-70561936D01*
X82756000Y-71016064D02*
X82756000Y-70561936D01*
X75722733Y-73921000D02*
X76015267Y-73921000D01*
X75722733Y-74941000D02*
X76015267Y-74941000D01*
X73608001Y-58182267D02*
X73608001Y-57889733D01*
X74628001Y-58182267D02*
X74628001Y-57889733D01*
X82867267Y-68594996D02*
X82574733Y-68594996D01*
X82867267Y-67574996D02*
X82574733Y-67574996D01*
X79172604Y-68659000D02*
X78880070Y-68659000D01*
X79172604Y-67639000D02*
X78880070Y-67639000D01*
X107908492Y-65857000D02*
X107454364Y-65857000D01*
X107908492Y-64387000D02*
X107454364Y-64387000D01*
X105200000Y-67765709D02*
X105200000Y-68058243D01*
X104180000Y-67765709D02*
X104180000Y-68058243D01*
X105939000Y-68339040D02*
X105939000Y-67884912D01*
X107409000Y-68339040D02*
X107409000Y-67884912D01*
X105502000Y-62172305D02*
X105502000Y-62464839D01*
X104482000Y-62172305D02*
X104482000Y-62464839D01*
X131304560Y-63566361D02*
X131597094Y-63566361D01*
X131304560Y-64586361D02*
X131597094Y-64586361D01*
X130209823Y-57750439D02*
X130209823Y-58272943D01*
X128739823Y-57750439D02*
X128739823Y-58272943D01*
X135181764Y-63380691D02*
X135635892Y-63380691D01*
X135181764Y-64850691D02*
X135635892Y-64850691D01*
X127534556Y-60885692D02*
X127827090Y-60885692D01*
X127534556Y-61905692D02*
X127827090Y-61905692D01*
X124041828Y-57966958D02*
X124041828Y-57674424D01*
X125061828Y-57966958D02*
X125061828Y-57674424D01*
X128003891Y-64797359D02*
X127549763Y-64797359D01*
X128003891Y-63327359D02*
X127549763Y-63327359D01*
X131719827Y-70800755D02*
X131719827Y-70346627D01*
X133189827Y-70800755D02*
X133189827Y-70346627D01*
X129606431Y-68443691D02*
X129313897Y-68443691D01*
X129606431Y-67423691D02*
X129313897Y-67423691D01*
X126156560Y-73705691D02*
X126449094Y-73705691D01*
X126156560Y-74725691D02*
X126449094Y-74725691D01*
X129018424Y-65358691D02*
X129472552Y-65358691D01*
X129018424Y-66828691D02*
X129472552Y-66828691D01*
X133047098Y-65312691D02*
X133501226Y-65312691D01*
X133047098Y-66782691D02*
X133501226Y-66782691D01*
X133301094Y-68379687D02*
X133008560Y-68379687D01*
X133301094Y-67359687D02*
X133008560Y-67359687D01*
X127555831Y-57716627D02*
X127555831Y-58170755D01*
X126085831Y-57716627D02*
X126085831Y-58170755D01*
X133009831Y-57830627D02*
X133009831Y-58284755D01*
X131539831Y-57830627D02*
X131539831Y-58284755D01*
X129385163Y-70800755D02*
X129385163Y-70346627D01*
X130855163Y-70800755D02*
X130855163Y-70346627D01*
X209158492Y-65807000D02*
X208704364Y-65807000D01*
X209158492Y-64337000D02*
X208704364Y-64337000D01*
X206450000Y-67715709D02*
X206450000Y-68008243D01*
X205430000Y-67715709D02*
X205430000Y-68008243D01*
X207189000Y-68289040D02*
X207189000Y-67834912D01*
X208659000Y-68289040D02*
X208659000Y-67834912D01*
X206752000Y-62122305D02*
X206752000Y-62414839D01*
X205732000Y-62122305D02*
X205732000Y-62414839D01*
X181243733Y-64091670D02*
X181536267Y-64091670D01*
X181243733Y-65111670D02*
X181536267Y-65111670D01*
X180148996Y-58275748D02*
X180148996Y-58798252D01*
X178678996Y-58275748D02*
X178678996Y-58798252D01*
X177473729Y-61411001D02*
X177766263Y-61411001D01*
X177473729Y-62431001D02*
X177766263Y-62431001D01*
X182949004Y-58355936D02*
X182949004Y-58810064D01*
X181479004Y-58355936D02*
X181479004Y-58810064D01*
X177495004Y-58241936D02*
X177495004Y-58696064D01*
X176025004Y-58241936D02*
X176025004Y-58696064D01*
X177943064Y-65322668D02*
X177488936Y-65322668D01*
X177943064Y-63852668D02*
X177488936Y-63852668D01*
X181659000Y-71326064D02*
X181659000Y-70871936D01*
X183129000Y-71326064D02*
X183129000Y-70871936D01*
X179545604Y-68969000D02*
X179253070Y-68969000D01*
X179545604Y-67949000D02*
X179253070Y-67949000D01*
X173981001Y-58492267D02*
X173981001Y-58199733D01*
X175001001Y-58492267D02*
X175001001Y-58199733D01*
X176095733Y-74231000D02*
X176388267Y-74231000D01*
X176095733Y-75251000D02*
X176388267Y-75251000D01*
X178957597Y-65884000D02*
X179411725Y-65884000D01*
X178957597Y-67354000D02*
X179411725Y-67354000D01*
X185120937Y-63906000D02*
X185575065Y-63906000D01*
X185120937Y-65376000D02*
X185575065Y-65376000D01*
X183240267Y-68904996D02*
X182947733Y-68904996D01*
X183240267Y-67884996D02*
X182947733Y-67884996D01*
X182986271Y-65838000D02*
X183440399Y-65838000D01*
X182986271Y-67308000D02*
X183440399Y-67308000D01*
X179324336Y-71326064D02*
X179324336Y-70871936D01*
X180794336Y-71326064D02*
X180794336Y-70871936D01*
X232870733Y-64081670D02*
X233163267Y-64081670D01*
X232870733Y-65101670D02*
X233163267Y-65101670D01*
X231775996Y-58265748D02*
X231775996Y-58788252D01*
X230305996Y-58265748D02*
X230305996Y-58788252D01*
X229100729Y-61401001D02*
X229393263Y-61401001D01*
X229100729Y-62421001D02*
X229393263Y-62421001D01*
X234576004Y-58345936D02*
X234576004Y-58800064D01*
X233106004Y-58345936D02*
X233106004Y-58800064D01*
X229122004Y-58231936D02*
X229122004Y-58686064D01*
X227652004Y-58231936D02*
X227652004Y-58686064D01*
X229570064Y-65312668D02*
X229115936Y-65312668D01*
X229570064Y-63842668D02*
X229115936Y-63842668D01*
X233286000Y-71316064D02*
X233286000Y-70861936D01*
X234756000Y-71316064D02*
X234756000Y-70861936D01*
X231172604Y-68959000D02*
X230880070Y-68959000D01*
X231172604Y-67939000D02*
X230880070Y-67939000D01*
X225608001Y-58482267D02*
X225608001Y-58189733D01*
X226628001Y-58482267D02*
X226628001Y-58189733D01*
X227722733Y-74221000D02*
X228015267Y-74221000D01*
X227722733Y-75241000D02*
X228015267Y-75241000D01*
X230584597Y-65874000D02*
X231038725Y-65874000D01*
X230584597Y-67344000D02*
X231038725Y-67344000D01*
X236747937Y-63896000D02*
X237202065Y-63896000D01*
X236747937Y-65366000D02*
X237202065Y-65366000D01*
X234867267Y-68894996D02*
X234574733Y-68894996D01*
X234867267Y-67874996D02*
X234574733Y-67874996D01*
X234613271Y-65828000D02*
X235067399Y-65828000D01*
X234613271Y-67298000D02*
X235067399Y-67298000D01*
X230951336Y-71316064D02*
X230951336Y-70861936D01*
X232421336Y-71316064D02*
X232421336Y-70861936D01*
X154550000Y-67965709D02*
X154550000Y-68258243D01*
X153530000Y-67965709D02*
X153530000Y-68258243D01*
X155289000Y-68539040D02*
X155289000Y-68084912D01*
X156759000Y-68539040D02*
X156759000Y-68084912D01*
X154852000Y-62372305D02*
X154852000Y-62664839D01*
X153832000Y-62372305D02*
X153832000Y-62664839D01*
X157258492Y-66057000D02*
X156804364Y-66057000D01*
X157258492Y-64587000D02*
X156804364Y-64587000D01*
X256303636Y-64465000D02*
X255849508Y-64465000D01*
X256303636Y-65935000D02*
X255849508Y-65935000D01*
X255804144Y-68417040D02*
X255804144Y-67962912D01*
X254334144Y-68417040D02*
X254334144Y-67962912D01*
X252877144Y-62250305D02*
X252877144Y-62542839D01*
X253897144Y-62250305D02*
X253897144Y-62542839D01*
X252575144Y-67843709D02*
X252575144Y-68136243D01*
X253595144Y-67843709D02*
X253595144Y-68136243D01*
%LPC*%
D12*
X264060000Y-142155000D03*
D13*
X264060000Y-139655000D03*
X264060000Y-137655000D03*
X264060000Y-135155000D03*
D14*
X266770000Y-132085000D03*
X266770000Y-145225000D03*
D15*
X269095000Y-114475000D03*
D16*
X260095000Y-114475000D03*
D17*
X266095000Y-114475000D03*
D18*
X267095000Y-118975000D03*
X267095000Y-109975000D03*
D19*
X197200000Y-39744426D03*
X213430000Y-39744426D03*
X197200000Y-33394426D03*
X213430000Y-33394426D03*
X197200000Y-46094426D03*
X213430000Y-46094426D03*
X172920000Y-39744426D03*
X189150000Y-39744426D03*
X172920000Y-33394426D03*
X189150000Y-33394426D03*
X172920000Y-46094426D03*
X189150000Y-46094426D03*
X73140000Y-39744426D03*
X89370000Y-39744426D03*
X73140000Y-33394426D03*
X89370000Y-33394426D03*
X73140000Y-46094426D03*
X89370000Y-46094426D03*
D20*
X83975001Y-64331000D03*
X85975001Y-64331000D03*
D21*
X80154500Y-64291670D03*
X81879500Y-64291670D03*
D22*
X79040996Y-57189500D03*
X79040996Y-59264500D03*
D21*
X76384496Y-61611001D03*
X78109496Y-61611001D03*
D23*
X76387004Y-57159000D03*
X76387004Y-59159000D03*
X81841004Y-57273000D03*
X81841004Y-59273000D03*
D24*
X78343000Y-64277668D03*
X76343000Y-64277668D03*
D20*
X81840335Y-66263000D03*
X83840335Y-66263000D03*
D25*
X79686336Y-71789000D03*
X79686336Y-69789000D03*
D20*
X77811661Y-66309000D03*
X79811661Y-66309000D03*
D25*
X82021000Y-71789000D03*
X82021000Y-69789000D03*
D21*
X75006500Y-74431000D03*
X76731500Y-74431000D03*
D26*
X74118001Y-58898500D03*
X74118001Y-57173500D03*
D27*
X83583500Y-68084996D03*
X81858500Y-68084996D03*
X79888837Y-68149000D03*
X78163837Y-68149000D03*
D24*
X108681428Y-65122000D03*
X106681428Y-65122000D03*
D28*
X104690000Y-67049476D03*
X104690000Y-68774476D03*
D25*
X106674000Y-69111976D03*
X106674000Y-67111976D03*
D28*
X104992000Y-61456072D03*
X104992000Y-63181072D03*
D21*
X130588327Y-64076361D03*
X132313327Y-64076361D03*
D22*
X129474823Y-56974191D03*
X129474823Y-59049191D03*
D20*
X134408828Y-64115691D03*
X136408828Y-64115691D03*
D21*
X126818323Y-61395692D03*
X128543323Y-61395692D03*
D26*
X124551828Y-58683191D03*
X124551828Y-56958191D03*
D24*
X128776827Y-64062359D03*
X126776827Y-64062359D03*
D25*
X132454827Y-71573691D03*
X132454827Y-69573691D03*
D27*
X130322664Y-67933691D03*
X128597664Y-67933691D03*
D21*
X125440327Y-74215691D03*
X127165327Y-74215691D03*
D20*
X128245488Y-66093691D03*
X130245488Y-66093691D03*
X132274162Y-66047691D03*
X134274162Y-66047691D03*
D27*
X134017327Y-67869687D03*
X132292327Y-67869687D03*
D23*
X126820831Y-56943691D03*
X126820831Y-58943691D03*
X132274831Y-57057691D03*
X132274831Y-59057691D03*
D25*
X130120163Y-71573691D03*
X130120163Y-69573691D03*
D24*
X209931428Y-65072000D03*
X207931428Y-65072000D03*
D28*
X205940000Y-66999476D03*
X205940000Y-68724476D03*
D25*
X207924000Y-69061976D03*
X207924000Y-67061976D03*
D28*
X206242000Y-61406072D03*
X206242000Y-63131072D03*
D21*
X180527500Y-64601670D03*
X182252500Y-64601670D03*
D22*
X179413996Y-57499500D03*
X179413996Y-59574500D03*
D21*
X176757496Y-61921001D03*
X178482496Y-61921001D03*
D23*
X182214004Y-57583000D03*
X182214004Y-59583000D03*
X176760004Y-57469000D03*
X176760004Y-59469000D03*
D24*
X178716000Y-64587668D03*
X176716000Y-64587668D03*
D25*
X182394000Y-72099000D03*
X182394000Y-70099000D03*
D27*
X180261837Y-68459000D03*
X178536837Y-68459000D03*
D26*
X174491001Y-59208500D03*
X174491001Y-57483500D03*
D21*
X175379500Y-74741000D03*
X177104500Y-74741000D03*
D20*
X178184661Y-66619000D03*
X180184661Y-66619000D03*
X184348001Y-64641000D03*
X186348001Y-64641000D03*
D27*
X183956500Y-68394996D03*
X182231500Y-68394996D03*
D20*
X182213335Y-66573000D03*
X184213335Y-66573000D03*
D25*
X180059336Y-72099000D03*
X180059336Y-70099000D03*
D21*
X232154500Y-64591670D03*
X233879500Y-64591670D03*
D22*
X231040996Y-57489500D03*
X231040996Y-59564500D03*
D21*
X228384496Y-61911001D03*
X230109496Y-61911001D03*
D23*
X233841004Y-57573000D03*
X233841004Y-59573000D03*
X228387004Y-57459000D03*
X228387004Y-59459000D03*
D24*
X230343000Y-64577668D03*
X228343000Y-64577668D03*
D25*
X234021000Y-72089000D03*
X234021000Y-70089000D03*
D27*
X231888837Y-68449000D03*
X230163837Y-68449000D03*
D26*
X226118001Y-59198500D03*
X226118001Y-57473500D03*
D21*
X227006500Y-74731000D03*
X228731500Y-74731000D03*
D20*
X229811661Y-66609000D03*
X231811661Y-66609000D03*
X235975001Y-64631000D03*
X237975001Y-64631000D03*
D27*
X235583500Y-68384996D03*
X233858500Y-68384996D03*
D20*
X233840335Y-66563000D03*
X235840335Y-66563000D03*
D25*
X231686336Y-72089000D03*
X231686336Y-70089000D03*
D28*
X154040000Y-67249476D03*
X154040000Y-68974476D03*
D25*
X156024000Y-69311976D03*
X156024000Y-67311976D03*
D28*
X154342000Y-61656072D03*
X154342000Y-63381072D03*
D24*
X158031428Y-65322000D03*
X156031428Y-65322000D03*
D19*
X247395000Y-40355000D03*
X263625000Y-40355000D03*
X247395000Y-34005000D03*
X263625000Y-34005000D03*
X247395000Y-46705000D03*
X263625000Y-46705000D03*
X222395000Y-40355000D03*
X238625000Y-40355000D03*
X222395000Y-34005000D03*
X238625000Y-34005000D03*
X222395000Y-46705000D03*
X238625000Y-46705000D03*
X147395000Y-40355000D03*
X163625000Y-40355000D03*
X147395000Y-34005000D03*
X163625000Y-34005000D03*
X147395000Y-46705000D03*
X163625000Y-46705000D03*
X122395000Y-40355000D03*
X138625000Y-40355000D03*
X122395000Y-34005000D03*
X138625000Y-34005000D03*
X122395000Y-46705000D03*
X138625000Y-46705000D03*
X97395000Y-40355000D03*
X113625000Y-40355000D03*
X97395000Y-34005000D03*
X113625000Y-34005000D03*
X97395000Y-46705000D03*
X113625000Y-46705000D03*
D29*
X251327000Y-112221000D03*
D30*
X251327000Y-114761000D03*
X251327000Y-117301000D03*
D31*
X264575000Y-92385000D03*
X264575000Y-93655000D03*
D32*
X264575000Y-94925000D03*
D33*
X246267000Y-110988621D03*
D15*
X246267000Y-112988621D03*
X223298241Y-98564240D03*
D33*
X223298241Y-101064240D03*
D15*
X222932999Y-92237000D03*
D33*
X222932999Y-89737000D03*
D15*
X239285759Y-132467360D03*
D33*
X239285759Y-129967360D03*
D24*
X255076572Y-65200000D03*
X257076572Y-65200000D03*
D25*
X255069144Y-67189976D03*
X255069144Y-69189976D03*
D28*
X253387144Y-63259072D03*
X253387144Y-61534072D03*
X253085144Y-68852476D03*
X253085144Y-67127476D03*
D15*
X256406241Y-88531000D03*
D33*
X258406241Y-88531000D03*
D15*
X256077000Y-103487759D03*
D33*
X258077000Y-103487759D03*
D15*
X223353399Y-131879000D03*
D33*
X220853399Y-131879000D03*
%LPD*%
M02*
