M48
; DRILL file {KiCad 7.0.2} date Fri Mar  1 18:45:34 2024
; FORMAT={-:-/ absolute / metric / decimal}
; #@! TF.CreationDate,2024-03-01T18:45:34+01:00
; #@! TF.GenerationSoftware,Kicad,Pcbnew,7.0.2
; #@! TF.FileFunction,Plated,1,4,PTH
FMAT,2
METRIC
; #@! TA.AperFunction,Plated,PTH,ViaDrill
T1C0.300
; #@! TA.AperFunction,Plated,PTH,ViaDrill
T2C0.400
; #@! TA.AperFunction,Plated,PTH,ComponentDrill
T3C0.750
; #@! TA.AperFunction,Plated,PTH,ComponentDrill
T4C0.800
; #@! TA.AperFunction,Plated,PTH,ComponentDrill
T5C0.920
; #@! TA.AperFunction,Plated,PTH,ComponentDrill
T6C1.000
; #@! TA.AperFunction,Plated,PTH,ComponentDrill
T7C1.100
; #@! TA.AperFunction,Plated,PTH,ComponentDrill
T8C1.400
; #@! TA.AperFunction,Plated,PTH,ComponentDrill
T9C2.300
%
G90
G05
T1
X75.75Y-65.9
X126.184Y-65.685
X176.123Y-66.21
X227.75Y-66.2
T2
X73.45Y-66.5
X74.05Y-70.6
X74.278Y-60.072
X74.45Y-67.9
X74.478Y-76.49
X75.711Y-73.308
X76.35Y-60.4
X76.379Y-76.542
X76.65Y-68.2
X76.85Y-75.5
X77.121Y-77.284
X77.572Y-60.43
X79.036Y-60.529
X79.753Y-72.989
X80.15Y-63.1
X82.074Y-63.126
X82.65Y-75.7
X82.85Y-77.4
X82.871Y-65.231
X83.05Y-62.1
X83.15Y-60.5
X83.75Y-74.4
X83.95Y-76.4
X84.65Y-73.2
X84.75Y-58.7
X84.95Y-71.6
X85.05Y-75.2
X86.25Y-68.0
X86.25Y-69.2
X86.25Y-70.4
X86.25Y-71.6
X86.25Y-72.8
X86.25Y-74.0
X123.884Y-66.285
X124.484Y-70.385
X124.712Y-59.857
X124.884Y-67.685
X124.912Y-76.275
X126.145Y-73.093
X126.784Y-60.185
X126.813Y-76.327
X127.084Y-67.985
X127.284Y-75.285
X127.555Y-77.069
X128.005Y-60.215
X129.47Y-60.314
X130.187Y-72.773
X130.584Y-62.885
X132.508Y-62.911
X133.084Y-75.485
X133.284Y-77.185
X133.305Y-65.016
X133.484Y-61.885
X133.584Y-60.285
X134.184Y-74.185
X134.384Y-76.185
X135.084Y-72.985
X135.184Y-58.485
X135.384Y-71.385
X135.484Y-74.985
X136.684Y-67.785
X136.684Y-68.985
X136.684Y-70.185
X136.684Y-71.385
X136.684Y-72.585
X136.684Y-73.785
X173.823Y-66.81
X174.423Y-70.91
X174.651Y-60.382
X174.823Y-68.21
X174.851Y-76.8
X176.084Y-73.618
X176.723Y-60.71
X176.752Y-76.852
X177.023Y-68.51
X177.223Y-75.81
X177.494Y-77.594
X177.945Y-60.74
X179.409Y-60.839
X180.126Y-73.298
X180.523Y-63.41
X182.447Y-63.436
X183.023Y-76.01
X183.223Y-77.71
X183.244Y-65.541
X183.423Y-62.41
X183.523Y-60.81
X184.123Y-74.71
X184.323Y-76.71
X185.023Y-73.51
X185.123Y-59.01
X185.323Y-71.91
X185.423Y-75.51
X186.623Y-68.31
X186.623Y-69.51
X186.623Y-70.71
X186.623Y-71.91
X186.623Y-73.11
X186.623Y-74.31
X225.45Y-66.8
X226.05Y-70.9
X226.278Y-60.372
X226.45Y-68.2
X226.478Y-76.79
X227.711Y-73.608
X228.35Y-60.7
X228.379Y-76.842
X228.65Y-68.5
X228.85Y-75.8
X229.121Y-77.584
X229.572Y-60.73
X231.036Y-60.829
X231.753Y-73.288
X232.15Y-63.4
X234.074Y-63.426
X234.65Y-76.0
X234.85Y-77.7
X234.871Y-65.531
X235.05Y-62.4
X235.15Y-60.8
X235.75Y-74.7
X235.95Y-76.7
X236.65Y-73.5
X236.75Y-59.0
X236.95Y-71.9
X237.05Y-75.5
X238.25Y-68.3
X238.25Y-69.5
X238.25Y-70.7
X238.25Y-71.9
X238.25Y-73.1
X238.25Y-74.3
T3
X264.575Y-92.385
X264.575Y-93.655
X264.575Y-94.925
T4
X220.853Y-131.879
X222.933Y-89.737
X222.933Y-92.237
X223.298Y-98.564
X223.298Y-101.064
X223.353Y-131.879
X239.286Y-129.967
X239.286Y-132.467
X246.267Y-110.989
X246.267Y-112.989
X256.077Y-103.488
X256.406Y-88.531
X258.077Y-103.488
X258.406Y-88.531
T5
X264.06Y-135.155
X264.06Y-137.655
X264.06Y-139.655
X264.06Y-142.155
T7
X251.327Y-112.221
X251.327Y-114.761
X251.327Y-117.301
T8
X73.14Y-33.394
X73.14Y-39.744
X73.14Y-46.094
X89.37Y-33.394
X89.37Y-39.744
X89.37Y-46.094
X97.395Y-34.005
X97.395Y-40.355
X97.395Y-46.705
X113.625Y-34.005
X113.625Y-40.355
X113.625Y-46.705
X122.395Y-34.005
X122.395Y-40.355
X122.395Y-46.705
X138.625Y-34.005
X138.625Y-40.355
X138.625Y-46.705
X147.395Y-34.005
X147.395Y-40.355
X147.395Y-46.705
X163.625Y-34.005
X163.625Y-40.355
X163.625Y-46.705
X172.92Y-33.394
X172.92Y-39.744
X172.92Y-46.094
X189.15Y-33.394
X189.15Y-39.744
X189.15Y-46.094
X197.2Y-33.394
X197.2Y-39.744
X197.2Y-46.094
X213.43Y-33.394
X213.43Y-39.744
X213.43Y-46.094
X222.395Y-34.005
X222.395Y-40.355
X222.395Y-46.705
X238.625Y-34.005
X238.625Y-40.355
X238.625Y-46.705
X247.395Y-34.005
X247.395Y-40.355
X247.395Y-46.705
X263.625Y-34.005
X263.625Y-40.355
X263.625Y-46.705
T9
X266.77Y-132.085
X266.77Y-145.225
T6
X260.095Y-115.475G85X260.095Y-113.475
G05
X266.095Y-115.125G85X266.095Y-113.825
G05
X266.345Y-109.975G85X267.845Y-109.975
G05
X266.345Y-118.975G85X267.845Y-118.975
G05
T0
M30
