G04 #@! TF.GenerationSoftware,KiCad,Pcbnew,7.0.2*
G04 #@! TF.CreationDate,2024-03-06T23:49:30+01:00*
G04 #@! TF.ProjectId,stm_audio_board_V3,73746d5f-6175-4646-996f-5f626f617264,rev?*
G04 #@! TF.SameCoordinates,Original*
G04 #@! TF.FileFunction,Soldermask,Bot*
G04 #@! TF.FilePolarity,Negative*
%FSLAX46Y46*%
G04 Gerber Fmt 4.6, Leading zero omitted, Abs format (unit mm)*
G04 Created by KiCad (PCBNEW 7.0.2) date 2024-03-06 23:49:30*
%MOMM*%
%LPD*%
G01*
G04 APERTURE LIST*
G04 Aperture macros list*
%AMRoundRect*
0 Rectangle with rounded corners*
0 $1 Rounding radius*
0 $2 $3 $4 $5 $6 $7 $8 $9 X,Y pos of 4 corners*
0 Add a 4 corners polygon primitive as box body*
4,1,4,$2,$3,$4,$5,$6,$7,$8,$9,$2,$3,0*
0 Add four circle primitives for the rounded corners*
1,1,$1+$1,$2,$3*
1,1,$1+$1,$4,$5*
1,1,$1+$1,$6,$7*
1,1,$1+$1,$8,$9*
0 Add four rect primitives between the rounded corners*
20,1,$1+$1,$2,$3,$4,$5,0*
20,1,$1+$1,$4,$5,$6,$7,0*
20,1,$1+$1,$6,$7,$8,$9,0*
20,1,$1+$1,$8,$9,$2,$3,0*%
G04 Aperture macros list end*
%ADD10C,1.800000*%
%ADD11R,1.800000X1.800000*%
%ADD12RoundRect,0.500000X1.000000X-0.500000X1.000000X0.500000X-1.000000X0.500000X-1.000000X-0.500000X0*%
%ADD13C,3.000000*%
%ADD14R,1.600000X1.600000*%
%ADD15C,1.600000*%
%ADD16C,5.600000*%
%ADD17R,2.000000X1.905000*%
%ADD18O,2.000000X1.905000*%
%ADD19R,1.500000X1.050000*%
%ADD20O,1.500000X1.050000*%
%ADD21R,1.700000X1.700000*%
%ADD22O,1.700000X1.700000*%
%ADD23O,3.500000X2.000000*%
%ADD24O,2.000000X3.300000*%
%ADD25R,2.000000X4.000000*%
%ADD26R,1.524000X1.524000*%
%ADD27C,1.524000*%
%ADD28C,3.500000*%
G04 APERTURE END LIST*
D10*
X192625000Y-137025000D03*
X190125000Y-137025000D03*
D11*
X187625000Y-137025000D03*
D12*
X194875000Y-129525000D03*
X185375000Y-129525000D03*
D10*
X174050000Y-136825000D03*
X171550000Y-136825000D03*
D11*
X169050000Y-136825000D03*
D12*
X176300000Y-129325000D03*
X166800000Y-129325000D03*
D10*
X155475000Y-136825000D03*
X152975000Y-136825000D03*
D11*
X150475000Y-136825000D03*
D12*
X157725000Y-129325000D03*
X148225000Y-129325000D03*
D10*
X192625000Y-114595000D03*
X190125000Y-114595000D03*
D11*
X187625000Y-114595000D03*
D12*
X194875000Y-107095000D03*
X185375000Y-107095000D03*
D10*
X174050000Y-114595000D03*
X171550000Y-114595000D03*
D11*
X169050000Y-114595000D03*
D12*
X176300000Y-107095000D03*
X166800000Y-107095000D03*
D10*
X155475000Y-114295000D03*
X152975000Y-114295000D03*
D11*
X150475000Y-114295000D03*
D12*
X157725000Y-106795000D03*
X148225000Y-106795000D03*
D13*
X238625000Y-46705000D03*
X222395000Y-46705000D03*
X238625000Y-34005000D03*
X222395000Y-34005000D03*
X238625000Y-40355000D03*
X222395000Y-40355000D03*
X189150000Y-46094426D03*
X172920000Y-46094426D03*
X189150000Y-33394426D03*
X172920000Y-33394426D03*
X189150000Y-39744426D03*
X172920000Y-39744426D03*
D14*
X246267000Y-110988621D03*
D15*
X246267000Y-112988621D03*
D16*
X82075000Y-113375000D03*
D13*
X138625000Y-46705000D03*
X122395000Y-46705000D03*
X138625000Y-34005000D03*
X122395000Y-34005000D03*
X138625000Y-40355000D03*
X122395000Y-40355000D03*
D17*
X251327000Y-112221000D03*
D18*
X251327000Y-114761000D03*
X251327000Y-117301000D03*
D19*
X264575000Y-94925000D03*
D20*
X264575000Y-93655000D03*
X264575000Y-92385000D03*
D14*
X238398241Y-106864240D03*
D15*
X238398241Y-104364240D03*
D14*
X238632999Y-96937000D03*
D15*
X238632999Y-99437000D03*
D14*
X260485759Y-124267360D03*
D15*
X260485759Y-126767360D03*
D13*
X89370000Y-46094426D03*
X73140000Y-46094426D03*
X89370000Y-33394426D03*
X73140000Y-33394426D03*
X89370000Y-39744426D03*
X73140000Y-39744426D03*
D21*
X92625000Y-110075000D03*
D22*
X92625000Y-112615000D03*
X92625000Y-115155000D03*
D16*
X82075000Y-99075000D03*
D13*
X163625000Y-46705000D03*
X147395000Y-46705000D03*
X163625000Y-34005000D03*
X147395000Y-34005000D03*
X163625000Y-40355000D03*
X147395000Y-40355000D03*
D21*
X87975000Y-110075000D03*
D22*
X87975000Y-112615000D03*
X87975000Y-115155000D03*
D16*
X82075000Y-120525000D03*
D23*
X267095000Y-109975000D03*
X267095000Y-118975000D03*
D24*
X266095000Y-114475000D03*
D25*
X260095000Y-114475000D03*
D15*
X269095000Y-114475000D03*
D21*
X92625000Y-105025000D03*
X87975000Y-97825000D03*
D22*
X87975000Y-100365000D03*
X87975000Y-102905000D03*
X87975000Y-105445000D03*
D26*
X264060000Y-142155000D03*
D27*
X264060000Y-139655000D03*
X264060000Y-137655000D03*
X264060000Y-135155000D03*
D28*
X266770000Y-145225000D03*
X266770000Y-132085000D03*
D13*
X113625000Y-46705000D03*
X97395000Y-46705000D03*
X113625000Y-34005000D03*
X97395000Y-34005000D03*
X113625000Y-40355000D03*
X97395000Y-40355000D03*
D16*
X82075000Y-106225000D03*
D14*
X258406241Y-88531000D03*
D15*
X256406241Y-88531000D03*
D14*
X258077000Y-103487759D03*
D15*
X256077000Y-103487759D03*
D13*
X263625000Y-46705000D03*
X247395000Y-46705000D03*
X263625000Y-34005000D03*
X247395000Y-34005000D03*
X263625000Y-40355000D03*
X247395000Y-40355000D03*
D14*
X237553399Y-128279000D03*
D15*
X240053399Y-128279000D03*
D21*
X92625000Y-97825000D03*
D22*
X92625000Y-100365000D03*
D13*
X213635000Y-46425000D03*
X197405000Y-46425000D03*
X213635000Y-33725000D03*
X197405000Y-33725000D03*
X213635000Y-40075000D03*
X197405000Y-40075000D03*
M02*
