G04 #@! TF.GenerationSoftware,KiCad,Pcbnew,7.0.2*
G04 #@! TF.CreationDate,2024-03-01T18:45:41+01:00*
G04 #@! TF.ProjectId,stm_audio_board_V3,73746d5f-6175-4646-996f-5f626f617264,rev?*
G04 #@! TF.SameCoordinates,Original*
G04 #@! TF.FileFunction,Copper,L2,Inr*
G04 #@! TF.FilePolarity,Positive*
%FSLAX46Y46*%
G04 Gerber Fmt 4.6, Leading zero omitted, Abs format (unit mm)*
G04 Created by KiCad (PCBNEW 7.0.2) date 2024-03-01 18:45:41*
%MOMM*%
%LPD*%
G01*
G04 APERTURE LIST*
G04 #@! TA.AperFunction,ComponentPad*
%ADD10R,1.524000X1.524000*%
G04 #@! TD*
G04 #@! TA.AperFunction,ComponentPad*
%ADD11C,1.524000*%
G04 #@! TD*
G04 #@! TA.AperFunction,ComponentPad*
%ADD12C,3.500000*%
G04 #@! TD*
G04 #@! TA.AperFunction,ComponentPad*
%ADD13R,2.000000X4.000000*%
G04 #@! TD*
G04 #@! TA.AperFunction,ComponentPad*
%ADD14O,2.000000X3.300000*%
G04 #@! TD*
G04 #@! TA.AperFunction,ComponentPad*
%ADD15O,3.500000X2.000000*%
G04 #@! TD*
G04 #@! TA.AperFunction,ComponentPad*
%ADD16C,3.000000*%
G04 #@! TD*
G04 #@! TA.AperFunction,ComponentPad*
%ADD17R,2.000000X1.905000*%
G04 #@! TD*
G04 #@! TA.AperFunction,ComponentPad*
%ADD18O,2.000000X1.905000*%
G04 #@! TD*
G04 #@! TA.AperFunction,ComponentPad*
%ADD19O,1.500000X1.050000*%
G04 #@! TD*
G04 #@! TA.AperFunction,ComponentPad*
%ADD20R,1.500000X1.050000*%
G04 #@! TD*
G04 #@! TA.AperFunction,ComponentPad*
%ADD21R,1.600000X1.600000*%
G04 #@! TD*
G04 #@! TA.AperFunction,ComponentPad*
%ADD22C,1.600000*%
G04 #@! TD*
G04 #@! TA.AperFunction,ViaPad*
%ADD23C,0.800000*%
G04 #@! TD*
G04 #@! TA.AperFunction,ViaPad*
%ADD24C,0.500000*%
G04 #@! TD*
G04 APERTURE END LIST*
D10*
X264060000Y-142155000D03*
D11*
X264060000Y-139655000D03*
X264060000Y-137655000D03*
X264060000Y-135155000D03*
D12*
X266770000Y-132085000D03*
X266770000Y-145225000D03*
D13*
X260095000Y-114475000D03*
D14*
X266095000Y-114475000D03*
D15*
X267095000Y-118975000D03*
X267095000Y-109975000D03*
D16*
X197200000Y-39744426D03*
X213430000Y-39744426D03*
X197200000Y-33394426D03*
X213430000Y-33394426D03*
X197200000Y-46094426D03*
X213430000Y-46094426D03*
X172920000Y-39744426D03*
X189150000Y-39744426D03*
X172920000Y-33394426D03*
X189150000Y-33394426D03*
X172920000Y-46094426D03*
X189150000Y-46094426D03*
X73140000Y-39744426D03*
X89370000Y-39744426D03*
X73140000Y-33394426D03*
X89370000Y-33394426D03*
X73140000Y-46094426D03*
X89370000Y-46094426D03*
X247395000Y-40355000D03*
X263625000Y-40355000D03*
X247395000Y-34005000D03*
X263625000Y-34005000D03*
X247395000Y-46705000D03*
X263625000Y-46705000D03*
X222395000Y-40355000D03*
X238625000Y-40355000D03*
X222395000Y-34005000D03*
X238625000Y-34005000D03*
X222395000Y-46705000D03*
X238625000Y-46705000D03*
X147395000Y-40355000D03*
X163625000Y-40355000D03*
X147395000Y-34005000D03*
X163625000Y-34005000D03*
X147395000Y-46705000D03*
X163625000Y-46705000D03*
X122395000Y-40355000D03*
X138625000Y-40355000D03*
X122395000Y-34005000D03*
X138625000Y-34005000D03*
X122395000Y-46705000D03*
X138625000Y-46705000D03*
X97395000Y-40355000D03*
X113625000Y-40355000D03*
X97395000Y-34005000D03*
X113625000Y-34005000D03*
X97395000Y-46705000D03*
X113625000Y-46705000D03*
D17*
X251327000Y-112221000D03*
D18*
X251327000Y-114761000D03*
X251327000Y-117301000D03*
D19*
X264575000Y-92385000D03*
X264575000Y-93655000D03*
D20*
X264575000Y-94925000D03*
D21*
X246267000Y-110988621D03*
D22*
X246267000Y-112988621D03*
X223298241Y-98564240D03*
D21*
X223298241Y-101064240D03*
D22*
X222932999Y-92237000D03*
D21*
X222932999Y-89737000D03*
D22*
X239285759Y-132467360D03*
D21*
X239285759Y-129967360D03*
D22*
X256406241Y-88531000D03*
D21*
X258406241Y-88531000D03*
D22*
X256077000Y-103487759D03*
D21*
X258077000Y-103487759D03*
D22*
X223353399Y-131879000D03*
D21*
X220853399Y-131879000D03*
D23*
X77571506Y-60429843D03*
X86250000Y-68000000D03*
X82074000Y-63126353D03*
X79753341Y-72988500D03*
X84950000Y-71600000D03*
D24*
X75750000Y-65900000D03*
D23*
X86250000Y-74000000D03*
X76650000Y-68200000D03*
X83050000Y-62100000D03*
X77121232Y-77284332D03*
X76850000Y-75500000D03*
X86250000Y-72800000D03*
X74450000Y-67900000D03*
X85050000Y-75200000D03*
X84750000Y-58700000D03*
X84650000Y-73200000D03*
X86250000Y-69200000D03*
X74278000Y-60072000D03*
X83750000Y-74400000D03*
X76378768Y-76541868D03*
X83950000Y-76400000D03*
X79036450Y-60529500D03*
X74478378Y-76490500D03*
X86250000Y-71600000D03*
X80150000Y-63100000D03*
X75711239Y-73308102D03*
X82871321Y-65231216D03*
X74050000Y-70600000D03*
X76350000Y-60400000D03*
X83150000Y-60500000D03*
X82850000Y-77400000D03*
X73450000Y-66500000D03*
X86250000Y-70400000D03*
X82650000Y-75700000D03*
X127083827Y-67984691D03*
X133083827Y-75484691D03*
X124711827Y-59856691D03*
X134183827Y-74184691D03*
X136683827Y-68984691D03*
X133483827Y-61884691D03*
X135183827Y-58484691D03*
X127283827Y-75284691D03*
X134383827Y-76184691D03*
X124483827Y-70384691D03*
X136683827Y-71384691D03*
X126145066Y-73092793D03*
X124883827Y-67684691D03*
X126783827Y-60184691D03*
X127555059Y-77069023D03*
X126812595Y-76326559D03*
X129470277Y-60314191D03*
X130583827Y-62884691D03*
X135483827Y-74984691D03*
X124912205Y-76275191D03*
X133583827Y-60284691D03*
X133305148Y-65015907D03*
X135083827Y-72984691D03*
X136683827Y-72584691D03*
X123883827Y-66284691D03*
X133283827Y-77184691D03*
X136683827Y-70184691D03*
D24*
X126183827Y-65684691D03*
D23*
X136683827Y-73784691D03*
X128005333Y-60214534D03*
X136683827Y-67784691D03*
X130187168Y-72773191D03*
X135383827Y-71384691D03*
X132507827Y-62911044D03*
X183423000Y-62410000D03*
X185123000Y-59010000D03*
X174823000Y-68210000D03*
X184323000Y-76710000D03*
X176723000Y-60710000D03*
X176084239Y-73618102D03*
X174423000Y-70910000D03*
X177223000Y-75810000D03*
X186623000Y-71910000D03*
X186623000Y-68310000D03*
X185323000Y-71910000D03*
X173823000Y-66810000D03*
X183223000Y-77710000D03*
D24*
X176123000Y-66210000D03*
D23*
X186623000Y-74310000D03*
X177944506Y-60739843D03*
X180126341Y-73298500D03*
X186623000Y-70710000D03*
X182447000Y-63436353D03*
X176751768Y-76851868D03*
X179409450Y-60839500D03*
X180523000Y-63410000D03*
X186623000Y-73110000D03*
X174851378Y-76800500D03*
X183244321Y-65541216D03*
X185023000Y-73510000D03*
X177494232Y-77594332D03*
X183523000Y-60810000D03*
X185423000Y-75510000D03*
X183023000Y-76010000D03*
X174651000Y-60382000D03*
X184123000Y-74710000D03*
X186623000Y-69510000D03*
X177023000Y-68510000D03*
X235050000Y-62400000D03*
X236750000Y-59000000D03*
X226450000Y-68200000D03*
X235950000Y-76700000D03*
X228350000Y-60700000D03*
X227711239Y-73608102D03*
X226050000Y-70900000D03*
X228850000Y-75800000D03*
X238250000Y-71900000D03*
X238250000Y-68300000D03*
X236950000Y-71900000D03*
X225450000Y-66800000D03*
X234850000Y-77700000D03*
D24*
X227750000Y-66200000D03*
D23*
X238250000Y-74300000D03*
X229571506Y-60729843D03*
X231753341Y-73288500D03*
X238250000Y-70700000D03*
X234074000Y-63426353D03*
X228378768Y-76841868D03*
X231036450Y-60829500D03*
X232150000Y-63400000D03*
X238250000Y-73100000D03*
X226478378Y-76790500D03*
X234871321Y-65531216D03*
X236650000Y-73500000D03*
X229121232Y-77584332D03*
X235150000Y-60800000D03*
X237050000Y-75500000D03*
X234650000Y-76000000D03*
X226278000Y-60372000D03*
X235750000Y-74700000D03*
X238250000Y-69500000D03*
X228650000Y-68500000D03*
M02*
