G04 #@! TF.GenerationSoftware,KiCad,Pcbnew,7.0.2*
G04 #@! TF.CreationDate,2024-03-01T18:45:41+01:00*
G04 #@! TF.ProjectId,stm_audio_board_V3,73746d5f-6175-4646-996f-5f626f617264,rev?*
G04 #@! TF.SameCoordinates,Original*
G04 #@! TF.FileFunction,Copper,L4,Bot*
G04 #@! TF.FilePolarity,Positive*
%FSLAX46Y46*%
G04 Gerber Fmt 4.6, Leading zero omitted, Abs format (unit mm)*
G04 Created by KiCad (PCBNEW 7.0.2) date 2024-03-01 18:45:41*
%MOMM*%
%LPD*%
G01*
G04 APERTURE LIST*
G04 Aperture macros list*
%AMRoundRect*
0 Rectangle with rounded corners*
0 $1 Rounding radius*
0 $2 $3 $4 $5 $6 $7 $8 $9 X,Y pos of 4 corners*
0 Add a 4 corners polygon primitive as box body*
4,1,4,$2,$3,$4,$5,$6,$7,$8,$9,$2,$3,0*
0 Add four circle primitives for the rounded corners*
1,1,$1+$1,$2,$3*
1,1,$1+$1,$4,$5*
1,1,$1+$1,$6,$7*
1,1,$1+$1,$8,$9*
0 Add four rect primitives between the rounded corners*
20,1,$1+$1,$2,$3,$4,$5,0*
20,1,$1+$1,$4,$5,$6,$7,0*
20,1,$1+$1,$6,$7,$8,$9,0*
20,1,$1+$1,$8,$9,$2,$3,0*%
G04 Aperture macros list end*
G04 #@! TA.AperFunction,ComponentPad*
%ADD10R,1.524000X1.524000*%
G04 #@! TD*
G04 #@! TA.AperFunction,ComponentPad*
%ADD11C,1.524000*%
G04 #@! TD*
G04 #@! TA.AperFunction,ComponentPad*
%ADD12C,3.500000*%
G04 #@! TD*
G04 #@! TA.AperFunction,ComponentPad*
%ADD13R,2.000000X4.000000*%
G04 #@! TD*
G04 #@! TA.AperFunction,ComponentPad*
%ADD14O,2.000000X3.300000*%
G04 #@! TD*
G04 #@! TA.AperFunction,ComponentPad*
%ADD15O,3.500000X2.000000*%
G04 #@! TD*
G04 #@! TA.AperFunction,ComponentPad*
%ADD16C,3.000000*%
G04 #@! TD*
G04 #@! TA.AperFunction,SMDPad,CuDef*
%ADD17RoundRect,0.250000X-0.350000X-0.450000X0.350000X-0.450000X0.350000X0.450000X-0.350000X0.450000X0*%
G04 #@! TD*
G04 #@! TA.AperFunction,SMDPad,CuDef*
%ADD18RoundRect,0.237500X-0.300000X-0.237500X0.300000X-0.237500X0.300000X0.237500X-0.300000X0.237500X0*%
G04 #@! TD*
G04 #@! TA.AperFunction,SMDPad,CuDef*
%ADD19RoundRect,0.250000X-0.475000X0.337500X-0.475000X-0.337500X0.475000X-0.337500X0.475000X0.337500X0*%
G04 #@! TD*
G04 #@! TA.AperFunction,SMDPad,CuDef*
%ADD20RoundRect,0.250000X-0.450000X0.350000X-0.450000X-0.350000X0.450000X-0.350000X0.450000X0.350000X0*%
G04 #@! TD*
G04 #@! TA.AperFunction,SMDPad,CuDef*
%ADD21RoundRect,0.250000X0.350000X0.450000X-0.350000X0.450000X-0.350000X-0.450000X0.350000X-0.450000X0*%
G04 #@! TD*
G04 #@! TA.AperFunction,SMDPad,CuDef*
%ADD22RoundRect,0.250000X0.450000X-0.350000X0.450000X0.350000X-0.450000X0.350000X-0.450000X-0.350000X0*%
G04 #@! TD*
G04 #@! TA.AperFunction,SMDPad,CuDef*
%ADD23RoundRect,0.237500X0.237500X-0.300000X0.237500X0.300000X-0.237500X0.300000X-0.237500X-0.300000X0*%
G04 #@! TD*
G04 #@! TA.AperFunction,SMDPad,CuDef*
%ADD24RoundRect,0.237500X0.300000X0.237500X-0.300000X0.237500X-0.300000X-0.237500X0.300000X-0.237500X0*%
G04 #@! TD*
G04 #@! TA.AperFunction,SMDPad,CuDef*
%ADD25RoundRect,0.237500X-0.237500X0.300000X-0.237500X-0.300000X0.237500X-0.300000X0.237500X0.300000X0*%
G04 #@! TD*
G04 #@! TA.AperFunction,ComponentPad*
%ADD26R,2.000000X1.905000*%
G04 #@! TD*
G04 #@! TA.AperFunction,ComponentPad*
%ADD27O,2.000000X1.905000*%
G04 #@! TD*
G04 #@! TA.AperFunction,ComponentPad*
%ADD28O,1.500000X1.050000*%
G04 #@! TD*
G04 #@! TA.AperFunction,ComponentPad*
%ADD29R,1.500000X1.050000*%
G04 #@! TD*
G04 #@! TA.AperFunction,ComponentPad*
%ADD30R,1.600000X1.600000*%
G04 #@! TD*
G04 #@! TA.AperFunction,ComponentPad*
%ADD31C,1.600000*%
G04 #@! TD*
G04 #@! TA.AperFunction,ViaPad*
%ADD32C,0.800000*%
G04 #@! TD*
G04 #@! TA.AperFunction,ViaPad*
%ADD33C,0.500000*%
G04 #@! TD*
G04 APERTURE END LIST*
D10*
X264060000Y-142155000D03*
D11*
X264060000Y-139655000D03*
X264060000Y-137655000D03*
X264060000Y-135155000D03*
D12*
X266770000Y-132085000D03*
X266770000Y-145225000D03*
D13*
X260095000Y-114475000D03*
D14*
X266095000Y-114475000D03*
D15*
X267095000Y-118975000D03*
X267095000Y-109975000D03*
D16*
X197200000Y-39744426D03*
X213430000Y-39744426D03*
X197200000Y-33394426D03*
X213430000Y-33394426D03*
X197200000Y-46094426D03*
X213430000Y-46094426D03*
X172920000Y-39744426D03*
X189150000Y-39744426D03*
X172920000Y-33394426D03*
X189150000Y-33394426D03*
X172920000Y-46094426D03*
X189150000Y-46094426D03*
X73140000Y-39744426D03*
X89370000Y-39744426D03*
X73140000Y-33394426D03*
X89370000Y-33394426D03*
X73140000Y-46094426D03*
X89370000Y-46094426D03*
D17*
X83975001Y-64331000D03*
X85975001Y-64331000D03*
D18*
X80154500Y-64291670D03*
X81879500Y-64291670D03*
D19*
X79040996Y-57189500D03*
X79040996Y-59264500D03*
D18*
X76384496Y-61611001D03*
X78109496Y-61611001D03*
D20*
X76387004Y-57159000D03*
X76387004Y-59159000D03*
X81841004Y-57273000D03*
X81841004Y-59273000D03*
D21*
X78343000Y-64277668D03*
X76343000Y-64277668D03*
D17*
X81840335Y-66263000D03*
X83840335Y-66263000D03*
D22*
X79686336Y-71789000D03*
X79686336Y-69789000D03*
D17*
X77811661Y-66309000D03*
X79811661Y-66309000D03*
D22*
X82021000Y-71789000D03*
X82021000Y-69789000D03*
D18*
X75006500Y-74431000D03*
X76731500Y-74431000D03*
D23*
X74118001Y-58898500D03*
X74118001Y-57173500D03*
D24*
X83583500Y-68084996D03*
X81858500Y-68084996D03*
X79888837Y-68149000D03*
X78163837Y-68149000D03*
D21*
X108681428Y-65122000D03*
X106681428Y-65122000D03*
D25*
X104690000Y-67049476D03*
X104690000Y-68774476D03*
D22*
X106674000Y-69111976D03*
X106674000Y-67111976D03*
D25*
X104992000Y-61456072D03*
X104992000Y-63181072D03*
D18*
X130588327Y-64076361D03*
X132313327Y-64076361D03*
D19*
X129474823Y-56974191D03*
X129474823Y-59049191D03*
D17*
X134408828Y-64115691D03*
X136408828Y-64115691D03*
D18*
X126818323Y-61395692D03*
X128543323Y-61395692D03*
D23*
X124551828Y-58683191D03*
X124551828Y-56958191D03*
D21*
X128776827Y-64062359D03*
X126776827Y-64062359D03*
D22*
X132454827Y-71573691D03*
X132454827Y-69573691D03*
D24*
X130322664Y-67933691D03*
X128597664Y-67933691D03*
D18*
X125440327Y-74215691D03*
X127165327Y-74215691D03*
D17*
X128245488Y-66093691D03*
X130245488Y-66093691D03*
X132274162Y-66047691D03*
X134274162Y-66047691D03*
D24*
X134017327Y-67869687D03*
X132292327Y-67869687D03*
D20*
X126820831Y-56943691D03*
X126820831Y-58943691D03*
X132274831Y-57057691D03*
X132274831Y-59057691D03*
D22*
X130120163Y-71573691D03*
X130120163Y-69573691D03*
D21*
X209931428Y-65072000D03*
X207931428Y-65072000D03*
D25*
X205940000Y-66999476D03*
X205940000Y-68724476D03*
D22*
X207924000Y-69061976D03*
X207924000Y-67061976D03*
D25*
X206242000Y-61406072D03*
X206242000Y-63131072D03*
D18*
X180527500Y-64601670D03*
X182252500Y-64601670D03*
D19*
X179413996Y-57499500D03*
X179413996Y-59574500D03*
D18*
X176757496Y-61921001D03*
X178482496Y-61921001D03*
D20*
X182214004Y-57583000D03*
X182214004Y-59583000D03*
X176760004Y-57469000D03*
X176760004Y-59469000D03*
D21*
X178716000Y-64587668D03*
X176716000Y-64587668D03*
D22*
X182394000Y-72099000D03*
X182394000Y-70099000D03*
D24*
X180261837Y-68459000D03*
X178536837Y-68459000D03*
D23*
X174491001Y-59208500D03*
X174491001Y-57483500D03*
D18*
X175379500Y-74741000D03*
X177104500Y-74741000D03*
D17*
X178184661Y-66619000D03*
X180184661Y-66619000D03*
X184348001Y-64641000D03*
X186348001Y-64641000D03*
D24*
X183956500Y-68394996D03*
X182231500Y-68394996D03*
D17*
X182213335Y-66573000D03*
X184213335Y-66573000D03*
D22*
X180059336Y-72099000D03*
X180059336Y-70099000D03*
D18*
X232154500Y-64591670D03*
X233879500Y-64591670D03*
D19*
X231040996Y-57489500D03*
X231040996Y-59564500D03*
D18*
X228384496Y-61911001D03*
X230109496Y-61911001D03*
D20*
X233841004Y-57573000D03*
X233841004Y-59573000D03*
X228387004Y-57459000D03*
X228387004Y-59459000D03*
D21*
X230343000Y-64577668D03*
X228343000Y-64577668D03*
D22*
X234021000Y-72089000D03*
X234021000Y-70089000D03*
D24*
X231888837Y-68449000D03*
X230163837Y-68449000D03*
D23*
X226118001Y-59198500D03*
X226118001Y-57473500D03*
D18*
X227006500Y-74731000D03*
X228731500Y-74731000D03*
D17*
X229811661Y-66609000D03*
X231811661Y-66609000D03*
X235975001Y-64631000D03*
X237975001Y-64631000D03*
D24*
X235583500Y-68384996D03*
X233858500Y-68384996D03*
D17*
X233840335Y-66563000D03*
X235840335Y-66563000D03*
D22*
X231686336Y-72089000D03*
X231686336Y-70089000D03*
D25*
X154040000Y-67249476D03*
X154040000Y-68974476D03*
D22*
X156024000Y-69311976D03*
X156024000Y-67311976D03*
D25*
X154342000Y-61656072D03*
X154342000Y-63381072D03*
D21*
X158031428Y-65322000D03*
X156031428Y-65322000D03*
D16*
X247395000Y-40355000D03*
X263625000Y-40355000D03*
X247395000Y-34005000D03*
X263625000Y-34005000D03*
X247395000Y-46705000D03*
X263625000Y-46705000D03*
X222395000Y-40355000D03*
X238625000Y-40355000D03*
X222395000Y-34005000D03*
X238625000Y-34005000D03*
X222395000Y-46705000D03*
X238625000Y-46705000D03*
X147395000Y-40355000D03*
X163625000Y-40355000D03*
X147395000Y-34005000D03*
X163625000Y-34005000D03*
X147395000Y-46705000D03*
X163625000Y-46705000D03*
X122395000Y-40355000D03*
X138625000Y-40355000D03*
X122395000Y-34005000D03*
X138625000Y-34005000D03*
X122395000Y-46705000D03*
X138625000Y-46705000D03*
X97395000Y-40355000D03*
X113625000Y-40355000D03*
X97395000Y-34005000D03*
X113625000Y-34005000D03*
X97395000Y-46705000D03*
X113625000Y-46705000D03*
D26*
X251327000Y-112221000D03*
D27*
X251327000Y-114761000D03*
X251327000Y-117301000D03*
D28*
X264575000Y-92385000D03*
X264575000Y-93655000D03*
D29*
X264575000Y-94925000D03*
D30*
X246267000Y-110988621D03*
D31*
X246267000Y-112988621D03*
X223298241Y-98564240D03*
D30*
X223298241Y-101064240D03*
D31*
X222932999Y-92237000D03*
D30*
X222932999Y-89737000D03*
D31*
X239285759Y-132467360D03*
D30*
X239285759Y-129967360D03*
D21*
X255076572Y-65200000D03*
X257076572Y-65200000D03*
D22*
X255069144Y-67189976D03*
X255069144Y-69189976D03*
D25*
X253387144Y-63259072D03*
X253387144Y-61534072D03*
X253085144Y-68852476D03*
X253085144Y-67127476D03*
D31*
X256406241Y-88531000D03*
D30*
X258406241Y-88531000D03*
D31*
X256077000Y-103487759D03*
D30*
X258077000Y-103487759D03*
D31*
X223353399Y-131879000D03*
D30*
X220853399Y-131879000D03*
D32*
X77571506Y-60429843D03*
X86250000Y-68000000D03*
X82074000Y-63126353D03*
X79753341Y-72988500D03*
X84950000Y-71600000D03*
D33*
X75750000Y-65900000D03*
D32*
X86250000Y-74000000D03*
X76650000Y-68200000D03*
X83050000Y-62100000D03*
X77121232Y-77284332D03*
X76850000Y-75500000D03*
X86250000Y-72800000D03*
X74450000Y-67900000D03*
X85050000Y-75200000D03*
X84750000Y-58700000D03*
X84650000Y-73200000D03*
X86250000Y-69200000D03*
X74278000Y-60072000D03*
X83750000Y-74400000D03*
X76378768Y-76541868D03*
X83950000Y-76400000D03*
X79036450Y-60529500D03*
X74478378Y-76490500D03*
X86250000Y-71600000D03*
X80150000Y-63100000D03*
X75711239Y-73308102D03*
X82871321Y-65231216D03*
X74050000Y-70600000D03*
X76350000Y-60400000D03*
X83150000Y-60500000D03*
X82850000Y-77400000D03*
X73450000Y-66500000D03*
X86250000Y-70400000D03*
X82650000Y-75700000D03*
X127083827Y-67984691D03*
X133083827Y-75484691D03*
X124711827Y-59856691D03*
X134183827Y-74184691D03*
X136683827Y-68984691D03*
X133483827Y-61884691D03*
X135183827Y-58484691D03*
X127283827Y-75284691D03*
X134383827Y-76184691D03*
X124483827Y-70384691D03*
X136683827Y-71384691D03*
X126145066Y-73092793D03*
X124883827Y-67684691D03*
X126783827Y-60184691D03*
X127555059Y-77069023D03*
X126812595Y-76326559D03*
X129470277Y-60314191D03*
X130583827Y-62884691D03*
X135483827Y-74984691D03*
X124912205Y-76275191D03*
X133583827Y-60284691D03*
X133305148Y-65015907D03*
X135083827Y-72984691D03*
X136683827Y-72584691D03*
X123883827Y-66284691D03*
X133283827Y-77184691D03*
X136683827Y-70184691D03*
D33*
X126183827Y-65684691D03*
D32*
X136683827Y-73784691D03*
X128005333Y-60214534D03*
X136683827Y-67784691D03*
X130187168Y-72773191D03*
X135383827Y-71384691D03*
X132507827Y-62911044D03*
X183423000Y-62410000D03*
X185123000Y-59010000D03*
X174823000Y-68210000D03*
X184323000Y-76710000D03*
X176723000Y-60710000D03*
X176084239Y-73618102D03*
X174423000Y-70910000D03*
X177223000Y-75810000D03*
X186623000Y-71910000D03*
X186623000Y-68310000D03*
X185323000Y-71910000D03*
X173823000Y-66810000D03*
X183223000Y-77710000D03*
D33*
X176123000Y-66210000D03*
D32*
X186623000Y-74310000D03*
X177944506Y-60739843D03*
X180126341Y-73298500D03*
X186623000Y-70710000D03*
X182447000Y-63436353D03*
X176751768Y-76851868D03*
X179409450Y-60839500D03*
X180523000Y-63410000D03*
X186623000Y-73110000D03*
X174851378Y-76800500D03*
X183244321Y-65541216D03*
X185023000Y-73510000D03*
X177494232Y-77594332D03*
X183523000Y-60810000D03*
X185423000Y-75510000D03*
X183023000Y-76010000D03*
X174651000Y-60382000D03*
X184123000Y-74710000D03*
X186623000Y-69510000D03*
X177023000Y-68510000D03*
X235050000Y-62400000D03*
X236750000Y-59000000D03*
X226450000Y-68200000D03*
X235950000Y-76700000D03*
X228350000Y-60700000D03*
X227711239Y-73608102D03*
X226050000Y-70900000D03*
X228850000Y-75800000D03*
X238250000Y-71900000D03*
X238250000Y-68300000D03*
X236950000Y-71900000D03*
X225450000Y-66800000D03*
X234850000Y-77700000D03*
D33*
X227750000Y-66200000D03*
D32*
X238250000Y-74300000D03*
X229571506Y-60729843D03*
X231753341Y-73288500D03*
X238250000Y-70700000D03*
X234074000Y-63426353D03*
X228378768Y-76841868D03*
X231036450Y-60829500D03*
X232150000Y-63400000D03*
X238250000Y-73100000D03*
X226478378Y-76790500D03*
X234871321Y-65531216D03*
X236650000Y-73500000D03*
X229121232Y-77584332D03*
X235150000Y-60800000D03*
X237050000Y-75500000D03*
X234650000Y-76000000D03*
X226278000Y-60372000D03*
X235750000Y-74700000D03*
X238250000Y-69500000D03*
X228650000Y-68500000D03*
M02*
