G04 #@! TF.GenerationSoftware,KiCad,Pcbnew,7.0.2*
G04 #@! TF.CreationDate,2024-03-01T18:45:41+01:00*
G04 #@! TF.ProjectId,stm_audio_board_V3,73746d5f-6175-4646-996f-5f626f617264,rev?*
G04 #@! TF.SameCoordinates,Original*
G04 #@! TF.FileFunction,Soldermask,Top*
G04 #@! TF.FilePolarity,Negative*
%FSLAX46Y46*%
G04 Gerber Fmt 4.6, Leading zero omitted, Abs format (unit mm)*
G04 Created by KiCad (PCBNEW 7.0.2) date 2024-03-01 18:45:41*
%MOMM*%
%LPD*%
G01*
G04 APERTURE LIST*
G04 Aperture macros list*
%AMRoundRect*
0 Rectangle with rounded corners*
0 $1 Rounding radius*
0 $2 $3 $4 $5 $6 $7 $8 $9 X,Y pos of 4 corners*
0 Add a 4 corners polygon primitive as box body*
4,1,4,$2,$3,$4,$5,$6,$7,$8,$9,$2,$3,0*
0 Add four circle primitives for the rounded corners*
1,1,$1+$1,$2,$3*
1,1,$1+$1,$4,$5*
1,1,$1+$1,$6,$7*
1,1,$1+$1,$8,$9*
0 Add four rect primitives between the rounded corners*
20,1,$1+$1,$2,$3,$4,$5,0*
20,1,$1+$1,$4,$5,$6,$7,0*
20,1,$1+$1,$6,$7,$8,$9,0*
20,1,$1+$1,$8,$9,$2,$3,0*%
G04 Aperture macros list end*
%ADD10R,1.200000X0.400000*%
%ADD11RoundRect,0.062500X-0.350000X-0.062500X0.350000X-0.062500X0.350000X0.062500X-0.350000X0.062500X0*%
%ADD12RoundRect,0.062500X-0.062500X-0.350000X0.062500X-0.350000X0.062500X0.350000X-0.062500X0.350000X0*%
%ADD13R,2.600000X2.600000*%
%ADD14R,1.524000X1.524000*%
%ADD15C,1.524000*%
%ADD16C,3.500000*%
%ADD17C,1.600000*%
%ADD18R,2.000000X4.000000*%
%ADD19O,2.000000X3.300000*%
%ADD20O,3.500000X2.000000*%
%ADD21C,3.000000*%
%ADD22RoundRect,0.250000X0.450000X-0.350000X0.450000X0.350000X-0.450000X0.350000X-0.450000X-0.350000X0*%
%ADD23RoundRect,0.075000X-0.700000X-0.075000X0.700000X-0.075000X0.700000X0.075000X-0.700000X0.075000X0*%
%ADD24RoundRect,0.075000X-0.075000X-0.700000X0.075000X-0.700000X0.075000X0.700000X-0.075000X0.700000X0*%
%ADD25RoundRect,0.237500X-0.300000X-0.237500X0.300000X-0.237500X0.300000X0.237500X-0.300000X0.237500X0*%
%ADD26RoundRect,0.150000X-0.150000X0.625000X-0.150000X-0.625000X0.150000X-0.625000X0.150000X0.625000X0*%
%ADD27RoundRect,0.250000X0.350000X0.450000X-0.350000X0.450000X-0.350000X-0.450000X0.350000X-0.450000X0*%
%ADD28RoundRect,0.237500X0.237500X-0.300000X0.237500X0.300000X-0.237500X0.300000X-0.237500X-0.300000X0*%
%ADD29RoundRect,0.237500X-0.237500X0.300000X-0.237500X-0.300000X0.237500X-0.300000X0.237500X0.300000X0*%
%ADD30RoundRect,0.250000X-0.450000X0.350000X-0.450000X-0.350000X0.450000X-0.350000X0.450000X0.350000X0*%
%ADD31RoundRect,0.250000X-0.475000X0.337500X-0.475000X-0.337500X0.475000X-0.337500X0.475000X0.337500X0*%
%ADD32RoundRect,0.250000X-0.350000X-0.450000X0.350000X-0.450000X0.350000X0.450000X-0.350000X0.450000X0*%
%ADD33RoundRect,0.237500X0.300000X0.237500X-0.300000X0.237500X-0.300000X-0.237500X0.300000X-0.237500X0*%
%ADD34RoundRect,0.150000X0.625000X0.150000X-0.625000X0.150000X-0.625000X-0.150000X0.625000X-0.150000X0*%
%ADD35R,0.400000X1.500000*%
%ADD36R,2.000000X1.905000*%
%ADD37O,2.000000X1.905000*%
%ADD38RoundRect,0.250000X-0.337500X-0.475000X0.337500X-0.475000X0.337500X0.475000X-0.337500X0.475000X0*%
%ADD39O,1.500000X1.050000*%
%ADD40R,1.500000X1.050000*%
%ADD41RoundRect,0.237500X-0.237500X0.250000X-0.237500X-0.250000X0.237500X-0.250000X0.237500X0.250000X0*%
%ADD42RoundRect,0.250000X0.337500X0.475000X-0.337500X0.475000X-0.337500X-0.475000X0.337500X-0.475000X0*%
%ADD43RoundRect,0.150000X-0.150000X0.825000X-0.150000X-0.825000X0.150000X-0.825000X0.150000X0.825000X0*%
%ADD44RoundRect,0.075000X-0.075000X-0.662500X0.075000X-0.662500X0.075000X0.662500X-0.075000X0.662500X0*%
%ADD45RoundRect,0.075000X-0.662500X-0.075000X0.662500X-0.075000X0.662500X0.075000X-0.662500X0.075000X0*%
%ADD46RoundRect,0.237500X0.237500X-0.250000X0.237500X0.250000X-0.237500X0.250000X-0.237500X-0.250000X0*%
%ADD47R,1.500000X2.000000*%
%ADD48R,3.800000X2.000000*%
%ADD49R,2.000000X1.500000*%
%ADD50R,2.000000X3.800000*%
%ADD51R,1.600000X1.600000*%
%ADD52RoundRect,0.250001X-0.624999X0.462499X-0.624999X-0.462499X0.624999X-0.462499X0.624999X0.462499X0*%
%ADD53RoundRect,0.250000X-0.875000X-1.025000X0.875000X-1.025000X0.875000X1.025000X-0.875000X1.025000X0*%
G04 APERTURE END LIST*
D10*
X226400000Y-139872500D03*
X226400000Y-140507500D03*
X226400000Y-141142500D03*
X226400000Y-141777500D03*
X226400000Y-142412500D03*
X226400000Y-143047500D03*
X226400000Y-143682500D03*
X226400000Y-144317500D03*
X226400000Y-144952500D03*
X226400000Y-145587500D03*
X226400000Y-146222500D03*
X226400000Y-146857500D03*
X226400000Y-147492500D03*
X226400000Y-148127500D03*
X231600000Y-148127500D03*
X231600000Y-147492500D03*
X231600000Y-146857500D03*
X231600000Y-146222500D03*
X231600000Y-145587500D03*
X231600000Y-144952500D03*
X231600000Y-144317500D03*
X231600000Y-143682500D03*
X231600000Y-143047500D03*
X231600000Y-142412500D03*
X231600000Y-141777500D03*
X231600000Y-141142500D03*
X231600000Y-140507500D03*
X231600000Y-139872500D03*
D11*
X219062500Y-144750000D03*
X219062500Y-145250000D03*
X219062500Y-145750000D03*
X219062500Y-146250000D03*
X219062500Y-146750000D03*
X219062500Y-147250000D03*
D12*
X219750000Y-147937500D03*
X220250000Y-147937500D03*
X220750000Y-147937500D03*
X221250000Y-147937500D03*
X221750000Y-147937500D03*
X222250000Y-147937500D03*
D11*
X222937500Y-147250000D03*
X222937500Y-146750000D03*
X222937500Y-146250000D03*
X222937500Y-145750000D03*
X222937500Y-145250000D03*
X222937500Y-144750000D03*
D12*
X222250000Y-144062500D03*
X221750000Y-144062500D03*
X221250000Y-144062500D03*
X220750000Y-144062500D03*
X220250000Y-144062500D03*
X219750000Y-144062500D03*
D13*
X221000000Y-146000000D03*
D14*
X264060000Y-142155000D03*
D15*
X264060000Y-139655000D03*
X264060000Y-137655000D03*
X264060000Y-135155000D03*
D16*
X266770000Y-132085000D03*
X266770000Y-145225000D03*
D17*
X269095000Y-114475000D03*
D18*
X260095000Y-114475000D03*
D19*
X266095000Y-114475000D03*
D20*
X267095000Y-118975000D03*
X267095000Y-109975000D03*
D21*
X197200000Y-39744426D03*
X213430000Y-39744426D03*
X197200000Y-33394426D03*
X213430000Y-33394426D03*
X197200000Y-46094426D03*
X213430000Y-46094426D03*
X172920000Y-39744426D03*
X189150000Y-39744426D03*
X172920000Y-33394426D03*
X189150000Y-33394426D03*
X172920000Y-46094426D03*
X189150000Y-46094426D03*
X73140000Y-39744426D03*
X89370000Y-39744426D03*
X73140000Y-33394426D03*
X89370000Y-33394426D03*
X73140000Y-46094426D03*
X89370000Y-46094426D03*
D22*
X178944000Y-77411000D03*
X178944000Y-75411000D03*
D23*
X193325000Y-90250000D03*
X193325000Y-90750000D03*
X193325000Y-91250000D03*
X193325000Y-91750000D03*
X193325000Y-92250000D03*
X193325000Y-92750000D03*
X193325000Y-93250000D03*
X193325000Y-93750000D03*
X193325000Y-94250000D03*
X193325000Y-94750000D03*
X193325000Y-95250000D03*
X193325000Y-95750000D03*
X193325000Y-96250000D03*
X193325000Y-96750000D03*
X193325000Y-97250000D03*
X193325000Y-97750000D03*
D24*
X195250000Y-99675000D03*
X195750000Y-99675000D03*
X196250000Y-99675000D03*
X196750000Y-99675000D03*
X197250000Y-99675000D03*
X197750000Y-99675000D03*
X198250000Y-99675000D03*
X198750000Y-99675000D03*
X199250000Y-99675000D03*
X199750000Y-99675000D03*
X200250000Y-99675000D03*
X200750000Y-99675000D03*
X201250000Y-99675000D03*
X201750000Y-99675000D03*
X202250000Y-99675000D03*
X202750000Y-99675000D03*
D23*
X204675000Y-97750000D03*
X204675000Y-97250000D03*
X204675000Y-96750000D03*
X204675000Y-96250000D03*
X204675000Y-95750000D03*
X204675000Y-95250000D03*
X204675000Y-94750000D03*
X204675000Y-94250000D03*
X204675000Y-93750000D03*
X204675000Y-93250000D03*
X204675000Y-92750000D03*
X204675000Y-92250000D03*
X204675000Y-91750000D03*
X204675000Y-91250000D03*
X204675000Y-90750000D03*
X204675000Y-90250000D03*
D24*
X202750000Y-88325000D03*
X202250000Y-88325000D03*
X201750000Y-88325000D03*
X201250000Y-88325000D03*
X200750000Y-88325000D03*
X200250000Y-88325000D03*
X199750000Y-88325000D03*
X199250000Y-88325000D03*
X198750000Y-88325000D03*
X198250000Y-88325000D03*
X197750000Y-88325000D03*
X197250000Y-88325000D03*
X196750000Y-88325000D03*
X196250000Y-88325000D03*
X195750000Y-88325000D03*
X195250000Y-88325000D03*
D25*
X77008500Y-73445000D03*
X78733500Y-73445000D03*
D26*
X82074000Y-61572000D03*
X80804000Y-61572000D03*
X79534000Y-61572000D03*
X78264000Y-61572000D03*
X78264000Y-66922000D03*
X79534000Y-66922000D03*
X80804000Y-66922000D03*
X82074000Y-66922000D03*
D27*
X84789568Y-69513846D03*
X82789568Y-69513846D03*
X77481000Y-69557000D03*
X75481000Y-69557000D03*
D28*
X74155000Y-58937500D03*
X74155000Y-57212500D03*
D22*
X78571000Y-77101000D03*
X78571000Y-75101000D03*
D25*
X79139346Y-69587000D03*
X80864346Y-69587000D03*
D29*
X76490432Y-65198500D03*
X76490432Y-66923500D03*
D25*
X80701346Y-73445000D03*
X82426346Y-73445000D03*
D22*
X80863846Y-77101000D03*
X80863846Y-75101000D03*
D27*
X78671000Y-71569000D03*
X76671000Y-71569000D03*
D28*
X84063000Y-67191500D03*
X84063000Y-65466500D03*
D30*
X81738716Y-57275000D03*
X81738716Y-59275000D03*
D27*
X82763846Y-71542136D03*
X80763846Y-71542136D03*
D30*
X76395858Y-57275000D03*
X76395858Y-59275000D03*
D31*
X79177574Y-57267500D03*
X79177574Y-59342500D03*
D28*
X99648000Y-63922500D03*
X99648000Y-62197500D03*
D27*
X100400000Y-57900000D03*
X98400000Y-57900000D03*
X106000000Y-58550000D03*
X104000000Y-58550000D03*
D25*
X110517500Y-68254000D03*
X112242500Y-68254000D03*
D32*
X105876000Y-68598000D03*
X107876000Y-68598000D03*
D25*
X114429500Y-68254000D03*
X116154500Y-68254000D03*
D22*
X114266000Y-64528000D03*
X114266000Y-62528000D03*
D27*
X112208000Y-66572000D03*
X110208000Y-66572000D03*
X107868000Y-66226000D03*
X105868000Y-66226000D03*
D33*
X100262500Y-59832000D03*
X98537500Y-59832000D03*
D29*
X102324000Y-61435500D03*
X102324000Y-63160500D03*
D32*
X114492000Y-66572000D03*
X116492000Y-66572000D03*
D33*
X114122500Y-69862000D03*
X112397500Y-69862000D03*
D34*
X109877000Y-64209000D03*
X109877000Y-62939000D03*
X109877000Y-61669000D03*
X109877000Y-60399000D03*
X104527000Y-60399000D03*
X104527000Y-61669000D03*
X104527000Y-62939000D03*
X104527000Y-64209000D03*
D29*
X112436000Y-62565500D03*
X112436000Y-64290500D03*
D27*
X127914827Y-69341691D03*
X125914827Y-69341691D03*
D28*
X124588827Y-58722191D03*
X124588827Y-56997191D03*
D26*
X132507827Y-61356691D03*
X131237827Y-61356691D03*
X129967827Y-61356691D03*
X128697827Y-61356691D03*
X128697827Y-66706691D03*
X129967827Y-66706691D03*
X131237827Y-66706691D03*
X132507827Y-66706691D03*
D22*
X129004827Y-76885691D03*
X129004827Y-74885691D03*
D25*
X127442327Y-73229691D03*
X129167327Y-73229691D03*
D27*
X135223395Y-69298537D03*
X133223395Y-69298537D03*
D25*
X129573173Y-69371691D03*
X131298173Y-69371691D03*
D27*
X133197673Y-71326827D03*
X131197673Y-71326827D03*
D29*
X126924259Y-64983191D03*
X126924259Y-66708191D03*
D30*
X126829685Y-57059691D03*
X126829685Y-59059691D03*
D31*
X129611401Y-57052191D03*
X129611401Y-59127191D03*
D28*
X134496827Y-66976191D03*
X134496827Y-65251191D03*
D25*
X131135173Y-73229691D03*
X132860173Y-73229691D03*
D30*
X132172543Y-57059691D03*
X132172543Y-59059691D03*
D27*
X129104827Y-71353691D03*
X127104827Y-71353691D03*
D22*
X131297673Y-76885691D03*
X131297673Y-74885691D03*
D28*
X200898000Y-63872500D03*
X200898000Y-62147500D03*
D27*
X201650000Y-57850000D03*
X199650000Y-57850000D03*
X207250000Y-58500000D03*
X205250000Y-58500000D03*
D25*
X211767500Y-68204000D03*
X213492500Y-68204000D03*
D32*
X207126000Y-68548000D03*
X209126000Y-68548000D03*
D25*
X215679500Y-68204000D03*
X217404500Y-68204000D03*
D22*
X215516000Y-64478000D03*
X215516000Y-62478000D03*
D27*
X213458000Y-66522000D03*
X211458000Y-66522000D03*
X209118000Y-66176000D03*
X207118000Y-66176000D03*
D33*
X201512500Y-59782000D03*
X199787500Y-59782000D03*
D29*
X203574000Y-61385500D03*
X203574000Y-63110500D03*
D32*
X215742000Y-66522000D03*
X217742000Y-66522000D03*
D33*
X215372500Y-69812000D03*
X213647500Y-69812000D03*
D34*
X211127000Y-64159000D03*
X211127000Y-62889000D03*
X211127000Y-61619000D03*
X211127000Y-60349000D03*
X205777000Y-60349000D03*
X205777000Y-61619000D03*
X205777000Y-62889000D03*
X205777000Y-64159000D03*
D29*
X213686000Y-62515500D03*
X213686000Y-64240500D03*
D26*
X182447000Y-61882000D03*
X181177000Y-61882000D03*
X179907000Y-61882000D03*
X178637000Y-61882000D03*
X178637000Y-67232000D03*
X179907000Y-67232000D03*
X181177000Y-67232000D03*
X182447000Y-67232000D03*
D28*
X174528000Y-59247500D03*
X174528000Y-57522500D03*
D27*
X177854000Y-69867000D03*
X175854000Y-69867000D03*
D25*
X181074346Y-73755000D03*
X182799346Y-73755000D03*
X177381500Y-73755000D03*
X179106500Y-73755000D03*
D30*
X182111716Y-57585000D03*
X182111716Y-59585000D03*
D27*
X179044000Y-71879000D03*
X177044000Y-71879000D03*
X185162568Y-69823846D03*
X183162568Y-69823846D03*
D25*
X179512346Y-69897000D03*
X181237346Y-69897000D03*
D29*
X176863432Y-65508500D03*
X176863432Y-67233500D03*
D30*
X176768858Y-57585000D03*
X176768858Y-59585000D03*
D28*
X184436000Y-67501500D03*
X184436000Y-65776500D03*
D31*
X179550574Y-57577500D03*
X179550574Y-59652500D03*
D27*
X183136846Y-71852136D03*
X181136846Y-71852136D03*
D22*
X181236846Y-77411000D03*
X181236846Y-75411000D03*
D26*
X234074000Y-61872000D03*
X232804000Y-61872000D03*
X231534000Y-61872000D03*
X230264000Y-61872000D03*
X230264000Y-67222000D03*
X231534000Y-67222000D03*
X232804000Y-67222000D03*
X234074000Y-67222000D03*
D28*
X226155000Y-59237500D03*
X226155000Y-57512500D03*
D27*
X229481000Y-69857000D03*
X227481000Y-69857000D03*
D25*
X232701346Y-73745000D03*
X234426346Y-73745000D03*
D22*
X230571000Y-77401000D03*
X230571000Y-75401000D03*
D25*
X229008500Y-73745000D03*
X230733500Y-73745000D03*
D30*
X233738716Y-57575000D03*
X233738716Y-59575000D03*
D27*
X230671000Y-71869000D03*
X228671000Y-71869000D03*
X236789568Y-69813846D03*
X234789568Y-69813846D03*
D25*
X231139346Y-69887000D03*
X232864346Y-69887000D03*
D29*
X228490432Y-65498500D03*
X228490432Y-67223500D03*
D30*
X228395858Y-57575000D03*
X228395858Y-59575000D03*
D28*
X236063000Y-67491500D03*
X236063000Y-65766500D03*
D31*
X231177574Y-57567500D03*
X231177574Y-59642500D03*
D27*
X234763846Y-71842136D03*
X232763846Y-71842136D03*
D22*
X232863846Y-77401000D03*
X232863846Y-75401000D03*
D33*
X149612500Y-60032000D03*
X147887500Y-60032000D03*
D29*
X151674000Y-61635500D03*
X151674000Y-63360500D03*
D25*
X163779500Y-68454000D03*
X165504500Y-68454000D03*
D32*
X163842000Y-66772000D03*
X165842000Y-66772000D03*
D27*
X157218000Y-66426000D03*
X155218000Y-66426000D03*
D32*
X155226000Y-68798000D03*
X157226000Y-68798000D03*
D22*
X163616000Y-64728000D03*
X163616000Y-62728000D03*
D27*
X161558000Y-66772000D03*
X159558000Y-66772000D03*
D34*
X159227000Y-64409000D03*
X159227000Y-63139000D03*
X159227000Y-61869000D03*
X159227000Y-60599000D03*
X153877000Y-60599000D03*
X153877000Y-61869000D03*
X153877000Y-63139000D03*
X153877000Y-64409000D03*
D29*
X161786000Y-62765500D03*
X161786000Y-64490500D03*
D33*
X163472500Y-70062000D03*
X161747500Y-70062000D03*
D28*
X148998000Y-64122500D03*
X148998000Y-62397500D03*
D27*
X149750000Y-58100000D03*
X147750000Y-58100000D03*
X155350000Y-58750000D03*
X153350000Y-58750000D03*
D25*
X159867500Y-68454000D03*
X161592500Y-68454000D03*
D21*
X247395000Y-40355000D03*
X263625000Y-40355000D03*
X247395000Y-34005000D03*
X263625000Y-34005000D03*
X247395000Y-46705000D03*
X263625000Y-46705000D03*
X222395000Y-40355000D03*
X238625000Y-40355000D03*
X222395000Y-34005000D03*
X238625000Y-34005000D03*
X222395000Y-46705000D03*
X238625000Y-46705000D03*
X147395000Y-40355000D03*
X163625000Y-40355000D03*
X147395000Y-34005000D03*
X163625000Y-34005000D03*
X147395000Y-46705000D03*
X163625000Y-46705000D03*
X122395000Y-40355000D03*
X138625000Y-40355000D03*
X122395000Y-34005000D03*
X138625000Y-34005000D03*
X122395000Y-46705000D03*
X138625000Y-46705000D03*
X97395000Y-40355000D03*
X113625000Y-40355000D03*
X97395000Y-34005000D03*
X113625000Y-34005000D03*
X97395000Y-46705000D03*
X113625000Y-46705000D03*
D34*
X252922144Y-64287000D03*
X252922144Y-63017000D03*
X252922144Y-61747000D03*
X252922144Y-60477000D03*
X258272144Y-60477000D03*
X258272144Y-61747000D03*
X258272144Y-63017000D03*
X258272144Y-64287000D03*
D35*
X190085000Y-129685000D03*
X190885000Y-129685000D03*
X191685000Y-129685000D03*
X192485000Y-129685000D03*
X193285000Y-129685000D03*
X194085000Y-129685000D03*
X194885000Y-129685000D03*
X195685000Y-129685000D03*
X196485000Y-129685000D03*
X197285000Y-129685000D03*
X198085000Y-129685000D03*
X198885000Y-129685000D03*
X199685000Y-129685000D03*
X200485000Y-129685000D03*
X201285000Y-129685000D03*
X202085000Y-129685000D03*
X202885000Y-129685000D03*
X203685000Y-129685000D03*
X204485000Y-129685000D03*
X205285000Y-129685000D03*
X206085000Y-129685000D03*
X206885000Y-129685000D03*
X207685000Y-129685000D03*
X208485000Y-129685000D03*
X209285000Y-129685000D03*
X209285000Y-141185000D03*
X208485000Y-141185000D03*
X207685000Y-141185000D03*
X206885000Y-141185000D03*
X206085000Y-141185000D03*
X205285000Y-141185000D03*
X204485000Y-141185000D03*
X203685000Y-141185000D03*
X202885000Y-141185000D03*
X202085000Y-141185000D03*
X201285000Y-141185000D03*
X200485000Y-141185000D03*
X199685000Y-141185000D03*
X198885000Y-141185000D03*
X198085000Y-141185000D03*
X197285000Y-141185000D03*
X196485000Y-141185000D03*
X195685000Y-141185000D03*
X194885000Y-141185000D03*
X194085000Y-141185000D03*
X193285000Y-141185000D03*
X192485000Y-141185000D03*
X191685000Y-141185000D03*
X190885000Y-141185000D03*
X190085000Y-141185000D03*
D27*
X252395144Y-58628000D03*
X254395144Y-58628000D03*
D33*
X260792644Y-69940000D03*
X262517644Y-69940000D03*
D36*
X251327000Y-112221000D03*
D37*
X251327000Y-114761000D03*
X251327000Y-117301000D03*
D38*
X262617500Y-105743000D03*
X264692500Y-105743000D03*
D39*
X264575000Y-92385000D03*
X264575000Y-93655000D03*
D40*
X264575000Y-94925000D03*
D33*
X242634500Y-94665000D03*
X244359500Y-94665000D03*
D25*
X232011500Y-99775000D03*
X230286500Y-99775000D03*
X264445024Y-97805000D03*
X262720024Y-97805000D03*
D32*
X264887144Y-66650000D03*
X262887144Y-66650000D03*
D25*
X264549644Y-68332000D03*
X262824644Y-68332000D03*
D27*
X258603144Y-66650000D03*
X260603144Y-66650000D03*
X246795144Y-57978000D03*
X248795144Y-57978000D03*
D41*
X244542000Y-89675500D03*
X244542000Y-87850500D03*
D33*
X246932644Y-59910000D03*
X248657644Y-59910000D03*
D28*
X248043144Y-62275500D03*
X248043144Y-64000500D03*
D42*
X242488500Y-85625000D03*
X244563500Y-85625000D03*
D43*
X258734000Y-98466000D03*
X257464000Y-98466000D03*
X256194000Y-98466000D03*
X254924000Y-98466000D03*
X254924000Y-93516000D03*
X256194000Y-93516000D03*
X257464000Y-93516000D03*
X258734000Y-93516000D03*
D29*
X260831144Y-64368500D03*
X260831144Y-62643500D03*
D25*
X260637644Y-68332000D03*
X258912644Y-68332000D03*
D27*
X254263144Y-66304000D03*
X256263144Y-66304000D03*
D42*
X242488500Y-91751000D03*
X244563500Y-91751000D03*
D44*
X191725000Y-103762500D03*
X192225000Y-103762500D03*
X192725000Y-103762500D03*
X193225000Y-103762500D03*
X193725000Y-103762500D03*
X194225000Y-103762500D03*
X194725000Y-103762500D03*
X195225000Y-103762500D03*
X195725000Y-103762500D03*
X196225000Y-103762500D03*
X196725000Y-103762500D03*
X197225000Y-103762500D03*
X197725000Y-103762500D03*
X198225000Y-103762500D03*
X198725000Y-103762500D03*
X199225000Y-103762500D03*
X199725000Y-103762500D03*
X200225000Y-103762500D03*
X200725000Y-103762500D03*
X201225000Y-103762500D03*
X201725000Y-103762500D03*
X202225000Y-103762500D03*
X202725000Y-103762500D03*
X203225000Y-103762500D03*
X203725000Y-103762500D03*
X204225000Y-103762500D03*
X204725000Y-103762500D03*
X205225000Y-103762500D03*
X205725000Y-103762500D03*
X206225000Y-103762500D03*
X206725000Y-103762500D03*
X207225000Y-103762500D03*
X207725000Y-103762500D03*
X208225000Y-103762500D03*
X208725000Y-103762500D03*
X209225000Y-103762500D03*
D45*
X211137500Y-105675000D03*
X211137500Y-106175000D03*
X211137500Y-106675000D03*
X211137500Y-107175000D03*
X211137500Y-107675000D03*
X211137500Y-108175000D03*
X211137500Y-108675000D03*
X211137500Y-109175000D03*
X211137500Y-109675000D03*
X211137500Y-110175000D03*
X211137500Y-110675000D03*
X211137500Y-111175000D03*
X211137500Y-111675000D03*
X211137500Y-112175000D03*
X211137500Y-112675000D03*
X211137500Y-113175000D03*
X211137500Y-113675000D03*
X211137500Y-114175000D03*
X211137500Y-114675000D03*
X211137500Y-115175000D03*
X211137500Y-115675000D03*
X211137500Y-116175000D03*
X211137500Y-116675000D03*
X211137500Y-117175000D03*
X211137500Y-117675000D03*
X211137500Y-118175000D03*
X211137500Y-118675000D03*
X211137500Y-119175000D03*
X211137500Y-119675000D03*
X211137500Y-120175000D03*
X211137500Y-120675000D03*
X211137500Y-121175000D03*
X211137500Y-121675000D03*
X211137500Y-122175000D03*
X211137500Y-122675000D03*
X211137500Y-123175000D03*
D44*
X209225000Y-125087500D03*
X208725000Y-125087500D03*
X208225000Y-125087500D03*
X207725000Y-125087500D03*
X207225000Y-125087500D03*
X206725000Y-125087500D03*
X206225000Y-125087500D03*
X205725000Y-125087500D03*
X205225000Y-125087500D03*
X204725000Y-125087500D03*
X204225000Y-125087500D03*
X203725000Y-125087500D03*
X203225000Y-125087500D03*
X202725000Y-125087500D03*
X202225000Y-125087500D03*
X201725000Y-125087500D03*
X201225000Y-125087500D03*
X200725000Y-125087500D03*
X200225000Y-125087500D03*
X199725000Y-125087500D03*
X199225000Y-125087500D03*
X198725000Y-125087500D03*
X198225000Y-125087500D03*
X197725000Y-125087500D03*
X197225000Y-125087500D03*
X196725000Y-125087500D03*
X196225000Y-125087500D03*
X195725000Y-125087500D03*
X195225000Y-125087500D03*
X194725000Y-125087500D03*
X194225000Y-125087500D03*
X193725000Y-125087500D03*
X193225000Y-125087500D03*
X192725000Y-125087500D03*
X192225000Y-125087500D03*
X191725000Y-125087500D03*
D45*
X189812500Y-123175000D03*
X189812500Y-122675000D03*
X189812500Y-122175000D03*
X189812500Y-121675000D03*
X189812500Y-121175000D03*
X189812500Y-120675000D03*
X189812500Y-120175000D03*
X189812500Y-119675000D03*
X189812500Y-119175000D03*
X189812500Y-118675000D03*
X189812500Y-118175000D03*
X189812500Y-117675000D03*
X189812500Y-117175000D03*
X189812500Y-116675000D03*
X189812500Y-116175000D03*
X189812500Y-115675000D03*
X189812500Y-115175000D03*
X189812500Y-114675000D03*
X189812500Y-114175000D03*
X189812500Y-113675000D03*
X189812500Y-113175000D03*
X189812500Y-112675000D03*
X189812500Y-112175000D03*
X189812500Y-111675000D03*
X189812500Y-111175000D03*
X189812500Y-110675000D03*
X189812500Y-110175000D03*
X189812500Y-109675000D03*
X189812500Y-109175000D03*
X189812500Y-108675000D03*
X189812500Y-108175000D03*
X189812500Y-107675000D03*
X189812500Y-107175000D03*
X189812500Y-106675000D03*
X189812500Y-106175000D03*
X189812500Y-105675000D03*
D22*
X262661144Y-62606000D03*
X262661144Y-64606000D03*
D25*
X265467500Y-89087000D03*
X263742500Y-89087000D03*
D32*
X256271144Y-68676000D03*
X254271144Y-68676000D03*
D46*
X262505000Y-103719500D03*
X262505000Y-101894500D03*
D47*
X228056000Y-128354000D03*
D48*
X230356000Y-134654000D03*
D47*
X230356000Y-128354000D03*
X232656000Y-128354000D03*
D49*
X228175000Y-95713000D03*
D50*
X234475000Y-93413000D03*
D49*
X228175000Y-93413000D03*
X228175000Y-91113000D03*
D38*
X264692500Y-99715000D03*
X262617500Y-99715000D03*
D29*
X250719144Y-63238500D03*
X250719144Y-61513500D03*
D38*
X250526362Y-128713000D03*
X252601362Y-128713000D03*
D51*
X246267000Y-110988621D03*
D17*
X246267000Y-112988621D03*
D52*
X246517000Y-116076638D03*
X246517000Y-119051638D03*
D17*
X223298241Y-98564240D03*
D51*
X223298241Y-101064240D03*
D17*
X222932999Y-92237000D03*
D51*
X222932999Y-89737000D03*
D33*
X231097500Y-125110000D03*
X229372500Y-125110000D03*
D17*
X239285759Y-132467360D03*
D51*
X239285759Y-129967360D03*
D17*
X256406241Y-88531000D03*
D51*
X258406241Y-88531000D03*
D17*
X256077000Y-103487759D03*
D51*
X258077000Y-103487759D03*
D53*
X251046138Y-124593000D03*
X257446138Y-124593000D03*
D17*
X223353399Y-131879000D03*
D51*
X220853399Y-131879000D03*
M02*
