M48
; DRILL file {KiCad 7.0.2} date Wed Mar  6 23:49:35 2024
; FORMAT={-:-/ absolute / metric / decimal}
; #@! TF.CreationDate,2024-03-06T23:49:35+01:00
; #@! TF.GenerationSoftware,Kicad,Pcbnew,7.0.2
; #@! TF.FileFunction,Plated,1,4,PTH
FMAT,2
METRIC
; #@! TA.AperFunction,Plated,PTH,ViaDrill
T1C0.400
; #@! TA.AperFunction,Plated,PTH,ComponentDrill
T2C0.750
; #@! TA.AperFunction,Plated,PTH,ComponentDrill
T3C0.800
; #@! TA.AperFunction,Plated,PTH,ComponentDrill
T4C0.920
; #@! TA.AperFunction,Plated,PTH,ComponentDrill
T5C1.000
; #@! TA.AperFunction,Plated,PTH,ComponentDrill
T6C1.100
; #@! TA.AperFunction,Plated,PTH,ComponentDrill
T7C1.400
; #@! TA.AperFunction,Plated,PTH,ComponentDrill
T8C2.300
; #@! TA.AperFunction,Plated,PTH,ComponentDrill
T9C3.200
%
G90
G05
T1
X91.844Y-72.056
X92.586Y-72.798
X94.6Y-74.6
X94.7Y-71.8
X99.1Y-76.6
X100.2Y-60.525
X100.7Y-76.6
X104.3Y-63.1
X104.524Y-64.9
X104.6Y-76.2
X105.1Y-67.7
X110.5Y-66.5
X111.4Y-57.0
X114.4Y-55.655
X114.7Y-63.2
X115.1Y-77.7
X115.3Y-68.3
X115.4Y-64.4
X116.1Y-77.7
X118.5Y-56.8
X120.3Y-72.3
X120.6Y-76.2
X122.5Y-64.3
X122.9Y-73.875
X122.9Y-74.925
X149.6Y-59.975
X150.6Y-63.825
X153.8Y-62.4
X154.4Y-67.4
X158.8Y-67.4
X160.0Y-64.2
X161.3Y-56.8
X163.6Y-55.3
X163.9Y-62.275
X174.9Y-83.875
X174.9Y-84.925
X182.7Y-64.1
X187.4Y-64.1
X187.529Y-74.529
X188.271Y-75.271
X189.6Y-73.0
X189.7Y-76.5
X194.0Y-78.3
X199.0Y-78.3
X200.1Y-60.295
X204.1Y-64.6
X204.2Y-63.0
X205.0Y-67.8
X206.4Y-79.6
X206.9Y-70.2
X208.575Y-85.182
X209.5Y-67.8
X209.5Y-79.7
X209.625Y-85.182
X209.9Y-56.8
X210.1Y-95.875
X210.1Y-96.925
X210.8Y-91.0
X211.0Y-65.2
X211.5Y-89.3
X211.8Y-98.8
X213.1Y-100.4
X213.3Y-55.3
X213.7Y-74.8
X213.8Y-77.8
X213.9Y-91.334
X214.1Y-75.775
X214.1Y-76.825
X214.3Y-63.7
X215.5Y-59.0
X216.7Y-98.1
X220.029Y-93.529
X220.771Y-94.271
X220.8Y-98.8
X225.3Y-98.0
X225.4Y-90.175
X225.4Y-92.142
X225.9Y-87.9
X228.4Y-93.2
X228.5Y-83.0
X229.4Y-100.6
X233.0Y-83.0
X233.9Y-94.1
X236.1Y-85.5
X236.1Y-86.3
X236.1Y-87.1
X238.4Y-90.3
X238.4Y-91.1
X238.4Y-91.9
X244.2Y-63.5
X246.4Y-67.3
X246.5Y-63.224
X249.0Y-69.7
X249.9Y-71.4
X251.3Y-62.5
X254.065Y-58.2
X254.2Y-66.3
X256.7Y-66.05
X257.8Y-72.5
X258.6Y-68.1
T2
X264.575Y-92.385
X264.575Y-93.655
X264.575Y-94.925
T3
X237.553Y-128.279
X238.398Y-104.364
X238.398Y-106.864
X238.633Y-96.937
X238.633Y-99.437
X240.053Y-128.279
X246.267Y-110.989
X246.267Y-112.989
X256.077Y-103.488
X256.406Y-88.531
X258.077Y-103.488
X258.406Y-88.531
X260.486Y-124.267
X260.486Y-126.767
T4
X264.06Y-135.155
X264.06Y-137.655
X264.06Y-139.655
X264.06Y-142.155
T5
X87.975Y-97.825
X87.975Y-100.365
X87.975Y-102.905
X87.975Y-105.445
X87.975Y-110.075
X87.975Y-112.615
X87.975Y-115.155
X92.625Y-97.825
X92.625Y-100.365
X92.625Y-105.025
X92.625Y-110.075
X92.625Y-112.615
X92.625Y-115.155
X150.475Y-114.295
X150.475Y-136.825
X152.975Y-114.295
X152.975Y-136.825
X155.475Y-114.295
X155.475Y-136.825
X169.05Y-114.595
X169.05Y-136.825
X171.55Y-114.595
X171.55Y-136.825
X174.05Y-114.595
X174.05Y-136.825
X187.625Y-114.595
X187.625Y-137.025
X190.125Y-114.595
X190.125Y-137.025
X192.625Y-114.595
X192.625Y-137.025
T6
X251.327Y-112.221
X251.327Y-114.761
X251.327Y-117.301
T7
X73.14Y-33.394
X73.14Y-39.744
X73.14Y-46.094
X89.37Y-33.394
X89.37Y-39.744
X89.37Y-46.094
X97.395Y-34.005
X97.395Y-40.355
X97.395Y-46.705
X113.625Y-34.005
X113.625Y-40.355
X113.625Y-46.705
X122.395Y-34.005
X122.395Y-40.355
X122.395Y-46.705
X138.625Y-34.005
X138.625Y-40.355
X138.625Y-46.705
X147.395Y-34.005
X147.395Y-40.355
X147.395Y-46.705
X163.625Y-34.005
X163.625Y-40.355
X163.625Y-46.705
X172.92Y-33.394
X172.92Y-39.744
X172.92Y-46.094
X189.15Y-33.394
X189.15Y-39.744
X189.15Y-46.094
X197.405Y-33.725
X197.405Y-40.075
X197.405Y-46.425
X213.635Y-33.725
X213.635Y-40.075
X213.635Y-46.425
X222.395Y-34.005
X222.395Y-40.355
X222.395Y-46.705
X238.625Y-34.005
X238.625Y-40.355
X238.625Y-46.705
X247.395Y-34.005
X247.395Y-40.355
X247.395Y-46.705
X263.625Y-34.005
X263.625Y-40.355
X263.625Y-46.705
T8
X266.77Y-132.085
X266.77Y-145.225
T9
X82.075Y-99.075
X82.075Y-106.225
X82.075Y-113.375
X82.075Y-120.525
T5
X260.095Y-115.475G85X260.095Y-113.475
G05
X266.095Y-115.125G85X266.095Y-113.825
G05
X266.345Y-109.975G85X267.845Y-109.975
G05
X266.345Y-118.975G85X267.845Y-118.975
G05
T6
X147.875Y-106.795G85X148.575Y-106.795
G05
X147.875Y-129.325G85X148.575Y-129.325
G05
X157.375Y-106.795G85X158.075Y-106.795
G05
X157.375Y-129.325G85X158.075Y-129.325
G05
X166.45Y-107.095G85X167.15Y-107.095
G05
X166.45Y-129.325G85X167.15Y-129.325
G05
X175.95Y-107.095G85X176.65Y-107.095
G05
X175.95Y-129.325G85X176.65Y-129.325
G05
X185.025Y-107.095G85X185.725Y-107.095
G05
X185.025Y-129.525G85X185.725Y-129.525
G05
X194.525Y-107.095G85X195.225Y-107.095
G05
X194.525Y-129.525G85X195.225Y-129.525
G05
T0
M30
