G04 #@! TF.GenerationSoftware,KiCad,Pcbnew,7.0.2*
G04 #@! TF.CreationDate,2024-04-03T18:34:27+02:00*
G04 #@! TF.ProjectId,stm_audio_board_V3,73746d5f-6175-4646-996f-5f626f617264,rev?*
G04 #@! TF.SameCoordinates,Original*
G04 #@! TF.FileFunction,Paste,Top*
G04 #@! TF.FilePolarity,Positive*
%FSLAX46Y46*%
G04 Gerber Fmt 4.6, Leading zero omitted, Abs format (unit mm)*
G04 Created by KiCad (PCBNEW 7.0.2) date 2024-04-03 18:34:27*
%MOMM*%
%LPD*%
G01*
G04 APERTURE LIST*
G04 Aperture macros list*
%AMRoundRect*
0 Rectangle with rounded corners*
0 $1 Rounding radius*
0 $2 $3 $4 $5 $6 $7 $8 $9 X,Y pos of 4 corners*
0 Add a 4 corners polygon primitive as box body*
4,1,4,$2,$3,$4,$5,$6,$7,$8,$9,$2,$3,0*
0 Add four circle primitives for the rounded corners*
1,1,$1+$1,$2,$3*
1,1,$1+$1,$4,$5*
1,1,$1+$1,$6,$7*
1,1,$1+$1,$8,$9*
0 Add four rect primitives between the rounded corners*
20,1,$1+$1,$2,$3,$4,$5,0*
20,1,$1+$1,$4,$5,$6,$7,0*
20,1,$1+$1,$6,$7,$8,$9,0*
20,1,$1+$1,$8,$9,$2,$3,0*%
%AMFreePoly0*
4,1,9,3.862500,-0.866500,0.737500,-0.866500,0.737500,-0.450000,-0.737500,-0.450000,-0.737500,0.450000,0.737500,0.450000,0.737500,0.866500,3.862500,0.866500,3.862500,-0.866500,3.862500,-0.866500,$1*%
G04 Aperture macros list end*
%ADD10RoundRect,0.225000X0.250000X-0.225000X0.250000X0.225000X-0.250000X0.225000X-0.250000X-0.225000X0*%
%ADD11RoundRect,0.150000X-0.625000X-0.150000X0.625000X-0.150000X0.625000X0.150000X-0.625000X0.150000X0*%
%ADD12RoundRect,0.225000X-0.225000X-0.250000X0.225000X-0.250000X0.225000X0.250000X-0.225000X0.250000X0*%
%ADD13RoundRect,0.200000X-0.200000X-0.275000X0.200000X-0.275000X0.200000X0.275000X-0.200000X0.275000X0*%
%ADD14RoundRect,0.225000X-0.250000X0.225000X-0.250000X-0.225000X0.250000X-0.225000X0.250000X0.225000X0*%
%ADD15R,1.400000X1.200000*%
%ADD16R,5.700000X1.700000*%
%ADD17RoundRect,0.200000X0.275000X-0.200000X0.275000X0.200000X-0.275000X0.200000X-0.275000X-0.200000X0*%
%ADD18RoundRect,0.225000X0.225000X0.250000X-0.225000X0.250000X-0.225000X-0.250000X0.225000X-0.250000X0*%
%ADD19RoundRect,0.200000X0.200000X0.275000X-0.200000X0.275000X-0.200000X-0.275000X0.200000X-0.275000X0*%
%ADD20RoundRect,0.200000X-0.275000X0.200000X-0.275000X-0.200000X0.275000X-0.200000X0.275000X0.200000X0*%
%ADD21RoundRect,0.250000X-0.650000X0.325000X-0.650000X-0.325000X0.650000X-0.325000X0.650000X0.325000X0*%
%ADD22R,1.500000X0.400000*%
%ADD23RoundRect,0.250000X-0.325000X-0.650000X0.325000X-0.650000X0.325000X0.650000X-0.325000X0.650000X0*%
%ADD24RoundRect,0.250000X0.325000X0.650000X-0.325000X0.650000X-0.325000X-0.650000X0.325000X-0.650000X0*%
%ADD25R,2.100000X1.725000*%
%ADD26RoundRect,0.112500X-0.187500X-0.112500X0.187500X-0.112500X0.187500X0.112500X-0.187500X0.112500X0*%
%ADD27RoundRect,0.250000X0.650000X-0.325000X0.650000X0.325000X-0.650000X0.325000X-0.650000X-0.325000X0*%
%ADD28RoundRect,0.250000X0.337500X0.475000X-0.337500X0.475000X-0.337500X-0.475000X0.337500X-0.475000X0*%
%ADD29RoundRect,0.112500X0.187500X0.112500X-0.187500X0.112500X-0.187500X-0.112500X0.187500X-0.112500X0*%
%ADD30R,1.700000X5.700000*%
%ADD31RoundRect,0.250000X-0.337500X-0.475000X0.337500X-0.475000X0.337500X0.475000X-0.337500X0.475000X0*%
%ADD32RoundRect,0.150000X0.650000X0.150000X-0.650000X0.150000X-0.650000X-0.150000X0.650000X-0.150000X0*%
%ADD33RoundRect,0.150000X0.150000X-0.825000X0.150000X0.825000X-0.150000X0.825000X-0.150000X-0.825000X0*%
%ADD34RoundRect,0.250000X0.475000X-0.337500X0.475000X0.337500X-0.475000X0.337500X-0.475000X-0.337500X0*%
%ADD35RoundRect,0.150000X-0.150000X0.650000X-0.150000X-0.650000X0.150000X-0.650000X0.150000X0.650000X0*%
%ADD36RoundRect,0.075000X-0.662500X-0.075000X0.662500X-0.075000X0.662500X0.075000X-0.662500X0.075000X0*%
%ADD37RoundRect,0.075000X-0.075000X-0.662500X0.075000X-0.662500X0.075000X0.662500X-0.075000X0.662500X0*%
%ADD38RoundRect,0.250000X-0.412500X-0.925000X0.412500X-0.925000X0.412500X0.925000X-0.412500X0.925000X0*%
%ADD39R,1.300000X0.900000*%
%ADD40FreePoly0,0.000000*%
%ADD41RoundRect,0.237500X0.287500X0.237500X-0.287500X0.237500X-0.287500X-0.237500X0.287500X-0.237500X0*%
%ADD42FreePoly0,180.000000*%
%ADD43RoundRect,0.237500X-0.287500X-0.237500X0.287500X-0.237500X0.287500X0.237500X-0.287500X0.237500X0*%
%ADD44R,1.600000X1.400000*%
%ADD45R,0.500000X0.375000*%
%ADD46R,0.650000X0.300000*%
%ADD47RoundRect,0.075000X-0.700000X-0.075000X0.700000X-0.075000X0.700000X0.075000X-0.700000X0.075000X0*%
%ADD48RoundRect,0.075000X-0.075000X-0.700000X0.075000X-0.700000X0.075000X0.700000X-0.075000X0.700000X0*%
%ADD49RoundRect,0.140000X0.140000X0.170000X-0.140000X0.170000X-0.140000X-0.170000X0.140000X-0.170000X0*%
%ADD50R,1.500000X2.000000*%
%ADD51R,3.800000X2.000000*%
%ADD52RoundRect,0.075000X-0.075000X0.662500X-0.075000X-0.662500X0.075000X-0.662500X0.075000X0.662500X0*%
%ADD53RoundRect,0.075000X-0.662500X0.075000X-0.662500X-0.075000X0.662500X-0.075000X0.662500X0.075000X0*%
%ADD54R,0.400000X1.200000*%
%ADD55RoundRect,0.250000X-0.450000X-0.425000X0.450000X-0.425000X0.450000X0.425000X-0.450000X0.425000X0*%
G04 APERTURE END LIST*
D10*
X199725800Y-106813200D03*
X199725800Y-105263200D03*
D11*
X188950000Y-57929000D03*
X188950000Y-59199000D03*
X188950000Y-60469000D03*
X188950000Y-61739000D03*
X194300000Y-61739000D03*
X194300000Y-60469000D03*
X194300000Y-59199000D03*
X194300000Y-57929000D03*
D12*
X114318800Y-62869600D03*
X115868800Y-62869600D03*
X124835600Y-71210600D03*
X126385600Y-71210600D03*
D13*
X225832400Y-69892400D03*
X227482400Y-69892400D03*
D14*
X197775000Y-62029000D03*
X197775000Y-63579000D03*
D12*
X64992000Y-129463800D03*
X66542000Y-129463800D03*
D15*
X70327000Y-127638200D03*
X72527000Y-127638200D03*
X72527000Y-125938200D03*
X70327000Y-125938200D03*
D14*
X166282200Y-109584800D03*
X166282200Y-111134800D03*
D11*
X229868400Y-57767800D03*
X229868400Y-59037800D03*
X229868400Y-60307800D03*
X229868400Y-61577800D03*
X235218400Y-61577800D03*
X235218400Y-60307800D03*
X235218400Y-59037800D03*
X235218400Y-57767800D03*
D12*
X124351800Y-67633200D03*
X125901800Y-67633200D03*
D16*
X292085400Y-78386800D03*
X292085400Y-73886800D03*
D12*
X228263200Y-63564600D03*
X229813200Y-63564600D03*
D14*
X156632360Y-123050800D03*
X156632360Y-124600800D03*
D17*
X111368600Y-70777600D03*
X111368600Y-69127600D03*
D13*
X108166600Y-70778000D03*
X109816600Y-70778000D03*
D14*
X169979400Y-129881600D03*
X169979400Y-131431600D03*
D18*
X218229800Y-125862000D03*
X216679800Y-125862000D03*
D19*
X131135600Y-74460600D03*
X129485600Y-74460600D03*
X114687400Y-61143200D03*
X113037400Y-61143200D03*
D20*
X197852800Y-58654400D03*
X197852800Y-60304400D03*
D14*
X213450000Y-93460000D03*
X213450000Y-95010000D03*
D21*
X159950000Y-139025000D03*
X159950000Y-141975000D03*
D22*
X183375600Y-134700000D03*
X183375600Y-133900000D03*
X183375600Y-133100000D03*
X183375600Y-132300000D03*
X183375600Y-131500000D03*
X183375600Y-130700000D03*
X183375600Y-129900000D03*
X183375600Y-129100000D03*
X183375600Y-128300000D03*
X183375600Y-127500000D03*
X183375600Y-126700000D03*
X183375600Y-125900000D03*
X183375600Y-125100000D03*
X183375600Y-124300000D03*
X183375600Y-123500000D03*
X183375600Y-122700000D03*
X183375600Y-121900000D03*
X183375600Y-121100000D03*
X183375600Y-120300000D03*
X183375600Y-119500000D03*
X183375600Y-118700000D03*
X183375600Y-117900000D03*
X183375600Y-117100000D03*
X183375600Y-116300000D03*
X183375600Y-115500000D03*
X171875600Y-115500000D03*
X171875600Y-116300000D03*
X171875600Y-117100000D03*
X171875600Y-117900000D03*
X171875600Y-118700000D03*
X171875600Y-119500000D03*
X171875600Y-120300000D03*
X171875600Y-121100000D03*
X171875600Y-121900000D03*
X171875600Y-122700000D03*
X171875600Y-123500000D03*
X171875600Y-124300000D03*
X171875600Y-125100000D03*
X171875600Y-125900000D03*
X171875600Y-126700000D03*
X171875600Y-127500000D03*
X171875600Y-128300000D03*
X171875600Y-129100000D03*
X171875600Y-129900000D03*
X171875600Y-130700000D03*
X171875600Y-131500000D03*
X171875600Y-132300000D03*
X171875600Y-133100000D03*
X171875600Y-133900000D03*
X171875600Y-134700000D03*
D21*
X254099000Y-105117000D03*
X254099000Y-108067000D03*
D12*
X136944200Y-104795600D03*
X138494200Y-104795600D03*
D19*
X186896000Y-62028600D03*
X185246000Y-62028600D03*
X114544400Y-72402600D03*
X112894400Y-72402600D03*
D23*
X233455000Y-99920000D03*
X236405000Y-99920000D03*
D19*
X183692800Y-57202400D03*
X182042800Y-57202400D03*
D20*
X185293200Y-57103600D03*
X185293200Y-58753600D03*
D14*
X158552600Y-123050800D03*
X158552600Y-124600800D03*
D19*
X233209200Y-55596600D03*
X231559200Y-55596600D03*
D23*
X278783756Y-73498330D03*
X281733756Y-73498330D03*
D10*
X227858000Y-58921600D03*
X227858000Y-57371600D03*
D17*
X238559000Y-75522200D03*
X238559000Y-73872200D03*
D12*
X233109200Y-66436600D03*
X234659200Y-66436600D03*
D24*
X241225000Y-99920000D03*
X238275000Y-99920000D03*
D10*
X189066600Y-103819600D03*
X189066600Y-102269600D03*
D18*
X186846000Y-60397000D03*
X185296000Y-60397000D03*
D12*
X129535600Y-76000600D03*
X131085600Y-76000600D03*
D24*
X287244000Y-73539536D03*
X284294000Y-73539536D03*
D23*
X263649200Y-134070600D03*
X266599200Y-134070600D03*
D20*
X204254400Y-140137200D03*
X204254400Y-141787200D03*
D18*
X214931600Y-91776600D03*
X213381600Y-91776600D03*
D13*
X221255400Y-75007732D03*
X222905400Y-75007732D03*
D25*
X197315800Y-104190700D03*
X194415800Y-104190700D03*
X194415800Y-106365700D03*
X197315800Y-106365700D03*
D18*
X144615200Y-94190200D03*
X143065200Y-94190200D03*
D17*
X240209000Y-78573000D03*
X240209000Y-76923000D03*
D10*
X186962600Y-58703600D03*
X186962600Y-57153600D03*
D24*
X287244000Y-76011342D03*
X284294000Y-76011342D03*
D26*
X217028000Y-80818000D03*
X219128000Y-80818000D03*
D19*
X139788000Y-111249800D03*
X138138000Y-111249800D03*
D20*
X237134200Y-61771600D03*
X237134200Y-63421600D03*
D17*
X233134200Y-64971600D03*
X233134200Y-63321600D03*
D18*
X68873200Y-60130800D03*
X67323200Y-60130800D03*
D14*
X125267800Y-61350000D03*
X125267800Y-62900000D03*
D19*
X185245000Y-107535000D03*
X183595000Y-107535000D03*
D24*
X223875000Y-128200000D03*
X220925000Y-128200000D03*
X287244000Y-85929786D03*
X284294000Y-85929786D03*
D12*
X192450000Y-66614000D03*
X194000000Y-66614000D03*
D19*
X236317800Y-132987400D03*
X234667800Y-132987400D03*
D18*
X68873200Y-58480800D03*
X67323200Y-58480800D03*
X192750000Y-68134000D03*
X191200000Y-68134000D03*
D17*
X128010600Y-76035600D03*
X128010600Y-74385600D03*
D12*
X59863200Y-136092400D03*
X61413200Y-136092400D03*
D10*
X200449350Y-88723200D03*
X200449350Y-87173200D03*
X81178200Y-60314600D03*
X81178200Y-58764600D03*
D16*
X273961200Y-78392682D03*
X273961200Y-73892682D03*
D14*
X148951400Y-123050800D03*
X148951400Y-124600800D03*
D27*
X225425000Y-104500000D03*
X225425000Y-101550000D03*
D13*
X67273200Y-61730800D03*
X68923200Y-61730800D03*
D17*
X224478800Y-73416600D03*
X224478800Y-71766600D03*
D14*
X150871640Y-123050800D03*
X150871640Y-124600800D03*
D17*
X120037800Y-64550000D03*
X120037800Y-62900000D03*
D20*
X202428866Y-140137200D03*
X202428866Y-141787200D03*
D23*
X278783756Y-78441940D03*
X281733756Y-78441940D03*
D19*
X131135600Y-72920600D03*
X129485600Y-72920600D03*
D11*
X116844400Y-69777600D03*
X116844400Y-71047600D03*
X116844400Y-72317600D03*
X116844400Y-73587600D03*
X122194400Y-73587600D03*
X122194400Y-72317600D03*
X122194400Y-71047600D03*
X122194400Y-69777600D03*
D18*
X71973200Y-60130800D03*
X70423200Y-60130800D03*
D26*
X213726000Y-80814400D03*
X215826000Y-80814400D03*
D24*
X230965000Y-99820000D03*
X228015000Y-99820000D03*
D10*
X123697800Y-59700000D03*
X123697800Y-58150000D03*
D23*
X278598000Y-61005200D03*
X281548000Y-61005200D03*
D28*
X224124900Y-69722400D03*
X222049900Y-69722400D03*
D18*
X233409200Y-67946600D03*
X231859200Y-67946600D03*
X183720000Y-136185800D03*
X182170000Y-136185800D03*
D10*
X166493800Y-97867600D03*
X166493800Y-96317600D03*
D29*
X197150000Y-79045600D03*
X195050000Y-79045600D03*
D23*
X278783756Y-88573657D03*
X281733756Y-88573657D03*
X263649200Y-131470600D03*
X266599200Y-131470600D03*
D10*
X229617600Y-118209200D03*
X229617600Y-116659200D03*
D13*
X221255400Y-73413866D03*
X222905400Y-73413866D03*
D24*
X223900000Y-125800000D03*
X220950000Y-125800000D03*
D13*
X124785600Y-74410600D03*
X126435600Y-74410600D03*
D14*
X192115800Y-105263200D03*
X192115800Y-106813200D03*
D29*
X197142800Y-76959400D03*
X195042800Y-76959400D03*
D20*
X211808400Y-120101400D03*
X211808400Y-121751400D03*
D17*
X190975000Y-65129000D03*
X190975000Y-63479000D03*
D23*
X278783756Y-93861400D03*
X281733756Y-93861400D03*
D21*
X144525000Y-139775000D03*
X144525000Y-142725000D03*
X147050000Y-139775000D03*
X147050000Y-142725000D03*
D13*
X147587600Y-94266200D03*
X149237600Y-94266200D03*
D18*
X183636600Y-58752400D03*
X182086600Y-58752400D03*
D23*
X233455000Y-97320000D03*
X236405000Y-97320000D03*
D10*
X71958200Y-58505800D03*
X71958200Y-56955800D03*
D18*
X183642800Y-60342400D03*
X182092800Y-60342400D03*
X194305200Y-112640000D03*
X192755200Y-112640000D03*
D23*
X278783756Y-75970135D03*
X281733756Y-75970135D03*
D20*
X238659000Y-76923000D03*
X238659000Y-78573000D03*
D24*
X230956000Y-97405000D03*
X228006000Y-97405000D03*
D30*
X239576846Y-107254840D03*
X235076846Y-107254840D03*
D20*
X197316400Y-87098000D03*
X197316400Y-88748000D03*
D14*
X238734200Y-61811600D03*
X238734200Y-63361600D03*
D16*
X295064600Y-129171600D03*
X295064600Y-124671600D03*
D13*
X112894400Y-70752600D03*
X114544400Y-70752600D03*
D20*
X82748200Y-58764600D03*
X82748200Y-60414600D03*
D12*
X230109200Y-66426600D03*
X231659200Y-66426600D03*
D17*
X224507400Y-76667400D03*
X224507400Y-75017400D03*
D13*
X242185600Y-132992000D03*
X243835600Y-132992000D03*
D19*
X121183400Y-55346600D03*
X119533400Y-55346600D03*
X68923200Y-56930800D03*
X67273200Y-56930800D03*
D11*
X116512800Y-57180000D03*
X116512800Y-58450000D03*
X116512800Y-59720000D03*
X116512800Y-60990000D03*
X121862800Y-60990000D03*
X121862800Y-59720000D03*
X121862800Y-58450000D03*
X121862800Y-57180000D03*
D31*
X127753100Y-68990600D03*
X129828100Y-68990600D03*
D32*
X145892200Y-125694000D03*
X145892200Y-124424000D03*
X145892200Y-123154000D03*
X145892200Y-121884000D03*
X138692200Y-121884000D03*
X138692200Y-123154000D03*
X138692200Y-124424000D03*
X138692200Y-125694000D03*
D21*
X263049000Y-105117000D03*
X263049000Y-108067000D03*
D20*
X123737800Y-61300000D03*
X123737800Y-62950000D03*
D12*
X115142400Y-75521000D03*
X116692400Y-75521000D03*
D21*
X260599000Y-105117000D03*
X260599000Y-108067000D03*
D10*
X186830000Y-107520000D03*
X186830000Y-105970000D03*
D12*
X74523200Y-66679600D03*
X76073200Y-66679600D03*
D18*
X222855400Y-76601600D03*
X221305400Y-76601600D03*
D19*
X243334000Y-75347200D03*
X241684000Y-75347200D03*
D18*
X197950000Y-98235000D03*
X196400000Y-98235000D03*
D11*
X73871600Y-57783800D03*
X73871600Y-59053800D03*
X73871600Y-60323800D03*
X73871600Y-61593800D03*
X79221600Y-61593800D03*
X79221600Y-60323800D03*
X79221600Y-59053800D03*
X79221600Y-57783800D03*
D19*
X246444800Y-125468800D03*
X244794800Y-125468800D03*
X236673800Y-134559800D03*
X235023800Y-134559800D03*
D12*
X241847000Y-131458400D03*
X243397000Y-131458400D03*
D13*
X109835800Y-61091600D03*
X111485800Y-61091600D03*
D33*
X235050200Y-129210200D03*
X236320200Y-129210200D03*
X237590200Y-129210200D03*
X238860200Y-129210200D03*
X240130200Y-129210200D03*
X241400200Y-129210200D03*
X242670200Y-129210200D03*
X242670200Y-124260200D03*
X241400200Y-124260200D03*
X240130200Y-124260200D03*
X238860200Y-124260200D03*
X237590200Y-124260200D03*
X236320200Y-124260200D03*
X235050200Y-124260200D03*
D12*
X222974400Y-58840400D03*
X224524400Y-58840400D03*
D17*
X128010600Y-72935600D03*
X128010600Y-71285600D03*
D10*
X237154200Y-60271600D03*
X237154200Y-58721600D03*
D24*
X264388000Y-118650200D03*
X261438000Y-118650200D03*
D14*
X166305400Y-103796800D03*
X166305400Y-105346800D03*
D12*
X187243400Y-137268800D03*
X188793400Y-137268800D03*
X117032800Y-66025000D03*
X118582800Y-66025000D03*
D14*
X265114800Y-106638400D03*
X265114800Y-108188400D03*
D24*
X287244000Y-91217528D03*
X284294000Y-91217528D03*
D18*
X65719600Y-138273000D03*
X64169600Y-138273000D03*
D29*
X200423000Y-72710400D03*
X198323000Y-72710400D03*
D12*
X281801000Y-97611800D03*
X283351000Y-97611800D03*
D24*
X241225000Y-102520000D03*
X238275000Y-102520000D03*
D10*
X186652800Y-125731800D03*
X186652800Y-124181800D03*
X81160000Y-57125200D03*
X81160000Y-55575200D03*
D14*
X152791880Y-123050800D03*
X152791880Y-124600800D03*
D19*
X78908400Y-55988800D03*
X77258400Y-55988800D03*
D28*
X108034100Y-67194200D03*
X105959100Y-67194200D03*
D19*
X111536600Y-56238400D03*
X109886600Y-56238400D03*
D10*
X138573000Y-91224000D03*
X138573000Y-89674000D03*
D18*
X114544400Y-69152600D03*
X112994400Y-69152600D03*
D24*
X287244000Y-78483147D03*
X284294000Y-78483147D03*
D14*
X82778200Y-61914600D03*
X82778200Y-63464600D03*
D18*
X111461200Y-59436200D03*
X109911200Y-59436200D03*
D17*
X76048200Y-65264600D03*
X76048200Y-63614600D03*
D18*
X126385600Y-75950600D03*
X124835600Y-75950600D03*
D34*
X168334600Y-97737300D03*
X168334600Y-95662300D03*
D14*
X132156200Y-118935200D03*
X132156200Y-120485200D03*
D12*
X108196600Y-69228000D03*
X109746600Y-69228000D03*
D24*
X223920000Y-120920000D03*
X220970000Y-120920000D03*
D29*
X200422200Y-74812800D03*
X198322200Y-74812800D03*
D21*
X289163000Y-122919200D03*
X289163000Y-125869200D03*
D19*
X240140600Y-134576200D03*
X238490600Y-134576200D03*
D12*
X226032400Y-76692400D03*
X227582400Y-76692400D03*
D14*
X211799400Y-123188200D03*
X211799400Y-124738200D03*
D27*
X289169800Y-130608400D03*
X289169800Y-127658400D03*
D12*
X162832800Y-119546200D03*
X164382800Y-119546200D03*
D18*
X140743000Y-113547200D03*
X139193000Y-113547200D03*
D14*
X211827000Y-116882400D03*
X211827000Y-118432400D03*
D12*
X152666400Y-119701000D03*
X154216400Y-119701000D03*
D10*
X204298600Y-112680400D03*
X204298600Y-111130400D03*
D20*
X200687555Y-140112200D03*
X200687555Y-141762200D03*
D23*
X278783756Y-80913746D03*
X281733756Y-80913746D03*
D20*
X196175000Y-61979000D03*
X196175000Y-63629000D03*
D14*
X157820000Y-138885000D03*
X157820000Y-140435000D03*
D10*
X198026400Y-92884600D03*
X198026400Y-91334600D03*
D18*
X227732400Y-72032400D03*
X226182400Y-72032400D03*
X140721400Y-115092000D03*
X139171400Y-115092000D03*
D12*
X278656200Y-71347400D03*
X280206200Y-71347400D03*
D20*
X167570000Y-132130000D03*
X167570000Y-133780000D03*
D12*
X234933600Y-131432000D03*
X236483600Y-131432000D03*
D19*
X246418800Y-127065400D03*
X244768800Y-127065400D03*
D24*
X264388000Y-121079400D03*
X261438000Y-121079400D03*
D14*
X210868600Y-101318800D03*
X210868600Y-102868800D03*
D29*
X200448400Y-76962800D03*
X198348400Y-76962800D03*
D12*
X238388800Y-131437200D03*
X239938800Y-131437200D03*
D20*
X81148200Y-61914600D03*
X81148200Y-63564600D03*
D10*
X236946600Y-78523000D03*
X236946600Y-76973000D03*
D35*
X217986400Y-116746600D03*
X216716400Y-116746600D03*
X215446400Y-116746600D03*
X214176400Y-116746600D03*
X214176400Y-123946600D03*
X215446400Y-123946600D03*
X216716400Y-123946600D03*
X217986400Y-123946600D03*
D19*
X243334000Y-76948000D03*
X241684000Y-76948000D03*
D18*
X287339800Y-71415800D03*
X285789800Y-71415800D03*
D17*
X231584200Y-64971600D03*
X231584200Y-63321600D03*
D20*
X138925000Y-100112500D03*
X138925000Y-101762500D03*
D23*
X233455000Y-102520000D03*
X236405000Y-102520000D03*
D31*
X241367300Y-71930200D03*
X243442300Y-71930200D03*
D19*
X243589400Y-134578600D03*
X241939400Y-134578600D03*
D12*
X234778400Y-71018000D03*
X236328400Y-71018000D03*
D36*
X142874100Y-98151800D03*
X142874100Y-98651800D03*
X142874100Y-99151800D03*
X142874100Y-99651800D03*
X142874100Y-100151800D03*
X142874100Y-100651800D03*
X142874100Y-101151800D03*
X142874100Y-101651800D03*
X142874100Y-102151800D03*
X142874100Y-102651800D03*
X142874100Y-103151800D03*
X142874100Y-103651800D03*
X142874100Y-104151800D03*
X142874100Y-104651800D03*
X142874100Y-105151800D03*
X142874100Y-105651800D03*
X142874100Y-106151800D03*
X142874100Y-106651800D03*
X142874100Y-107151800D03*
X142874100Y-107651800D03*
X142874100Y-108151800D03*
X142874100Y-108651800D03*
X142874100Y-109151800D03*
X142874100Y-109651800D03*
X142874100Y-110151800D03*
X142874100Y-110651800D03*
X142874100Y-111151800D03*
X142874100Y-111651800D03*
X142874100Y-112151800D03*
X142874100Y-112651800D03*
X142874100Y-113151800D03*
X142874100Y-113651800D03*
X142874100Y-114151800D03*
X142874100Y-114651800D03*
X142874100Y-115151800D03*
X142874100Y-115651800D03*
D37*
X144786600Y-117564300D03*
X145286600Y-117564300D03*
X145786600Y-117564300D03*
X146286600Y-117564300D03*
X146786600Y-117564300D03*
X147286600Y-117564300D03*
X147786600Y-117564300D03*
X148286600Y-117564300D03*
X148786600Y-117564300D03*
X149286600Y-117564300D03*
X149786600Y-117564300D03*
X150286600Y-117564300D03*
X150786600Y-117564300D03*
X151286600Y-117564300D03*
X151786600Y-117564300D03*
X152286600Y-117564300D03*
X152786600Y-117564300D03*
X153286600Y-117564300D03*
X153786600Y-117564300D03*
X154286600Y-117564300D03*
X154786600Y-117564300D03*
X155286600Y-117564300D03*
X155786600Y-117564300D03*
X156286600Y-117564300D03*
X156786600Y-117564300D03*
X157286600Y-117564300D03*
X157786600Y-117564300D03*
X158286600Y-117564300D03*
X158786600Y-117564300D03*
X159286600Y-117564300D03*
X159786600Y-117564300D03*
X160286600Y-117564300D03*
X160786600Y-117564300D03*
X161286600Y-117564300D03*
X161786600Y-117564300D03*
X162286600Y-117564300D03*
D36*
X164199100Y-115651800D03*
X164199100Y-115151800D03*
X164199100Y-114651800D03*
X164199100Y-114151800D03*
X164199100Y-113651800D03*
X164199100Y-113151800D03*
X164199100Y-112651800D03*
X164199100Y-112151800D03*
X164199100Y-111651800D03*
X164199100Y-111151800D03*
X164199100Y-110651800D03*
X164199100Y-110151800D03*
X164199100Y-109651800D03*
X164199100Y-109151800D03*
X164199100Y-108651800D03*
X164199100Y-108151800D03*
X164199100Y-107651800D03*
X164199100Y-107151800D03*
X164199100Y-106651800D03*
X164199100Y-106151800D03*
X164199100Y-105651800D03*
X164199100Y-105151800D03*
X164199100Y-104651800D03*
X164199100Y-104151800D03*
X164199100Y-103651800D03*
X164199100Y-103151800D03*
X164199100Y-102651800D03*
X164199100Y-102151800D03*
X164199100Y-101651800D03*
X164199100Y-101151800D03*
X164199100Y-100651800D03*
X164199100Y-100151800D03*
X164199100Y-99651800D03*
X164199100Y-99151800D03*
X164199100Y-98651800D03*
X164199100Y-98151800D03*
D37*
X162286600Y-96239300D03*
X161786600Y-96239300D03*
X161286600Y-96239300D03*
X160786600Y-96239300D03*
X160286600Y-96239300D03*
X159786600Y-96239300D03*
X159286600Y-96239300D03*
X158786600Y-96239300D03*
X158286600Y-96239300D03*
X157786600Y-96239300D03*
X157286600Y-96239300D03*
X156786600Y-96239300D03*
X156286600Y-96239300D03*
X155786600Y-96239300D03*
X155286600Y-96239300D03*
X154786600Y-96239300D03*
X154286600Y-96239300D03*
X153786600Y-96239300D03*
X153286600Y-96239300D03*
X152786600Y-96239300D03*
X152286600Y-96239300D03*
X151786600Y-96239300D03*
X151286600Y-96239300D03*
X150786600Y-96239300D03*
X150286600Y-96239300D03*
X149786600Y-96239300D03*
X149286600Y-96239300D03*
X148786600Y-96239300D03*
X148286600Y-96239300D03*
X147786600Y-96239300D03*
X147286600Y-96239300D03*
X146786600Y-96239300D03*
X146286600Y-96239300D03*
X145786600Y-96239300D03*
X145286600Y-96239300D03*
X144786600Y-96239300D03*
D12*
X72057200Y-63419800D03*
X73607200Y-63419800D03*
D16*
X273961200Y-93511400D03*
X273961200Y-89011400D03*
D21*
X139550000Y-139775000D03*
X139550000Y-142725000D03*
D20*
X198895710Y-140112200D03*
X198895710Y-141762200D03*
D14*
X196671200Y-137928200D03*
X196671200Y-139478200D03*
D18*
X157312000Y-119668600D03*
X155762000Y-119668600D03*
D28*
X188719700Y-139284600D03*
X186644700Y-139284600D03*
D16*
X264053800Y-128639800D03*
X264053800Y-124139800D03*
D10*
X123746600Y-56661200D03*
X123746600Y-55111200D03*
D19*
X240141000Y-133006000D03*
X238491000Y-133006000D03*
D30*
X262719000Y-100542000D03*
X258219000Y-100542000D03*
D31*
X207418700Y-139721800D03*
X209493700Y-139721800D03*
D20*
X165235000Y-132130000D03*
X165235000Y-133780000D03*
D21*
X286313000Y-122919200D03*
X286313000Y-125869200D03*
D10*
X140789000Y-100640800D03*
X140789000Y-99090800D03*
D18*
X120212800Y-67585000D03*
X118662800Y-67585000D03*
D29*
X197108600Y-74816400D03*
X195008600Y-74816400D03*
D14*
X185891000Y-128961800D03*
X185891000Y-130511800D03*
D38*
X214447500Y-86875000D03*
X217522500Y-86875000D03*
D39*
X284422200Y-65960400D03*
D40*
X284509700Y-67460400D03*
D39*
X284422200Y-68960400D03*
D13*
X222919800Y-62022800D03*
X224569800Y-62022800D03*
D18*
X289197000Y-97610000D03*
X287647000Y-97610000D03*
D24*
X287244000Y-93861400D03*
X284294000Y-93861400D03*
D11*
X229531600Y-72722200D03*
X229531600Y-73992200D03*
X229531600Y-75262200D03*
X229531600Y-76532200D03*
X234881600Y-76532200D03*
X234881600Y-75262200D03*
X234881600Y-73992200D03*
X234881600Y-72722200D03*
D12*
X241784800Y-78554200D03*
X243334800Y-78554200D03*
D13*
X108166600Y-73928000D03*
X109816600Y-73928000D03*
D41*
X198205000Y-143915000D03*
X196455000Y-143915000D03*
D31*
X198260700Y-85385400D03*
X200335700Y-85385400D03*
D18*
X224545200Y-60457400D03*
X222995200Y-60457400D03*
D12*
X221305400Y-71820000D03*
X222855400Y-71820000D03*
D19*
X227632400Y-75092400D03*
X225982400Y-75092400D03*
D39*
X281527000Y-68860400D03*
D42*
X281439500Y-67360400D03*
D39*
X281527000Y-65860400D03*
D10*
X114628600Y-57814200D03*
X114628600Y-56264200D03*
D18*
X140718600Y-116628400D03*
X139168600Y-116628400D03*
D26*
X217028000Y-82813800D03*
X219128000Y-82813800D03*
D12*
X187029800Y-63678200D03*
X188579800Y-63678200D03*
D27*
X231625000Y-118100000D03*
X231625000Y-115150000D03*
D17*
X118487800Y-64550000D03*
X118487800Y-62900000D03*
D43*
X137145000Y-98270000D03*
X138895000Y-98270000D03*
D18*
X131185600Y-71280600D03*
X129635600Y-71280600D03*
D44*
X187128200Y-103594800D03*
X179928200Y-103594800D03*
X187128200Y-100594800D03*
X179928200Y-100594800D03*
D20*
X238784200Y-58621600D03*
X238784200Y-60271600D03*
D12*
X199312800Y-112478800D03*
X200862800Y-112478800D03*
D18*
X227933800Y-60472800D03*
X226383800Y-60472800D03*
D45*
X56678800Y-135588900D03*
D46*
X56603800Y-136126400D03*
D45*
X56678800Y-136663900D03*
X58378800Y-136663900D03*
D46*
X58453800Y-136126400D03*
D45*
X58378800Y-135588900D03*
D47*
X200025000Y-91200000D03*
X200025000Y-91700000D03*
X200025000Y-92200000D03*
X200025000Y-92700000D03*
X200025000Y-93200000D03*
X200025000Y-93700000D03*
X200025000Y-94200000D03*
X200025000Y-94700000D03*
X200025000Y-95200000D03*
X200025000Y-95700000D03*
X200025000Y-96200000D03*
X200025000Y-96700000D03*
X200025000Y-97200000D03*
X200025000Y-97700000D03*
X200025000Y-98200000D03*
X200025000Y-98700000D03*
D48*
X201950000Y-100625000D03*
X202450000Y-100625000D03*
X202950000Y-100625000D03*
X203450000Y-100625000D03*
X203950000Y-100625000D03*
X204450000Y-100625000D03*
X204950000Y-100625000D03*
X205450000Y-100625000D03*
X205950000Y-100625000D03*
X206450000Y-100625000D03*
X206950000Y-100625000D03*
X207450000Y-100625000D03*
X207950000Y-100625000D03*
X208450000Y-100625000D03*
X208950000Y-100625000D03*
X209450000Y-100625000D03*
D47*
X211375000Y-98700000D03*
X211375000Y-98200000D03*
X211375000Y-97700000D03*
X211375000Y-97200000D03*
X211375000Y-96700000D03*
X211375000Y-96200000D03*
X211375000Y-95700000D03*
X211375000Y-95200000D03*
X211375000Y-94700000D03*
X211375000Y-94200000D03*
X211375000Y-93700000D03*
X211375000Y-93200000D03*
X211375000Y-92700000D03*
X211375000Y-92200000D03*
X211375000Y-91700000D03*
X211375000Y-91200000D03*
D48*
X209450000Y-89275000D03*
X208950000Y-89275000D03*
X208450000Y-89275000D03*
X207950000Y-89275000D03*
X207450000Y-89275000D03*
X206950000Y-89275000D03*
X206450000Y-89275000D03*
X205950000Y-89275000D03*
X205450000Y-89275000D03*
X204950000Y-89275000D03*
X204450000Y-89275000D03*
X203950000Y-89275000D03*
X203450000Y-89275000D03*
X202950000Y-89275000D03*
X202450000Y-89275000D03*
X201950000Y-89275000D03*
D49*
X73101200Y-129438400D03*
X72141200Y-129438400D03*
D10*
X198887731Y-88730347D03*
X198887731Y-87180347D03*
D18*
X243334000Y-73827200D03*
X241784000Y-73827200D03*
D50*
X149970000Y-142300000D03*
X152270000Y-142300000D03*
X154570000Y-142300000D03*
D51*
X152270000Y-136000000D03*
D19*
X227983000Y-62064400D03*
X226333000Y-62064400D03*
D13*
X109741600Y-67454200D03*
X111391600Y-67454200D03*
D18*
X200500000Y-101055000D03*
X198950000Y-101055000D03*
D20*
X125237800Y-58100000D03*
X125237800Y-59750000D03*
D18*
X183478200Y-113977000D03*
X181928200Y-113977000D03*
D52*
X207979400Y-114572100D03*
X207479400Y-114572100D03*
X206979400Y-114572100D03*
X206479400Y-114572100D03*
X205979400Y-114572100D03*
X205479400Y-114572100D03*
X204979400Y-114572100D03*
X204479400Y-114572100D03*
X203979400Y-114572100D03*
X203479400Y-114572100D03*
X202979400Y-114572100D03*
X202479400Y-114572100D03*
X201979400Y-114572100D03*
X201479400Y-114572100D03*
X200979400Y-114572100D03*
X200479400Y-114572100D03*
X199979400Y-114572100D03*
X199479400Y-114572100D03*
X198979400Y-114572100D03*
X198479400Y-114572100D03*
X197979400Y-114572100D03*
X197479400Y-114572100D03*
X196979400Y-114572100D03*
X196479400Y-114572100D03*
X195979400Y-114572100D03*
X195479400Y-114572100D03*
X194979400Y-114572100D03*
X194479400Y-114572100D03*
X193979400Y-114572100D03*
X193479400Y-114572100D03*
X192979400Y-114572100D03*
X192479400Y-114572100D03*
X191979400Y-114572100D03*
X191479400Y-114572100D03*
X190979400Y-114572100D03*
X190479400Y-114572100D03*
D53*
X188566900Y-116484600D03*
X188566900Y-116984600D03*
X188566900Y-117484600D03*
X188566900Y-117984600D03*
X188566900Y-118484600D03*
X188566900Y-118984600D03*
X188566900Y-119484600D03*
X188566900Y-119984600D03*
X188566900Y-120484600D03*
X188566900Y-120984600D03*
X188566900Y-121484600D03*
X188566900Y-121984600D03*
X188566900Y-122484600D03*
X188566900Y-122984600D03*
X188566900Y-123484600D03*
X188566900Y-123984600D03*
X188566900Y-124484600D03*
X188566900Y-124984600D03*
X188566900Y-125484600D03*
X188566900Y-125984600D03*
X188566900Y-126484600D03*
X188566900Y-126984600D03*
X188566900Y-127484600D03*
X188566900Y-127984600D03*
X188566900Y-128484600D03*
X188566900Y-128984600D03*
X188566900Y-129484600D03*
X188566900Y-129984600D03*
X188566900Y-130484600D03*
X188566900Y-130984600D03*
X188566900Y-131484600D03*
X188566900Y-131984600D03*
X188566900Y-132484600D03*
X188566900Y-132984600D03*
X188566900Y-133484600D03*
X188566900Y-133984600D03*
D52*
X190479400Y-135897100D03*
X190979400Y-135897100D03*
X191479400Y-135897100D03*
X191979400Y-135897100D03*
X192479400Y-135897100D03*
X192979400Y-135897100D03*
X193479400Y-135897100D03*
X193979400Y-135897100D03*
X194479400Y-135897100D03*
X194979400Y-135897100D03*
X195479400Y-135897100D03*
X195979400Y-135897100D03*
X196479400Y-135897100D03*
X196979400Y-135897100D03*
X197479400Y-135897100D03*
X197979400Y-135897100D03*
X198479400Y-135897100D03*
X198979400Y-135897100D03*
X199479400Y-135897100D03*
X199979400Y-135897100D03*
X200479400Y-135897100D03*
X200979400Y-135897100D03*
X201479400Y-135897100D03*
X201979400Y-135897100D03*
X202479400Y-135897100D03*
X202979400Y-135897100D03*
X203479400Y-135897100D03*
X203979400Y-135897100D03*
X204479400Y-135897100D03*
X204979400Y-135897100D03*
X205479400Y-135897100D03*
X205979400Y-135897100D03*
X206479400Y-135897100D03*
X206979400Y-135897100D03*
X207479400Y-135897100D03*
X207979400Y-135897100D03*
D53*
X209891900Y-133984600D03*
X209891900Y-133484600D03*
X209891900Y-132984600D03*
X209891900Y-132484600D03*
X209891900Y-131984600D03*
X209891900Y-131484600D03*
X209891900Y-130984600D03*
X209891900Y-130484600D03*
X209891900Y-129984600D03*
X209891900Y-129484600D03*
X209891900Y-128984600D03*
X209891900Y-128484600D03*
X209891900Y-127984600D03*
X209891900Y-127484600D03*
X209891900Y-126984600D03*
X209891900Y-126484600D03*
X209891900Y-125984600D03*
X209891900Y-125484600D03*
X209891900Y-124984600D03*
X209891900Y-124484600D03*
X209891900Y-123984600D03*
X209891900Y-123484600D03*
X209891900Y-122984600D03*
X209891900Y-122484600D03*
X209891900Y-121984600D03*
X209891900Y-121484600D03*
X209891900Y-120984600D03*
X209891900Y-120484600D03*
X209891900Y-119984600D03*
X209891900Y-119484600D03*
X209891900Y-118984600D03*
X209891900Y-118484600D03*
X209891900Y-117984600D03*
X209891900Y-117484600D03*
X209891900Y-116984600D03*
X209891900Y-116484600D03*
D10*
X140893800Y-105834000D03*
X140893800Y-104284000D03*
D18*
X111461200Y-57850000D03*
X109911200Y-57850000D03*
D19*
X192811200Y-55468200D03*
X191161200Y-55468200D03*
D54*
X72395300Y-131186600D03*
X71760300Y-131186600D03*
X71125300Y-131186600D03*
X70490300Y-131186600D03*
X69855300Y-131186600D03*
X69220300Y-131186600D03*
X68585300Y-131186600D03*
X67950300Y-131186600D03*
X67315300Y-131186600D03*
X66680300Y-131186600D03*
X66045300Y-131186600D03*
X65410300Y-131186600D03*
X64775300Y-131186600D03*
X64140300Y-131186600D03*
X64140300Y-136386600D03*
X64775300Y-136386600D03*
X65410300Y-136386600D03*
X66045300Y-136386600D03*
X66680300Y-136386600D03*
X67315300Y-136386600D03*
X67950300Y-136386600D03*
X68585300Y-136386600D03*
X69220300Y-136386600D03*
X69855300Y-136386600D03*
X70490300Y-136386600D03*
X71125300Y-136386600D03*
X71760300Y-136386600D03*
X72395300Y-136386600D03*
D24*
X230965000Y-102370000D03*
X228015000Y-102370000D03*
D18*
X142398200Y-118225800D03*
X140848200Y-118225800D03*
D12*
X151298000Y-94176200D03*
X152848000Y-94176200D03*
D14*
X170004200Y-125387800D03*
X170004200Y-126937800D03*
D23*
X278783756Y-85929786D03*
X281733756Y-85929786D03*
D55*
X213685400Y-89876600D03*
X216385400Y-89876600D03*
D20*
X226206400Y-57321600D03*
X226206400Y-58971600D03*
D24*
X287398000Y-61005200D03*
X284448000Y-61005200D03*
D14*
X111378600Y-72377600D03*
X111378600Y-73927600D03*
D17*
X77598200Y-65264600D03*
X77598200Y-63614600D03*
D18*
X114612800Y-59416200D03*
X113062800Y-59416200D03*
D10*
X190905200Y-112564600D03*
X190905200Y-111014600D03*
D14*
X154712120Y-123050800D03*
X154712120Y-124600800D03*
D29*
X200441600Y-81085200D03*
X198341600Y-81085200D03*
D44*
X147897800Y-92301000D03*
X140697800Y-92301000D03*
X147897800Y-89301000D03*
X140697800Y-89301000D03*
D18*
X202628800Y-137774200D03*
X201078800Y-137774200D03*
D24*
X223900000Y-123325000D03*
X220950000Y-123325000D03*
D23*
X278783756Y-91217528D03*
X281733756Y-91217528D03*
D21*
X162475000Y-139050000D03*
X162475000Y-142000000D03*
D29*
X200475200Y-79018600D03*
X198375200Y-79018600D03*
D10*
X237165600Y-57090200D03*
X237165600Y-55540200D03*
D14*
X283942200Y-122809600D03*
X283942200Y-124359600D03*
X211667000Y-127744800D03*
X211667000Y-129294800D03*
D18*
X246215000Y-123757000D03*
X244665000Y-123757000D03*
D13*
X226132400Y-73492400D03*
X227782400Y-73492400D03*
D29*
X200438400Y-83042400D03*
X198338400Y-83042400D03*
D10*
X196203000Y-57117000D03*
X196203000Y-55567000D03*
D21*
X142025000Y-139775000D03*
X142025000Y-142725000D03*
D24*
X287244000Y-88573657D03*
X284294000Y-88573657D03*
D29*
X197139600Y-83070000D03*
X195039600Y-83070000D03*
D19*
X125985600Y-69210600D03*
X124335600Y-69210600D03*
D24*
X287244000Y-80954952D03*
X284294000Y-80954952D03*
D10*
X136728200Y-125670000D03*
X136728200Y-124120000D03*
D12*
X189400000Y-66614000D03*
X190950000Y-66614000D03*
X208955000Y-87155000D03*
X210505000Y-87155000D03*
D29*
X197139600Y-81081600D03*
X195039600Y-81081600D03*
D12*
X134836000Y-111263400D03*
X136386000Y-111263400D03*
D24*
X241225400Y-97343441D03*
X238275400Y-97343441D03*
D13*
X108166600Y-72328000D03*
X109816600Y-72328000D03*
D10*
X196312800Y-60254400D03*
X196312800Y-58704400D03*
D12*
X227996400Y-78264400D03*
X229546400Y-78264400D03*
D21*
X256879000Y-105117000D03*
X256879000Y-108067000D03*
D19*
X239520400Y-71950400D03*
X237870400Y-71950400D03*
D50*
X228685600Y-94746000D03*
X230985600Y-94746000D03*
X233285600Y-94746000D03*
D51*
X230985600Y-88446000D03*
D19*
X71973200Y-61730800D03*
X70323200Y-61730800D03*
D31*
X162253100Y-121481800D03*
X164328100Y-121481800D03*
D19*
X224629800Y-57244200D03*
X222979800Y-57244200D03*
D20*
X70398200Y-56905800D03*
X70398200Y-58555800D03*
D26*
X213726000Y-82817400D03*
X215826000Y-82817400D03*
D12*
X156990800Y-94176200D03*
X158540800Y-94176200D03*
D18*
X264453400Y-116557200D03*
X262903400Y-116557200D03*
D25*
X137945800Y-106823500D03*
X135045800Y-106823500D03*
X135045800Y-108998500D03*
X137945800Y-108998500D03*
D27*
X234081281Y-118100798D03*
X234081281Y-115150798D03*
D17*
X192525000Y-65129000D03*
X192525000Y-63479000D03*
D12*
X77523200Y-66689600D03*
X79073200Y-66689600D03*
D17*
X240159000Y-75472200D03*
X240159000Y-73822200D03*
D12*
X112944400Y-73963400D03*
X114494400Y-73963400D03*
D50*
X221975000Y-118050000D03*
X224275000Y-118050000D03*
X226575000Y-118050000D03*
D51*
X224275000Y-111750000D03*
D29*
X197092000Y-72680600D03*
X194992000Y-72680600D03*
D49*
X71125000Y-129432200D03*
X70165000Y-129432200D03*
D12*
X208205365Y-137872565D03*
X209755365Y-137872565D03*
D10*
X186630000Y-115970400D03*
X186630000Y-114420400D03*
D13*
X182018200Y-62080200D03*
X183668200Y-62080200D03*
D19*
X126435600Y-72810600D03*
X124785600Y-72810600D03*
D10*
X233384400Y-124396000D03*
X233384400Y-122846000D03*
X202085000Y-86670000D03*
X202085000Y-85120000D03*
D12*
X120012800Y-66005000D03*
X121562800Y-66005000D03*
D24*
X287398000Y-63455200D03*
X284448000Y-63455200D03*
D13*
X195499400Y-142280200D03*
X197149400Y-142280200D03*
D16*
X292085400Y-93511400D03*
X292085400Y-89011400D03*
D10*
X212225200Y-87932800D03*
X212225200Y-86382800D03*
D19*
X195380800Y-108468200D03*
X193730800Y-108468200D03*
D20*
X113061600Y-56214200D03*
X113061600Y-57864200D03*
D23*
X278598000Y-63455200D03*
X281548000Y-63455200D03*
D18*
X77523200Y-68229600D03*
X75973200Y-68229600D03*
D27*
X286319800Y-130608400D03*
X286319800Y-127658400D03*
D10*
X236906600Y-75422200D03*
X236906600Y-73872200D03*
M02*
