G04 #@! TF.GenerationSoftware,KiCad,Pcbnew,7.0.2*
G04 #@! TF.CreationDate,2024-03-06T23:49:30+01:00*
G04 #@! TF.ProjectId,stm_audio_board_V3,73746d5f-6175-4646-996f-5f626f617264,rev?*
G04 #@! TF.SameCoordinates,Original*
G04 #@! TF.FileFunction,Copper,L4,Bot*
G04 #@! TF.FilePolarity,Positive*
%FSLAX46Y46*%
G04 Gerber Fmt 4.6, Leading zero omitted, Abs format (unit mm)*
G04 Created by KiCad (PCBNEW 7.0.2) date 2024-03-06 23:49:30*
%MOMM*%
%LPD*%
G01*
G04 APERTURE LIST*
G04 Aperture macros list*
%AMRoundRect*
0 Rectangle with rounded corners*
0 $1 Rounding radius*
0 $2 $3 $4 $5 $6 $7 $8 $9 X,Y pos of 4 corners*
0 Add a 4 corners polygon primitive as box body*
4,1,4,$2,$3,$4,$5,$6,$7,$8,$9,$2,$3,0*
0 Add four circle primitives for the rounded corners*
1,1,$1+$1,$2,$3*
1,1,$1+$1,$4,$5*
1,1,$1+$1,$6,$7*
1,1,$1+$1,$8,$9*
0 Add four rect primitives between the rounded corners*
20,1,$1+$1,$2,$3,$4,$5,0*
20,1,$1+$1,$4,$5,$6,$7,0*
20,1,$1+$1,$6,$7,$8,$9,0*
20,1,$1+$1,$8,$9,$2,$3,0*%
G04 Aperture macros list end*
%ADD10C,0.300000*%
G04 #@! TA.AperFunction,NonConductor*
%ADD11C,0.300000*%
G04 #@! TD*
G04 #@! TA.AperFunction,NonConductor*
%ADD12C,0.200000*%
G04 #@! TD*
G04 #@! TA.AperFunction,ComponentPad*
%ADD13C,1.800000*%
G04 #@! TD*
G04 #@! TA.AperFunction,ComponentPad*
%ADD14R,1.800000X1.800000*%
G04 #@! TD*
G04 #@! TA.AperFunction,ComponentPad*
%ADD15RoundRect,0.500000X1.000000X-0.500000X1.000000X0.500000X-1.000000X0.500000X-1.000000X-0.500000X0*%
G04 #@! TD*
G04 #@! TA.AperFunction,ComponentPad*
%ADD16C,3.000000*%
G04 #@! TD*
G04 #@! TA.AperFunction,ComponentPad*
%ADD17R,1.600000X1.600000*%
G04 #@! TD*
G04 #@! TA.AperFunction,ComponentPad*
%ADD18C,1.600000*%
G04 #@! TD*
G04 #@! TA.AperFunction,ComponentPad*
%ADD19C,5.600000*%
G04 #@! TD*
G04 #@! TA.AperFunction,ComponentPad*
%ADD20R,2.000000X1.905000*%
G04 #@! TD*
G04 #@! TA.AperFunction,ComponentPad*
%ADD21O,2.000000X1.905000*%
G04 #@! TD*
G04 #@! TA.AperFunction,ComponentPad*
%ADD22R,1.500000X1.050000*%
G04 #@! TD*
G04 #@! TA.AperFunction,ComponentPad*
%ADD23O,1.500000X1.050000*%
G04 #@! TD*
G04 #@! TA.AperFunction,ComponentPad*
%ADD24R,1.700000X1.700000*%
G04 #@! TD*
G04 #@! TA.AperFunction,ComponentPad*
%ADD25O,1.700000X1.700000*%
G04 #@! TD*
G04 #@! TA.AperFunction,ComponentPad*
%ADD26O,3.500000X2.000000*%
G04 #@! TD*
G04 #@! TA.AperFunction,ComponentPad*
%ADD27O,2.000000X3.300000*%
G04 #@! TD*
G04 #@! TA.AperFunction,ComponentPad*
%ADD28R,2.000000X4.000000*%
G04 #@! TD*
G04 #@! TA.AperFunction,ComponentPad*
%ADD29R,1.524000X1.524000*%
G04 #@! TD*
G04 #@! TA.AperFunction,ComponentPad*
%ADD30C,1.524000*%
G04 #@! TD*
G04 #@! TA.AperFunction,ComponentPad*
%ADD31C,3.500000*%
G04 #@! TD*
G04 #@! TA.AperFunction,ViaPad*
%ADD32C,0.800000*%
G04 #@! TD*
G04 #@! TA.AperFunction,Conductor*
%ADD33C,0.200000*%
G04 #@! TD*
G04 #@! TA.AperFunction,Conductor*
%ADD34C,0.250000*%
G04 #@! TD*
G04 APERTURE END LIST*
D10*
D11*
X161857144Y-156536784D02*
X161928572Y-156465356D01*
X161928572Y-156465356D02*
X162071430Y-156393927D01*
X162071430Y-156393927D02*
X162428572Y-156393927D01*
X162428572Y-156393927D02*
X162571430Y-156465356D01*
X162571430Y-156465356D02*
X162642858Y-156536784D01*
X162642858Y-156536784D02*
X162714287Y-156679641D01*
X162714287Y-156679641D02*
X162714287Y-156822499D01*
X162714287Y-156822499D02*
X162642858Y-157036784D01*
X162642858Y-157036784D02*
X161785715Y-157893927D01*
X161785715Y-157893927D02*
X162714287Y-157893927D01*
X163642858Y-156393927D02*
X163785715Y-156393927D01*
X163785715Y-156393927D02*
X163928572Y-156465356D01*
X163928572Y-156465356D02*
X164000001Y-156536784D01*
X164000001Y-156536784D02*
X164071429Y-156679641D01*
X164071429Y-156679641D02*
X164142858Y-156965356D01*
X164142858Y-156965356D02*
X164142858Y-157322499D01*
X164142858Y-157322499D02*
X164071429Y-157608213D01*
X164071429Y-157608213D02*
X164000001Y-157751070D01*
X164000001Y-157751070D02*
X163928572Y-157822499D01*
X163928572Y-157822499D02*
X163785715Y-157893927D01*
X163785715Y-157893927D02*
X163642858Y-157893927D01*
X163642858Y-157893927D02*
X163500001Y-157822499D01*
X163500001Y-157822499D02*
X163428572Y-157751070D01*
X163428572Y-157751070D02*
X163357143Y-157608213D01*
X163357143Y-157608213D02*
X163285715Y-157322499D01*
X163285715Y-157322499D02*
X163285715Y-156965356D01*
X163285715Y-156965356D02*
X163357143Y-156679641D01*
X163357143Y-156679641D02*
X163428572Y-156536784D01*
X163428572Y-156536784D02*
X163500001Y-156465356D01*
X163500001Y-156465356D02*
X163642858Y-156393927D01*
X165571429Y-157893927D02*
X164714286Y-157893927D01*
X165142857Y-157893927D02*
X165142857Y-156393927D01*
X165142857Y-156393927D02*
X165000000Y-156608213D01*
X165000000Y-156608213D02*
X164857143Y-156751070D01*
X164857143Y-156751070D02*
X164714286Y-156822499D01*
X166214285Y-157751070D02*
X166285714Y-157822499D01*
X166285714Y-157822499D02*
X166214285Y-157893927D01*
X166214285Y-157893927D02*
X166142857Y-157822499D01*
X166142857Y-157822499D02*
X166214285Y-157751070D01*
X166214285Y-157751070D02*
X166214285Y-157893927D01*
X167214286Y-156393927D02*
X167357143Y-156393927D01*
X167357143Y-156393927D02*
X167500000Y-156465356D01*
X167500000Y-156465356D02*
X167571429Y-156536784D01*
X167571429Y-156536784D02*
X167642857Y-156679641D01*
X167642857Y-156679641D02*
X167714286Y-156965356D01*
X167714286Y-156965356D02*
X167714286Y-157322499D01*
X167714286Y-157322499D02*
X167642857Y-157608213D01*
X167642857Y-157608213D02*
X167571429Y-157751070D01*
X167571429Y-157751070D02*
X167500000Y-157822499D01*
X167500000Y-157822499D02*
X167357143Y-157893927D01*
X167357143Y-157893927D02*
X167214286Y-157893927D01*
X167214286Y-157893927D02*
X167071429Y-157822499D01*
X167071429Y-157822499D02*
X167000000Y-157751070D01*
X167000000Y-157751070D02*
X166928571Y-157608213D01*
X166928571Y-157608213D02*
X166857143Y-157322499D01*
X166857143Y-157322499D02*
X166857143Y-156965356D01*
X166857143Y-156965356D02*
X166928571Y-156679641D01*
X166928571Y-156679641D02*
X167000000Y-156536784D01*
X167000000Y-156536784D02*
X167071429Y-156465356D01*
X167071429Y-156465356D02*
X167214286Y-156393927D01*
X168642857Y-156393927D02*
X168785714Y-156393927D01*
X168785714Y-156393927D02*
X168928571Y-156465356D01*
X168928571Y-156465356D02*
X169000000Y-156536784D01*
X169000000Y-156536784D02*
X169071428Y-156679641D01*
X169071428Y-156679641D02*
X169142857Y-156965356D01*
X169142857Y-156965356D02*
X169142857Y-157322499D01*
X169142857Y-157322499D02*
X169071428Y-157608213D01*
X169071428Y-157608213D02*
X169000000Y-157751070D01*
X169000000Y-157751070D02*
X168928571Y-157822499D01*
X168928571Y-157822499D02*
X168785714Y-157893927D01*
X168785714Y-157893927D02*
X168642857Y-157893927D01*
X168642857Y-157893927D02*
X168500000Y-157822499D01*
X168500000Y-157822499D02*
X168428571Y-157751070D01*
X168428571Y-157751070D02*
X168357142Y-157608213D01*
X168357142Y-157608213D02*
X168285714Y-157322499D01*
X168285714Y-157322499D02*
X168285714Y-156965356D01*
X168285714Y-156965356D02*
X168357142Y-156679641D01*
X168357142Y-156679641D02*
X168428571Y-156536784D01*
X168428571Y-156536784D02*
X168500000Y-156465356D01*
X168500000Y-156465356D02*
X168642857Y-156393927D01*
X170071428Y-156393927D02*
X170214285Y-156393927D01*
X170214285Y-156393927D02*
X170357142Y-156465356D01*
X170357142Y-156465356D02*
X170428571Y-156536784D01*
X170428571Y-156536784D02*
X170499999Y-156679641D01*
X170499999Y-156679641D02*
X170571428Y-156965356D01*
X170571428Y-156965356D02*
X170571428Y-157322499D01*
X170571428Y-157322499D02*
X170499999Y-157608213D01*
X170499999Y-157608213D02*
X170428571Y-157751070D01*
X170428571Y-157751070D02*
X170357142Y-157822499D01*
X170357142Y-157822499D02*
X170214285Y-157893927D01*
X170214285Y-157893927D02*
X170071428Y-157893927D01*
X170071428Y-157893927D02*
X169928571Y-157822499D01*
X169928571Y-157822499D02*
X169857142Y-157751070D01*
X169857142Y-157751070D02*
X169785713Y-157608213D01*
X169785713Y-157608213D02*
X169714285Y-157322499D01*
X169714285Y-157322499D02*
X169714285Y-156965356D01*
X169714285Y-156965356D02*
X169785713Y-156679641D01*
X169785713Y-156679641D02*
X169857142Y-156536784D01*
X169857142Y-156536784D02*
X169928571Y-156465356D01*
X169928571Y-156465356D02*
X170071428Y-156393927D01*
X171499999Y-156393927D02*
X171642856Y-156393927D01*
X171642856Y-156393927D02*
X171785713Y-156465356D01*
X171785713Y-156465356D02*
X171857142Y-156536784D01*
X171857142Y-156536784D02*
X171928570Y-156679641D01*
X171928570Y-156679641D02*
X171999999Y-156965356D01*
X171999999Y-156965356D02*
X171999999Y-157322499D01*
X171999999Y-157322499D02*
X171928570Y-157608213D01*
X171928570Y-157608213D02*
X171857142Y-157751070D01*
X171857142Y-157751070D02*
X171785713Y-157822499D01*
X171785713Y-157822499D02*
X171642856Y-157893927D01*
X171642856Y-157893927D02*
X171499999Y-157893927D01*
X171499999Y-157893927D02*
X171357142Y-157822499D01*
X171357142Y-157822499D02*
X171285713Y-157751070D01*
X171285713Y-157751070D02*
X171214284Y-157608213D01*
X171214284Y-157608213D02*
X171142856Y-157322499D01*
X171142856Y-157322499D02*
X171142856Y-156965356D01*
X171142856Y-156965356D02*
X171214284Y-156679641D01*
X171214284Y-156679641D02*
X171285713Y-156536784D01*
X171285713Y-156536784D02*
X171357142Y-156465356D01*
X171357142Y-156465356D02*
X171499999Y-156393927D01*
X173785712Y-157893927D02*
X173785712Y-156893927D01*
X173785712Y-157036784D02*
X173857141Y-156965356D01*
X173857141Y-156965356D02*
X173999998Y-156893927D01*
X173999998Y-156893927D02*
X174214284Y-156893927D01*
X174214284Y-156893927D02*
X174357141Y-156965356D01*
X174357141Y-156965356D02*
X174428570Y-157108213D01*
X174428570Y-157108213D02*
X174428570Y-157893927D01*
X174428570Y-157108213D02*
X174499998Y-156965356D01*
X174499998Y-156965356D02*
X174642855Y-156893927D01*
X174642855Y-156893927D02*
X174857141Y-156893927D01*
X174857141Y-156893927D02*
X174999998Y-156965356D01*
X174999998Y-156965356D02*
X175071427Y-157108213D01*
X175071427Y-157108213D02*
X175071427Y-157893927D01*
X175785712Y-157893927D02*
X175785712Y-156893927D01*
X175785712Y-157036784D02*
X175857141Y-156965356D01*
X175857141Y-156965356D02*
X175999998Y-156893927D01*
X175999998Y-156893927D02*
X176214284Y-156893927D01*
X176214284Y-156893927D02*
X176357141Y-156965356D01*
X176357141Y-156965356D02*
X176428570Y-157108213D01*
X176428570Y-157108213D02*
X176428570Y-157893927D01*
X176428570Y-157108213D02*
X176499998Y-156965356D01*
X176499998Y-156965356D02*
X176642855Y-156893927D01*
X176642855Y-156893927D02*
X176857141Y-156893927D01*
X176857141Y-156893927D02*
X176999998Y-156965356D01*
X176999998Y-156965356D02*
X177071427Y-157108213D01*
X177071427Y-157108213D02*
X177071427Y-157893927D01*
D12*
X69000000Y-148500000D02*
X69000000Y-159586419D01*
X270000000Y-148500000D02*
X270000000Y-159586419D01*
X69000000Y-158999999D02*
X270000000Y-158999999D01*
X69000000Y-158999999D02*
X270000000Y-158999999D01*
X69000000Y-158999999D02*
X70126504Y-158413578D01*
X69000000Y-158999999D02*
X70126504Y-159586420D01*
X270000000Y-158999999D02*
X268873496Y-159586420D01*
X270000000Y-158999999D02*
X268873496Y-158413578D01*
D10*
D11*
X281758993Y-82341224D02*
X281751266Y-81484116D01*
X281755129Y-81912670D02*
X283255068Y-81899148D01*
X283255068Y-81899148D02*
X283039504Y-81758228D01*
X283039504Y-81758228D02*
X282895365Y-81616665D01*
X282895365Y-81616665D02*
X282822651Y-81474457D01*
X281771870Y-83769737D02*
X281764144Y-82912629D01*
X281768007Y-83341183D02*
X283267946Y-83327661D01*
X283267946Y-83327661D02*
X283052381Y-83186741D01*
X283052381Y-83186741D02*
X282908242Y-83045178D01*
X282908242Y-83045178D02*
X282835529Y-82902970D01*
X283283400Y-85041877D02*
X283280824Y-84756174D01*
X283280824Y-84756174D02*
X283208111Y-84613967D01*
X283208111Y-84613967D02*
X283136041Y-84543185D01*
X283136041Y-84543185D02*
X282920476Y-84402265D01*
X282920476Y-84402265D02*
X282634130Y-84333415D01*
X282634130Y-84333415D02*
X282062724Y-84338566D01*
X282062724Y-84338566D02*
X281920517Y-84411280D01*
X281920517Y-84411280D02*
X281849735Y-84483349D01*
X281849735Y-84483349D02*
X281779597Y-84626844D01*
X281779597Y-84626844D02*
X281782173Y-84912547D01*
X281782173Y-84912547D02*
X281854886Y-85054754D01*
X281854886Y-85054754D02*
X281926956Y-85125536D01*
X281926956Y-85125536D02*
X282070451Y-85195674D01*
X282070451Y-85195674D02*
X282427579Y-85192455D01*
X282427579Y-85192455D02*
X282569787Y-85119741D01*
X282569787Y-85119741D02*
X282640568Y-85047672D01*
X282640568Y-85047672D02*
X282710706Y-84904176D01*
X282710706Y-84904176D02*
X282708131Y-84618474D01*
X282708131Y-84618474D02*
X282635417Y-84476266D01*
X282635417Y-84476266D02*
X282563348Y-84405485D01*
X282563348Y-84405485D02*
X282419853Y-84335347D01*
X281933395Y-85839792D02*
X281862613Y-85911862D01*
X281862613Y-85911862D02*
X281790543Y-85841080D01*
X281790543Y-85841080D02*
X281861325Y-85769011D01*
X281861325Y-85769011D02*
X281933395Y-85839792D01*
X281933395Y-85839792D02*
X281790543Y-85841080D01*
X282802736Y-87189154D02*
X281802777Y-87198168D01*
X283370922Y-86826874D02*
X282296318Y-86479404D01*
X282296318Y-86479404D02*
X282304688Y-87407938D01*
X283308511Y-87827477D02*
X283317526Y-88827437D01*
X283317526Y-88827437D02*
X281811792Y-88198127D01*
X281823382Y-89483789D02*
X281825957Y-89769491D01*
X281825957Y-89769491D02*
X281898671Y-89911699D01*
X281898671Y-89911699D02*
X281970740Y-89982481D01*
X281970740Y-89982481D02*
X282186305Y-90123400D01*
X282186305Y-90123400D02*
X282472651Y-90192250D01*
X282472651Y-90192250D02*
X283044057Y-90187099D01*
X283044057Y-90187099D02*
X283186264Y-90114386D01*
X283186264Y-90114386D02*
X283257046Y-90042316D01*
X283257046Y-90042316D02*
X283327184Y-89898821D01*
X283327184Y-89898821D02*
X283324608Y-89613118D01*
X283324608Y-89613118D02*
X283251895Y-89470911D01*
X283251895Y-89470911D02*
X283179825Y-89400129D01*
X283179825Y-89400129D02*
X283036330Y-89329991D01*
X283036330Y-89329991D02*
X282679202Y-89333211D01*
X282679202Y-89333211D02*
X282536994Y-89405924D01*
X282536994Y-89405924D02*
X282466213Y-89477994D01*
X282466213Y-89477994D02*
X282396075Y-89621489D01*
X282396075Y-89621489D02*
X282398650Y-89907192D01*
X282398650Y-89907192D02*
X282471364Y-90049399D01*
X282471364Y-90049399D02*
X282543433Y-90120181D01*
X282543433Y-90120181D02*
X282686928Y-90190319D01*
X283334267Y-90684503D02*
X283343281Y-91684462D01*
X283343281Y-91684462D02*
X281837547Y-91055153D01*
X281858795Y-93412200D02*
X282858755Y-93403185D01*
X282715903Y-93404473D02*
X282787973Y-93475255D01*
X282787973Y-93475255D02*
X282860686Y-93617462D01*
X282860686Y-93617462D02*
X282862618Y-93831739D01*
X282862618Y-93831739D02*
X282792480Y-93975234D01*
X282792480Y-93975234D02*
X282650273Y-94047948D01*
X282650273Y-94047948D02*
X281864590Y-94055031D01*
X282650273Y-94047948D02*
X282793768Y-94118086D01*
X282793768Y-94118086D02*
X282866481Y-94260293D01*
X282866481Y-94260293D02*
X282868413Y-94474570D01*
X282868413Y-94474570D02*
X282798275Y-94618065D01*
X282798275Y-94618065D02*
X282656068Y-94690779D01*
X282656068Y-94690779D02*
X281870385Y-94697862D01*
X281876824Y-95412118D02*
X282876784Y-95403104D01*
X282733932Y-95404392D02*
X282806002Y-95475173D01*
X282806002Y-95475173D02*
X282878715Y-95617381D01*
X282878715Y-95617381D02*
X282880647Y-95831658D01*
X282880647Y-95831658D02*
X282810509Y-95975153D01*
X282810509Y-95975153D02*
X282668302Y-96047867D01*
X282668302Y-96047867D02*
X281882619Y-96054949D01*
X282668302Y-96047867D02*
X282811797Y-96118004D01*
X282811797Y-96118004D02*
X282884510Y-96260212D01*
X282884510Y-96260212D02*
X282886442Y-96474489D01*
X282886442Y-96474489D02*
X282816304Y-96617984D01*
X282816304Y-96617984D02*
X282674097Y-96690698D01*
X282674097Y-96690698D02*
X281888414Y-96697780D01*
D12*
X269499980Y-30995493D02*
X280775533Y-30893846D01*
X270549980Y-147470493D02*
X281825533Y-147368846D01*
X280189136Y-30899132D02*
X281239136Y-147374132D01*
X280189136Y-30899132D02*
X281239136Y-147374132D01*
X280189136Y-30899132D02*
X280785688Y-32020304D01*
X280189136Y-30899132D02*
X279612894Y-32030876D01*
X281239136Y-147374132D02*
X280642584Y-146252960D01*
X281239136Y-147374132D02*
X281815378Y-146242388D01*
D13*
X192625000Y-137025000D03*
X190125000Y-137025000D03*
D14*
X187625000Y-137025000D03*
D15*
X194875000Y-129525000D03*
X185375000Y-129525000D03*
D13*
X174050000Y-136825000D03*
X171550000Y-136825000D03*
D14*
X169050000Y-136825000D03*
D15*
X176300000Y-129325000D03*
X166800000Y-129325000D03*
D13*
X155475000Y-136825000D03*
X152975000Y-136825000D03*
D14*
X150475000Y-136825000D03*
D15*
X157725000Y-129325000D03*
X148225000Y-129325000D03*
D13*
X192625000Y-114595000D03*
X190125000Y-114595000D03*
D14*
X187625000Y-114595000D03*
D15*
X194875000Y-107095000D03*
X185375000Y-107095000D03*
D13*
X174050000Y-114595000D03*
X171550000Y-114595000D03*
D14*
X169050000Y-114595000D03*
D15*
X176300000Y-107095000D03*
X166800000Y-107095000D03*
D13*
X155475000Y-114295000D03*
X152975000Y-114295000D03*
D14*
X150475000Y-114295000D03*
D15*
X157725000Y-106795000D03*
X148225000Y-106795000D03*
D16*
X238625000Y-46705000D03*
X222395000Y-46705000D03*
X238625000Y-34005000D03*
X222395000Y-34005000D03*
X238625000Y-40355000D03*
X222395000Y-40355000D03*
X189150000Y-46094426D03*
X172920000Y-46094426D03*
X189150000Y-33394426D03*
X172920000Y-33394426D03*
X189150000Y-39744426D03*
X172920000Y-39744426D03*
D17*
X246267000Y-110988621D03*
D18*
X246267000Y-112988621D03*
D19*
X82075000Y-113375000D03*
D16*
X138625000Y-46705000D03*
X122395000Y-46705000D03*
X138625000Y-34005000D03*
X122395000Y-34005000D03*
X138625000Y-40355000D03*
X122395000Y-40355000D03*
D20*
X251327000Y-112221000D03*
D21*
X251327000Y-114761000D03*
X251327000Y-117301000D03*
D22*
X264575000Y-94925000D03*
D23*
X264575000Y-93655000D03*
X264575000Y-92385000D03*
D17*
X238398241Y-106864240D03*
D18*
X238398241Y-104364240D03*
D17*
X238632999Y-96937000D03*
D18*
X238632999Y-99437000D03*
D17*
X260485759Y-124267360D03*
D18*
X260485759Y-126767360D03*
D16*
X89370000Y-46094426D03*
X73140000Y-46094426D03*
X89370000Y-33394426D03*
X73140000Y-33394426D03*
X89370000Y-39744426D03*
X73140000Y-39744426D03*
D24*
X92625000Y-110075000D03*
D25*
X92625000Y-112615000D03*
X92625000Y-115155000D03*
D19*
X82075000Y-99075000D03*
D16*
X163625000Y-46705000D03*
X147395000Y-46705000D03*
X163625000Y-34005000D03*
X147395000Y-34005000D03*
X163625000Y-40355000D03*
X147395000Y-40355000D03*
D24*
X87975000Y-110075000D03*
D25*
X87975000Y-112615000D03*
X87975000Y-115155000D03*
D19*
X82075000Y-120525000D03*
D26*
X267095000Y-109975000D03*
X267095000Y-118975000D03*
D27*
X266095000Y-114475000D03*
D28*
X260095000Y-114475000D03*
D24*
X92625000Y-105025000D03*
X87975000Y-97825000D03*
D25*
X87975000Y-100365000D03*
X87975000Y-102905000D03*
X87975000Y-105445000D03*
D29*
X264060000Y-142155000D03*
D30*
X264060000Y-139655000D03*
X264060000Y-137655000D03*
X264060000Y-135155000D03*
D31*
X266770000Y-145225000D03*
X266770000Y-132085000D03*
D16*
X113625000Y-46705000D03*
X97395000Y-46705000D03*
X113625000Y-34005000D03*
X97395000Y-34005000D03*
X113625000Y-40355000D03*
X97395000Y-40355000D03*
D19*
X82075000Y-106225000D03*
D17*
X258406241Y-88531000D03*
D18*
X256406241Y-88531000D03*
D17*
X258077000Y-103487759D03*
D18*
X256077000Y-103487759D03*
D16*
X263625000Y-46705000D03*
X247395000Y-46705000D03*
X263625000Y-34005000D03*
X247395000Y-34005000D03*
X263625000Y-40355000D03*
X247395000Y-40355000D03*
D17*
X237553399Y-128279000D03*
D18*
X240053399Y-128279000D03*
D24*
X92625000Y-97825000D03*
D25*
X92625000Y-100365000D03*
D16*
X213635000Y-46425000D03*
X197405000Y-46425000D03*
X213635000Y-33725000D03*
X197405000Y-33725000D03*
X213635000Y-40075000D03*
X197405000Y-40075000D03*
D32*
X213100000Y-100400000D03*
X211800000Y-98800000D03*
X229400000Y-100600000D03*
X216700000Y-98100000D03*
X220800000Y-98800000D03*
X225300000Y-98000000D03*
X225400000Y-90175500D03*
X225900000Y-87900000D03*
X100700000Y-76600000D03*
X99100000Y-76600000D03*
X94600000Y-74600000D03*
X94700000Y-71800000D03*
X92586342Y-72798305D03*
X91843878Y-72055841D03*
X210100000Y-96925000D03*
X210100000Y-95875000D03*
X122900000Y-74925000D03*
X122900000Y-73875000D03*
X174900000Y-84925000D03*
X174900000Y-83875000D03*
X188271232Y-75271232D03*
X187528768Y-74528768D03*
X208575000Y-85182089D03*
X209625000Y-85182089D03*
X210800000Y-91000000D03*
X213900000Y-91334315D03*
X211500000Y-89300000D03*
X228400000Y-93200000D03*
X225400500Y-92142158D03*
X214300000Y-63700000D03*
X205000000Y-67800000D03*
X209500000Y-67800000D03*
X206900000Y-70200000D03*
X116100000Y-77700000D03*
X115100000Y-77700000D03*
X120600000Y-76200000D03*
X120300000Y-72300000D03*
X115300000Y-68300000D03*
X105100000Y-67700000D03*
X110500000Y-66500000D03*
X114700000Y-63200000D03*
X104600000Y-76200000D03*
X118500000Y-56800000D03*
X233900000Y-94100000D03*
X233000000Y-83000000D03*
X236100000Y-87100000D03*
X236100000Y-85500000D03*
X236100000Y-86300000D03*
X238400000Y-91900000D03*
X238400000Y-90300000D03*
X238400000Y-91100000D03*
X246400000Y-67300000D03*
X246500000Y-63224500D03*
X244200000Y-63500000D03*
X249000000Y-69700000D03*
X249900000Y-71400000D03*
X257800000Y-72500000D03*
X213300000Y-55300000D03*
X163600000Y-55300000D03*
X114400000Y-55655000D03*
X163900000Y-62275500D03*
X154400000Y-67400000D03*
X158800000Y-67400000D03*
X104524500Y-64900000D03*
X115400000Y-64400000D03*
X122500000Y-64300000D03*
X150600000Y-63824500D03*
X160000000Y-64200000D03*
X182700000Y-64100000D03*
X187400000Y-64100000D03*
X204100000Y-64600000D03*
X211000000Y-65200000D03*
X228500000Y-83000000D03*
X149600000Y-59975000D03*
X194000000Y-78300000D03*
X189700000Y-76500000D03*
X189600000Y-73000000D03*
X213700000Y-74800000D03*
X213800000Y-77800000D03*
X206400000Y-79600000D03*
X209500000Y-79700000D03*
X200100000Y-60295000D03*
X100200000Y-60525000D03*
X214100000Y-75775000D03*
X214100000Y-76825000D03*
X220771232Y-94271232D03*
X220028768Y-93528768D03*
X254065000Y-58200000D03*
X256700000Y-66050000D03*
X254200000Y-66300000D03*
X215500000Y-59000000D03*
X161300000Y-56800000D03*
X258600000Y-68100000D03*
X209900000Y-56800000D03*
X111400000Y-57000000D03*
X251300000Y-62500000D03*
X204200000Y-63000000D03*
X153800000Y-62400000D03*
X199000000Y-78300000D03*
X104300000Y-63100000D03*
D33*
X91843878Y-72480106D02*
X91843878Y-72055841D01*
X91175000Y-73148984D02*
X91843878Y-72480106D01*
X91175000Y-74993200D02*
X91175000Y-73148984D01*
X121993200Y-79725000D02*
X95906800Y-79725000D01*
X124193200Y-77525000D02*
X121993200Y-79725000D01*
X157506800Y-77525000D02*
X124193200Y-77525000D01*
X166606800Y-86625000D02*
X157506800Y-77525000D01*
X175706800Y-86625000D02*
X166606800Y-86625000D01*
X185306801Y-96225001D02*
X175706800Y-86625000D01*
X209800001Y-96625001D02*
X207406801Y-96625001D01*
X210100000Y-96925000D02*
X209800001Y-96625001D01*
X92162077Y-72798305D02*
X92586342Y-72798305D01*
X91625000Y-73335382D02*
X92162077Y-72798305D01*
X91625000Y-74806800D02*
X91625000Y-73335382D01*
X121806800Y-79275000D02*
X96093200Y-79275000D01*
X124006800Y-77075000D02*
X121806800Y-79275000D01*
X95906800Y-79725000D02*
X91175000Y-74993200D01*
X157693200Y-77075000D02*
X124006800Y-77075000D01*
X166793200Y-86175000D02*
X157693200Y-77075000D01*
X175893200Y-86175000D02*
X166793200Y-86175000D01*
X185493199Y-95774999D02*
X175893200Y-86175000D01*
X210100000Y-95875000D02*
X209800001Y-96174999D01*
X96093200Y-79275000D02*
X91625000Y-74806800D01*
X209800001Y-96174999D02*
X207593199Y-96174999D01*
X123199999Y-74625001D02*
X122900000Y-74925000D01*
X159406801Y-74625001D02*
X123199999Y-74625001D01*
X169406801Y-84625001D02*
X159406801Y-74625001D01*
X174900000Y-84925000D02*
X174600001Y-84625001D01*
X123199999Y-74174999D02*
X122900000Y-73875000D01*
X159593199Y-74174999D02*
X123199999Y-74174999D01*
X169593199Y-84174999D02*
X159593199Y-74174999D01*
X174600001Y-84174999D02*
X169593199Y-84174999D01*
X174600001Y-84625001D02*
X169406801Y-84625001D01*
X174900000Y-83875000D02*
X174600001Y-84174999D01*
X187528768Y-74953033D02*
X187528768Y-74528768D01*
X186774999Y-75706802D02*
X187528768Y-74953033D01*
X208575000Y-85182089D02*
X208874999Y-84882090D01*
X187225001Y-75893198D02*
X187846967Y-75271232D01*
X186774999Y-84482090D02*
X186774999Y-75706802D01*
X187846967Y-75271232D02*
X188271232Y-75271232D01*
X187225001Y-84482090D02*
X187225001Y-75893198D01*
X209625000Y-85182089D02*
X209325001Y-84882090D01*
D34*
X105000000Y-62400000D02*
X104300000Y-63100000D01*
X153800000Y-62400000D02*
X105000000Y-62400000D01*
X115300000Y-64400000D02*
X115400000Y-64400000D01*
X114800000Y-64900000D02*
X115300000Y-64400000D01*
X104524500Y-64900000D02*
X114800000Y-64900000D01*
X103800000Y-63600000D02*
X104300000Y-63100000D01*
X104600000Y-76200000D02*
X103800000Y-75400000D01*
X103800000Y-75400000D02*
X103800000Y-63600000D01*
X161300000Y-56800000D02*
X118500000Y-56800000D01*
X118500000Y-56800000D02*
X111600000Y-56800000D01*
X115500000Y-64300000D02*
X122500000Y-64300000D01*
X115400000Y-64400000D02*
X115500000Y-64300000D01*
X242500000Y-65200000D02*
X244200000Y-63500000D01*
X247000000Y-69700000D02*
X249000000Y-69700000D01*
X242500000Y-65200000D02*
X247000000Y-69700000D01*
X211000000Y-65200000D02*
X242500000Y-65200000D01*
X150975500Y-64200000D02*
X150600000Y-63824500D01*
X160000000Y-64200000D02*
X150975500Y-64200000D01*
X187400000Y-64100000D02*
X182700000Y-64100000D01*
X204700000Y-65200000D02*
X204100000Y-64600000D01*
X211000000Y-65200000D02*
X204700000Y-65200000D01*
X208500000Y-80500000D02*
X208500000Y-67700000D01*
X228500000Y-83000000D02*
X230600000Y-80900000D01*
X208500000Y-67700000D02*
X211000000Y-65200000D01*
D33*
X214399999Y-76525001D02*
X214100000Y-76825000D01*
X214399999Y-76074999D02*
X214100000Y-75775000D01*
X215306801Y-76525001D02*
X214399999Y-76525001D01*
X215493199Y-76074999D02*
X214399999Y-76074999D01*
X217125000Y-77706800D02*
X215493199Y-76074999D01*
X217125000Y-85193200D02*
X217125000Y-77706800D01*
X233493200Y-91325000D02*
X239225000Y-85593200D01*
X223293199Y-91325000D02*
X233493200Y-91325000D01*
X220771232Y-93846967D02*
X223293199Y-91325000D01*
X220771232Y-94271232D02*
X220771232Y-93846967D01*
X216675000Y-77893200D02*
X215306801Y-76525001D01*
X216675000Y-85006800D02*
X216675000Y-77893200D01*
X233306800Y-90875000D02*
X238775000Y-85406800D01*
X220028768Y-93528768D02*
X220453033Y-93528768D01*
X220453033Y-93528768D02*
X223106801Y-90875000D01*
X223106801Y-90875000D02*
X233306800Y-90875000D01*
D34*
X254450000Y-66050000D02*
X256700000Y-66050000D01*
X254200000Y-66300000D02*
X254450000Y-66050000D01*
X111600000Y-56800000D02*
X111400000Y-57000000D01*
X210200000Y-56500000D02*
X209900000Y-56800000D01*
X258600000Y-68100000D02*
X258600000Y-66924695D01*
X264575000Y-74075000D02*
X264575000Y-92385000D01*
X217800000Y-56500000D02*
X210200000Y-56500000D01*
X209900000Y-56800000D02*
X161300000Y-56800000D01*
X258600000Y-66924695D02*
X258600000Y-58000000D01*
X257100000Y-56500000D02*
X251400000Y-56500000D01*
X215500000Y-58800000D02*
X215500000Y-59000000D01*
X217800000Y-56500000D02*
X215500000Y-58800000D01*
X258600000Y-58000000D02*
X257100000Y-56500000D01*
X251400000Y-56500000D02*
X217800000Y-56500000D01*
X258600000Y-68100000D02*
X264575000Y-74075000D01*
X199800000Y-67400000D02*
X199800000Y-67500000D01*
X204200000Y-63000000D02*
X154400000Y-63000000D01*
X251300000Y-100400000D02*
X254387759Y-103487759D01*
X199800000Y-77500000D02*
X199000000Y-78300000D01*
X199800000Y-67500000D02*
X199800000Y-77500000D01*
X204200000Y-63000000D02*
X199800000Y-67400000D01*
X251300000Y-62500000D02*
X251300000Y-100400000D01*
X154400000Y-63000000D02*
X153800000Y-62400000D01*
X254387759Y-103487759D02*
X256077000Y-103487759D01*
X204700000Y-62500000D02*
X204200000Y-63000000D01*
X251300000Y-62500000D02*
X204700000Y-62500000D01*
M02*
